M48
;GenerationSoftware,Autodesk,EAGLE,9.6.1*%
;CreationDate,2020-07-02T20:51:14Z*%
FMAT,2
ICI,OFF
METRIC,TZ,000.000
T4C1.000
T3C1.397
T2C2.500
T1C3.969
%
G90
M71
T1
X-6350Y27940
X31750Y27940
X31750Y1270
X-6350Y1270
T2
X22860Y15240
X2540Y15240
T3
X22860Y25400
X17780Y25400
X2540Y25400
X12700Y25400
X7620Y25400
T4
X2540Y2540
X5080Y2540
X7620Y2540
X10160Y2540
X12700Y2540
X15240Y2540
X17780Y2540
X20320Y2540
X22860Y2540
M30