G04 EAGLE Gerber RS-274X export*
G75*
%MOMM*%
%FSLAX34Y34*%
%LPD*%
%INBoard Outline*%
%IPPOS*%
%AMOC8*
5,1,8,0,0,1.08239X$1,22.5*%
G01*
%ADD10C,0.000000*%


D10*
X-76200Y25400D02*
X2362000Y25400D01*
X2362000Y1431800D01*
X-76200Y1431800D01*
X-76200Y25400D01*
X1736090Y787400D02*
X1736095Y787805D01*
X1736110Y788210D01*
X1736135Y788615D01*
X1736170Y789018D01*
X1736214Y789421D01*
X1736269Y789823D01*
X1736333Y790223D01*
X1736407Y790621D01*
X1736491Y791017D01*
X1736585Y791412D01*
X1736688Y791803D01*
X1736801Y792193D01*
X1736923Y792579D01*
X1737055Y792962D01*
X1737196Y793342D01*
X1737347Y793718D01*
X1737506Y794091D01*
X1737675Y794459D01*
X1737853Y794823D01*
X1738039Y795183D01*
X1738235Y795538D01*
X1738439Y795888D01*
X1738651Y796233D01*
X1738872Y796572D01*
X1739102Y796907D01*
X1739339Y797235D01*
X1739584Y797557D01*
X1739838Y797874D01*
X1740098Y798184D01*
X1740367Y798487D01*
X1740643Y798784D01*
X1740926Y799074D01*
X1741216Y799357D01*
X1741513Y799633D01*
X1741816Y799902D01*
X1742126Y800162D01*
X1742443Y800416D01*
X1742765Y800661D01*
X1743093Y800898D01*
X1743428Y801128D01*
X1743767Y801349D01*
X1744112Y801561D01*
X1744462Y801765D01*
X1744817Y801961D01*
X1745177Y802147D01*
X1745541Y802325D01*
X1745909Y802494D01*
X1746282Y802653D01*
X1746658Y802804D01*
X1747038Y802945D01*
X1747421Y803077D01*
X1747807Y803199D01*
X1748197Y803312D01*
X1748588Y803415D01*
X1748983Y803509D01*
X1749379Y803593D01*
X1749777Y803667D01*
X1750177Y803731D01*
X1750579Y803786D01*
X1750982Y803830D01*
X1751385Y803865D01*
X1751790Y803890D01*
X1752195Y803905D01*
X1752600Y803910D01*
X1753005Y803905D01*
X1753410Y803890D01*
X1753815Y803865D01*
X1754218Y803830D01*
X1754621Y803786D01*
X1755023Y803731D01*
X1755423Y803667D01*
X1755821Y803593D01*
X1756217Y803509D01*
X1756612Y803415D01*
X1757003Y803312D01*
X1757393Y803199D01*
X1757779Y803077D01*
X1758162Y802945D01*
X1758542Y802804D01*
X1758918Y802653D01*
X1759291Y802494D01*
X1759659Y802325D01*
X1760023Y802147D01*
X1760383Y801961D01*
X1760738Y801765D01*
X1761088Y801561D01*
X1761433Y801349D01*
X1761772Y801128D01*
X1762107Y800898D01*
X1762435Y800661D01*
X1762757Y800416D01*
X1763074Y800162D01*
X1763384Y799902D01*
X1763687Y799633D01*
X1763984Y799357D01*
X1764274Y799074D01*
X1764557Y798784D01*
X1764833Y798487D01*
X1765102Y798184D01*
X1765362Y797874D01*
X1765616Y797557D01*
X1765861Y797235D01*
X1766098Y796907D01*
X1766328Y796572D01*
X1766549Y796233D01*
X1766761Y795888D01*
X1766965Y795538D01*
X1767161Y795183D01*
X1767347Y794823D01*
X1767525Y794459D01*
X1767694Y794091D01*
X1767853Y793718D01*
X1768004Y793342D01*
X1768145Y792962D01*
X1768277Y792579D01*
X1768399Y792193D01*
X1768512Y791803D01*
X1768615Y791412D01*
X1768709Y791017D01*
X1768793Y790621D01*
X1768867Y790223D01*
X1768931Y789823D01*
X1768986Y789421D01*
X1769030Y789018D01*
X1769065Y788615D01*
X1769090Y788210D01*
X1769105Y787805D01*
X1769110Y787400D01*
X1769105Y786995D01*
X1769090Y786590D01*
X1769065Y786185D01*
X1769030Y785782D01*
X1768986Y785379D01*
X1768931Y784977D01*
X1768867Y784577D01*
X1768793Y784179D01*
X1768709Y783783D01*
X1768615Y783388D01*
X1768512Y782997D01*
X1768399Y782607D01*
X1768277Y782221D01*
X1768145Y781838D01*
X1768004Y781458D01*
X1767853Y781082D01*
X1767694Y780709D01*
X1767525Y780341D01*
X1767347Y779977D01*
X1767161Y779617D01*
X1766965Y779262D01*
X1766761Y778912D01*
X1766549Y778567D01*
X1766328Y778228D01*
X1766098Y777893D01*
X1765861Y777565D01*
X1765616Y777243D01*
X1765362Y776926D01*
X1765102Y776616D01*
X1764833Y776313D01*
X1764557Y776016D01*
X1764274Y775726D01*
X1763984Y775443D01*
X1763687Y775167D01*
X1763384Y774898D01*
X1763074Y774638D01*
X1762757Y774384D01*
X1762435Y774139D01*
X1762107Y773902D01*
X1761772Y773672D01*
X1761433Y773451D01*
X1761088Y773239D01*
X1760738Y773035D01*
X1760383Y772839D01*
X1760023Y772653D01*
X1759659Y772475D01*
X1759291Y772306D01*
X1758918Y772147D01*
X1758542Y771996D01*
X1758162Y771855D01*
X1757779Y771723D01*
X1757393Y771601D01*
X1757003Y771488D01*
X1756612Y771385D01*
X1756217Y771291D01*
X1755821Y771207D01*
X1755423Y771133D01*
X1755023Y771069D01*
X1754621Y771014D01*
X1754218Y770970D01*
X1753815Y770935D01*
X1753410Y770910D01*
X1753005Y770895D01*
X1752600Y770890D01*
X1752195Y770895D01*
X1751790Y770910D01*
X1751385Y770935D01*
X1750982Y770970D01*
X1750579Y771014D01*
X1750177Y771069D01*
X1749777Y771133D01*
X1749379Y771207D01*
X1748983Y771291D01*
X1748588Y771385D01*
X1748197Y771488D01*
X1747807Y771601D01*
X1747421Y771723D01*
X1747038Y771855D01*
X1746658Y771996D01*
X1746282Y772147D01*
X1745909Y772306D01*
X1745541Y772475D01*
X1745177Y772653D01*
X1744817Y772839D01*
X1744462Y773035D01*
X1744112Y773239D01*
X1743767Y773451D01*
X1743428Y773672D01*
X1743093Y773902D01*
X1742765Y774139D01*
X1742443Y774384D01*
X1742126Y774638D01*
X1741816Y774898D01*
X1741513Y775167D01*
X1741216Y775443D01*
X1740926Y775726D01*
X1740643Y776016D01*
X1740367Y776313D01*
X1740098Y776616D01*
X1739838Y776926D01*
X1739584Y777243D01*
X1739339Y777565D01*
X1739102Y777893D01*
X1738872Y778228D01*
X1738651Y778567D01*
X1738439Y778912D01*
X1738235Y779262D01*
X1738039Y779617D01*
X1737853Y779977D01*
X1737675Y780341D01*
X1737506Y780709D01*
X1737347Y781082D01*
X1737196Y781458D01*
X1737055Y781838D01*
X1736923Y782221D01*
X1736801Y782607D01*
X1736688Y782997D01*
X1736585Y783388D01*
X1736491Y783783D01*
X1736407Y784179D01*
X1736333Y784577D01*
X1736269Y784977D01*
X1736214Y785379D01*
X1736170Y785782D01*
X1736135Y786185D01*
X1736110Y786590D01*
X1736095Y786995D01*
X1736090Y787400D01*
X1736090Y203200D02*
X1736095Y203605D01*
X1736110Y204010D01*
X1736135Y204415D01*
X1736170Y204818D01*
X1736214Y205221D01*
X1736269Y205623D01*
X1736333Y206023D01*
X1736407Y206421D01*
X1736491Y206817D01*
X1736585Y207212D01*
X1736688Y207603D01*
X1736801Y207993D01*
X1736923Y208379D01*
X1737055Y208762D01*
X1737196Y209142D01*
X1737347Y209518D01*
X1737506Y209891D01*
X1737675Y210259D01*
X1737853Y210623D01*
X1738039Y210983D01*
X1738235Y211338D01*
X1738439Y211688D01*
X1738651Y212033D01*
X1738872Y212372D01*
X1739102Y212707D01*
X1739339Y213035D01*
X1739584Y213357D01*
X1739838Y213674D01*
X1740098Y213984D01*
X1740367Y214287D01*
X1740643Y214584D01*
X1740926Y214874D01*
X1741216Y215157D01*
X1741513Y215433D01*
X1741816Y215702D01*
X1742126Y215962D01*
X1742443Y216216D01*
X1742765Y216461D01*
X1743093Y216698D01*
X1743428Y216928D01*
X1743767Y217149D01*
X1744112Y217361D01*
X1744462Y217565D01*
X1744817Y217761D01*
X1745177Y217947D01*
X1745541Y218125D01*
X1745909Y218294D01*
X1746282Y218453D01*
X1746658Y218604D01*
X1747038Y218745D01*
X1747421Y218877D01*
X1747807Y218999D01*
X1748197Y219112D01*
X1748588Y219215D01*
X1748983Y219309D01*
X1749379Y219393D01*
X1749777Y219467D01*
X1750177Y219531D01*
X1750579Y219586D01*
X1750982Y219630D01*
X1751385Y219665D01*
X1751790Y219690D01*
X1752195Y219705D01*
X1752600Y219710D01*
X1753005Y219705D01*
X1753410Y219690D01*
X1753815Y219665D01*
X1754218Y219630D01*
X1754621Y219586D01*
X1755023Y219531D01*
X1755423Y219467D01*
X1755821Y219393D01*
X1756217Y219309D01*
X1756612Y219215D01*
X1757003Y219112D01*
X1757393Y218999D01*
X1757779Y218877D01*
X1758162Y218745D01*
X1758542Y218604D01*
X1758918Y218453D01*
X1759291Y218294D01*
X1759659Y218125D01*
X1760023Y217947D01*
X1760383Y217761D01*
X1760738Y217565D01*
X1761088Y217361D01*
X1761433Y217149D01*
X1761772Y216928D01*
X1762107Y216698D01*
X1762435Y216461D01*
X1762757Y216216D01*
X1763074Y215962D01*
X1763384Y215702D01*
X1763687Y215433D01*
X1763984Y215157D01*
X1764274Y214874D01*
X1764557Y214584D01*
X1764833Y214287D01*
X1765102Y213984D01*
X1765362Y213674D01*
X1765616Y213357D01*
X1765861Y213035D01*
X1766098Y212707D01*
X1766328Y212372D01*
X1766549Y212033D01*
X1766761Y211688D01*
X1766965Y211338D01*
X1767161Y210983D01*
X1767347Y210623D01*
X1767525Y210259D01*
X1767694Y209891D01*
X1767853Y209518D01*
X1768004Y209142D01*
X1768145Y208762D01*
X1768277Y208379D01*
X1768399Y207993D01*
X1768512Y207603D01*
X1768615Y207212D01*
X1768709Y206817D01*
X1768793Y206421D01*
X1768867Y206023D01*
X1768931Y205623D01*
X1768986Y205221D01*
X1769030Y204818D01*
X1769065Y204415D01*
X1769090Y204010D01*
X1769105Y203605D01*
X1769110Y203200D01*
X1769105Y202795D01*
X1769090Y202390D01*
X1769065Y201985D01*
X1769030Y201582D01*
X1768986Y201179D01*
X1768931Y200777D01*
X1768867Y200377D01*
X1768793Y199979D01*
X1768709Y199583D01*
X1768615Y199188D01*
X1768512Y198797D01*
X1768399Y198407D01*
X1768277Y198021D01*
X1768145Y197638D01*
X1768004Y197258D01*
X1767853Y196882D01*
X1767694Y196509D01*
X1767525Y196141D01*
X1767347Y195777D01*
X1767161Y195417D01*
X1766965Y195062D01*
X1766761Y194712D01*
X1766549Y194367D01*
X1766328Y194028D01*
X1766098Y193693D01*
X1765861Y193365D01*
X1765616Y193043D01*
X1765362Y192726D01*
X1765102Y192416D01*
X1764833Y192113D01*
X1764557Y191816D01*
X1764274Y191526D01*
X1763984Y191243D01*
X1763687Y190967D01*
X1763384Y190698D01*
X1763074Y190438D01*
X1762757Y190184D01*
X1762435Y189939D01*
X1762107Y189702D01*
X1761772Y189472D01*
X1761433Y189251D01*
X1761088Y189039D01*
X1760738Y188835D01*
X1760383Y188639D01*
X1760023Y188453D01*
X1759659Y188275D01*
X1759291Y188106D01*
X1758918Y187947D01*
X1758542Y187796D01*
X1758162Y187655D01*
X1757779Y187523D01*
X1757393Y187401D01*
X1757003Y187288D01*
X1756612Y187185D01*
X1756217Y187091D01*
X1755821Y187007D01*
X1755423Y186933D01*
X1755023Y186869D01*
X1754621Y186814D01*
X1754218Y186770D01*
X1753815Y186735D01*
X1753410Y186710D01*
X1753005Y186695D01*
X1752600Y186690D01*
X1752195Y186695D01*
X1751790Y186710D01*
X1751385Y186735D01*
X1750982Y186770D01*
X1750579Y186814D01*
X1750177Y186869D01*
X1749777Y186933D01*
X1749379Y187007D01*
X1748983Y187091D01*
X1748588Y187185D01*
X1748197Y187288D01*
X1747807Y187401D01*
X1747421Y187523D01*
X1747038Y187655D01*
X1746658Y187796D01*
X1746282Y187947D01*
X1745909Y188106D01*
X1745541Y188275D01*
X1745177Y188453D01*
X1744817Y188639D01*
X1744462Y188835D01*
X1744112Y189039D01*
X1743767Y189251D01*
X1743428Y189472D01*
X1743093Y189702D01*
X1742765Y189939D01*
X1742443Y190184D01*
X1742126Y190438D01*
X1741816Y190698D01*
X1741513Y190967D01*
X1741216Y191243D01*
X1740926Y191526D01*
X1740643Y191816D01*
X1740367Y192113D01*
X1740098Y192416D01*
X1739838Y192726D01*
X1739584Y193043D01*
X1739339Y193365D01*
X1739102Y193693D01*
X1738872Y194028D01*
X1738651Y194367D01*
X1738439Y194712D01*
X1738235Y195062D01*
X1738039Y195417D01*
X1737853Y195777D01*
X1737675Y196141D01*
X1737506Y196509D01*
X1737347Y196882D01*
X1737196Y197258D01*
X1737055Y197638D01*
X1736923Y198021D01*
X1736801Y198407D01*
X1736688Y198797D01*
X1736585Y199188D01*
X1736491Y199583D01*
X1736407Y199979D01*
X1736333Y200377D01*
X1736269Y200777D01*
X1736214Y201179D01*
X1736170Y201582D01*
X1736135Y201985D01*
X1736110Y202390D01*
X1736095Y202795D01*
X1736090Y203200D01*
X2269490Y787400D02*
X2269495Y787805D01*
X2269510Y788210D01*
X2269535Y788615D01*
X2269570Y789018D01*
X2269614Y789421D01*
X2269669Y789823D01*
X2269733Y790223D01*
X2269807Y790621D01*
X2269891Y791017D01*
X2269985Y791412D01*
X2270088Y791803D01*
X2270201Y792193D01*
X2270323Y792579D01*
X2270455Y792962D01*
X2270596Y793342D01*
X2270747Y793718D01*
X2270906Y794091D01*
X2271075Y794459D01*
X2271253Y794823D01*
X2271439Y795183D01*
X2271635Y795538D01*
X2271839Y795888D01*
X2272051Y796233D01*
X2272272Y796572D01*
X2272502Y796907D01*
X2272739Y797235D01*
X2272984Y797557D01*
X2273238Y797874D01*
X2273498Y798184D01*
X2273767Y798487D01*
X2274043Y798784D01*
X2274326Y799074D01*
X2274616Y799357D01*
X2274913Y799633D01*
X2275216Y799902D01*
X2275526Y800162D01*
X2275843Y800416D01*
X2276165Y800661D01*
X2276493Y800898D01*
X2276828Y801128D01*
X2277167Y801349D01*
X2277512Y801561D01*
X2277862Y801765D01*
X2278217Y801961D01*
X2278577Y802147D01*
X2278941Y802325D01*
X2279309Y802494D01*
X2279682Y802653D01*
X2280058Y802804D01*
X2280438Y802945D01*
X2280821Y803077D01*
X2281207Y803199D01*
X2281597Y803312D01*
X2281988Y803415D01*
X2282383Y803509D01*
X2282779Y803593D01*
X2283177Y803667D01*
X2283577Y803731D01*
X2283979Y803786D01*
X2284382Y803830D01*
X2284785Y803865D01*
X2285190Y803890D01*
X2285595Y803905D01*
X2286000Y803910D01*
X2286405Y803905D01*
X2286810Y803890D01*
X2287215Y803865D01*
X2287618Y803830D01*
X2288021Y803786D01*
X2288423Y803731D01*
X2288823Y803667D01*
X2289221Y803593D01*
X2289617Y803509D01*
X2290012Y803415D01*
X2290403Y803312D01*
X2290793Y803199D01*
X2291179Y803077D01*
X2291562Y802945D01*
X2291942Y802804D01*
X2292318Y802653D01*
X2292691Y802494D01*
X2293059Y802325D01*
X2293423Y802147D01*
X2293783Y801961D01*
X2294138Y801765D01*
X2294488Y801561D01*
X2294833Y801349D01*
X2295172Y801128D01*
X2295507Y800898D01*
X2295835Y800661D01*
X2296157Y800416D01*
X2296474Y800162D01*
X2296784Y799902D01*
X2297087Y799633D01*
X2297384Y799357D01*
X2297674Y799074D01*
X2297957Y798784D01*
X2298233Y798487D01*
X2298502Y798184D01*
X2298762Y797874D01*
X2299016Y797557D01*
X2299261Y797235D01*
X2299498Y796907D01*
X2299728Y796572D01*
X2299949Y796233D01*
X2300161Y795888D01*
X2300365Y795538D01*
X2300561Y795183D01*
X2300747Y794823D01*
X2300925Y794459D01*
X2301094Y794091D01*
X2301253Y793718D01*
X2301404Y793342D01*
X2301545Y792962D01*
X2301677Y792579D01*
X2301799Y792193D01*
X2301912Y791803D01*
X2302015Y791412D01*
X2302109Y791017D01*
X2302193Y790621D01*
X2302267Y790223D01*
X2302331Y789823D01*
X2302386Y789421D01*
X2302430Y789018D01*
X2302465Y788615D01*
X2302490Y788210D01*
X2302505Y787805D01*
X2302510Y787400D01*
X2302505Y786995D01*
X2302490Y786590D01*
X2302465Y786185D01*
X2302430Y785782D01*
X2302386Y785379D01*
X2302331Y784977D01*
X2302267Y784577D01*
X2302193Y784179D01*
X2302109Y783783D01*
X2302015Y783388D01*
X2301912Y782997D01*
X2301799Y782607D01*
X2301677Y782221D01*
X2301545Y781838D01*
X2301404Y781458D01*
X2301253Y781082D01*
X2301094Y780709D01*
X2300925Y780341D01*
X2300747Y779977D01*
X2300561Y779617D01*
X2300365Y779262D01*
X2300161Y778912D01*
X2299949Y778567D01*
X2299728Y778228D01*
X2299498Y777893D01*
X2299261Y777565D01*
X2299016Y777243D01*
X2298762Y776926D01*
X2298502Y776616D01*
X2298233Y776313D01*
X2297957Y776016D01*
X2297674Y775726D01*
X2297384Y775443D01*
X2297087Y775167D01*
X2296784Y774898D01*
X2296474Y774638D01*
X2296157Y774384D01*
X2295835Y774139D01*
X2295507Y773902D01*
X2295172Y773672D01*
X2294833Y773451D01*
X2294488Y773239D01*
X2294138Y773035D01*
X2293783Y772839D01*
X2293423Y772653D01*
X2293059Y772475D01*
X2292691Y772306D01*
X2292318Y772147D01*
X2291942Y771996D01*
X2291562Y771855D01*
X2291179Y771723D01*
X2290793Y771601D01*
X2290403Y771488D01*
X2290012Y771385D01*
X2289617Y771291D01*
X2289221Y771207D01*
X2288823Y771133D01*
X2288423Y771069D01*
X2288021Y771014D01*
X2287618Y770970D01*
X2287215Y770935D01*
X2286810Y770910D01*
X2286405Y770895D01*
X2286000Y770890D01*
X2285595Y770895D01*
X2285190Y770910D01*
X2284785Y770935D01*
X2284382Y770970D01*
X2283979Y771014D01*
X2283577Y771069D01*
X2283177Y771133D01*
X2282779Y771207D01*
X2282383Y771291D01*
X2281988Y771385D01*
X2281597Y771488D01*
X2281207Y771601D01*
X2280821Y771723D01*
X2280438Y771855D01*
X2280058Y771996D01*
X2279682Y772147D01*
X2279309Y772306D01*
X2278941Y772475D01*
X2278577Y772653D01*
X2278217Y772839D01*
X2277862Y773035D01*
X2277512Y773239D01*
X2277167Y773451D01*
X2276828Y773672D01*
X2276493Y773902D01*
X2276165Y774139D01*
X2275843Y774384D01*
X2275526Y774638D01*
X2275216Y774898D01*
X2274913Y775167D01*
X2274616Y775443D01*
X2274326Y775726D01*
X2274043Y776016D01*
X2273767Y776313D01*
X2273498Y776616D01*
X2273238Y776926D01*
X2272984Y777243D01*
X2272739Y777565D01*
X2272502Y777893D01*
X2272272Y778228D01*
X2272051Y778567D01*
X2271839Y778912D01*
X2271635Y779262D01*
X2271439Y779617D01*
X2271253Y779977D01*
X2271075Y780341D01*
X2270906Y780709D01*
X2270747Y781082D01*
X2270596Y781458D01*
X2270455Y781838D01*
X2270323Y782221D01*
X2270201Y782607D01*
X2270088Y782997D01*
X2269985Y783388D01*
X2269891Y783783D01*
X2269807Y784179D01*
X2269733Y784577D01*
X2269669Y784977D01*
X2269614Y785379D01*
X2269570Y785782D01*
X2269535Y786185D01*
X2269510Y786590D01*
X2269495Y786995D01*
X2269490Y787400D01*
X2269490Y203200D02*
X2269495Y203605D01*
X2269510Y204010D01*
X2269535Y204415D01*
X2269570Y204818D01*
X2269614Y205221D01*
X2269669Y205623D01*
X2269733Y206023D01*
X2269807Y206421D01*
X2269891Y206817D01*
X2269985Y207212D01*
X2270088Y207603D01*
X2270201Y207993D01*
X2270323Y208379D01*
X2270455Y208762D01*
X2270596Y209142D01*
X2270747Y209518D01*
X2270906Y209891D01*
X2271075Y210259D01*
X2271253Y210623D01*
X2271439Y210983D01*
X2271635Y211338D01*
X2271839Y211688D01*
X2272051Y212033D01*
X2272272Y212372D01*
X2272502Y212707D01*
X2272739Y213035D01*
X2272984Y213357D01*
X2273238Y213674D01*
X2273498Y213984D01*
X2273767Y214287D01*
X2274043Y214584D01*
X2274326Y214874D01*
X2274616Y215157D01*
X2274913Y215433D01*
X2275216Y215702D01*
X2275526Y215962D01*
X2275843Y216216D01*
X2276165Y216461D01*
X2276493Y216698D01*
X2276828Y216928D01*
X2277167Y217149D01*
X2277512Y217361D01*
X2277862Y217565D01*
X2278217Y217761D01*
X2278577Y217947D01*
X2278941Y218125D01*
X2279309Y218294D01*
X2279682Y218453D01*
X2280058Y218604D01*
X2280438Y218745D01*
X2280821Y218877D01*
X2281207Y218999D01*
X2281597Y219112D01*
X2281988Y219215D01*
X2282383Y219309D01*
X2282779Y219393D01*
X2283177Y219467D01*
X2283577Y219531D01*
X2283979Y219586D01*
X2284382Y219630D01*
X2284785Y219665D01*
X2285190Y219690D01*
X2285595Y219705D01*
X2286000Y219710D01*
X2286405Y219705D01*
X2286810Y219690D01*
X2287215Y219665D01*
X2287618Y219630D01*
X2288021Y219586D01*
X2288423Y219531D01*
X2288823Y219467D01*
X2289221Y219393D01*
X2289617Y219309D01*
X2290012Y219215D01*
X2290403Y219112D01*
X2290793Y218999D01*
X2291179Y218877D01*
X2291562Y218745D01*
X2291942Y218604D01*
X2292318Y218453D01*
X2292691Y218294D01*
X2293059Y218125D01*
X2293423Y217947D01*
X2293783Y217761D01*
X2294138Y217565D01*
X2294488Y217361D01*
X2294833Y217149D01*
X2295172Y216928D01*
X2295507Y216698D01*
X2295835Y216461D01*
X2296157Y216216D01*
X2296474Y215962D01*
X2296784Y215702D01*
X2297087Y215433D01*
X2297384Y215157D01*
X2297674Y214874D01*
X2297957Y214584D01*
X2298233Y214287D01*
X2298502Y213984D01*
X2298762Y213674D01*
X2299016Y213357D01*
X2299261Y213035D01*
X2299498Y212707D01*
X2299728Y212372D01*
X2299949Y212033D01*
X2300161Y211688D01*
X2300365Y211338D01*
X2300561Y210983D01*
X2300747Y210623D01*
X2300925Y210259D01*
X2301094Y209891D01*
X2301253Y209518D01*
X2301404Y209142D01*
X2301545Y208762D01*
X2301677Y208379D01*
X2301799Y207993D01*
X2301912Y207603D01*
X2302015Y207212D01*
X2302109Y206817D01*
X2302193Y206421D01*
X2302267Y206023D01*
X2302331Y205623D01*
X2302386Y205221D01*
X2302430Y204818D01*
X2302465Y204415D01*
X2302490Y204010D01*
X2302505Y203605D01*
X2302510Y203200D01*
X2302505Y202795D01*
X2302490Y202390D01*
X2302465Y201985D01*
X2302430Y201582D01*
X2302386Y201179D01*
X2302331Y200777D01*
X2302267Y200377D01*
X2302193Y199979D01*
X2302109Y199583D01*
X2302015Y199188D01*
X2301912Y198797D01*
X2301799Y198407D01*
X2301677Y198021D01*
X2301545Y197638D01*
X2301404Y197258D01*
X2301253Y196882D01*
X2301094Y196509D01*
X2300925Y196141D01*
X2300747Y195777D01*
X2300561Y195417D01*
X2300365Y195062D01*
X2300161Y194712D01*
X2299949Y194367D01*
X2299728Y194028D01*
X2299498Y193693D01*
X2299261Y193365D01*
X2299016Y193043D01*
X2298762Y192726D01*
X2298502Y192416D01*
X2298233Y192113D01*
X2297957Y191816D01*
X2297674Y191526D01*
X2297384Y191243D01*
X2297087Y190967D01*
X2296784Y190698D01*
X2296474Y190438D01*
X2296157Y190184D01*
X2295835Y189939D01*
X2295507Y189702D01*
X2295172Y189472D01*
X2294833Y189251D01*
X2294488Y189039D01*
X2294138Y188835D01*
X2293783Y188639D01*
X2293423Y188453D01*
X2293059Y188275D01*
X2292691Y188106D01*
X2292318Y187947D01*
X2291942Y187796D01*
X2291562Y187655D01*
X2291179Y187523D01*
X2290793Y187401D01*
X2290403Y187288D01*
X2290012Y187185D01*
X2289617Y187091D01*
X2289221Y187007D01*
X2288823Y186933D01*
X2288423Y186869D01*
X2288021Y186814D01*
X2287618Y186770D01*
X2287215Y186735D01*
X2286810Y186710D01*
X2286405Y186695D01*
X2286000Y186690D01*
X2285595Y186695D01*
X2285190Y186710D01*
X2284785Y186735D01*
X2284382Y186770D01*
X2283979Y186814D01*
X2283577Y186869D01*
X2283177Y186933D01*
X2282779Y187007D01*
X2282383Y187091D01*
X2281988Y187185D01*
X2281597Y187288D01*
X2281207Y187401D01*
X2280821Y187523D01*
X2280438Y187655D01*
X2280058Y187796D01*
X2279682Y187947D01*
X2279309Y188106D01*
X2278941Y188275D01*
X2278577Y188453D01*
X2278217Y188639D01*
X2277862Y188835D01*
X2277512Y189039D01*
X2277167Y189251D01*
X2276828Y189472D01*
X2276493Y189702D01*
X2276165Y189939D01*
X2275843Y190184D01*
X2275526Y190438D01*
X2275216Y190698D01*
X2274913Y190967D01*
X2274616Y191243D01*
X2274326Y191526D01*
X2274043Y191816D01*
X2273767Y192113D01*
X2273498Y192416D01*
X2273238Y192726D01*
X2272984Y193043D01*
X2272739Y193365D01*
X2272502Y193693D01*
X2272272Y194028D01*
X2272051Y194367D01*
X2271839Y194712D01*
X2271635Y195062D01*
X2271439Y195417D01*
X2271253Y195777D01*
X2271075Y196141D01*
X2270906Y196509D01*
X2270747Y196882D01*
X2270596Y197258D01*
X2270455Y197638D01*
X2270323Y198021D01*
X2270201Y198407D01*
X2270088Y198797D01*
X2269985Y199188D01*
X2269891Y199583D01*
X2269807Y199979D01*
X2269733Y200377D01*
X2269669Y200777D01*
X2269614Y201179D01*
X2269570Y201582D01*
X2269535Y201985D01*
X2269510Y202390D01*
X2269495Y202795D01*
X2269490Y203200D01*
M02*
