M48
;GenerationSoftware,Autodesk,EAGLE,9.6.1*%
;CreationDate,2020-07-02T20:14:06Z*%
FMAT,2
ICI,OFF
METRIC,TZ,000.000
T10C0.350
T9C0.600
T8C0.800
T7C0.830
T6C0.850
T5C1.016
T4C1.200
T3C1.397
T2C3.302
T1C3.969
%
G90
M71
T1
X228600Y10160
X0Y10160
X228600Y137160
X0Y137160
T2
X228600Y20320
X228600Y78740
X175260Y20320
X175260Y78740
T3
X228600Y120650
X228600Y115570
X228600Y125730
X228600Y110490
X228600Y105410
X1270Y34290
X1270Y29210
X1270Y39370
X1270Y44450
X61807Y135890
X66887Y135890
X71967Y135890
X25400Y135890
X228600Y63500
X228600Y58420
X228600Y53340
X228600Y68580
X228600Y48260
X228600Y43180
X20320Y135890
X51223Y135890
X30480Y135890
X46143Y135890
X41063Y135890
X92710Y135890
X87630Y135890
X82550Y135890
T4
X134848Y138407
X170408Y138407
X179918Y138407
X183418Y138407
X186918Y138407
X196428Y138407
X212938Y138407
X131348Y138407
X127848Y138407
X118338Y138407
X114838Y138407
X219938Y138407
X111338Y138407
X216438Y138407
X145628Y138407
X149128Y138407
X152628Y138407
X203428Y138407
X163408Y138407
X166908Y138407
X199928Y138407
T5
X176530Y31750
X173990Y31750
X176530Y34290
X173990Y34290
X176530Y36830
X173990Y36830
X176530Y39370
X173990Y39370
X176530Y41910
X173990Y41910
X176530Y44450
X173990Y44450
X205740Y19050
X203200Y19050
X200660Y19050
X198120Y19050
X176530Y54610
X173990Y54610
X176530Y57150
X173990Y57150
X176530Y59690
X173990Y59690
X176530Y62230
X173990Y62230
X176530Y64770
X173990Y64770
X176530Y67310
X173990Y67310
X96520Y106680
X173990Y69850
X176530Y72390
X173990Y72390
X96520Y109220
X96520Y111760
X208280Y80010
X205740Y80010
X176530Y26670
X173990Y26670
X176530Y29210
X176530Y69850
X180340Y19050
X182880Y19050
X185420Y19050
X187960Y19050
X190500Y19050
X193040Y19050
X173990Y29210
T6
X84131Y119380
X48364Y119380
X22860Y119380
X68788Y119380
X43284Y119380
X63708Y119380
X89211Y119380
X27940Y119380
T7
X101600Y115100
X101600Y103340
X65453Y99530
X85877Y99530
X85877Y111290
X45029Y99530
X45029Y111290
X24605Y99530
X24605Y111290
X65453Y111290
T8
X109855Y50800
X31750Y15240
X31750Y17780
X31750Y20320
X31750Y22860
X31750Y25400
X31750Y30480
X31750Y27940
X31750Y63500
X31750Y50800
X31750Y53340
X31750Y55880
X31750Y58420
X134620Y12700
X134620Y10160
X134620Y7620
X134620Y17780
X134620Y20320
X134620Y22860
X134620Y25400
X134620Y27940
X134620Y30480
X134620Y33020
X134620Y35560
X134620Y38100
X134620Y40640
X137160Y40640
X139700Y40640
X142240Y40640
X144780Y40640
X147320Y40640
X149860Y7620
X149860Y40640
X149860Y38100
X149860Y35560
X149860Y33020
X149860Y10160
X149860Y30480
X149860Y27940
X149860Y25400
X149860Y22860
X149860Y20320
X149860Y17780
X149860Y15240
X149860Y12700
X134620Y15240
X70803Y15240
X70803Y17780
X70803Y20320
X70803Y22860
X70803Y25400
X70803Y30480
X70803Y27940
X70803Y63500
X70803Y50800
X70803Y53340
X70803Y55880
X70803Y58420
X70803Y60960
X109855Y15240
X109855Y17780
X109855Y20320
X109855Y22860
X109855Y25400
X109855Y30480
X109855Y27940
X109855Y63500
X31750Y60960
X109855Y53340
X109855Y55880
X109855Y58420
X109855Y60960
T9
X129310Y113530
X115800Y112530
X114800Y113530
X113800Y112530
X112800Y113530
X218210Y91940
X131310Y113530
X130310Y112530
X147550Y112530
X165600Y113530
X146550Y113530
X145550Y112530
X144550Y113530
X166600Y112530
X164600Y112530
X163600Y113530
X185650Y112530
X184650Y113530
X183650Y112530
X182650Y113530
X202160Y112530
X201160Y113530
X200160Y112530
X199160Y113530
X216130Y112530
X215130Y113530
X214130Y112530
X213130Y113530
X132310Y112530
X221210Y90940
X220210Y91940
X219210Y90940
T10
X144780Y53340
X115570Y123190
X115570Y120650
X132080Y123190
X132080Y120650
X147320Y123190
X147320Y120650
X166370Y123190
X166370Y120650
X185420Y120650
X201930Y123190
X187960Y62230
X210820Y92710
X210820Y100330
X222250Y58420
X185420Y64770
X123190Y53340
X219710Y62230
X217170Y62230
X213360Y62230
X124460Y52070
X130810Y77470
X132080Y76200
X139700Y62230
X215900Y69850
X121920Y54610
X142240Y53340
X220980Y67310
X215900Y67310
X190500Y59690
X125730Y50800
X144780Y46990
X185420Y123190
X134620Y60960
X139700Y53340
X139700Y46990
X149860Y133350
X97790Y135890
X97790Y120650
X93980Y117792
X201930Y120650
X142240Y46990
M30