G04 EAGLE Gerber RS-274X export*
G75*
%MOMM*%
%FSLAX34Y34*%
%LPD*%
%INBottom Solder Mask*%
%IPPOS*%
%AMOC8*
5,1,8,0,0,1.08239X$1,22.5*%
G01*
%ADD10C,2.222500*%
%ADD11C,1.327000*%
%ADD12C,1.557000*%
%ADD13C,1.549400*%
%ADD14C,1.577000*%
%ADD15C,7.747000*%
%ADD16C,2.006600*%
%ADD17C,3.429000*%
%ADD18P,2.171924X8X292.500000*%
%ADD19R,2.006600X2.006600*%
%ADD20R,2.540000X2.540000*%
%ADD21C,2.540000*%
%ADD22C,1.027000*%
%ADD23C,1.651000*%
%ADD24C,0.731000*%


D10*
X304800Y1369378D02*
X304800Y1348423D01*
X254000Y1348423D02*
X254000Y1369378D01*
X203200Y1369378D02*
X203200Y1348423D01*
D11*
X311500Y609600D02*
X323500Y609600D01*
X323500Y584200D02*
X311500Y584200D01*
X311500Y558800D02*
X323500Y558800D01*
X323500Y533400D02*
X311500Y533400D01*
X311500Y508000D02*
X323500Y508000D01*
X323500Y635000D02*
X311500Y635000D01*
X311500Y279400D02*
X323500Y279400D01*
X323500Y304800D02*
X311500Y304800D01*
X311500Y254000D02*
X323500Y254000D01*
X323500Y228600D02*
X311500Y228600D01*
X311500Y203200D02*
X323500Y203200D01*
X323500Y177800D02*
X311500Y177800D01*
X311500Y152400D02*
X323500Y152400D01*
X1092550Y609600D02*
X1104550Y609600D01*
X1104550Y584200D02*
X1092550Y584200D01*
X1092550Y558800D02*
X1104550Y558800D01*
X1104550Y533400D02*
X1092550Y533400D01*
X1092550Y508000D02*
X1104550Y508000D01*
X1104550Y635000D02*
X1092550Y635000D01*
X1092550Y279400D02*
X1104550Y279400D01*
X1104550Y304800D02*
X1092550Y304800D01*
X1092550Y254000D02*
X1104550Y254000D01*
X1104550Y228600D02*
X1092550Y228600D01*
X1092550Y203200D02*
X1104550Y203200D01*
X1104550Y177800D02*
X1092550Y177800D01*
X1092550Y152400D02*
X1104550Y152400D01*
X714025Y609600D02*
X702025Y609600D01*
X702025Y584200D02*
X714025Y584200D01*
X714025Y558800D02*
X702025Y558800D01*
X702025Y533400D02*
X714025Y533400D01*
X714025Y508000D02*
X702025Y508000D01*
X702025Y635000D02*
X714025Y635000D01*
X714025Y279400D02*
X702025Y279400D01*
X702025Y304800D02*
X714025Y304800D01*
X714025Y254000D02*
X702025Y254000D01*
X702025Y228600D02*
X714025Y228600D01*
X714025Y203200D02*
X702025Y203200D01*
X702025Y177800D02*
X714025Y177800D01*
X714025Y152400D02*
X702025Y152400D01*
D10*
X512233Y1348423D02*
X512233Y1369378D01*
X461433Y1369378D02*
X461433Y1348423D01*
X410633Y1348423D02*
X410633Y1369378D01*
X927100Y1369378D02*
X927100Y1348423D01*
X876300Y1348423D02*
X876300Y1369378D01*
X825500Y1369378D02*
X825500Y1348423D01*
D12*
X858767Y995300D03*
X858767Y1112900D03*
X450290Y995300D03*
X450290Y1112900D03*
X246052Y995300D03*
X246052Y1112900D03*
X654529Y995300D03*
X654529Y1112900D03*
X1016000Y1151000D03*
X1016000Y1033400D03*
D11*
X1492600Y127000D02*
X1504600Y127000D01*
X1504600Y152400D02*
X1492600Y152400D01*
X1492600Y177800D02*
X1504600Y177800D01*
X1504600Y203200D02*
X1492600Y203200D01*
X1492600Y228600D02*
X1504600Y228600D01*
X1504600Y254000D02*
X1492600Y254000D01*
X1492600Y279400D02*
X1504600Y279400D01*
X1504600Y304800D02*
X1492600Y304800D01*
X1492600Y101600D02*
X1504600Y101600D01*
X1504600Y330200D02*
X1492600Y330200D01*
X1492600Y355600D02*
X1504600Y355600D01*
X1504600Y381000D02*
X1492600Y381000D01*
X1492600Y406400D02*
X1504600Y406400D01*
X1504600Y76200D02*
X1492600Y76200D01*
D13*
X1473200Y406400D03*
X1447800Y406400D03*
X1422400Y406400D03*
X1397000Y406400D03*
X1371600Y406400D03*
D11*
X1352200Y406400D02*
X1340200Y406400D01*
X1340200Y381000D02*
X1352200Y381000D01*
X1352200Y355600D02*
X1340200Y355600D01*
X1340200Y330200D02*
X1352200Y330200D01*
X1352200Y304800D02*
X1340200Y304800D01*
X1340200Y279400D02*
X1352200Y279400D01*
X1352200Y254000D02*
X1340200Y254000D01*
X1340200Y228600D02*
X1352200Y228600D01*
X1352200Y203200D02*
X1340200Y203200D01*
X1340200Y177800D02*
X1352200Y177800D01*
X1352200Y152400D02*
X1340200Y152400D01*
X1340200Y127000D02*
X1352200Y127000D01*
X1352200Y101600D02*
X1340200Y101600D01*
X1340200Y76200D02*
X1352200Y76200D01*
D14*
X841314Y1193800D03*
X892114Y1193800D03*
X637076Y1193800D03*
X687876Y1193800D03*
X228600Y1193800D03*
X279400Y1193800D03*
X432838Y1193800D03*
X483638Y1193800D03*
D10*
X719667Y1348423D02*
X719667Y1369378D01*
X668867Y1369378D02*
X668867Y1348423D01*
X618067Y1348423D02*
X618067Y1369378D01*
X23178Y444500D02*
X2223Y444500D01*
X2223Y393700D02*
X23178Y393700D01*
X23178Y292100D02*
X2223Y292100D01*
X2223Y342900D02*
X23178Y342900D01*
X2275523Y1054100D02*
X2296478Y1054100D01*
X2296478Y1104900D02*
X2275523Y1104900D01*
X2275523Y1257300D02*
X2296478Y1257300D01*
X2296478Y1155700D02*
X2275523Y1155700D01*
X2275523Y1206500D02*
X2296478Y1206500D01*
D15*
X0Y101600D03*
X2286000Y101600D03*
X0Y1371600D03*
X2286000Y1371600D03*
D16*
X1930400Y190500D03*
X1905000Y190500D03*
X1879600Y190500D03*
X1854200Y190500D03*
X1828800Y190500D03*
X1803400Y190500D03*
D17*
X1752600Y787400D03*
X1752600Y203200D03*
X2286000Y787400D03*
X2286000Y203200D03*
D18*
X1739900Y723900D03*
X1765300Y723900D03*
X1739900Y698500D03*
X1765300Y698500D03*
X1739900Y673100D03*
X1765300Y673100D03*
X1739900Y647700D03*
X1765300Y647700D03*
X1739900Y622300D03*
X1765300Y622300D03*
X1739900Y596900D03*
X1765300Y596900D03*
X1739900Y571500D03*
X1765300Y571500D03*
X1739900Y546100D03*
X1765300Y546100D03*
D19*
X1981200Y190500D03*
D16*
X2006600Y190500D03*
X2032000Y190500D03*
X2057400Y190500D03*
D18*
X1739900Y444500D03*
X1765300Y444500D03*
X1739900Y419100D03*
X1765300Y419100D03*
X1739900Y393700D03*
X1765300Y393700D03*
X1739900Y368300D03*
X1765300Y368300D03*
X1739900Y342900D03*
X1765300Y342900D03*
X1739900Y317500D03*
X1765300Y317500D03*
X1739900Y292100D03*
X1765300Y292100D03*
X1739900Y266700D03*
X1765300Y266700D03*
D16*
X2057400Y800100D03*
X2082800Y800100D03*
D20*
X2034280Y1384070D03*
D21*
X1999280Y1384070D03*
X1964280Y1384070D03*
D20*
X1869180Y1384070D03*
D21*
X1834180Y1384070D03*
X1799180Y1384070D03*
D20*
X1704080Y1384070D03*
D21*
X1669080Y1384070D03*
X1634080Y1384070D03*
D20*
X1526280Y1384070D03*
D21*
X1491280Y1384070D03*
X1456280Y1384070D03*
D20*
X2199380Y1384070D03*
D21*
X2164380Y1384070D03*
X2129380Y1384070D03*
D20*
X1348480Y1384070D03*
D21*
X1313480Y1384070D03*
X1278480Y1384070D03*
D20*
X1183380Y1384070D03*
D21*
X1148380Y1384070D03*
X1113380Y1384070D03*
D22*
X1158000Y1125300D03*
X1148000Y1135300D03*
X1138000Y1125300D03*
X1128000Y1135300D03*
X1323100Y1125300D03*
X1313100Y1135300D03*
X1303100Y1125300D03*
X1293100Y1135300D03*
X1475500Y1125300D03*
X1465500Y1135300D03*
X1455500Y1125300D03*
X1445500Y1135300D03*
X1666000Y1125300D03*
X1656000Y1135300D03*
X1646000Y1125300D03*
X1636000Y1135300D03*
X1856500Y1125300D03*
X1846500Y1135300D03*
X1836500Y1125300D03*
X1826500Y1135300D03*
X2021600Y1125300D03*
X2011600Y1135300D03*
X2001600Y1125300D03*
X1991600Y1135300D03*
X2161300Y1125300D03*
X2151300Y1135300D03*
X2141300Y1125300D03*
X2131300Y1135300D03*
X2212100Y909400D03*
X2202100Y919400D03*
X2192100Y909400D03*
X2182100Y919400D03*
D10*
X2275523Y431800D02*
X2296478Y431800D01*
X2296478Y482600D02*
X2275523Y482600D01*
X2275523Y685800D02*
X2296478Y685800D01*
X2296478Y533400D02*
X2275523Y533400D01*
X2275523Y584200D02*
X2296478Y584200D01*
X2296478Y635000D02*
X2275523Y635000D01*
D23*
X972820Y1066800D02*
X957580Y1066800D01*
X957580Y1092200D02*
X972820Y1092200D01*
X972820Y1117600D02*
X957580Y1117600D01*
D24*
X1447800Y469900D03*
X1447800Y533400D03*
X1155700Y1231900D03*
X1155700Y1206500D03*
X1320800Y1231900D03*
X1320800Y1206500D03*
X1473200Y1231900D03*
X1473200Y1206500D03*
X1663700Y1231900D03*
X1663700Y1206500D03*
X1854200Y1231900D03*
X1854200Y1206500D03*
X2019300Y1231900D03*
X2019300Y1206500D03*
X939800Y1177925D03*
X977900Y1206500D03*
X977900Y1358900D03*
X1498600Y1333500D03*
X1397000Y469900D03*
X1397000Y533400D03*
X1346200Y609600D03*
X1257300Y508000D03*
X1905000Y596900D03*
X2159000Y673100D03*
X2209800Y673100D03*
X1422400Y469900D03*
X1422400Y533400D03*
X1219200Y546100D03*
X2159000Y698500D03*
X1397000Y622300D03*
X1320800Y762000D03*
X1308100Y774700D03*
X1244600Y520700D03*
X1879600Y622300D03*
X2133600Y622300D03*
X2171700Y622300D03*
X2197100Y622300D03*
X1231900Y533400D03*
X1854200Y647700D03*
X2222500Y584200D03*
X2108200Y1003300D03*
X2108200Y927100D03*
M02*
