  0
SECTION
  2
HEADER
  9
$ACADVER
  1
AC1009
  9
$FILLMODE
 70
1
  9
$EXTMIN
 10
-42.3262
 20
-41.0397
 30
0.0000
  9
$EXTMAX
 10
41.0418
 20
41.2881
 30
0.0000
  0
ENDSEC
  0
SECTION
  2
TABLES
  0
TABLE
  2
LTYPE
 70
1
  0
LTYPE
  2
CONTINUOUS
 70
64
  3
Solid line
 72
65
 73
0
 40
0
  0
ENDTAB
  0
TABLE
  2
LAYER
 70
255
  0
LAYER
  2
17
 70
64
 62
110
  6
CONTINUOUS
  0
LAYER
  2
18
 70
64
 62
110
  6
CONTINUOUS
  0
LAYER
  2
19
 70
64
 62
53
  6
CONTINUOUS
  0
LAYER
  2
20
 70
64
 62
53
  6
CONTINUOUS
  0
LAYER
  2
23
 70
64
 62
53
  6
CONTINUOUS
  0
LAYER
  2
24
 70
64
 62
53
  6
CONTINUOUS
  0
LAYER
  2
25
 70
64
 62
253
  6
CONTINUOUS
  0
LAYER
  2
26
 70
64
 62
253
  6
CONTINUOUS
  0
LAYER
  2
27
 70
64
 62
253
  6
CONTINUOUS
  0
LAYER
  2
28
 70
64
 62
253
  6
CONTINUOUS
  0
LAYER
  2
39
 70
64
 62
12
  6
CONTINUOUS
  0
LAYER
  2
40
 70
64
 62
132
  6
CONTINUOUS
  0
LAYER
  2
41
 70
64
 62
12
  6
CONTINUOUS
  0
LAYER
  2
42
 70
64
 62
132
  6
CONTINUOUS
  0
LAYER
  2
44
 70
64
 62
253
  6
CONTINUOUS
  0
LAYER
  2
45
 70
64
 62
253
  6
CONTINUOUS
  0
LAYER
  2
52
 70
64
 62
253
  6
CONTINUOUS
  0
ENDTAB
  0
ENDSEC
  0
SECTION
  2
BLOCKS
  0
BLOCK
  8
0
  2
RECT
 70
64
 10
0.0000
 20
0.0000
 30
0.0000
  3
RECT
  0
SOLID
  8
0
 10
-0.5000
 20
-0.5000
 30
0.0000
 11
0.5000
 21
-0.5000
 31
0.0000
 12
-0.5000
 22
0.5000
 32
0.0000
 13
0.5000
 23
0.5000
 33
0.0000
  0
ENDBLK
  8
0
  0
BLOCK
  8
0
  2
PIE
 70
64
 10
0.0000
 20
0.0000
 30
0.0000
  3
PIE
  0
POLYLINE
  8
0
 66
1
 10
0.0000
 20
0.0000
 30
0.0000
 40
0.5000
 41
0.5000
 70
0
  0
VERTEX
  8
0
 10
0.0000
 20
-0.2500
 30
0.0000
 42
1.0000
  0
VERTEX
  8
0
 10
0.0000
 20
0.2500
 30
0.0000
 42
1.0000
  0
VERTEX
  8
0
 10
0.0000
 20
-0.2500
 30
0.0000
  0
SEQEND
  8
0
  0
ENDBLK
  8
0
  0
BLOCK
  8
0
  2
OCTAGONP
 70
64
 10
0.0000
 20
0.0000
 30
0.0000
  3
OCTAGONP
  0
POLYLINE
  8
0
 66
1
 10
0.0000
 20
0.0000
 30
0.0000
 40
0.5000
 41
0.5000
 70
0
  0
VERTEX
  8
0
 10
-0.2500
 20
-0.1036
 30
0.0000
  0
VERTEX
  8
0
 10
-0.2500
 20
0.1036
 30
0.0000
  0
VERTEX
  8
0
 10
-0.1036
 20
0.2500
 30
0.0000
  0
VERTEX
  8
0
 10
0.1036
 20
0.2500
 30
0.0000
  0
VERTEX
  8
0
 10
0.2500
 20
0.1036
 30
0.0000
  0
VERTEX
  8
0
 10
0.2500
 20
-0.1036
 30
0.0000
  0
VERTEX
  8
0
 10
0.1036
 20
-0.2500
 30
0.0000
  0
VERTEX
  8
0
 10
-0.1036
 20
-0.2500
 30
0.0000
  0
VERTEX
  8
0
 10
-0.2500
 20
-0.1036
 30
0.0000
  0
VERTEX
  8
0
 10
-0.2500
 20
0.1036
 30
0.0000
  0
SEQEND
  8
0
  0
ENDBLK
  8
0
  0
BLOCK
  8
0
  2
SQUAREP
 70
64
 10
0.0000
 20
0.0000
 30
0.0000
  3
SQUAREP
  0
SOLID
  8
0
 10
-0.5000
 20
-0.5000
 30
0.0000
 11
0.5000
 21
-0.5000
 31
0.0000
 12
-0.5000
 22
0.5000
 32
0.0000
 13
0.5000
 23
0.5000
 33
0.0000
  0
ENDBLK
  8
0
  0
BLOCK
  8
0
  2
ROUNDP
 70
64
 10
0.0000
 20
0.0000
 30
0.0000
  3
ROUNDP
  0
POLYLINE
  8
0
 66
1
 10
0.0000
 20
0.0000
 30
0.0000
 40
0.5000
 41
0.5000
 70
0
  0
VERTEX
  8
0
 10
0.0000
 20
-0.2500
 30
0.0000
 42
1.0000
  0
VERTEX
  8
0
 10
0.0000
 20
0.2500
 30
0.0000
 42
1.0000
  0
VERTEX
  8
0
 10
0.0000
 20
-0.2500
 30
0.0000
  0
SEQEND
  8
0
  0
ENDBLK
  8
0
  0
BLOCK
  8
0
  2
ANNULUSP
 70
64
 10
0.0000
 20
0.0000
 30
0.0000
  3
ANNULUSP
  0
POLYLINE
  8
0
 66
1
 10
0.0000
 20
0.0000
 30
0.0000
 40
0.5000
 41
0.5000
 70
0
  0
VERTEX
  8
0
 10
0.0000
 20
-0.2500
 30
0.0000
 42
1.0000
  0
VERTEX
  8
0
 10
0.0000
 20
0.2500
 30
0.0000
 42
1.0000
  0
VERTEX
  8
0
 10
0.0000
 20
-0.2500
 30
0.0000
  0
SEQEND
  8
0
  0
ENDBLK
  8
0
  0
BLOCK
  8
0
  2
THERMALP
 70
64
 10
0.0000
 20
0.0000
 30
0.0000
  3
THERMALP
  0
POLYLINE
  8
0
 66
1
 10
0.0000
 20
0.0000
 30
0.0000
 40
0.1000
 41
0.1000
 70
0
  0
VERTEX
  8
0
 10
-0.2379
 20
0.4500
 30
0.0000
  0
VERTEX
  8
0
 10
0.2379
 20
0.4500
 30
0.0000
  0
SEQEND
  8
0
  0
POLYLINE
  8
0
 66
1
 10
0.0000
 20
0.0000
 30
0.0000
 40
0.0500
 41
0.0500
 70
0
  0
VERTEX
  8
0
 10
0.2379
 20
0.4250
 30
0.0000
 42
1.0000
  0
VERTEX
  8
0
 10
0.2379
 20
0.4750
 30
0.0000
  0
SEQEND
  8
0
  0
POLYLINE
  8
0
 66
1
 10
0.0000
 20
0.0000
 30
0.0000
 40
0.0500
 41
0.0500
 70
0
  0
VERTEX
  8
0
 10
-0.2379
 20
0.4750
 30
0.0000
 42
1.0000
  0
VERTEX
  8
0
 10
-0.2379
 20
0.4250
 30
0.0000
  0
SEQEND
  8
0
  0
POLYLINE
  8
0
 66
1
 10
0.0000
 20
0.0000
 30
0.0000
 40
0.1000
 41
0.1000
 70
0
  0
VERTEX
  8
0
 10
0.4500
 20
0.2379
 30
0.0000
  0
VERTEX
  8
0
 10
0.4500
 20
-0.2379
 30
0.0000
  0
SEQEND
  8
0
  0
POLYLINE
  8
0
 66
1
 10
0.0000
 20
0.0000
 30
0.0000
 40
0.0500
 41
0.0500
 70
0
  0
VERTEX
  8
0
 10
0.4250
 20
-0.2379
 30
0.0000
 42
1.0000
  0
VERTEX
  8
0
 10
0.4750
 20
-0.2379
 30
0.0000
  0
SEQEND
  8
0
  0
POLYLINE
  8
0
 66
1
 10
0.0000
 20
0.0000
 30
0.0000
 40
0.0500
 41
0.0500
 70
0
  0
VERTEX
  8
0
 10
0.4750
 20
0.2379
 30
0.0000
 42
1.0000
  0
VERTEX
  8
0
 10
0.4250
 20
0.2379
 30
0.0000
  0
SEQEND
  8
0
  0
POLYLINE
  8
0
 66
1
 10
0.0000
 20
0.0000
 30
0.0000
 40
0.1000
 41
0.1000
 70
0
  0
VERTEX
  8
0
 10
0.2379
 20
-0.4500
 30
0.0000
  0
VERTEX
  8
0
 10
-0.2379
 20
-0.4500
 30
0.0000
  0
SEQEND
  8
0
  0
POLYLINE
  8
0
 66
1
 10
0.0000
 20
0.0000
 30
0.0000
 40
0.0500
 41
0.0500
 70
0
  0
VERTEX
  8
0
 10
-0.2379
 20
-0.4250
 30
0.0000
 42
1.0000
  0
VERTEX
  8
0
 10
-0.2379
 20
-0.4750
 30
0.0000
  0
SEQEND
  8
0
  0
POLYLINE
  8
0
 66
1
 10
0.0000
 20
0.0000
 30
0.0000
 40
0.0500
 41
0.0500
 70
0
  0
VERTEX
  8
0
 10
0.2379
 20
-0.4750
 30
0.0000
 42
1.0000
  0
VERTEX
  8
0
 10
0.2379
 20
-0.4250
 30
0.0000
  0
SEQEND
  8
0
  0
POLYLINE
  8
0
 66
1
 10
0.0000
 20
0.0000
 30
0.0000
 40
0.1000
 41
0.1000
 70
0
  0
VERTEX
  8
0
 10
-0.4500
 20
-0.2379
 30
0.0000
  0
VERTEX
  8
0
 10
-0.4500
 20
0.2379
 30
0.0000
  0
SEQEND
  8
0
  0
POLYLINE
  8
0
 66
1
 10
0.0000
 20
0.0000
 30
0.0000
 40
0.0500
 41
0.0500
 70
0
  0
VERTEX
  8
0
 10
-0.4250
 20
0.2379
 30
0.0000
 42
1.0000
  0
VERTEX
  8
0
 10
-0.4750
 20
0.2379
 30
0.0000
  0
SEQEND
  8
0
  0
POLYLINE
  8
0
 66
1
 10
0.0000
 20
0.0000
 30
0.0000
 40
0.0500
 41
0.0500
 70
0
  0
VERTEX
  8
0
 10
-0.4750
 20
-0.2379
 30
0.0000
 42
1.0000
  0
VERTEX
  8
0
 10
-0.4250
 20
-0.2379
 30
0.0000
  0
SEQEND
  8
0
  0
ENDBLK
  8
0
  0
BLOCK
  8
0
  2
OCTAGONV
 70
64
 10
0.0000
 20
0.0000
 30
0.0000
  3
OCTAGONV
  0
POLYLINE
  8
0
 66
1
 10
0.0000
 20
0.0000
 30
0.0000
 40
0.5000
 41
0.5000
 70
0
  0
VERTEX
  8
0
 10
-0.2500
 20
-0.1036
 30
0.0000
  0
VERTEX
  8
0
 10
-0.2500
 20
0.1036
 30
0.0000
  0
VERTEX
  8
0
 10
-0.1036
 20
0.2500
 30
0.0000
  0
VERTEX
  8
0
 10
0.1036
 20
0.2500
 30
0.0000
  0
VERTEX
  8
0
 10
0.2500
 20
0.1036
 30
0.0000
  0
VERTEX
  8
0
 10
0.2500
 20
-0.1036
 30
0.0000
  0
VERTEX
  8
0
 10
0.1036
 20
-0.2500
 30
0.0000
  0
VERTEX
  8
0
 10
-0.1036
 20
-0.2500
 30
0.0000
  0
VERTEX
  8
0
 10
-0.2500
 20
-0.1036
 30
0.0000
  0
VERTEX
  8
0
 10
-0.2500
 20
0.1036
 30
0.0000
  0
SEQEND
  8
0
  0
ENDBLK
  8
0
  0
BLOCK
  8
0
  2
SQUAREV
 70
64
 10
0.0000
 20
0.0000
 30
0.0000
  3
SQUAREV
  0
SOLID
  8
0
 10
-0.5000
 20
-0.5000
 30
0.0000
 11
0.5000
 21
-0.5000
 31
0.0000
 12
-0.5000
 22
0.5000
 32
0.0000
 13
0.5000
 23
0.5000
 33
0.0000
  0
ENDBLK
  8
0
  0
BLOCK
  8
0
  2
ROUNDV
 70
64
 10
0.0000
 20
0.0000
 30
0.0000
  3
ROUNDV
  0
POLYLINE
  8
0
 66
1
 10
0.0000
 20
0.0000
 30
0.0000
 40
0.5000
 41
0.5000
 70
0
  0
VERTEX
  8
0
 10
0.0000
 20
-0.2500
 30
0.0000
 42
1.0000
  0
VERTEX
  8
0
 10
0.0000
 20
0.2500
 30
0.0000
 42
1.0000
  0
VERTEX
  8
0
 10
0.0000
 20
-0.2500
 30
0.0000
  0
SEQEND
  8
0
  0
ENDBLK
  8
0
  0
BLOCK
  8
0
  2
ANNULUSV
 70
64
 10
0.0000
 20
0.0000
 30
0.0000
  3
ANNULUSV
  0
POLYLINE
  8
0
 66
1
 10
0.0000
 20
0.0000
 30
0.0000
 40
0.5000
 41
0.5000
 70
0
  0
VERTEX
  8
0
 10
0.0000
 20
-0.2500
 30
0.0000
 42
1.0000
  0
VERTEX
  8
0
 10
0.0000
 20
0.2500
 30
0.0000
 42
1.0000
  0
VERTEX
  8
0
 10
0.0000
 20
-0.2500
 30
0.0000
  0
SEQEND
  8
0
  0
ENDBLK
  8
0
  0
BLOCK
  8
0
  2
THERMALV
 70
64
 10
0.0000
 20
0.0000
 30
0.0000
  3
THERMALV
  0
POLYLINE
  8
0
 66
1
 10
0.0000
 20
0.0000
 30
0.0000
 40
0.1000
 41
0.1000
 70
0
  0
VERTEX
  8
0
 10
-0.2379
 20
0.4500
 30
0.0000
  0
VERTEX
  8
0
 10
0.2379
 20
0.4500
 30
0.0000
  0
SEQEND
  8
0
  0
POLYLINE
  8
0
 66
1
 10
0.0000
 20
0.0000
 30
0.0000
 40
0.0500
 41
0.0500
 70
0
  0
VERTEX
  8
0
 10
0.2379
 20
0.4250
 30
0.0000
 42
1.0000
  0
VERTEX
  8
0
 10
0.2379
 20
0.4750
 30
0.0000
  0
SEQEND
  8
0
  0
POLYLINE
  8
0
 66
1
 10
0.0000
 20
0.0000
 30
0.0000
 40
0.0500
 41
0.0500
 70
0
  0
VERTEX
  8
0
 10
-0.2379
 20
0.4750
 30
0.0000
 42
1.0000
  0
VERTEX
  8
0
 10
-0.2379
 20
0.4250
 30
0.0000
  0
SEQEND
  8
0
  0
POLYLINE
  8
0
 66
1
 10
0.0000
 20
0.0000
 30
0.0000
 40
0.1000
 41
0.1000
 70
0
  0
VERTEX
  8
0
 10
0.4500
 20
0.2379
 30
0.0000
  0
VERTEX
  8
0
 10
0.4500
 20
-0.2379
 30
0.0000
  0
SEQEND
  8
0
  0
POLYLINE
  8
0
 66
1
 10
0.0000
 20
0.0000
 30
0.0000
 40
0.0500
 41
0.0500
 70
0
  0
VERTEX
  8
0
 10
0.4250
 20
-0.2379
 30
0.0000
 42
1.0000
  0
VERTEX
  8
0
 10
0.4750
 20
-0.2379
 30
0.0000
  0
SEQEND
  8
0
  0
POLYLINE
  8
0
 66
1
 10
0.0000
 20
0.0000
 30
0.0000
 40
0.0500
 41
0.0500
 70
0
  0
VERTEX
  8
0
 10
0.4750
 20
0.2379
 30
0.0000
 42
1.0000
  0
VERTEX
  8
0
 10
0.4250
 20
0.2379
 30
0.0000
  0
SEQEND
  8
0
  0
POLYLINE
  8
0
 66
1
 10
0.0000
 20
0.0000
 30
0.0000
 40
0.1000
 41
0.1000
 70
0
  0
VERTEX
  8
0
 10
0.2379
 20
-0.4500
 30
0.0000
  0
VERTEX
  8
0
 10
-0.2379
 20
-0.4500
 30
0.0000
  0
SEQEND
  8
0
  0
POLYLINE
  8
0
 66
1
 10
0.0000
 20
0.0000
 30
0.0000
 40
0.0500
 41
0.0500
 70
0
  0
VERTEX
  8
0
 10
-0.2379
 20
-0.4250
 30
0.0000
 42
1.0000
  0
VERTEX
  8
0
 10
-0.2379
 20
-0.4750
 30
0.0000
  0
SEQEND
  8
0
  0
POLYLINE
  8
0
 66
1
 10
0.0000
 20
0.0000
 30
0.0000
 40
0.0500
 41
0.0500
 70
0
  0
VERTEX
  8
0
 10
0.2379
 20
-0.4750
 30
0.0000
 42
1.0000
  0
VERTEX
  8
0
 10
0.2379
 20
-0.4250
 30
0.0000
  0
SEQEND
  8
0
  0
POLYLINE
  8
0
 66
1
 10
0.0000
 20
0.0000
 30
0.0000
 40
0.1000
 41
0.1000
 70
0
  0
VERTEX
  8
0
 10
-0.4500
 20
-0.2379
 30
0.0000
  0
VERTEX
  8
0
 10
-0.4500
 20
0.2379
 30
0.0000
  0
SEQEND
  8
0
  0
POLYLINE
  8
0
 66
1
 10
0.0000
 20
0.0000
 30
0.0000
 40
0.0500
 41
0.0500
 70
0
  0
VERTEX
  8
0
 10
-0.4250
 20
0.2379
 30
0.0000
 42
1.0000
  0
VERTEX
  8
0
 10
-0.4750
 20
0.2379
 30
0.0000
  0
SEQEND
  8
0
  0
POLYLINE
  8
0
 66
1
 10
0.0000
 20
0.0000
 30
0.0000
 40
0.0500
 41
0.0500
 70
0
  0
VERTEX
  8
0
 10
-0.4750
 20
-0.2379
 30
0.0000
 42
1.0000
  0
VERTEX
  8
0
 10
-0.4250
 20
-0.2379
 30
0.0000
  0
SEQEND
  8
0
  0
ENDBLK
  8
0
  0
ENDSEC
  0
SECTION
  2
ENTITIES
  0
POLYLINE
  8
20
 66
1
 10
0.0000
 20
0.0000
 30
0.0000
 40
0.0762
 41
0.0762
 70
0
  0
VERTEX
  8
20
 10
25.7500
 20
0.2500
 30
0.0000
 42
0.4142
  0
VERTEX
  8
20
 10
-0.2500
 20
25.5000
 30
0.0000
  0
SEQEND
  8
0
  0
POLYLINE
  8
20
 66
1
 10
0.0000
 20
0.0000
 30
0.0000
 40
0.0381
 41
0.0381
 70
0
  0
VERTEX
  8
20
 10
25.7310
 20
0.2497
 30
0.0000
 42
1.0000
  0
VERTEX
  8
20
 10
25.7690
 20
0.2503
 30
0.0000
  0
SEQEND
  8
0
  0
POLYLINE
  8
20
 66
1
 10
0.0000
 20
0.0000
 30
0.0000
 40
0.0381
 41
0.0381
 70
0
  0
VERTEX
  8
20
 10
-0.2503
 20
25.5190
 30
0.0000
 42
1.0000
  0
VERTEX
  8
20
 10
-0.2497
 20
25.4810
 30
0.0000
  0
SEQEND
  8
0
  0
POLYLINE
  8
20
 66
1
 10
0.0000
 20
0.0000
 30
0.0000
 40
0.0762
 41
0.0762
 70
0
  0
VERTEX
  8
20
 10
25.7500
 20
0.2500
 30
0.0000
  0
VERTEX
  8
20
 10
25.7500
 20
0.0000
 30
0.0000
  0
SEQEND
  8
0
  0
POLYLINE
  8
20
 66
1
 10
0.0000
 20
0.0000
 30
0.0000
 40
0.0381
 41
0.0381
 70
0
  0
VERTEX
  8
20
 10
25.7309
 20
0.0000
 30
0.0000
 42
1.0000
  0
VERTEX
  8
20
 10
25.7691
 20
0.0000
 30
0.0000
  0
SEQEND
  8
0
  0
POLYLINE
  8
20
 66
1
 10
0.0000
 20
0.0000
 30
0.0000
 40
0.0381
 41
0.0381
 70
0
  0
VERTEX
  8
20
 10
25.7691
 20
0.2500
 30
0.0000
 42
1.0000
  0
VERTEX
  8
20
 10
25.7309
 20
0.2500
 30
0.0000
  0
SEQEND
  8
0
  0
POLYLINE
  8
20
 66
1
 10
0.0000
 20
0.0000
 30
0.0000
 40
0.0762
 41
0.0762
 70
0
  0
VERTEX
  8
20
 10
0.0000
 20
-25.7500
 30
0.0000
 42
0.4142
  0
VERTEX
  8
20
 10
25.7500
 20
0.0000
 30
0.0000
  0
SEQEND
  8
0
  0
POLYLINE
  8
20
 66
1
 10
0.0000
 20
0.0000
 30
0.0000
 40
0.0381
 41
0.0381
 70
0
  0
VERTEX
  8
20
 10
0.0000
 20
-25.7309
 30
0.0000
 42
1.0000
  0
VERTEX
  8
20
 10
-0.0000
 20
-25.7691
 30
0.0000
  0
SEQEND
  8
0
  0
POLYLINE
  8
20
 66
1
 10
0.0000
 20
0.0000
 30
0.0000
 40
0.0381
 41
0.0381
 70
0
  0
VERTEX
  8
20
 10
25.7691
 20
-0.0000
 30
0.0000
 42
1.0000
  0
VERTEX
  8
20
 10
25.7309
 20
0.0000
 30
0.0000
  0
SEQEND
  8
0
  0
POLYLINE
  8
20
 66
1
 10
0.0000
 20
0.0000
 30
0.0000
 40
0.0762
 41
0.0762
 70
0
  0
VERTEX
  8
20
 10
-25.7500
 20
0.0000
 30
0.0000
 42
0.4142
  0
VERTEX
  8
20
 10
0.0000
 20
-25.7500
 30
0.0000
  0
SEQEND
  8
0
  0
POLYLINE
  8
20
 66
1
 10
0.0000
 20
0.0000
 30
0.0000
 40
0.0381
 41
0.0381
 70
0
  0
VERTEX
  8
20
 10
-25.7309
 20
-0.0000
 30
0.0000
 42
1.0000
  0
VERTEX
  8
20
 10
-25.7691
 20
0.0000
 30
0.0000
  0
SEQEND
  8
0
  0
POLYLINE
  8
20
 66
1
 10
0.0000
 20
0.0000
 30
0.0000
 40
0.0381
 41
0.0381
 70
0
  0
VERTEX
  8
20
 10
-0.0000
 20
-25.7691
 30
0.0000
 42
1.0000
  0
VERTEX
  8
20
 10
0.0000
 20
-25.7309
 30
0.0000
  0
SEQEND
  8
0
  0
POLYLINE
  8
20
 66
1
 10
0.0000
 20
0.0000
 30
0.0000
 40
0.0762
 41
0.0762
 70
0
  0
VERTEX
  8
20
 10
-25.7500
 20
0.0000
 30
0.0000
  0
VERTEX
  8
20
 10
-25.7500
 20
0.2500
 30
0.0000
  0
SEQEND
  8
0
  0
POLYLINE
  8
20
 66
1
 10
0.0000
 20
0.0000
 30
0.0000
 40
0.0381
 41
0.0381
 70
0
  0
VERTEX
  8
20
 10
-25.7309
 20
0.2500
 30
0.0000
 42
1.0000
  0
VERTEX
  8
20
 10
-25.7691
 20
0.2500
 30
0.0000
  0
SEQEND
  8
0
  0
POLYLINE
  8
20
 66
1
 10
0.0000
 20
0.0000
 30
0.0000
 40
0.0381
 41
0.0381
 70
0
  0
VERTEX
  8
20
 10
-25.7691
 20
0.0000
 30
0.0000
 42
1.0000
  0
VERTEX
  8
20
 10
-25.7309
 20
0.0000
 30
0.0000
  0
SEQEND
  8
0
  0
POLYLINE
  8
20
 66
1
 10
0.0000
 20
0.0000
 30
0.0000
 40
0.0762
 41
0.0762
 70
0
  0
VERTEX
  8
20
 10
-0.2500
 20
25.5000
 30
0.0000
 42
0.4142
  0
VERTEX
  8
20
 10
-25.7500
 20
0.2500
 30
0.0000
  0
SEQEND
  8
0
  0
POLYLINE
  8
20
 66
1
 10
0.0000
 20
0.0000
 30
0.0000
 40
0.0381
 41
0.0381
 70
0
  0
VERTEX
  8
20
 10
-0.2501
 20
25.4810
 30
0.0000
 42
1.0000
  0
VERTEX
  8
20
 10
-0.2499
 20
25.5190
 30
0.0000
  0
SEQEND
  8
0
  0
POLYLINE
  8
20
 66
1
 10
0.0000
 20
0.0000
 30
0.0000
 40
0.0381
 41
0.0381
 70
0
  0
VERTEX
  8
20
 10
-25.7690
 20
0.2501
 30
0.0000
 42
1.0000
  0
VERTEX
  8
20
 10
-25.7310
 20
0.2499
 30
0.0000
  0
SEQEND
  8
0
  0
POLYLINE
  8
20
 66
1
 10
0.0000
 20
0.0000
 30
0.0000
 40
0.0762
 41
0.0762
 70
0
  0
VERTEX
  8
20
 10
-32.5000
 20
5.0000
 30
0.0000
  0
VERTEX
  8
20
 10
-36.0000
 20
5.0000
 30
0.0000
  0
SEQEND
  8
0
  0
POLYLINE
  8
20
 66
1
 10
0.0000
 20
0.0000
 30
0.0000
 40
0.0381
 41
0.0381
 70
0
  0
VERTEX
  8
20
 10
-36.0000
 20
5.0191
 30
0.0000
 42
1.0000
  0
VERTEX
  8
20
 10
-36.0000
 20
4.9809
 30
0.0000
  0
SEQEND
  8
0
  0
POLYLINE
  8
20
 66
1
 10
0.0000
 20
0.0000
 30
0.0000
 40
0.0381
 41
0.0381
 70
0
  0
VERTEX
  8
20
 10
-32.5000
 20
4.9809
 30
0.0000
 42
1.0000
  0
VERTEX
  8
20
 10
-32.5000
 20
5.0191
 30
0.0000
  0
SEQEND
  8
0
  0
POLYLINE
  8
20
 66
1
 10
0.0000
 20
0.0000
 30
0.0000
 40
0.0762
 41
0.0762
 70
0
  0
VERTEX
  8
20
 10
-36.0000
 20
5.0000
 30
0.0000
 42
0.4142
  0
VERTEX
  8
20
 10
-41.0000
 20
0.0000
 30
0.0000
  0
SEQEND
  8
0
  0
POLYLINE
  8
20
 66
1
 10
0.0000
 20
0.0000
 30
0.0000
 40
0.0381
 41
0.0381
 70
0
  0
VERTEX
  8
20
 10
-36.0000
 20
4.9809
 30
0.0000
 42
1.0000
  0
VERTEX
  8
20
 10
-36.0000
 20
5.0191
 30
0.0000
  0
SEQEND
  8
0
  0
POLYLINE
  8
20
 66
1
 10
0.0000
 20
0.0000
 30
0.0000
 40
0.0381
 41
0.0381
 70
0
  0
VERTEX
  8
20
 10
-41.0191
 20
0.0000
 30
0.0000
 42
1.0000
  0
VERTEX
  8
20
 10
-40.9809
 20
-0.0000
 30
0.0000
  0
SEQEND
  8
0
  0
POLYLINE
  8
20
 66
1
 10
0.0000
 20
0.0000
 30
0.0000
 40
0.0762
 41
0.0762
 70
0
  0
VERTEX
  8
20
 10
-41.0000
 20
0.0000
 30
0.0000
 42
0.4142
  0
VERTEX
  8
20
 10
-36.0000
 20
-5.0000
 30
0.0000
  0
SEQEND
  8
0
  0
POLYLINE
  8
20
 66
1
 10
0.0000
 20
0.0000
 30
0.0000
 40
0.0381
 41
0.0381
 70
0
  0
VERTEX
  8
20
 10
-40.9809
 20
-0.0000
 30
0.0000
 42
1.0000
  0
VERTEX
  8
20
 10
-41.0191
 20
0.0000
 30
0.0000
  0
SEQEND
  8
0
  0
POLYLINE
  8
20
 66
1
 10
0.0000
 20
0.0000
 30
0.0000
 40
0.0381
 41
0.0381
 70
0
  0
VERTEX
  8
20
 10
-36.0000
 20
-5.0191
 30
0.0000
 42
1.0000
  0
VERTEX
  8
20
 10
-36.0000
 20
-4.9809
 30
0.0000
  0
SEQEND
  8
0
  0
POLYLINE
  8
20
 66
1
 10
0.0000
 20
0.0000
 30
0.0000
 40
0.0762
 41
0.0762
 70
0
  0
VERTEX
  8
20
 10
-36.0000
 20
-5.0000
 30
0.0000
  0
VERTEX
  8
20
 10
-32.2500
 20
-5.0000
 30
0.0000
  0
SEQEND
  8
0
  0
POLYLINE
  8
20
 66
1
 10
0.0000
 20
0.0000
 30
0.0000
 40
0.0381
 41
0.0381
 70
0
  0
VERTEX
  8
20
 10
-32.2500
 20
-5.0191
 30
0.0000
 42
1.0000
  0
VERTEX
  8
20
 10
-32.2500
 20
-4.9809
 30
0.0000
  0
SEQEND
  8
0
  0
POLYLINE
  8
20
 66
1
 10
0.0000
 20
0.0000
 30
0.0000
 40
0.0381
 41
0.0381
 70
0
  0
VERTEX
  8
20
 10
-36.0000
 20
-4.9809
 30
0.0000
 42
1.0000
  0
VERTEX
  8
20
 10
-36.0000
 20
-5.0191
 30
0.0000
  0
SEQEND
  8
0
  0
POLYLINE
  8
20
 66
1
 10
0.0000
 20
0.0000
 30
0.0000
 40
0.0762
 41
0.0762
 70
0
  0
VERTEX
  8
20
 10
-32.2500
 20
-5.0000
 30
0.0000
 42
0.3283
  0
VERTEX
  8
20
 10
-5.0000
 20
-32.5000
 30
0.0000
  0
SEQEND
  8
0
  0
POLYLINE
  8
20
 66
1
 10
0.0000
 20
0.0000
 30
0.0000
 40
0.0381
 41
0.0381
 70
0
  0
VERTEX
  8
20
 10
-32.2312
 20
-4.9972
 30
0.0000
 42
1.0000
  0
VERTEX
  8
20
 10
-32.2688
 20
-5.0028
 30
0.0000
  0
SEQEND
  8
0
  0
POLYLINE
  8
20
 66
1
 10
0.0000
 20
0.0000
 30
0.0000
 40
0.0381
 41
0.0381
 70
0
  0
VERTEX
  8
20
 10
-5.0030
 20
-32.5188
 30
0.0000
 42
1.0000
  0
VERTEX
  8
20
 10
-4.9970
 20
-32.4812
 30
0.0000
  0
SEQEND
  8
0
  0
POLYLINE
  8
20
 66
1
 10
0.0000
 20
0.0000
 30
0.0000
 40
0.0762
 41
0.0762
 70
0
  0
VERTEX
  8
20
 10
-5.0000
 20
32.5000
 30
0.0000
 42
0.3283
  0
VERTEX
  8
20
 10
-32.5000
 20
5.0000
 30
0.0000
  0
SEQEND
  8
0
  0
POLYLINE
  8
20
 66
1
 10
0.0000
 20
0.0000
 30
0.0000
 40
0.0381
 41
0.0381
 70
0
  0
VERTEX
  8
20
 10
-4.9971
 20
32.4812
 30
0.0000
 42
1.0000
  0
VERTEX
  8
20
 10
-5.0029
 20
32.5188
 30
0.0000
  0
SEQEND
  8
0
  0
POLYLINE
  8
20
 66
1
 10
0.0000
 20
0.0000
 30
0.0000
 40
0.0381
 41
0.0381
 70
0
  0
VERTEX
  8
20
 10
-32.5188
 20
5.0029
 30
0.0000
 42
1.0000
  0
VERTEX
  8
20
 10
-32.4812
 20
4.9971
 30
0.0000
  0
SEQEND
  8
0
  0
POLYLINE
  8
20
 66
1
 10
0.0000
 20
0.0000
 30
0.0000
 40
0.0762
 41
0.0762
 70
0
  0
VERTEX
  8
20
 10
5.0000
 20
32.5000
 30
0.0000
  0
VERTEX
  8
20
 10
5.0000
 20
36.2500
 30
0.0000
  0
SEQEND
  8
0
  0
POLYLINE
  8
20
 66
1
 10
0.0000
 20
0.0000
 30
0.0000
 40
0.0381
 41
0.0381
 70
0
  0
VERTEX
  8
20
 10
5.0191
 20
36.2500
 30
0.0000
 42
1.0000
  0
VERTEX
  8
20
 10
4.9809
 20
36.2500
 30
0.0000
  0
SEQEND
  8
0
  0
POLYLINE
  8
20
 66
1
 10
0.0000
 20
0.0000
 30
0.0000
 40
0.0381
 41
0.0381
 70
0
  0
VERTEX
  8
20
 10
4.9809
 20
32.5000
 30
0.0000
 42
1.0000
  0
VERTEX
  8
20
 10
5.0191
 20
32.5000
 30
0.0000
  0
SEQEND
  8
0
  0
POLYLINE
  8
20
 66
1
 10
0.0000
 20
0.0000
 30
0.0000
 40
0.0762
 41
0.0762
 70
0
  0
VERTEX
  8
20
 10
5.0000
 20
36.2500
 30
0.0000
 42
0.4142
  0
VERTEX
  8
20
 10
0.0000
 20
41.2500
 30
0.0000
  0
SEQEND
  8
0
  0
POLYLINE
  8
20
 66
1
 10
0.0000
 20
0.0000
 30
0.0000
 40
0.0381
 41
0.0381
 70
0
  0
VERTEX
  8
20
 10
4.9809
 20
36.2500
 30
0.0000
 42
1.0000
  0
VERTEX
  8
20
 10
5.0191
 20
36.2500
 30
0.0000
  0
SEQEND
  8
0
  0
POLYLINE
  8
20
 66
1
 10
0.0000
 20
0.0000
 30
0.0000
 40
0.0381
 41
0.0381
 70
0
  0
VERTEX
  8
20
 10
0.0000
 20
41.2691
 30
0.0000
 42
1.0000
  0
VERTEX
  8
20
 10
-0.0000
 20
41.2309
 30
0.0000
  0
SEQEND
  8
0
  0
POLYLINE
  8
20
 66
1
 10
0.0000
 20
0.0000
 30
0.0000
 40
0.0762
 41
0.0762
 70
0
  0
VERTEX
  8
20
 10
0.0000
 20
41.2500
 30
0.0000
 42
0.4142
  0
VERTEX
  8
20
 10
-5.0000
 20
36.2500
 30
0.0000
  0
SEQEND
  8
0
  0
POLYLINE
  8
20
 66
1
 10
0.0000
 20
0.0000
 30
0.0000
 40
0.0381
 41
0.0381
 70
0
  0
VERTEX
  8
20
 10
-0.0000
 20
41.2309
 30
0.0000
 42
1.0000
  0
VERTEX
  8
20
 10
0.0000
 20
41.2691
 30
0.0000
  0
SEQEND
  8
0
  0
POLYLINE
  8
20
 66
1
 10
0.0000
 20
0.0000
 30
0.0000
 40
0.0381
 41
0.0381
 70
0
  0
VERTEX
  8
20
 10
-5.0191
 20
36.2500
 30
0.0000
 42
1.0000
  0
VERTEX
  8
20
 10
-4.9809
 20
36.2500
 30
0.0000
  0
SEQEND
  8
0
  0
POLYLINE
  8
20
 66
1
 10
0.0000
 20
0.0000
 30
0.0000
 40
0.0762
 41
0.0762
 70
0
  0
VERTEX
  8
20
 10
-5.0000
 20
36.2500
 30
0.0000
  0
VERTEX
  8
20
 10
-5.0000
 20
32.5000
 30
0.0000
  0
SEQEND
  8
0
  0
POLYLINE
  8
20
 66
1
 10
0.0000
 20
0.0000
 30
0.0000
 40
0.0381
 41
0.0381
 70
0
  0
VERTEX
  8
20
 10
-5.0191
 20
32.5000
 30
0.0000
 42
1.0000
  0
VERTEX
  8
20
 10
-4.9809
 20
32.5000
 30
0.0000
  0
SEQEND
  8
0
  0
POLYLINE
  8
20
 66
1
 10
0.0000
 20
0.0000
 30
0.0000
 40
0.0381
 41
0.0381
 70
0
  0
VERTEX
  8
20
 10
-4.9809
 20
36.2500
 30
0.0000
 42
1.0000
  0
VERTEX
  8
20
 10
-5.0191
 20
36.2500
 30
0.0000
  0
SEQEND
  8
0
  0
POLYLINE
  8
20
 66
1
 10
0.0000
 20
0.0000
 30
0.0000
 40
0.0760
 41
0.0760
 70
0
  0
VERTEX
  8
20
 10
32.5000
 20
5.0000
 30
0.0000
 42
0.3283
  0
VERTEX
  8
20
 10
5.0000
 20
32.5000
 30
0.0000
  0
SEQEND
  8
0
  0
POLYLINE
  8
20
 66
1
 10
0.0000
 20
0.0000
 30
0.0000
 40
0.0380
 41
0.0380
 70
0
  0
VERTEX
  8
20
 10
32.4812
 20
4.9971
 30
0.0000
 42
1.0000
  0
VERTEX
  8
20
 10
32.5188
 20
5.0029
 30
0.0000
  0
SEQEND
  8
0
  0
POLYLINE
  8
20
 66
1
 10
0.0000
 20
0.0000
 30
0.0000
 40
0.0380
 41
0.0380
 70
0
  0
VERTEX
  8
20
 10
5.0029
 20
32.5188
 30
0.0000
 42
1.0000
  0
VERTEX
  8
20
 10
4.9971
 20
32.4812
 30
0.0000
  0
SEQEND
  8
0
  0
POLYLINE
  8
20
 66
1
 10
0.0000
 20
0.0000
 30
0.0000
 40
0.0762
 41
0.0762
 70
0
  0
VERTEX
  8
20
 10
32.2500
 20
-5.0000
 30
0.0000
  0
VERTEX
  8
20
 10
36.0000
 20
-5.0000
 30
0.0000
  0
SEQEND
  8
0
  0
POLYLINE
  8
20
 66
1
 10
0.0000
 20
0.0000
 30
0.0000
 40
0.0381
 41
0.0381
 70
0
  0
VERTEX
  8
20
 10
36.0000
 20
-5.0191
 30
0.0000
 42
1.0000
  0
VERTEX
  8
20
 10
36.0000
 20
-4.9809
 30
0.0000
  0
SEQEND
  8
0
  0
POLYLINE
  8
20
 66
1
 10
0.0000
 20
0.0000
 30
0.0000
 40
0.0381
 41
0.0381
 70
0
  0
VERTEX
  8
20
 10
32.2500
 20
-4.9809
 30
0.0000
 42
1.0000
  0
VERTEX
  8
20
 10
32.2500
 20
-5.0191
 30
0.0000
  0
SEQEND
  8
0
  0
POLYLINE
  8
20
 66
1
 10
0.0000
 20
0.0000
 30
0.0000
 40
0.0762
 41
0.0762
 70
0
  0
VERTEX
  8
20
 10
36.0000
 20
-5.0000
 30
0.0000
 42
0.4142
  0
VERTEX
  8
20
 10
41.0000
 20
0.0000
 30
0.0000
  0
SEQEND
  8
0
  0
POLYLINE
  8
20
 66
1
 10
0.0000
 20
0.0000
 30
0.0000
 40
0.0381
 41
0.0381
 70
0
  0
VERTEX
  8
20
 10
36.0000
 20
-4.9809
 30
0.0000
 42
1.0000
  0
VERTEX
  8
20
 10
36.0000
 20
-5.0191
 30
0.0000
  0
SEQEND
  8
0
  0
POLYLINE
  8
20
 66
1
 10
0.0000
 20
0.0000
 30
0.0000
 40
0.0381
 41
0.0381
 70
0
  0
VERTEX
  8
20
 10
41.0191
 20
-0.0000
 30
0.0000
 42
1.0000
  0
VERTEX
  8
20
 10
40.9809
 20
0.0000
 30
0.0000
  0
SEQEND
  8
0
  0
POLYLINE
  8
20
 66
1
 10
0.0000
 20
0.0000
 30
0.0000
 40
0.0762
 41
0.0762
 70
0
  0
VERTEX
  8
20
 10
41.0000
 20
0.0000
 30
0.0000
 42
0.4142
  0
VERTEX
  8
20
 10
36.3750
 20
5.0000
 30
0.0000
  0
SEQEND
  8
0
  0
POLYLINE
  8
20
 66
1
 10
0.0000
 20
0.0000
 30
0.0000
 40
0.0381
 41
0.0381
 70
0
  0
VERTEX
  8
20
 10
40.9810
 20
0.0007
 30
0.0000
 42
1.0000
  0
VERTEX
  8
20
 10
41.0190
 20
-0.0007
 30
0.0000
  0
SEQEND
  8
0
  0
POLYLINE
  8
20
 66
1
 10
0.0000
 20
0.0000
 30
0.0000
 40
0.0381
 41
0.0381
 70
0
  0
VERTEX
  8
20
 10
36.3757
 20
5.0190
 30
0.0000
 42
1.0000
  0
VERTEX
  8
20
 10
36.3743
 20
4.9810
 30
0.0000
  0
SEQEND
  8
0
  0
POLYLINE
  8
20
 66
1
 10
0.0000
 20
0.0000
 30
0.0000
 40
0.0760
 41
0.0760
 70
0
  0
VERTEX
  8
20
 10
36.3750
 20
5.0000
 30
0.0000
  0
VERTEX
  8
20
 10
32.5000
 20
5.0000
 30
0.0000
  0
SEQEND
  8
0
  0
POLYLINE
  8
20
 66
1
 10
0.0000
 20
0.0000
 30
0.0000
 40
0.0380
 41
0.0380
 70
0
  0
VERTEX
  8
20
 10
32.5000
 20
5.0190
 30
0.0000
 42
1.0000
  0
VERTEX
  8
20
 10
32.5000
 20
4.9810
 30
0.0000
  0
SEQEND
  8
0
  0
POLYLINE
  8
20
 66
1
 10
0.0000
 20
0.0000
 30
0.0000
 40
0.0380
 41
0.0380
 70
0
  0
VERTEX
  8
20
 10
36.3750
 20
4.9810
 30
0.0000
 42
1.0000
  0
VERTEX
  8
20
 10
36.3750
 20
5.0190
 30
0.0000
  0
SEQEND
  8
0
  0
POLYLINE
  8
20
 66
1
 10
0.0000
 20
0.0000
 30
0.0000
 40
0.0762
 41
0.0762
 70
0
  0
VERTEX
  8
20
 10
5.0000
 20
-32.5000
 30
0.0000
 42
0.3300
  0
VERTEX
  8
20
 10
32.2500
 20
-5.0000
 30
0.0000
  0
SEQEND
  8
0
  0
POLYLINE
  8
20
 66
1
 10
0.0000
 20
0.0000
 30
0.0000
 40
0.0381
 41
0.0381
 70
0
  0
VERTEX
  8
20
 10
4.9971
 20
-32.4812
 30
0.0000
 42
1.0000
  0
VERTEX
  8
20
 10
5.0029
 20
-32.5188
 30
0.0000
  0
SEQEND
  8
0
  0
POLYLINE
  8
20
 66
1
 10
0.0000
 20
0.0000
 30
0.0000
 40
0.0381
 41
0.0381
 70
0
  0
VERTEX
  8
20
 10
32.2689
 20
-5.0027
 30
0.0000
 42
1.0000
  0
VERTEX
  8
20
 10
32.2311
 20
-4.9973
 30
0.0000
  0
SEQEND
  8
0
  0
POLYLINE
  8
20
 66
1
 10
0.0000
 20
0.0000
 30
0.0000
 40
0.0762
 41
0.0762
 70
0
  0
VERTEX
  8
20
 10
-5.0000
 20
-32.5000
 30
0.0000
  0
VERTEX
  8
20
 10
-5.0000
 20
-36.2500
 30
0.0000
  0
SEQEND
  8
0
  0
POLYLINE
  8
20
 66
1
 10
0.0000
 20
0.0000
 30
0.0000
 40
0.0381
 41
0.0381
 70
0
  0
VERTEX
  8
20
 10
-5.0191
 20
-36.2500
 30
0.0000
 42
1.0000
  0
VERTEX
  8
20
 10
-4.9809
 20
-36.2500
 30
0.0000
  0
SEQEND
  8
0
  0
POLYLINE
  8
20
 66
1
 10
0.0000
 20
0.0000
 30
0.0000
 40
0.0381
 41
0.0381
 70
0
  0
VERTEX
  8
20
 10
-4.9809
 20
-32.5000
 30
0.0000
 42
1.0000
  0
VERTEX
  8
20
 10
-5.0191
 20
-32.5000
 30
0.0000
  0
SEQEND
  8
0
  0
POLYLINE
  8
20
 66
1
 10
0.0000
 20
0.0000
 30
0.0000
 40
0.0762
 41
0.0762
 70
0
  0
VERTEX
  8
20
 10
-5.0000
 20
-36.2500
 30
0.0000
 42
0.4142
  0
VERTEX
  8
20
 10
0.0000
 20
-41.0000
 30
0.0000
  0
SEQEND
  8
0
  0
POLYLINE
  8
20
 66
1
 10
0.0000
 20
0.0000
 30
0.0000
 40
0.0381
 41
0.0381
 70
0
  0
VERTEX
  8
20
 10
-4.9810
 20
-36.2495
 30
0.0000
 42
1.0000
  0
VERTEX
  8
20
 10
-5.0190
 20
-36.2505
 30
0.0000
  0
SEQEND
  8
0
  0
POLYLINE
  8
20
 66
1
 10
0.0000
 20
0.0000
 30
0.0000
 40
0.0381
 41
0.0381
 70
0
  0
VERTEX
  8
20
 10
0.0005
 20
-41.0190
 30
0.0000
 42
1.0000
  0
VERTEX
  8
20
 10
-0.0005
 20
-40.9810
 30
0.0000
  0
SEQEND
  8
0
  0
POLYLINE
  8
20
 66
1
 10
0.0000
 20
0.0000
 30
0.0000
 40
0.0762
 41
0.0762
 70
0
  0
VERTEX
  8
20
 10
0.0000
 20
-41.0000
 30
0.0000
 42
0.4142
  0
VERTEX
  8
20
 10
5.0000
 20
-36.1250
 30
0.0000
  0
SEQEND
  8
0
  0
POLYLINE
  8
20
 66
1
 10
0.0000
 20
0.0000
 30
0.0000
 40
0.0381
 41
0.0381
 70
0
  0
VERTEX
  8
20
 10
0.0002
 20
-40.9810
 30
0.0000
 42
1.0000
  0
VERTEX
  8
20
 10
-0.0002
 20
-41.0190
 30
0.0000
  0
SEQEND
  8
0
  0
POLYLINE
  8
20
 66
1
 10
0.0000
 20
0.0000
 30
0.0000
 40
0.0381
 41
0.0381
 70
0
  0
VERTEX
  8
20
 10
5.0190
 20
-36.1252
 30
0.0000
 42
1.0000
  0
VERTEX
  8
20
 10
4.9810
 20
-36.1248
 30
0.0000
  0
SEQEND
  8
0
  0
POLYLINE
  8
20
 66
1
 10
0.0000
 20
0.0000
 30
0.0000
 40
0.0762
 41
0.0762
 70
0
  0
VERTEX
  8
20
 10
5.0000
 20
-36.1250
 30
0.0000
  0
VERTEX
  8
20
 10
5.0000
 20
-32.5000
 30
0.0000
  0
SEQEND
  8
0
  0
POLYLINE
  8
20
 66
1
 10
0.0000
 20
0.0000
 30
0.0000
 40
0.0381
 41
0.0381
 70
0
  0
VERTEX
  8
20
 10
5.0191
 20
-32.5000
 30
0.0000
 42
1.0000
  0
VERTEX
  8
20
 10
4.9809
 20
-32.5000
 30
0.0000
  0
SEQEND
  8
0
  0
POLYLINE
  8
20
 66
1
 10
0.0000
 20
0.0000
 30
0.0000
 40
0.0381
 41
0.0381
 70
0
  0
VERTEX
  8
20
 10
4.9809
 20
-36.1250
 30
0.0000
 42
1.0000
  0
VERTEX
  8
20
 10
5.0191
 20
-36.1250
 30
0.0000
  0
SEQEND
  8
0
  0
POINT
  8
23
 10
20.2500
 20
21.0000
 30
0.0000
  0
INSERT
  8
17
  2
SQUAREP
 10
20.4102
 20
20.8361
 30
0.0000
 41
2.4130
 42
2.4130
 43
1.0000
 50
140.1000
  0
INSERT
  8
17
  2
SQUAREP
 10
20.4102
 20
20.8361
 30
0.0000
 41
2.4130
 42
2.4130
 43
1.0000
 50
140.1000
  0
CIRCLE
  8
44
 10
20.4102
 20
20.8361
 30
0.0000
 40
0.6000
  0
INSERT
  8
17
  2
ROUNDP
 10
17.7251
 20
23.0812
 30
0.0000
 41
2.4130
 42
2.4130
 43
1.0000
 50
140.1000
  0
INSERT
  8
17
  2
ROUNDP
 10
17.7251
 20
23.0812
 30
0.0000
 41
2.4130
 42
2.4130
 43
1.0000
 50
140.1000
  0
CIRCLE
  8
44
 10
17.7251
 20
23.0812
 30
0.0000
 40
0.6000
  0
INSERT
  8
17
  2
ROUNDP
 10
15.0400
 20
25.3263
 30
0.0000
 41
2.4130
 42
2.4130
 43
1.0000
 50
140.1000
  0
INSERT
  8
17
  2
ROUNDP
 10
15.0400
 20
25.3263
 30
0.0000
 41
2.4130
 42
2.4130
 43
1.0000
 50
140.1000
  0
CIRCLE
  8
44
 10
15.0400
 20
25.3263
 30
0.0000
 40
0.6000
  0
POINT
  8
23
 10
-20.5000
 20
22.0000
 30
0.0000
  0
INSERT
  8
17
  2
SQUAREP
 10
-20.3483
 20
22.1717
 30
0.0000
 41
2.4130
 42
2.4130
 43
1.0000
 50
234.3000
  0
INSERT
  8
17
  2
SQUAREP
 10
-20.3483
 20
22.1717
 30
0.0000
 41
2.4130
 42
2.4130
 43
1.0000
 50
234.3000
  0
CIRCLE
  8
44
 10
-20.3483
 20
22.1717
 30
0.0000
 40
0.6000
  0
INSERT
  8
17
  2
ROUNDP
 10
-22.3907
 20
19.3294
 30
0.0000
 41
2.4130
 42
2.4130
 43
1.0000
 50
234.3000
  0
INSERT
  8
17
  2
ROUNDP
 10
-22.3907
 20
19.3294
 30
0.0000
 41
2.4130
 42
2.4130
 43
1.0000
 50
234.3000
  0
CIRCLE
  8
44
 10
-22.3907
 20
19.3294
 30
0.0000
 40
0.6000
  0
INSERT
  8
17
  2
ROUNDP
 10
-24.4331
 20
16.4871
 30
0.0000
 41
2.4130
 42
2.4130
 43
1.0000
 50
234.3000
  0
INSERT
  8
17
  2
ROUNDP
 10
-24.4331
 20
16.4871
 30
0.0000
 41
2.4130
 42
2.4130
 43
1.0000
 50
234.3000
  0
CIRCLE
  8
44
 10
-24.4331
 20
16.4871
 30
0.0000
 40
0.6000
  0
POINT
  8
23
 10
4.1402
 20
31.3182
 30
0.0000
  0
INSERT
  8
17
  2
ROUNDP
 10
4.1402
 20
31.3182
 30
0.0000
 41
1.7272
 42
1.7272
 43
1.0000
 50
0.0000
  0
INSERT
  8
17
  2
ROUNDP
 10
4.1402
 20
31.3182
 30
0.0000
 41
1.7272
 42
1.7272
 43
1.0000
 50
0.0000
  0
CIRCLE
  8
44
 10
4.1402
 20
31.3182
 30
0.0000
 40
0.5000
  0
POINT
  8
23
 10
-12.0650
 20
29.2100
 30
0.0000
  0
INSERT
  8
17
  2
ROUNDP
 10
-12.0650
 20
29.2100
 30
0.0000
 41
1.7272
 42
1.7272
 43
1.0000
 50
0.0000
  0
INSERT
  8
17
  2
ROUNDP
 10
-12.0650
 20
29.2100
 30
0.0000
 41
1.7272
 42
1.7272
 43
1.0000
 50
0.0000
  0
CIRCLE
  8
44
 10
-12.0650
 20
29.2100
 30
0.0000
 40
0.5000
  0
POINT
  8
23
 10
-4.1402
 20
-31.3182
 30
0.0000
  0
INSERT
  8
17
  2
ROUNDP
 10
-4.1402
 20
-31.3182
 30
0.0000
 41
1.7272
 42
1.7272
 43
1.0000
 50
0.0000
  0
INSERT
  8
17
  2
ROUNDP
 10
-4.1402
 20
-31.3182
 30
0.0000
 41
1.7272
 42
1.7272
 43
1.0000
 50
0.0000
  0
CIRCLE
  8
44
 10
-4.1402
 20
-31.3182
 30
0.0000
 40
0.5000
  0
POINT
  8
23
 10
12.0904
 20
-29.1846
 30
0.0000
  0
INSERT
  8
17
  2
ROUNDP
 10
12.0904
 20
-29.1846
 30
0.0000
 41
1.7272
 42
1.7272
 43
1.0000
 50
0.0000
  0
INSERT
  8
17
  2
ROUNDP
 10
12.0904
 20
-29.1846
 30
0.0000
 41
1.7272
 42
1.7272
 43
1.0000
 50
0.0000
  0
CIRCLE
  8
44
 10
12.0904
 20
-29.1846
 30
0.0000
 40
0.5000
  0
POINT
  8
23
 10
-19.2278
 20
-25.0698
 30
0.0000
  0
INSERT
  8
17
  2
ROUNDP
 10
-19.2278
 20
-25.0698
 30
0.0000
 41
1.7272
 42
1.7272
 43
1.0000
 50
0.0000
  0
INSERT
  8
17
  2
ROUNDP
 10
-19.2278
 20
-25.0698
 30
0.0000
 41
1.7272
 42
1.7272
 43
1.0000
 50
0.0000
  0
CIRCLE
  8
44
 10
-19.2278
 20
-25.0698
 30
0.0000
 40
0.5000
  0
POINT
  8
23
 10
25.0952
 20
-19.2532
 30
0.0000
  0
INSERT
  8
17
  2
ROUNDP
 10
25.0952
 20
-19.2532
 30
0.0000
 41
1.7272
 42
1.7272
 43
1.0000
 50
0.0000
  0
INSERT
  8
17
  2
ROUNDP
 10
25.0952
 20
-19.2532
 30
0.0000
 41
1.7272
 42
1.7272
 43
1.0000
 50
0.0000
  0
CIRCLE
  8
44
 10
25.0952
 20
-19.2532
 30
0.0000
 40
0.5000
  0
POINT
  8
23
 10
-35.7500
 20
0.0000
 30
0.0000
  0
INSERT
  8
17
  2
ROUNDP
 10
-35.7500
 20
0.0000
 30
0.0000
 41
7.6200
 42
7.6200
 43
1.0000
 50
0.0000
  0
INSERT
  8
17
  2
ROUNDP
 10
-35.7500
 20
0.0000
 30
0.0000
 41
7.6200
 42
7.6200
 43
1.0000
 50
0.0000
  0
CIRCLE
  8
44
 10
-35.7500
 20
0.0000
 30
0.0000
 40
2.1590
  0
POINT
  8
23
 10
0.0000
 20
-36.0000
 30
0.0000
  0
INSERT
  8
17
  2
ROUNDP
 10
0.0000
 20
-36.0000
 30
0.0000
 41
7.6200
 42
7.6200
 43
1.0000
 50
0.0000
  0
INSERT
  8
17
  2
ROUNDP
 10
0.0000
 20
-36.0000
 30
0.0000
 41
7.6200
 42
7.6200
 43
1.0000
 50
0.0000
  0
CIRCLE
  8
44
 10
0.0000
 20
-36.0000
 30
0.0000
 40
2.1590
  0
POINT
  8
23
 10
35.7500
 20
0.0000
 30
0.0000
  0
INSERT
  8
17
  2
ROUNDP
 10
35.7500
 20
0.0000
 30
0.0000
 41
7.6200
 42
7.6200
 43
1.0000
 50
0.0000
  0
INSERT
  8
17
  2
ROUNDP
 10
35.7500
 20
0.0000
 30
0.0000
 41
7.6200
 42
7.6200
 43
1.0000
 50
0.0000
  0
CIRCLE
  8
44
 10
35.7500
 20
0.0000
 30
0.0000
 40
2.1590
  0
POINT
  8
23
 10
0.0000
 20
36.0000
 30
0.0000
  0
INSERT
  8
17
  2
ROUNDP
 10
0.0000
 20
36.0000
 30
0.0000
 41
7.6200
 42
7.6200
 43
1.0000
 50
0.0000
  0
INSERT
  8
17
  2
ROUNDP
 10
0.0000
 20
36.0000
 30
0.0000
 41
7.6200
 42
7.6200
 43
1.0000
 50
0.0000
  0
CIRCLE
  8
44
 10
0.0000
 20
36.0000
 30
0.0000
 40
2.1590
  0
INSERT
  8
18
  2
ROUNDV
 10
-17.2500
 20
26.0000
 30
0.0000
 41
0.8001
 42
0.8001
 43
1.0000
 50
0.0000
  0
INSERT
  8
18
  2
ROUNDV
 10
-17.2500
 20
26.0000
 30
0.0000
 41
0.8001
 42
0.8001
 43
1.0000
 50
0.0000
  0
CIRCLE
  8
44
 10
-17.2500
 20
26.0000
 30
0.0000
 40
0.1968
  0
INSERT
  8
18
  2
ROUNDV
 10
-10.0000
 20
28.7500
 30
0.0000
 41
0.8001
 42
0.8001
 43
1.0000
 50
0.0000
  0
INSERT
  8
18
  2
ROUNDV
 10
-10.0000
 20
28.7500
 30
0.0000
 41
0.8001
 42
0.8001
 43
1.0000
 50
0.0000
  0
CIRCLE
  8
44
 10
-10.0000
 20
28.7500
 30
0.0000
 40
0.1968
  0
INSERT
  8
18
  2
ROUNDV
 10
-21.2500
 20
16.5000
 30
0.0000
 41
0.8001
 42
0.8001
 43
1.0000
 50
0.0000
  0
INSERT
  8
18
  2
ROUNDV
 10
-21.2500
 20
16.5000
 30
0.0000
 41
0.8001
 42
0.8001
 43
1.0000
 50
0.0000
  0
CIRCLE
  8
44
 10
-21.2500
 20
16.5000
 30
0.0000
 40
0.1968
  0
INSERT
  8
18
  2
ROUNDV
 10
12.5000
 20
27.5000
 30
0.0000
 41
0.8001
 42
0.8001
 43
1.0000
 50
0.0000
  0
INSERT
  8
18
  2
ROUNDV
 10
12.5000
 20
27.5000
 30
0.0000
 41
0.8001
 42
0.8001
 43
1.0000
 50
0.0000
  0
CIRCLE
  8
44
 10
12.5000
 20
27.5000
 30
0.0000
 40
0.1968
  0
ENDSEC
  0
EOF
