M48
;GenerationSoftware,Autodesk,EAGLE,9.6.2*%
;CreationDate,2021-03-22T22:34:13Z*%
FMAT,2
ICI,OFF
METRIC,TZ,000.000
T2C1.397
T1C3.658
%
G90
M71
T1
X21590Y19050
X21590Y36830
X97790Y19050
X97790Y36830
T2
X31750Y17780
X36830Y17780
X87630Y17780
X41910Y17780
X46990Y17780
X82550Y17780
X67310Y17780
X72390Y17780
X77470Y17780
X62230Y17780
X57150Y17780
X52070Y17780
X87630Y38100
X82550Y38100
X31750Y38100
X77470Y38100
X72390Y38100
X36830Y38100
X52070Y38100
X46990Y38100
X41910Y38100
X57150Y38100
X62230Y38100
X67310Y38100
M30