G04 EAGLE Gerber RS-274X export*
G75*
%MOMM*%
%FSLAX34Y34*%
%LPD*%
%INBottom Copper Layer*%
%IPPOS*%
%AMOC8*
5,1,8,0,0,1.08239X$1,22.5*%
G01*
%ADD10C,2.095500*%
%ADD11C,6.985000*%


D10*
X317500Y167323D02*
X317500Y188278D01*
X368300Y188278D02*
X368300Y167323D01*
X876300Y167323D02*
X876300Y188278D01*
X419100Y188278D02*
X419100Y167323D01*
X469900Y167323D02*
X469900Y188278D01*
X825500Y188278D02*
X825500Y167323D01*
X673100Y167323D02*
X673100Y188278D01*
X723900Y188278D02*
X723900Y167323D01*
X774700Y167323D02*
X774700Y188278D01*
X622300Y188278D02*
X622300Y167323D01*
X571500Y167323D02*
X571500Y188278D01*
X520700Y188278D02*
X520700Y167323D01*
X876300Y370523D02*
X876300Y391478D01*
X825500Y391478D02*
X825500Y370523D01*
X317500Y370523D02*
X317500Y391478D01*
X774700Y391478D02*
X774700Y370523D01*
X723900Y370523D02*
X723900Y391478D01*
X368300Y391478D02*
X368300Y370523D01*
X520700Y370523D02*
X520700Y391478D01*
X469900Y391478D02*
X469900Y370523D01*
X419100Y370523D02*
X419100Y391478D01*
X571500Y391478D02*
X571500Y370523D01*
X622300Y370523D02*
X622300Y391478D01*
X673100Y391478D02*
X673100Y370523D01*
D11*
X215900Y190500D03*
X215900Y368300D03*
X977900Y190500D03*
X977900Y368300D03*
M02*
