G04 EAGLE Gerber RS-274X export*
G75*
%MOMM*%
%FSLAX34Y34*%
%LPD*%
%INBoard Outline*%
%IPPOS*%
%AMOC8*
5,1,8,0,0,1.08239X$1,22.5*%
G01*
%ADD10C,0.000000*%


D10*
X1041200Y178999D02*
X1041200Y380341D01*
X1041181Y381873D01*
X1041126Y383404D01*
X1041033Y384933D01*
X1040904Y386460D01*
X1040738Y387983D01*
X1040535Y389501D01*
X1040295Y391015D01*
X1040019Y392522D01*
X1039706Y394022D01*
X1039358Y395513D01*
X1038973Y396996D01*
X1038553Y398470D01*
X1038097Y399932D01*
X1037606Y401384D01*
X1037080Y402823D01*
X1036520Y404248D01*
X1035925Y405660D01*
X1035296Y407057D01*
X1034634Y408439D01*
X1033938Y409804D01*
X1033210Y411152D01*
X1032449Y412482D01*
X1031656Y413793D01*
X1030832Y415084D01*
X1029977Y416356D01*
X1029092Y417606D01*
X1028176Y418834D01*
X1027232Y420041D01*
X1026258Y421223D01*
X1025256Y422382D01*
X1024226Y423517D01*
X1023169Y424626D01*
X1022086Y425709D01*
X1020977Y426766D01*
X1019842Y427796D01*
X1018683Y428798D01*
X1017501Y429772D01*
X1016294Y430716D01*
X1015066Y431632D01*
X1013816Y432517D01*
X1012544Y433372D01*
X1011253Y434196D01*
X1009942Y434989D01*
X1008612Y435750D01*
X1007264Y436478D01*
X1005899Y437174D01*
X1004517Y437836D01*
X1003120Y438465D01*
X1001708Y439060D01*
X1000283Y439620D01*
X998844Y440146D01*
X997392Y440637D01*
X995930Y441093D01*
X994456Y441513D01*
X992973Y441898D01*
X991482Y442246D01*
X989982Y442559D01*
X988475Y442835D01*
X986961Y443075D01*
X985443Y443278D01*
X983920Y443444D01*
X982393Y443573D01*
X980864Y443666D01*
X979333Y443721D01*
X977801Y443740D01*
X216138Y443740D01*
X214598Y443721D01*
X213059Y443666D01*
X211521Y443573D01*
X209986Y443442D01*
X208455Y443275D01*
X206929Y443071D01*
X205407Y442830D01*
X203892Y442553D01*
X202384Y442238D01*
X200884Y441888D01*
X199394Y441501D01*
X197912Y441079D01*
X196442Y440620D01*
X194983Y440127D01*
X193536Y439598D01*
X192103Y439035D01*
X190683Y438437D01*
X189279Y437804D01*
X187890Y437138D01*
X186517Y436439D01*
X185162Y435707D01*
X183825Y434942D01*
X182507Y434145D01*
X181209Y433317D01*
X179931Y432457D01*
X178674Y431567D01*
X177439Y430647D01*
X176226Y429697D01*
X175037Y428718D01*
X173872Y427711D01*
X172731Y426675D01*
X171616Y425613D01*
X170527Y424524D01*
X169465Y423409D01*
X168429Y422268D01*
X167422Y421103D01*
X166443Y419914D01*
X165493Y418701D01*
X164573Y417466D01*
X163683Y416209D01*
X162823Y414931D01*
X161995Y413633D01*
X161198Y412315D01*
X160433Y410978D01*
X159701Y409623D01*
X159002Y408250D01*
X158336Y406861D01*
X157703Y405457D01*
X157105Y404037D01*
X156542Y402604D01*
X156013Y401157D01*
X155520Y399698D01*
X155061Y398228D01*
X154639Y396746D01*
X154252Y395256D01*
X153902Y393756D01*
X153587Y392248D01*
X153310Y390733D01*
X153069Y389211D01*
X152865Y387685D01*
X152698Y386154D01*
X152567Y384619D01*
X152474Y383081D01*
X152419Y381542D01*
X152400Y380002D01*
X152400Y157660D01*
X152413Y156612D01*
X152451Y155565D01*
X152514Y154519D01*
X152602Y153475D01*
X152716Y152434D01*
X152855Y151395D01*
X153019Y150360D01*
X153208Y149329D01*
X153422Y148304D01*
X153660Y147283D01*
X153923Y146269D01*
X154210Y145261D01*
X154522Y144261D01*
X154858Y143268D01*
X155218Y142284D01*
X155601Y141309D01*
X156008Y140344D01*
X156438Y139388D01*
X156891Y138443D01*
X157367Y137510D01*
X157865Y136588D01*
X158385Y135678D01*
X158927Y134782D01*
X159491Y133898D01*
X160075Y133029D01*
X160681Y132174D01*
X161307Y131333D01*
X161953Y130509D01*
X162619Y129700D01*
X163305Y128907D01*
X164009Y128131D01*
X164732Y127373D01*
X165473Y126632D01*
X166231Y125909D01*
X167007Y125205D01*
X167800Y124519D01*
X168609Y123853D01*
X169433Y123207D01*
X170274Y122581D01*
X171129Y121975D01*
X171998Y121391D01*
X172882Y120827D01*
X173778Y120285D01*
X174688Y119765D01*
X175610Y119267D01*
X176543Y118791D01*
X177488Y118338D01*
X178444Y117908D01*
X179409Y117501D01*
X180384Y117118D01*
X181368Y116758D01*
X182361Y116422D01*
X183361Y116110D01*
X184369Y115823D01*
X185383Y115560D01*
X186404Y115322D01*
X187429Y115108D01*
X188460Y114919D01*
X189495Y114755D01*
X190534Y114616D01*
X191575Y114502D01*
X192619Y114414D01*
X193665Y114351D01*
X194712Y114313D01*
X195760Y114300D01*
X976501Y114300D01*
X978064Y114319D01*
X979627Y114376D01*
X981187Y114470D01*
X982745Y114602D01*
X984300Y114772D01*
X985849Y114979D01*
X987394Y115224D01*
X988931Y115505D01*
X990462Y115824D01*
X991984Y116180D01*
X993498Y116573D01*
X995001Y117001D01*
X996494Y117467D01*
X997975Y117968D01*
X999444Y118504D01*
X1000899Y119076D01*
X1002339Y119683D01*
X1003765Y120325D01*
X1005175Y121001D01*
X1006568Y121711D01*
X1007944Y122454D01*
X1009301Y123230D01*
X1010639Y124039D01*
X1011957Y124880D01*
X1013254Y125753D01*
X1014530Y126656D01*
X1015784Y127591D01*
X1017015Y128555D01*
X1018222Y129549D01*
X1019404Y130571D01*
X1020562Y131622D01*
X1021694Y132700D01*
X1022800Y133806D01*
X1023878Y134938D01*
X1024929Y136096D01*
X1025951Y137278D01*
X1026945Y138485D01*
X1027909Y139716D01*
X1028844Y140970D01*
X1029747Y142246D01*
X1030620Y143543D01*
X1031461Y144861D01*
X1032270Y146199D01*
X1033046Y147556D01*
X1033789Y148932D01*
X1034499Y150325D01*
X1035175Y151735D01*
X1035817Y153161D01*
X1036424Y154601D01*
X1036996Y156056D01*
X1037532Y157525D01*
X1038033Y159006D01*
X1038499Y160499D01*
X1038927Y162002D01*
X1039320Y163516D01*
X1039676Y165038D01*
X1039995Y166569D01*
X1040276Y168106D01*
X1040521Y169651D01*
X1040728Y171200D01*
X1040898Y172755D01*
X1041030Y174313D01*
X1041124Y175873D01*
X1041181Y177436D01*
X1041200Y178999D01*
M02*
