G04 EAGLE Gerber RS-274X export*
G75*
%MOMM*%
%FSLAX34Y34*%
%LPD*%
%INBottom Copper Layer*%
%IPPOS*%
%AMOC8*
5,1,8,0,0,1.08239X$1,22.5*%
G01*
%ADD10C,1.676400*%
%ADD11C,1.500000*%
%ADD12C,1.430000*%
%ADD13C,2.095500*%
%ADD14C,7.620000*%
%ADD15C,1.050000*%
%ADD16C,0.609600*%
%ADD17C,0.304800*%
%ADD18C,0.812800*%


D10*
X533400Y736600D03*
X558800Y736600D03*
X584200Y736600D03*
X431800Y736600D03*
X457200Y736600D03*
X482600Y736600D03*
X330200Y736600D03*
X355600Y736600D03*
X381000Y736600D03*
X228600Y736600D03*
X254000Y736600D03*
X279400Y736600D03*
X127000Y736600D03*
X152400Y736600D03*
X177800Y736600D03*
X622300Y736600D03*
X647700Y736600D03*
X673100Y736600D03*
D11*
X527050Y685800D03*
X364998Y706882D03*
X155448Y201168D03*
X285496Y101854D03*
X447802Y80518D03*
X598678Y143002D03*
D12*
X465200Y482600D03*
X347600Y482600D03*
X347600Y304800D03*
X465200Y304800D03*
D13*
X137478Y444500D02*
X116523Y444500D01*
X116523Y393700D02*
X137478Y393700D01*
X137478Y342900D02*
X116523Y342900D01*
X675323Y266700D02*
X696278Y266700D01*
X696278Y317500D02*
X675323Y317500D01*
X675323Y368300D02*
X696278Y368300D01*
X696278Y469900D02*
X675323Y469900D01*
X675323Y520700D02*
X696278Y520700D01*
D14*
X736600Y63500D03*
X76200Y63500D03*
X736600Y723900D03*
X76200Y723900D03*
D15*
X401150Y421650D02*
X411650Y421650D01*
X411650Y408950D02*
X401150Y408950D01*
X401150Y378450D02*
X411650Y378450D01*
X411650Y365750D02*
X401150Y365750D01*
D16*
X406400Y406400D02*
X463550Y406400D01*
X463550Y482600D01*
X406400Y408950D02*
X406400Y406400D01*
X463550Y482600D02*
X465200Y482600D01*
X469900Y482600D02*
X622300Y635000D01*
X622300Y736600D01*
X469900Y482600D02*
X465200Y482600D01*
D17*
X177800Y736600D02*
X178308Y737235D01*
X584200Y736600D02*
X586359Y737235D01*
X414909Y733806D02*
X384048Y733806D01*
X414909Y733806D02*
X428625Y720090D01*
X466344Y720090D01*
X480060Y733806D01*
X384048Y733806D02*
X381000Y736600D01*
X480060Y733806D02*
X482600Y736600D01*
X483489Y737235D01*
X381000Y736600D02*
X380619Y733806D01*
D18*
X672719Y736600D02*
X673100Y736600D01*
X656463Y752856D02*
X601980Y752856D01*
X586359Y737235D01*
X656463Y752856D02*
X672719Y736600D01*
X584200Y736600D02*
X581790Y736600D01*
X565534Y720344D01*
X500380Y720344D02*
X483489Y737235D01*
X411605Y733806D02*
X380619Y733806D01*
X411605Y733806D02*
X425067Y720344D01*
X466344Y720344D02*
X482600Y736600D01*
X466344Y720344D02*
X425067Y720344D01*
X279400Y736600D02*
X276990Y736600D01*
X260734Y720344D01*
X195199Y720344D01*
X178308Y737235D01*
X279400Y736600D02*
X304800Y762000D01*
X381000Y762000D01*
X381000Y736600D01*
X500380Y720344D02*
X565534Y720344D01*
D16*
X349250Y438150D02*
X406400Y381000D01*
X349250Y438150D02*
X349250Y482600D01*
X406400Y381000D02*
X406400Y378450D01*
X349250Y482600D02*
X347600Y482600D01*
D18*
X469900Y304800D02*
X685800Y520700D01*
X469900Y304800D02*
X465200Y304800D01*
D17*
X363474Y614807D02*
X363474Y706374D01*
X363474Y614807D02*
X146631Y397964D01*
X363474Y706374D02*
X364998Y706882D01*
X146631Y397964D02*
X127605Y394305D01*
X127000Y393700D01*
M02*
