M48
;GenerationSoftware,Autodesk,EAGLE,9.6.1*%
;CreationDate,2020-07-02T20:57:58Z*%
FMAT,2
ICI,OFF
METRIC,TZ,000.000
T5C0.700
T4C0.830
T3C1.016
T2C1.200
T1C3.969
%
G90
M71
T1
X73660Y6350
X7620Y6350
X73660Y72390
X7620Y72390
T2
X71732Y44872
X71732Y37872
X71732Y41372
T3
X35560Y73660
X38100Y73660
X22860Y73660
X25400Y73660
X27940Y73660
X12700Y73660
X15240Y73660
X17780Y73660
X62230Y73660
X53340Y73660
X67310Y73660
X55880Y73660
X58420Y73660
X43180Y73660
X45720Y73660
X48260Y73660
X33020Y73660
X64770Y73660
T4
X46520Y30480
X46520Y48260
X34760Y48260
X34760Y30480
T5
X40640Y42165
X40640Y40895
X40640Y37845
X40640Y36575
M30