G04 EAGLE Gerber RS-274X export*
G75*
%MOMM*%
%FSLAX34Y34*%
%LPD*%
%INBoard Outline*%
%IPPOS*%
%AMOC8*
5,1,8,0,0,1.08239X$1,22.5*%
G01*
%ADD10C,0.076200*%
%ADD11C,0.076000*%


D10*
X257500Y2500D02*
X257334Y8691D01*
X257019Y14876D01*
X256555Y21052D01*
X255941Y27214D01*
X255179Y33360D01*
X254269Y39486D01*
X253211Y45588D01*
X252005Y51663D01*
X250653Y57706D01*
X249156Y63716D01*
X247514Y69687D01*
X245728Y75617D01*
X243799Y81502D01*
X241729Y87339D01*
X239518Y93124D01*
X237168Y98854D01*
X234680Y104525D01*
X232056Y110135D01*
X229297Y115679D01*
X226405Y121156D01*
X223381Y126560D01*
X220228Y131891D01*
X216947Y137143D01*
X213540Y142315D01*
X210009Y147403D01*
X206356Y152404D01*
X202583Y157315D01*
X198693Y162133D01*
X194687Y166857D01*
X190569Y171482D01*
X186340Y176006D01*
X182003Y180427D01*
X177560Y184741D01*
X173014Y188947D01*
X168368Y193042D01*
X163624Y197024D01*
X158786Y200889D01*
X153855Y204637D01*
X148836Y208264D01*
X143730Y211769D01*
X138541Y215150D01*
X133272Y218404D01*
X127926Y221530D01*
X122506Y224526D01*
X117015Y227390D01*
X111456Y230121D01*
X105833Y232716D01*
X100149Y235175D01*
X94407Y237496D01*
X88611Y239677D01*
X82764Y241718D01*
X76869Y243617D01*
X70930Y245372D01*
X64950Y246984D01*
X58934Y248451D01*
X52883Y249772D01*
X46802Y250946D01*
X40695Y251973D01*
X34565Y252852D01*
X28415Y253583D01*
X22249Y254165D01*
X16071Y254598D01*
X9885Y254881D01*
X3693Y255015D01*
X-2500Y255000D01*
X257500Y2500D02*
X257500Y0D01*
X257425Y-6222D01*
X257199Y-12441D01*
X256824Y-18652D01*
X256298Y-24852D01*
X255623Y-31038D01*
X254798Y-37206D01*
X253824Y-43352D01*
X252703Y-49473D01*
X251434Y-55564D01*
X250018Y-61624D01*
X248455Y-67647D01*
X246748Y-73631D01*
X244897Y-79572D01*
X242903Y-85466D01*
X240767Y-91311D01*
X238490Y-97102D01*
X236074Y-102836D01*
X233520Y-108511D01*
X230830Y-114122D01*
X228005Y-119666D01*
X225047Y-125141D01*
X221957Y-130542D01*
X218738Y-135867D01*
X215391Y-141113D01*
X211918Y-146277D01*
X208322Y-151355D01*
X204604Y-156344D01*
X200766Y-161243D01*
X196811Y-166047D01*
X192742Y-170754D01*
X188559Y-175362D01*
X184267Y-179867D01*
X179867Y-184267D01*
X175362Y-188559D01*
X170754Y-192742D01*
X166047Y-196811D01*
X161243Y-200766D01*
X156344Y-204604D01*
X151355Y-208322D01*
X146277Y-211918D01*
X141113Y-215391D01*
X135867Y-218738D01*
X130542Y-221957D01*
X125141Y-225047D01*
X119666Y-228005D01*
X114122Y-230830D01*
X108511Y-233520D01*
X102836Y-236074D01*
X97102Y-238490D01*
X91311Y-240767D01*
X85466Y-242903D01*
X79572Y-244897D01*
X73631Y-246748D01*
X67647Y-248455D01*
X61624Y-250018D01*
X55564Y-251434D01*
X49473Y-252703D01*
X43352Y-253824D01*
X37206Y-254798D01*
X31038Y-255623D01*
X24852Y-256298D01*
X18652Y-256824D01*
X12441Y-257199D01*
X6222Y-257425D01*
X0Y-257500D01*
X-6222Y-257425D01*
X-12441Y-257199D01*
X-18652Y-256824D01*
X-24852Y-256298D01*
X-31038Y-255623D01*
X-37206Y-254798D01*
X-43352Y-253824D01*
X-49473Y-252703D01*
X-55564Y-251434D01*
X-61624Y-250018D01*
X-67647Y-248455D01*
X-73631Y-246748D01*
X-79572Y-244897D01*
X-85466Y-242903D01*
X-91311Y-240767D01*
X-97102Y-238490D01*
X-102836Y-236074D01*
X-108511Y-233520D01*
X-114122Y-230830D01*
X-119666Y-228005D01*
X-125141Y-225047D01*
X-130542Y-221957D01*
X-135867Y-218738D01*
X-141113Y-215391D01*
X-146277Y-211918D01*
X-151355Y-208322D01*
X-156344Y-204604D01*
X-161243Y-200766D01*
X-166047Y-196811D01*
X-170754Y-192742D01*
X-175362Y-188559D01*
X-179867Y-184267D01*
X-184267Y-179867D01*
X-188559Y-175362D01*
X-192742Y-170754D01*
X-196811Y-166047D01*
X-200766Y-161243D01*
X-204604Y-156344D01*
X-208322Y-151355D01*
X-211918Y-146277D01*
X-215391Y-141113D01*
X-218738Y-135867D01*
X-221957Y-130542D01*
X-225047Y-125141D01*
X-228005Y-119666D01*
X-230830Y-114122D01*
X-233520Y-108511D01*
X-236074Y-102836D01*
X-238490Y-97102D01*
X-240767Y-91311D01*
X-242903Y-85466D01*
X-244897Y-79572D01*
X-246748Y-73631D01*
X-248455Y-67647D01*
X-250018Y-61624D01*
X-251434Y-55564D01*
X-252703Y-49473D01*
X-253824Y-43352D01*
X-254798Y-37206D01*
X-255623Y-31038D01*
X-256298Y-24852D01*
X-256824Y-18652D01*
X-257199Y-12441D01*
X-257425Y-6222D01*
X-257500Y0D01*
X-257500Y2500D01*
X-257393Y8727D01*
X-257133Y14949D01*
X-256720Y21164D01*
X-256156Y27366D01*
X-255439Y33552D01*
X-254570Y39719D01*
X-253550Y45863D01*
X-252380Y51980D01*
X-251060Y58067D01*
X-249592Y64119D01*
X-247975Y70133D01*
X-246211Y76106D01*
X-244301Y82034D01*
X-242246Y87913D01*
X-240047Y93740D01*
X-237706Y99511D01*
X-235224Y105223D01*
X-232603Y110872D01*
X-229844Y116455D01*
X-226948Y121969D01*
X-223918Y127410D01*
X-220756Y132776D01*
X-217463Y138062D01*
X-214041Y143265D01*
X-210492Y148383D01*
X-206819Y153413D01*
X-203024Y158350D01*
X-199108Y163194D01*
X-195075Y167939D01*
X-190927Y172584D01*
X-186666Y177126D01*
X-182294Y181562D01*
X-177816Y185890D01*
X-173232Y190106D01*
X-168546Y194208D01*
X-163761Y198194D01*
X-158880Y202062D01*
X-153905Y205808D01*
X-148839Y209432D01*
X-143687Y212930D01*
X-138450Y216300D01*
X-133131Y219541D01*
X-127735Y222651D01*
X-122264Y225627D01*
X-116722Y228468D01*
X-111112Y231172D01*
X-105437Y233737D01*
X-99701Y236163D01*
X-93907Y238447D01*
X-88059Y240588D01*
X-82160Y242585D01*
X-76214Y244436D01*
X-70224Y246141D01*
X-64194Y247699D01*
X-58127Y249108D01*
X-52028Y250368D01*
X-45900Y251478D01*
X-39746Y252437D01*
X-33571Y253245D01*
X-27378Y253901D01*
X-21170Y254404D01*
X-14952Y254756D01*
X-8728Y254954D01*
X-2500Y255000D01*
X-325000Y50000D02*
X-360000Y50000D01*
X-361208Y49985D01*
X-362416Y49942D01*
X-363622Y49869D01*
X-364826Y49767D01*
X-366027Y49635D01*
X-367224Y49475D01*
X-368418Y49286D01*
X-369606Y49069D01*
X-370789Y48822D01*
X-371966Y48547D01*
X-373135Y48244D01*
X-374297Y47912D01*
X-375451Y47553D01*
X-376595Y47166D01*
X-377730Y46751D01*
X-378855Y46309D01*
X-379968Y45840D01*
X-381070Y45344D01*
X-382160Y44821D01*
X-383236Y44273D01*
X-384299Y43698D01*
X-385348Y43098D01*
X-386382Y42473D01*
X-387401Y41824D01*
X-388403Y41149D01*
X-389389Y40451D01*
X-390358Y39729D01*
X-391309Y38984D01*
X-392242Y38216D01*
X-393156Y37426D01*
X-394051Y36613D01*
X-394926Y35780D01*
X-395780Y34926D01*
X-396613Y34051D01*
X-397426Y33156D01*
X-398216Y32242D01*
X-398984Y31309D01*
X-399729Y30358D01*
X-400451Y29389D01*
X-401149Y28403D01*
X-401824Y27401D01*
X-402473Y26382D01*
X-403098Y25348D01*
X-403698Y24299D01*
X-404273Y23236D01*
X-404821Y22160D01*
X-405344Y21070D01*
X-405840Y19968D01*
X-406309Y18855D01*
X-406751Y17730D01*
X-407166Y16595D01*
X-407553Y15451D01*
X-407912Y14297D01*
X-408244Y13135D01*
X-408547Y11966D01*
X-408822Y10789D01*
X-409069Y9606D01*
X-409286Y8418D01*
X-409475Y7224D01*
X-409635Y6027D01*
X-409767Y4826D01*
X-409869Y3622D01*
X-409942Y2416D01*
X-409985Y1208D01*
X-410000Y0D01*
X-409985Y-1208D01*
X-409942Y-2416D01*
X-409869Y-3622D01*
X-409767Y-4826D01*
X-409635Y-6027D01*
X-409475Y-7224D01*
X-409286Y-8418D01*
X-409069Y-9606D01*
X-408822Y-10789D01*
X-408547Y-11966D01*
X-408244Y-13135D01*
X-407912Y-14297D01*
X-407553Y-15451D01*
X-407166Y-16595D01*
X-406751Y-17730D01*
X-406309Y-18855D01*
X-405840Y-19968D01*
X-405344Y-21070D01*
X-404821Y-22160D01*
X-404273Y-23236D01*
X-403698Y-24299D01*
X-403098Y-25348D01*
X-402473Y-26382D01*
X-401824Y-27401D01*
X-401149Y-28403D01*
X-400451Y-29389D01*
X-399729Y-30358D01*
X-398984Y-31309D01*
X-398216Y-32242D01*
X-397426Y-33156D01*
X-396613Y-34051D01*
X-395780Y-34926D01*
X-394926Y-35780D01*
X-394051Y-36613D01*
X-393156Y-37426D01*
X-392242Y-38216D01*
X-391309Y-38984D01*
X-390358Y-39729D01*
X-389389Y-40451D01*
X-388403Y-41149D01*
X-387401Y-41824D01*
X-386382Y-42473D01*
X-385348Y-43098D01*
X-384299Y-43698D01*
X-383236Y-44273D01*
X-382160Y-44821D01*
X-381070Y-45344D01*
X-379968Y-45840D01*
X-378855Y-46309D01*
X-377730Y-46751D01*
X-376595Y-47166D01*
X-375451Y-47553D01*
X-374297Y-47912D01*
X-373135Y-48244D01*
X-371966Y-48547D01*
X-370789Y-48822D01*
X-369606Y-49069D01*
X-368418Y-49286D01*
X-367224Y-49475D01*
X-366027Y-49635D01*
X-364826Y-49767D01*
X-363622Y-49869D01*
X-362416Y-49942D01*
X-361208Y-49985D01*
X-360000Y-50000D01*
X-322500Y-50000D01*
X-322501Y-50001D02*
X-321241Y-57869D01*
X-319790Y-65705D01*
X-318149Y-73502D01*
X-316318Y-81258D01*
X-314298Y-88966D01*
X-312090Y-96623D01*
X-309697Y-104224D01*
X-307118Y-111764D01*
X-304357Y-119239D01*
X-301414Y-126644D01*
X-298291Y-133975D01*
X-294991Y-141228D01*
X-291514Y-148399D01*
X-287864Y-155482D01*
X-284041Y-162474D01*
X-280050Y-169371D01*
X-275891Y-176168D01*
X-271568Y-182862D01*
X-267082Y-189449D01*
X-262438Y-195924D01*
X-257637Y-202284D01*
X-252682Y-208525D01*
X-247576Y-214643D01*
X-242322Y-220635D01*
X-236924Y-226496D01*
X-231385Y-232225D01*
X-225707Y-237816D01*
X-219895Y-243268D01*
X-213952Y-248576D01*
X-207880Y-253737D01*
X-201685Y-258749D01*
X-195369Y-263608D01*
X-188937Y-268311D01*
X-182392Y-272857D01*
X-175737Y-277241D01*
X-168978Y-281462D01*
X-162118Y-285516D01*
X-155161Y-289402D01*
X-148111Y-293117D01*
X-140973Y-296659D01*
X-133751Y-300026D01*
X-126448Y-303215D01*
X-119070Y-306226D01*
X-111621Y-309055D01*
X-104104Y-311702D01*
X-96526Y-314165D01*
X-88889Y-316442D01*
X-81200Y-318532D01*
X-73461Y-320435D01*
X-65679Y-322147D01*
X-57857Y-323670D01*
X-50000Y-325001D01*
X-325001Y50000D02*
X-323699Y57899D01*
X-322206Y65763D01*
X-320521Y73589D01*
X-318646Y81371D01*
X-316582Y89105D01*
X-314329Y96787D01*
X-311890Y104411D01*
X-309265Y111974D01*
X-306457Y119470D01*
X-303467Y126895D01*
X-300296Y134246D01*
X-296947Y141517D01*
X-293422Y148704D01*
X-289722Y155802D01*
X-285851Y162809D01*
X-281809Y169719D01*
X-277600Y176528D01*
X-273227Y183232D01*
X-268691Y189828D01*
X-263995Y196312D01*
X-259143Y202678D01*
X-254137Y208925D01*
X-248980Y215047D01*
X-243675Y221042D01*
X-238226Y226906D01*
X-232635Y232635D01*
X-226906Y238226D01*
X-221042Y243675D01*
X-215047Y248980D01*
X-208925Y254137D01*
X-202678Y259143D01*
X-196312Y263995D01*
X-189828Y268691D01*
X-183232Y273227D01*
X-176528Y277600D01*
X-169719Y281809D01*
X-162809Y285851D01*
X-155802Y289722D01*
X-148704Y293422D01*
X-141517Y296947D01*
X-134246Y300296D01*
X-126895Y303467D01*
X-119470Y306457D01*
X-111974Y309265D01*
X-104411Y311890D01*
X-96787Y314329D01*
X-89105Y316582D01*
X-81371Y318646D01*
X-73589Y320521D01*
X-65763Y322206D01*
X-57899Y323699D01*
X-50000Y325001D01*
X50000Y325000D02*
X50000Y362500D01*
X49985Y363708D01*
X49942Y364916D01*
X49869Y366122D01*
X49767Y367326D01*
X49635Y368527D01*
X49475Y369724D01*
X49286Y370918D01*
X49069Y372106D01*
X48822Y373289D01*
X48547Y374466D01*
X48244Y375635D01*
X47912Y376797D01*
X47553Y377951D01*
X47166Y379095D01*
X46751Y380230D01*
X46309Y381355D01*
X45840Y382468D01*
X45344Y383570D01*
X44821Y384660D01*
X44273Y385736D01*
X43698Y386799D01*
X43098Y387848D01*
X42473Y388882D01*
X41824Y389901D01*
X41149Y390903D01*
X40451Y391889D01*
X39729Y392858D01*
X38984Y393809D01*
X38216Y394742D01*
X37426Y395656D01*
X36613Y396551D01*
X35780Y397426D01*
X34926Y398280D01*
X34051Y399113D01*
X33156Y399926D01*
X32242Y400716D01*
X31309Y401484D01*
X30358Y402229D01*
X29389Y402951D01*
X28403Y403649D01*
X27401Y404324D01*
X26382Y404973D01*
X25348Y405598D01*
X24299Y406198D01*
X23236Y406773D01*
X22160Y407321D01*
X21070Y407844D01*
X19968Y408340D01*
X18855Y408809D01*
X17730Y409251D01*
X16595Y409666D01*
X15451Y410053D01*
X14297Y410412D01*
X13135Y410744D01*
X11966Y411047D01*
X10789Y411322D01*
X9606Y411569D01*
X8418Y411786D01*
X7224Y411975D01*
X6027Y412135D01*
X4826Y412267D01*
X3622Y412369D01*
X2416Y412442D01*
X1208Y412485D01*
X0Y412500D01*
X-1208Y412485D01*
X-2416Y412442D01*
X-3622Y412369D01*
X-4826Y412267D01*
X-6027Y412135D01*
X-7224Y411975D01*
X-8418Y411786D01*
X-9606Y411569D01*
X-10789Y411322D01*
X-11966Y411047D01*
X-13135Y410744D01*
X-14297Y410412D01*
X-15451Y410053D01*
X-16595Y409666D01*
X-17730Y409251D01*
X-18855Y408809D01*
X-19968Y408340D01*
X-21070Y407844D01*
X-22160Y407321D01*
X-23236Y406773D01*
X-24299Y406198D01*
X-25348Y405598D01*
X-26382Y404973D01*
X-27401Y404324D01*
X-28403Y403649D01*
X-29389Y402951D01*
X-30358Y402229D01*
X-31309Y401484D01*
X-32242Y400716D01*
X-33156Y399926D01*
X-34051Y399113D01*
X-34926Y398280D01*
X-35780Y397426D01*
X-36613Y396551D01*
X-37426Y395656D01*
X-38216Y394742D01*
X-38984Y393809D01*
X-39729Y392858D01*
X-40451Y391889D01*
X-41149Y390903D01*
X-41824Y389901D01*
X-42473Y388882D01*
X-43098Y387848D01*
X-43698Y386799D01*
X-44273Y385736D01*
X-44821Y384660D01*
X-45344Y383570D01*
X-45840Y382468D01*
X-46309Y381355D01*
X-46751Y380230D01*
X-47166Y379095D01*
X-47553Y377951D01*
X-47912Y376797D01*
X-48244Y375635D01*
X-48547Y374466D01*
X-48822Y373289D01*
X-49069Y372106D01*
X-49286Y370918D01*
X-49475Y369724D01*
X-49635Y368527D01*
X-49767Y367326D01*
X-49869Y366122D01*
X-49942Y364916D01*
X-49985Y363708D01*
X-50000Y362500D01*
X-50000Y325000D01*
D11*
X50000Y325001D02*
X57899Y323699D01*
X65763Y322206D01*
X73589Y320521D01*
X81371Y318646D01*
X89105Y316582D01*
X96787Y314329D01*
X104411Y311890D01*
X111974Y309265D01*
X119470Y306457D01*
X126895Y303467D01*
X134246Y300296D01*
X141517Y296947D01*
X148704Y293422D01*
X155802Y289722D01*
X162809Y285851D01*
X169719Y281809D01*
X176528Y277600D01*
X183232Y273227D01*
X189828Y268691D01*
X196312Y263995D01*
X202678Y259143D01*
X208925Y254137D01*
X215047Y248980D01*
X221042Y243675D01*
X226906Y238226D01*
X232635Y232635D01*
X238226Y226906D01*
X243675Y221042D01*
X248980Y215047D01*
X254137Y208925D01*
X259143Y202678D01*
X263995Y196312D01*
X268691Y189828D01*
X273227Y183232D01*
X277600Y176528D01*
X281809Y169719D01*
X285851Y162809D01*
X289722Y155802D01*
X293422Y148704D01*
X296947Y141517D01*
X300296Y134246D01*
X303467Y126895D01*
X306457Y119470D01*
X309265Y111974D01*
X311890Y104411D01*
X314329Y96787D01*
X316582Y89105D01*
X318646Y81371D01*
X320521Y73589D01*
X322206Y65763D01*
X323699Y57899D01*
X325001Y50000D01*
D10*
X322500Y-50000D02*
X360000Y-50000D01*
X361208Y-49985D01*
X362416Y-49942D01*
X363622Y-49869D01*
X364826Y-49767D01*
X366027Y-49635D01*
X367224Y-49475D01*
X368418Y-49286D01*
X369606Y-49069D01*
X370789Y-48822D01*
X371966Y-48547D01*
X373135Y-48244D01*
X374297Y-47912D01*
X375451Y-47553D01*
X376595Y-47166D01*
X377730Y-46751D01*
X378855Y-46309D01*
X379968Y-45840D01*
X381070Y-45344D01*
X382160Y-44821D01*
X383236Y-44273D01*
X384299Y-43698D01*
X385348Y-43098D01*
X386382Y-42473D01*
X387401Y-41824D01*
X388403Y-41149D01*
X389389Y-40451D01*
X390358Y-39729D01*
X391309Y-38984D01*
X392242Y-38216D01*
X393156Y-37426D01*
X394051Y-36613D01*
X394926Y-35780D01*
X395780Y-34926D01*
X396613Y-34051D01*
X397426Y-33156D01*
X398216Y-32242D01*
X398984Y-31309D01*
X399729Y-30358D01*
X400451Y-29389D01*
X401149Y-28403D01*
X401824Y-27401D01*
X402473Y-26382D01*
X403098Y-25348D01*
X403698Y-24299D01*
X404273Y-23236D01*
X404821Y-22160D01*
X405344Y-21070D01*
X405840Y-19968D01*
X406309Y-18855D01*
X406751Y-17730D01*
X407166Y-16595D01*
X407553Y-15451D01*
X407912Y-14297D01*
X408244Y-13135D01*
X408547Y-11966D01*
X408822Y-10789D01*
X409069Y-9606D01*
X409286Y-8418D01*
X409475Y-7224D01*
X409635Y-6027D01*
X409767Y-4826D01*
X409869Y-3622D01*
X409942Y-2416D01*
X409985Y-1208D01*
X410000Y0D01*
X410032Y1163D01*
X410035Y2327D01*
X410010Y3491D01*
X409957Y4654D01*
X409876Y5815D01*
X409766Y6973D01*
X409629Y8129D01*
X409464Y9281D01*
X409271Y10429D01*
X409051Y11572D01*
X408803Y12709D01*
X408527Y13840D01*
X408224Y14963D01*
X407895Y16079D01*
X407538Y17187D01*
X407155Y18286D01*
X406745Y19376D01*
X406309Y20455D01*
X405847Y21523D01*
X405359Y22580D01*
X404846Y23624D01*
X404308Y24656D01*
X403745Y25675D01*
X403158Y26680D01*
X402547Y27670D01*
X401911Y28646D01*
X401253Y29605D01*
X400571Y30549D01*
X399867Y31475D01*
X399141Y32385D01*
X398393Y33276D01*
X397623Y34149D01*
X396833Y35004D01*
X396022Y35839D01*
X395192Y36654D01*
X394341Y37449D01*
X393472Y38223D01*
X392585Y38976D01*
X391679Y39707D01*
X390757Y40416D01*
X389817Y41103D01*
X388861Y41767D01*
X387889Y42407D01*
X386902Y43024D01*
X385900Y43617D01*
X384885Y44185D01*
X383856Y44729D01*
X382814Y45247D01*
X381759Y45741D01*
X380694Y46208D01*
X379617Y46650D01*
X378530Y47066D01*
X377433Y47455D01*
X376327Y47818D01*
X375213Y48153D01*
X374091Y48462D01*
X372961Y48744D01*
X371826Y48998D01*
X370684Y49225D01*
X369537Y49424D01*
X368386Y49595D01*
X367231Y49738D01*
X366073Y49854D01*
X364912Y49941D01*
X363750Y50000D01*
D11*
X325000Y50000D01*
D10*
X322500Y-50000D02*
X321265Y-57878D01*
X319837Y-65723D01*
X318217Y-73531D01*
X316406Y-81297D01*
X314405Y-89016D01*
X312215Y-96684D01*
X309838Y-104296D01*
X307275Y-111847D01*
X304528Y-119333D01*
X301598Y-126749D01*
X298487Y-134092D01*
X295197Y-141356D01*
X291730Y-148537D01*
X288088Y-155631D01*
X284273Y-162633D01*
X280288Y-169540D01*
X276134Y-176347D01*
X271815Y-183050D01*
X267333Y-189645D01*
X262690Y-196129D01*
X257890Y-202496D01*
X252935Y-208744D01*
X247828Y-214869D01*
X242573Y-220866D01*
X237172Y-226733D01*
X231629Y-232466D01*
X225947Y-238061D01*
X220130Y-243515D01*
X214181Y-248825D01*
X208103Y-253987D01*
X201900Y-258999D01*
X195577Y-263857D01*
X189136Y-268559D01*
X182582Y-273102D01*
X175919Y-277482D01*
X169150Y-281697D01*
X162280Y-285746D01*
X155312Y-289625D01*
X148252Y-293331D01*
X141103Y-296864D01*
X133869Y-300220D01*
X126556Y-303398D01*
X119166Y-306395D01*
X111706Y-309211D01*
X104178Y-311842D01*
X96588Y-314289D01*
X88941Y-316548D01*
X81240Y-318620D01*
X73491Y-320501D01*
X65699Y-322193D01*
X57867Y-323692D01*
X50000Y-325000D01*
X-50000Y-325000D02*
X-50000Y-362500D01*
X-49955Y-363696D01*
X-49880Y-364891D01*
X-49776Y-366083D01*
X-49643Y-367272D01*
X-49480Y-368458D01*
X-49289Y-369640D01*
X-49069Y-370816D01*
X-48819Y-371987D01*
X-48542Y-373151D01*
X-48235Y-374308D01*
X-47901Y-375457D01*
X-47538Y-376598D01*
X-47147Y-377729D01*
X-46729Y-378850D01*
X-46284Y-379961D01*
X-45811Y-381061D01*
X-45311Y-382148D01*
X-44785Y-383223D01*
X-44233Y-384285D01*
X-43654Y-385333D01*
X-43051Y-386366D01*
X-42422Y-387385D01*
X-41768Y-388387D01*
X-41090Y-389373D01*
X-40387Y-390343D01*
X-39662Y-391294D01*
X-38913Y-392228D01*
X-38141Y-393143D01*
X-37347Y-394039D01*
X-36532Y-394915D01*
X-35695Y-395770D01*
X-34838Y-396605D01*
X-33960Y-397419D01*
X-33062Y-398211D01*
X-32146Y-398980D01*
X-31210Y-399727D01*
X-30257Y-400451D01*
X-29286Y-401151D01*
X-28299Y-401827D01*
X-27295Y-402479D01*
X-26275Y-403105D01*
X-25240Y-403707D01*
X-24191Y-404283D01*
X-23128Y-404833D01*
X-22052Y-405357D01*
X-20963Y-405854D01*
X-19863Y-406324D01*
X-18751Y-406767D01*
X-17629Y-407183D01*
X-16496Y-407571D01*
X-15355Y-407932D01*
X-14205Y-408264D01*
X-13048Y-408567D01*
X-11883Y-408843D01*
X-10712Y-409089D01*
X-9535Y-409307D01*
X-8353Y-409496D01*
X-7167Y-409656D01*
X-5977Y-409786D01*
X-4784Y-409888D01*
X-3590Y-409960D01*
X-2394Y-410003D01*
X-1197Y-410016D01*
X0Y-410000D01*
X1193Y-410001D01*
X2386Y-409973D01*
X3578Y-409916D01*
X4768Y-409830D01*
X5956Y-409715D01*
X7141Y-409572D01*
X8322Y-409400D01*
X9498Y-409200D01*
X10669Y-408972D01*
X11834Y-408715D01*
X12993Y-408430D01*
X14145Y-408117D01*
X15288Y-407777D01*
X16423Y-407409D01*
X17549Y-407013D01*
X18665Y-406591D01*
X19771Y-406141D01*
X20865Y-405665D01*
X21947Y-405163D01*
X23017Y-404635D01*
X24074Y-404081D01*
X25117Y-403502D01*
X26146Y-402897D01*
X27160Y-402268D01*
X28159Y-401615D01*
X29141Y-400938D01*
X30107Y-400237D01*
X31056Y-399513D01*
X31986Y-398766D01*
X32899Y-397997D01*
X33793Y-397206D01*
X34667Y-396394D01*
X35521Y-395561D01*
X36355Y-394708D01*
X37168Y-393835D01*
X37960Y-392942D01*
X38730Y-392030D01*
X39478Y-391100D01*
X40203Y-390153D01*
X40905Y-389188D01*
X41583Y-388206D01*
X42238Y-387208D01*
X42868Y-386195D01*
X43473Y-385167D01*
X44054Y-384124D01*
X44609Y-383068D01*
X45139Y-381998D01*
X45642Y-380917D01*
X46119Y-379823D01*
X46570Y-378718D01*
X46994Y-377603D01*
X47390Y-376477D01*
X47760Y-375342D01*
X48102Y-374199D01*
X48416Y-373048D01*
X48702Y-371890D01*
X48960Y-370725D01*
X49190Y-369554D01*
X49392Y-368378D01*
X49565Y-367197D01*
X49709Y-366012D01*
X49825Y-364825D01*
X49912Y-363635D01*
X49971Y-362443D01*
X50000Y-361250D01*
X50000Y-325000D01*
M02*
