G04 EAGLE Gerber RS-274X export*
G75*
%MOMM*%
%FSLAX34Y34*%
%LPD*%
%INBottom Copper Layer*%
%IPPOS*%
%AMOC8*
5,1,8,0,0,1.08239X$1,22.5*%
G01*
%ADD10C,2.095500*%
%ADD11C,7.366000*%
%ADD12C,1.200000*%
%ADD13C,1.430000*%
%ADD14C,1.422400*%
%ADD15C,1.450000*%
%ADD16C,7.620000*%
%ADD17C,0.609600*%
%ADD18C,0.604000*%

G36*
X2355685Y29214D02*
X2355685Y29214D01*
X2355719Y29212D01*
X2355908Y29234D01*
X2356099Y29251D01*
X2356132Y29260D01*
X2356166Y29264D01*
X2356349Y29319D01*
X2356533Y29369D01*
X2356564Y29384D01*
X2356597Y29394D01*
X2356768Y29481D01*
X2356940Y29563D01*
X2356968Y29583D01*
X2356999Y29598D01*
X2357151Y29714D01*
X2357306Y29825D01*
X2357330Y29850D01*
X2357357Y29870D01*
X2357486Y30010D01*
X2357620Y30147D01*
X2357639Y30176D01*
X2357663Y30202D01*
X2357765Y30363D01*
X2357872Y30520D01*
X2357886Y30552D01*
X2357904Y30581D01*
X2357977Y30758D01*
X2358054Y30932D01*
X2358062Y30966D01*
X2358075Y30998D01*
X2358115Y31185D01*
X2358161Y31370D01*
X2358163Y31404D01*
X2358170Y31438D01*
X2358189Y31750D01*
X2358189Y1425450D01*
X2358186Y1425485D01*
X2358188Y1425519D01*
X2358166Y1425708D01*
X2358149Y1425899D01*
X2358140Y1425932D01*
X2358136Y1425966D01*
X2358081Y1426149D01*
X2358031Y1426333D01*
X2358016Y1426364D01*
X2358006Y1426397D01*
X2357919Y1426568D01*
X2357837Y1426740D01*
X2357817Y1426768D01*
X2357802Y1426799D01*
X2357686Y1426951D01*
X2357575Y1427106D01*
X2357550Y1427130D01*
X2357530Y1427157D01*
X2357390Y1427286D01*
X2357253Y1427420D01*
X2357224Y1427439D01*
X2357198Y1427463D01*
X2357037Y1427565D01*
X2356880Y1427672D01*
X2356848Y1427686D01*
X2356819Y1427704D01*
X2356642Y1427777D01*
X2356468Y1427854D01*
X2356434Y1427862D01*
X2356402Y1427875D01*
X2356215Y1427915D01*
X2356030Y1427961D01*
X2355996Y1427963D01*
X2355962Y1427970D01*
X2355650Y1427989D01*
X-63500Y1427989D01*
X-63535Y1427986D01*
X-63569Y1427988D01*
X-63758Y1427966D01*
X-63949Y1427949D01*
X-63982Y1427940D01*
X-64016Y1427936D01*
X-64199Y1427881D01*
X-64383Y1427831D01*
X-64414Y1427816D01*
X-64447Y1427806D01*
X-64618Y1427719D01*
X-64790Y1427637D01*
X-64818Y1427617D01*
X-64849Y1427602D01*
X-65001Y1427486D01*
X-65156Y1427375D01*
X-65180Y1427350D01*
X-65207Y1427330D01*
X-65336Y1427190D01*
X-65470Y1427053D01*
X-65489Y1427024D01*
X-65513Y1426998D01*
X-65615Y1426837D01*
X-65722Y1426680D01*
X-65736Y1426648D01*
X-65754Y1426619D01*
X-65827Y1426442D01*
X-65904Y1426268D01*
X-65912Y1426234D01*
X-65925Y1426202D01*
X-65965Y1426015D01*
X-66011Y1425830D01*
X-66013Y1425796D01*
X-66020Y1425762D01*
X-66039Y1425450D01*
X-66039Y31750D01*
X-66036Y31715D01*
X-66038Y31681D01*
X-66016Y31492D01*
X-65999Y31301D01*
X-65990Y31268D01*
X-65986Y31234D01*
X-65931Y31051D01*
X-65881Y30867D01*
X-65866Y30836D01*
X-65856Y30803D01*
X-65769Y30632D01*
X-65687Y30460D01*
X-65667Y30432D01*
X-65652Y30401D01*
X-65536Y30249D01*
X-65425Y30094D01*
X-65400Y30070D01*
X-65380Y30043D01*
X-65240Y29914D01*
X-65103Y29780D01*
X-65074Y29761D01*
X-65048Y29737D01*
X-64887Y29635D01*
X-64730Y29528D01*
X-64698Y29514D01*
X-64669Y29496D01*
X-64492Y29423D01*
X-64318Y29346D01*
X-64284Y29338D01*
X-64252Y29325D01*
X-64065Y29285D01*
X-63880Y29239D01*
X-63846Y29237D01*
X-63812Y29230D01*
X-63500Y29211D01*
X2355650Y29211D01*
X2355685Y29214D01*
G37*
%LPC*%
G36*
X1579902Y144367D02*
X1579902Y144367D01*
X1576950Y145590D01*
X1574690Y147850D01*
X1573467Y150802D01*
X1573467Y153998D01*
X1573549Y154195D01*
X1573559Y154228D01*
X1573575Y154260D01*
X1573627Y154443D01*
X1573684Y154625D01*
X1573688Y154659D01*
X1573698Y154693D01*
X1573717Y154882D01*
X1573741Y155072D01*
X1573739Y155106D01*
X1573742Y155141D01*
X1573727Y155331D01*
X1573718Y155521D01*
X1573710Y155555D01*
X1573707Y155590D01*
X1573659Y155774D01*
X1573615Y155960D01*
X1573602Y155992D01*
X1573593Y156025D01*
X1573513Y156198D01*
X1573438Y156373D01*
X1573418Y156402D01*
X1573404Y156434D01*
X1573294Y156590D01*
X1573189Y156749D01*
X1573165Y156774D01*
X1573145Y156803D01*
X1573010Y156937D01*
X1572879Y157075D01*
X1572851Y157096D01*
X1572826Y157120D01*
X1572669Y157228D01*
X1572515Y157341D01*
X1572484Y157356D01*
X1572456Y157376D01*
X1572175Y157513D01*
X1571922Y157618D01*
X1118254Y611286D01*
X1116918Y612622D01*
X1116818Y612706D01*
X1116725Y612796D01*
X1116645Y612850D01*
X1116572Y612911D01*
X1116459Y612976D01*
X1116352Y613048D01*
X1116264Y613087D01*
X1116181Y613135D01*
X1116059Y613178D01*
X1115940Y613231D01*
X1115847Y613253D01*
X1115757Y613285D01*
X1115629Y613307D01*
X1115502Y613337D01*
X1115407Y613343D01*
X1115313Y613359D01*
X1115183Y613357D01*
X1115053Y613365D01*
X1114958Y613354D01*
X1114862Y613353D01*
X1114735Y613328D01*
X1114606Y613313D01*
X1114514Y613285D01*
X1114420Y613267D01*
X1114299Y613220D01*
X1114175Y613183D01*
X1114089Y613139D01*
X1114000Y613105D01*
X1113889Y613037D01*
X1113773Y612978D01*
X1113697Y612921D01*
X1113616Y612871D01*
X1113518Y612785D01*
X1113415Y612706D01*
X1113350Y612636D01*
X1113278Y612573D01*
X1113198Y612471D01*
X1113109Y612375D01*
X1113058Y612295D01*
X1112999Y612220D01*
X1112937Y612105D01*
X1112868Y611995D01*
X1112831Y611907D01*
X1112786Y611823D01*
X1112746Y611699D01*
X1112697Y611579D01*
X1112677Y611485D01*
X1112647Y611395D01*
X1112629Y611266D01*
X1112602Y611139D01*
X1112594Y611009D01*
X1112586Y610949D01*
X1112587Y610904D01*
X1112583Y610827D01*
X1112583Y608002D01*
X1111360Y605050D01*
X1109100Y602790D01*
X1106148Y601567D01*
X1090952Y601567D01*
X1088000Y602790D01*
X1085740Y605050D01*
X1084517Y608002D01*
X1084517Y611198D01*
X1085740Y614150D01*
X1088000Y616410D01*
X1090952Y617633D01*
X1106148Y617633D01*
X1109100Y616410D01*
X1111359Y614150D01*
X1111459Y614067D01*
X1111552Y613976D01*
X1111632Y613923D01*
X1111705Y613862D01*
X1111818Y613797D01*
X1111925Y613724D01*
X1112013Y613686D01*
X1112096Y613638D01*
X1112218Y613595D01*
X1112337Y613542D01*
X1112430Y613519D01*
X1112520Y613487D01*
X1112648Y613466D01*
X1112775Y613435D01*
X1112870Y613430D01*
X1112964Y613414D01*
X1113094Y613416D01*
X1113224Y613408D01*
X1113319Y613419D01*
X1113415Y613420D01*
X1113542Y613445D01*
X1113671Y613460D01*
X1113763Y613487D01*
X1113857Y613506D01*
X1113978Y613552D01*
X1114102Y613590D01*
X1114188Y613633D01*
X1114277Y613668D01*
X1114388Y613735D01*
X1114504Y613794D01*
X1114580Y613852D01*
X1114661Y613902D01*
X1114759Y613988D01*
X1114862Y614066D01*
X1114927Y614137D01*
X1114999Y614200D01*
X1115079Y614302D01*
X1115168Y614398D01*
X1115219Y614478D01*
X1115278Y614553D01*
X1115339Y614668D01*
X1115409Y614777D01*
X1115446Y614866D01*
X1115491Y614950D01*
X1115531Y615074D01*
X1115580Y615194D01*
X1115600Y615287D01*
X1115630Y615378D01*
X1115648Y615507D01*
X1115675Y615634D01*
X1115683Y615764D01*
X1115691Y615824D01*
X1115690Y615869D01*
X1115694Y615946D01*
X1115694Y628654D01*
X1115683Y628784D01*
X1115681Y628914D01*
X1115663Y629007D01*
X1115654Y629103D01*
X1115620Y629228D01*
X1115595Y629356D01*
X1115561Y629445D01*
X1115536Y629537D01*
X1115480Y629654D01*
X1115433Y629776D01*
X1115383Y629857D01*
X1115342Y629944D01*
X1115267Y630049D01*
X1115199Y630160D01*
X1115136Y630232D01*
X1115080Y630310D01*
X1114987Y630400D01*
X1114901Y630498D01*
X1114826Y630557D01*
X1114758Y630624D01*
X1114650Y630696D01*
X1114548Y630777D01*
X1114464Y630822D01*
X1114385Y630876D01*
X1114266Y630928D01*
X1114151Y630990D01*
X1114060Y631019D01*
X1113973Y631058D01*
X1113846Y631089D01*
X1113723Y631129D01*
X1113628Y631142D01*
X1113535Y631165D01*
X1113406Y631173D01*
X1113277Y631190D01*
X1113181Y631186D01*
X1113086Y631192D01*
X1112957Y631177D01*
X1112827Y631172D01*
X1112734Y631151D01*
X1112639Y631140D01*
X1112514Y631103D01*
X1112387Y631074D01*
X1112299Y631038D01*
X1112208Y631010D01*
X1112092Y630951D01*
X1111972Y630901D01*
X1111892Y630849D01*
X1111806Y630806D01*
X1111703Y630727D01*
X1111594Y630656D01*
X1111496Y630570D01*
X1111448Y630534D01*
X1111417Y630501D01*
X1111359Y630450D01*
X1109100Y628190D01*
X1106148Y626967D01*
X1090952Y626967D01*
X1088000Y628190D01*
X1085740Y630450D01*
X1084517Y633402D01*
X1084517Y636598D01*
X1085740Y639550D01*
X1088000Y641810D01*
X1090952Y643033D01*
X1105777Y643033D01*
X1105906Y643044D01*
X1106036Y643046D01*
X1106130Y643064D01*
X1106225Y643073D01*
X1106351Y643107D01*
X1106478Y643132D01*
X1106568Y643166D01*
X1106660Y643191D01*
X1106777Y643247D01*
X1106898Y643294D01*
X1106980Y643344D01*
X1107066Y643385D01*
X1107172Y643460D01*
X1107283Y643528D01*
X1107355Y643591D01*
X1107432Y643647D01*
X1107523Y643740D01*
X1107620Y643826D01*
X1107680Y643901D01*
X1107746Y643969D01*
X1107819Y644077D01*
X1107900Y644179D01*
X1107945Y644263D01*
X1107998Y644342D01*
X1108051Y644461D01*
X1108112Y644576D01*
X1108142Y644667D01*
X1108181Y644754D01*
X1108212Y644881D01*
X1108252Y645004D01*
X1108265Y645099D01*
X1108287Y645192D01*
X1108295Y645321D01*
X1108313Y645450D01*
X1108309Y645546D01*
X1108315Y645641D01*
X1108300Y645770D01*
X1108295Y645900D01*
X1108274Y645993D01*
X1108263Y646088D01*
X1108225Y646213D01*
X1108197Y646340D01*
X1108160Y646428D01*
X1108133Y646519D01*
X1108074Y646635D01*
X1108024Y646755D01*
X1107972Y646836D01*
X1107928Y646921D01*
X1107850Y647024D01*
X1107779Y647133D01*
X1107693Y647231D01*
X1107656Y647279D01*
X1107623Y647310D01*
X1107572Y647368D01*
X795564Y959376D01*
X795438Y959481D01*
X795317Y959593D01*
X795266Y959625D01*
X795219Y959664D01*
X795076Y959746D01*
X794937Y959834D01*
X794881Y959858D01*
X794828Y959888D01*
X794673Y959943D01*
X794521Y960005D01*
X794461Y960018D01*
X794404Y960039D01*
X794241Y960065D01*
X794081Y960100D01*
X794004Y960105D01*
X793959Y960112D01*
X793898Y960111D01*
X793769Y960119D01*
X275214Y960119D01*
X273347Y960893D01*
X248866Y985374D01*
X248740Y985479D01*
X248619Y985591D01*
X248568Y985623D01*
X248521Y985662D01*
X248378Y985744D01*
X248239Y985832D01*
X248183Y985856D01*
X248130Y985886D01*
X247975Y985941D01*
X247823Y986003D01*
X247763Y986016D01*
X247706Y986037D01*
X247543Y986063D01*
X247383Y986098D01*
X247306Y986103D01*
X247261Y986110D01*
X247200Y986109D01*
X247071Y986117D01*
X244226Y986117D01*
X240851Y987515D01*
X238268Y990098D01*
X236870Y993473D01*
X236870Y997127D01*
X238268Y1000502D01*
X240851Y1003085D01*
X244226Y1004483D01*
X247879Y1004483D01*
X251254Y1003085D01*
X253837Y1000502D01*
X255235Y997127D01*
X255235Y994427D01*
X255250Y994263D01*
X255256Y994099D01*
X255270Y994039D01*
X255275Y993978D01*
X255318Y993820D01*
X255354Y993659D01*
X255377Y993603D01*
X255394Y993544D01*
X255464Y993396D01*
X255528Y993244D01*
X255561Y993192D01*
X255587Y993137D01*
X255682Y993004D01*
X255772Y992866D01*
X255823Y992808D01*
X255849Y992771D01*
X255893Y992729D01*
X255979Y992631D01*
X277586Y971024D01*
X277712Y970919D01*
X277833Y970807D01*
X277884Y970775D01*
X277931Y970736D01*
X278074Y970654D01*
X278213Y970566D01*
X278269Y970542D01*
X278322Y970512D01*
X278477Y970457D01*
X278629Y970395D01*
X278689Y970382D01*
X278746Y970361D01*
X278909Y970335D01*
X279069Y970300D01*
X279146Y970295D01*
X279191Y970288D01*
X279252Y970289D01*
X279381Y970281D01*
X667404Y970281D01*
X667533Y970292D01*
X667663Y970294D01*
X667757Y970312D01*
X667852Y970321D01*
X667978Y970355D01*
X668105Y970380D01*
X668195Y970414D01*
X668287Y970439D01*
X668404Y970495D01*
X668525Y970542D01*
X668607Y970592D01*
X668693Y970633D01*
X668799Y970708D01*
X668910Y970776D01*
X668982Y970839D01*
X669059Y970895D01*
X669150Y970988D01*
X669247Y971074D01*
X669307Y971149D01*
X669373Y971217D01*
X669446Y971325D01*
X669527Y971427D01*
X669572Y971511D01*
X669625Y971590D01*
X669678Y971709D01*
X669739Y971824D01*
X669769Y971915D01*
X669808Y972002D01*
X669839Y972129D01*
X669879Y972252D01*
X669892Y972347D01*
X669914Y972440D01*
X669922Y972569D01*
X669940Y972698D01*
X669936Y972794D01*
X669942Y972889D01*
X669927Y973018D01*
X669922Y973148D01*
X669901Y973241D01*
X669890Y973336D01*
X669852Y973461D01*
X669824Y973588D01*
X669787Y973676D01*
X669760Y973767D01*
X669701Y973883D01*
X669651Y974003D01*
X669599Y974084D01*
X669555Y974169D01*
X669477Y974272D01*
X669406Y974381D01*
X669320Y974479D01*
X669283Y974527D01*
X669250Y974558D01*
X669199Y974616D01*
X658441Y985374D01*
X658315Y985479D01*
X658194Y985591D01*
X658143Y985623D01*
X658096Y985662D01*
X657953Y985744D01*
X657814Y985832D01*
X657758Y985856D01*
X657705Y985886D01*
X657550Y985941D01*
X657398Y986003D01*
X657338Y986016D01*
X657281Y986037D01*
X657118Y986063D01*
X656958Y986098D01*
X656881Y986103D01*
X656836Y986110D01*
X656775Y986109D01*
X656646Y986117D01*
X652702Y986117D01*
X649327Y987515D01*
X646744Y990098D01*
X645346Y993473D01*
X645346Y997127D01*
X646744Y1000502D01*
X649327Y1003085D01*
X652702Y1004483D01*
X656355Y1004483D01*
X659730Y1003085D01*
X662313Y1000502D01*
X663711Y997127D01*
X663711Y995526D01*
X663726Y995362D01*
X663733Y995198D01*
X663746Y995138D01*
X663751Y995077D01*
X663794Y994918D01*
X663830Y994758D01*
X663854Y994702D01*
X663870Y994643D01*
X663940Y994495D01*
X664004Y994343D01*
X664037Y994291D01*
X664063Y994236D01*
X664159Y994103D01*
X664248Y993964D01*
X664299Y993907D01*
X664325Y993870D01*
X664369Y993828D01*
X664455Y993730D01*
X674461Y983724D01*
X674587Y983619D01*
X674708Y983507D01*
X674759Y983475D01*
X674806Y983436D01*
X674949Y983354D01*
X675088Y983266D01*
X675144Y983242D01*
X675197Y983212D01*
X675352Y983157D01*
X675504Y983095D01*
X675564Y983082D01*
X675621Y983061D01*
X675784Y983035D01*
X675944Y983000D01*
X676021Y982995D01*
X676066Y982988D01*
X676127Y982989D01*
X676256Y982981D01*
X851969Y982981D01*
X852099Y982992D01*
X852229Y982994D01*
X852322Y983012D01*
X852418Y983021D01*
X852543Y983055D01*
X852671Y983080D01*
X852760Y983114D01*
X852852Y983139D01*
X852969Y983195D01*
X853091Y983242D01*
X853173Y983292D01*
X853259Y983333D01*
X853364Y983408D01*
X853476Y983476D01*
X853547Y983539D01*
X853625Y983595D01*
X853716Y983688D01*
X853813Y983774D01*
X853872Y983849D01*
X853939Y983917D01*
X854012Y984025D01*
X854092Y984127D01*
X854137Y984211D01*
X854191Y984290D01*
X854244Y984409D01*
X854305Y984524D01*
X854334Y984615D01*
X854373Y984702D01*
X854404Y984829D01*
X854444Y984952D01*
X854457Y985047D01*
X854480Y985140D01*
X854488Y985269D01*
X854506Y985398D01*
X854502Y985494D01*
X854508Y985589D01*
X854492Y985718D01*
X854487Y985848D01*
X854466Y985941D01*
X854455Y986036D01*
X854418Y986161D01*
X854390Y986288D01*
X854353Y986376D01*
X854325Y986467D01*
X854266Y986583D01*
X854216Y986703D01*
X854164Y986783D01*
X854121Y986869D01*
X854042Y986972D01*
X853972Y987081D01*
X853886Y987179D01*
X853849Y987227D01*
X853816Y987258D01*
X853765Y987316D01*
X850982Y990098D01*
X849584Y993473D01*
X849584Y997127D01*
X850982Y1000502D01*
X853565Y1003085D01*
X856940Y1004483D01*
X860593Y1004483D01*
X863968Y1003085D01*
X866551Y1000502D01*
X867949Y997127D01*
X867949Y993473D01*
X866551Y990098D01*
X863768Y987316D01*
X863685Y987216D01*
X863594Y987123D01*
X863541Y987043D01*
X863480Y986970D01*
X863415Y986857D01*
X863342Y986750D01*
X863304Y986662D01*
X863256Y986579D01*
X863213Y986457D01*
X863160Y986338D01*
X863137Y986245D01*
X863105Y986155D01*
X863084Y986027D01*
X863053Y985900D01*
X863047Y985805D01*
X863032Y985711D01*
X863034Y985581D01*
X863026Y985451D01*
X863037Y985356D01*
X863038Y985260D01*
X863063Y985133D01*
X863078Y985004D01*
X863105Y984912D01*
X863124Y984818D01*
X863170Y984697D01*
X863208Y984573D01*
X863251Y984487D01*
X863286Y984398D01*
X863353Y984287D01*
X863412Y984171D01*
X863470Y984095D01*
X863520Y984014D01*
X863606Y983916D01*
X863684Y983813D01*
X863755Y983748D01*
X863818Y983676D01*
X863920Y983596D01*
X864015Y983507D01*
X864096Y983456D01*
X864171Y983397D01*
X864286Y983336D01*
X864395Y983266D01*
X864484Y983229D01*
X864568Y983184D01*
X864692Y983144D01*
X864812Y983095D01*
X864905Y983075D01*
X864996Y983045D01*
X865125Y983027D01*
X865252Y983000D01*
X865382Y982992D01*
X865442Y982984D01*
X865487Y982985D01*
X865564Y982981D01*
X1210686Y982981D01*
X1212553Y982207D01*
X1213982Y980778D01*
X1214756Y978911D01*
X1214756Y976889D01*
X1213982Y975022D01*
X1212553Y973593D01*
X1210686Y972819D01*
X802621Y972819D01*
X802492Y972808D01*
X802362Y972806D01*
X802268Y972788D01*
X802173Y972779D01*
X802047Y972745D01*
X801920Y972720D01*
X801831Y972686D01*
X801738Y972661D01*
X801621Y972605D01*
X801500Y972558D01*
X801418Y972508D01*
X801332Y972467D01*
X801226Y972392D01*
X801115Y972324D01*
X801043Y972261D01*
X800966Y972205D01*
X800875Y972112D01*
X800778Y972026D01*
X800718Y971951D01*
X800652Y971883D01*
X800579Y971775D01*
X800498Y971673D01*
X800453Y971589D01*
X800400Y971510D01*
X800347Y971391D01*
X800285Y971276D01*
X800256Y971185D01*
X800217Y971098D01*
X800187Y970972D01*
X800146Y970848D01*
X800133Y970753D01*
X800111Y970660D01*
X800103Y970531D01*
X800085Y970402D01*
X800089Y970306D01*
X800083Y970211D01*
X800098Y970082D01*
X800103Y969952D01*
X800124Y969859D01*
X800135Y969764D01*
X800173Y969639D01*
X800201Y969512D01*
X800238Y969424D01*
X800265Y969333D01*
X800324Y969217D01*
X800375Y969097D01*
X800426Y969017D01*
X800470Y968931D01*
X800548Y968828D01*
X800619Y968719D01*
X800705Y968621D01*
X800742Y968573D01*
X800775Y968542D01*
X800826Y968484D01*
X801589Y967721D01*
X1125082Y644228D01*
X1125856Y642361D01*
X1125856Y619106D01*
X1125870Y618943D01*
X1125877Y618778D01*
X1125890Y618719D01*
X1125896Y618658D01*
X1125939Y618499D01*
X1125975Y618339D01*
X1125998Y618282D01*
X1126014Y618223D01*
X1126085Y618075D01*
X1126148Y617923D01*
X1126181Y617872D01*
X1126208Y617817D01*
X1126303Y617683D01*
X1126393Y617545D01*
X1126444Y617487D01*
X1126470Y617451D01*
X1126513Y617408D01*
X1126599Y617311D01*
X1569132Y174778D01*
X1569232Y174694D01*
X1569325Y174604D01*
X1569405Y174550D01*
X1569478Y174489D01*
X1569591Y174424D01*
X1569698Y174352D01*
X1569786Y174313D01*
X1569869Y174265D01*
X1569991Y174222D01*
X1570110Y174169D01*
X1570203Y174147D01*
X1570293Y174115D01*
X1570422Y174093D01*
X1570548Y174063D01*
X1570643Y174057D01*
X1570737Y174041D01*
X1570868Y174043D01*
X1570997Y174035D01*
X1571092Y174046D01*
X1571188Y174047D01*
X1571315Y174072D01*
X1571444Y174087D01*
X1571536Y174115D01*
X1571630Y174133D01*
X1571751Y174180D01*
X1571875Y174217D01*
X1571960Y174261D01*
X1572050Y174295D01*
X1572161Y174363D01*
X1572277Y174422D01*
X1572353Y174479D01*
X1572434Y174529D01*
X1572532Y174615D01*
X1572635Y174694D01*
X1572700Y174764D01*
X1572772Y174827D01*
X1572852Y174929D01*
X1572941Y175025D01*
X1572992Y175106D01*
X1573051Y175180D01*
X1573112Y175295D01*
X1573182Y175405D01*
X1573219Y175493D01*
X1573264Y175577D01*
X1573304Y175701D01*
X1573353Y175821D01*
X1573373Y175915D01*
X1573403Y176005D01*
X1573421Y176134D01*
X1573448Y176261D01*
X1573456Y176391D01*
X1573464Y176452D01*
X1573463Y176496D01*
X1573467Y176573D01*
X1573467Y179398D01*
X1573549Y179595D01*
X1573559Y179628D01*
X1573575Y179659D01*
X1573627Y179843D01*
X1573684Y180025D01*
X1573688Y180059D01*
X1573698Y180093D01*
X1573716Y180282D01*
X1573741Y180472D01*
X1573739Y180506D01*
X1573742Y180541D01*
X1573727Y180731D01*
X1573718Y180921D01*
X1573710Y180955D01*
X1573707Y180990D01*
X1573659Y181174D01*
X1573615Y181360D01*
X1573602Y181392D01*
X1573593Y181425D01*
X1573513Y181598D01*
X1573437Y181773D01*
X1573418Y181802D01*
X1573404Y181834D01*
X1573294Y181990D01*
X1573189Y182149D01*
X1573165Y182174D01*
X1573146Y182203D01*
X1573010Y182337D01*
X1572879Y182475D01*
X1572851Y182495D01*
X1572826Y182520D01*
X1572669Y182629D01*
X1572515Y182741D01*
X1572484Y182756D01*
X1572456Y182776D01*
X1572175Y182913D01*
X1571922Y183018D01*
X1522868Y232072D01*
X1522094Y233939D01*
X1522094Y391179D01*
X1522083Y391308D01*
X1522081Y391438D01*
X1522063Y391532D01*
X1522054Y391627D01*
X1522020Y391753D01*
X1521995Y391880D01*
X1521961Y391969D01*
X1521936Y392062D01*
X1521880Y392179D01*
X1521833Y392300D01*
X1521783Y392382D01*
X1521742Y392468D01*
X1521667Y392574D01*
X1521599Y392685D01*
X1521536Y392757D01*
X1521480Y392834D01*
X1521387Y392925D01*
X1521301Y393022D01*
X1521226Y393082D01*
X1521158Y393148D01*
X1521050Y393221D01*
X1520948Y393302D01*
X1520864Y393347D01*
X1520785Y393400D01*
X1520666Y393453D01*
X1520551Y393515D01*
X1520460Y393544D01*
X1520373Y393583D01*
X1520247Y393613D01*
X1520123Y393654D01*
X1520028Y393667D01*
X1519935Y393689D01*
X1519806Y393697D01*
X1519677Y393715D01*
X1519581Y393711D01*
X1519486Y393717D01*
X1519357Y393702D01*
X1519227Y393697D01*
X1519134Y393676D01*
X1519039Y393665D01*
X1518914Y393627D01*
X1518787Y393599D01*
X1518699Y393562D01*
X1518608Y393535D01*
X1518492Y393476D01*
X1518372Y393425D01*
X1518292Y393374D01*
X1518206Y393330D01*
X1518103Y393252D01*
X1517994Y393181D01*
X1517896Y393095D01*
X1517848Y393058D01*
X1517817Y393025D01*
X1517759Y392974D01*
X1517353Y392568D01*
X1515486Y391794D01*
X1513464Y391794D01*
X1511597Y392568D01*
X1510168Y393997D01*
X1509394Y395864D01*
X1509394Y422929D01*
X1509383Y423058D01*
X1509381Y423188D01*
X1509363Y423282D01*
X1509354Y423377D01*
X1509320Y423503D01*
X1509295Y423630D01*
X1509261Y423719D01*
X1509236Y423812D01*
X1509180Y423929D01*
X1509133Y424050D01*
X1509083Y424132D01*
X1509042Y424218D01*
X1508967Y424324D01*
X1508899Y424435D01*
X1508836Y424507D01*
X1508780Y424584D01*
X1508687Y424675D01*
X1508601Y424772D01*
X1508526Y424832D01*
X1508458Y424898D01*
X1508350Y424971D01*
X1508248Y425052D01*
X1508164Y425097D01*
X1508085Y425150D01*
X1507966Y425203D01*
X1507851Y425265D01*
X1507760Y425294D01*
X1507673Y425333D01*
X1507547Y425363D01*
X1507423Y425404D01*
X1507328Y425417D01*
X1507235Y425439D01*
X1507106Y425447D01*
X1506977Y425465D01*
X1506881Y425461D01*
X1506786Y425467D01*
X1506657Y425452D01*
X1506527Y425447D01*
X1506434Y425426D01*
X1506339Y425415D01*
X1506214Y425377D01*
X1506087Y425349D01*
X1505999Y425312D01*
X1505908Y425285D01*
X1505792Y425226D01*
X1505672Y425175D01*
X1505592Y425124D01*
X1505506Y425080D01*
X1505403Y425002D01*
X1505294Y424931D01*
X1505196Y424845D01*
X1505148Y424808D01*
X1505117Y424775D01*
X1505059Y424724D01*
X1504653Y424318D01*
X1502786Y423544D01*
X1500764Y423544D01*
X1498897Y424318D01*
X1497468Y425747D01*
X1496694Y427614D01*
X1496694Y429636D01*
X1497468Y431503D01*
X1951136Y885171D01*
X1952922Y886957D01*
X1954789Y887731D01*
X2306061Y887731D01*
X2307928Y886957D01*
X2318882Y876003D01*
X2319656Y874136D01*
X2319656Y840364D01*
X2318882Y838497D01*
X2305473Y825088D01*
X2305451Y825061D01*
X2305425Y825038D01*
X2305307Y824889D01*
X2305184Y824742D01*
X2305167Y824712D01*
X2305145Y824685D01*
X2305055Y824517D01*
X2304961Y824351D01*
X2304949Y824319D01*
X2304933Y824288D01*
X2304874Y824107D01*
X2304810Y823927D01*
X2304804Y823893D01*
X2304794Y823860D01*
X2304768Y823672D01*
X2304736Y823483D01*
X2304737Y823448D01*
X2304732Y823414D01*
X2304740Y823223D01*
X2304743Y823033D01*
X2304749Y822999D01*
X2304751Y822964D01*
X2304792Y822778D01*
X2304828Y822591D01*
X2304841Y822558D01*
X2304848Y822524D01*
X2304922Y822349D01*
X2304990Y822171D01*
X2305008Y822141D01*
X2305022Y822109D01*
X2305125Y821949D01*
X2305224Y821786D01*
X2305247Y821760D01*
X2305266Y821731D01*
X2305473Y821497D01*
X2307083Y819886D01*
X2308988Y815288D01*
X2308988Y810312D01*
X2307083Y805714D01*
X2303564Y802194D01*
X2298966Y800290D01*
X2273034Y800290D01*
X2268436Y802194D01*
X2264917Y805714D01*
X2263012Y810312D01*
X2263012Y815288D01*
X2264917Y819886D01*
X2268436Y823406D01*
X2273034Y825310D01*
X2290273Y825310D01*
X2290437Y825325D01*
X2290601Y825332D01*
X2290661Y825345D01*
X2290722Y825350D01*
X2290881Y825393D01*
X2291041Y825429D01*
X2291097Y825453D01*
X2291156Y825469D01*
X2291304Y825539D01*
X2291456Y825603D01*
X2291508Y825636D01*
X2291563Y825662D01*
X2291696Y825758D01*
X2291835Y825847D01*
X2291892Y825898D01*
X2291929Y825924D01*
X2291971Y825968D01*
X2292069Y826054D01*
X2308751Y842736D01*
X2308856Y842862D01*
X2308968Y842983D01*
X2309000Y843034D01*
X2309039Y843081D01*
X2309121Y843224D01*
X2309209Y843363D01*
X2309233Y843419D01*
X2309263Y843472D01*
X2309318Y843627D01*
X2309380Y843779D01*
X2309393Y843839D01*
X2309414Y843896D01*
X2309440Y844059D01*
X2309475Y844219D01*
X2309480Y844296D01*
X2309487Y844341D01*
X2309486Y844402D01*
X2309494Y844531D01*
X2309494Y852794D01*
X2309483Y852924D01*
X2309481Y853054D01*
X2309463Y853147D01*
X2309454Y853243D01*
X2309420Y853368D01*
X2309395Y853496D01*
X2309361Y853585D01*
X2309336Y853677D01*
X2309280Y853794D01*
X2309233Y853916D01*
X2309183Y853998D01*
X2309142Y854084D01*
X2309067Y854189D01*
X2308999Y854301D01*
X2308936Y854372D01*
X2308880Y854450D01*
X2308787Y854541D01*
X2308701Y854638D01*
X2308626Y854697D01*
X2308558Y854764D01*
X2308450Y854837D01*
X2308348Y854917D01*
X2308264Y854963D01*
X2308185Y855016D01*
X2308066Y855069D01*
X2307951Y855130D01*
X2307860Y855160D01*
X2307773Y855198D01*
X2307646Y855229D01*
X2307523Y855269D01*
X2307428Y855282D01*
X2307335Y855305D01*
X2307206Y855313D01*
X2307077Y855331D01*
X2306981Y855327D01*
X2306886Y855333D01*
X2306757Y855318D01*
X2306627Y855312D01*
X2306534Y855292D01*
X2306439Y855281D01*
X2306314Y855243D01*
X2306187Y855215D01*
X2306099Y855178D01*
X2306008Y855150D01*
X2305892Y855091D01*
X2305772Y855041D01*
X2305692Y854989D01*
X2305606Y854946D01*
X2305503Y854867D01*
X2305394Y854797D01*
X2305296Y854711D01*
X2305248Y854674D01*
X2305217Y854641D01*
X2305159Y854590D01*
X2303564Y852994D01*
X2298966Y851090D01*
X2273034Y851090D01*
X2268436Y852994D01*
X2264917Y856514D01*
X2264735Y856952D01*
X2264637Y857139D01*
X2264541Y857329D01*
X2264533Y857339D01*
X2264527Y857351D01*
X2264397Y857518D01*
X2264269Y857687D01*
X2264259Y857696D01*
X2264251Y857707D01*
X2264093Y857849D01*
X2263938Y857993D01*
X2263927Y858000D01*
X2263917Y858008D01*
X2263737Y858120D01*
X2263558Y858234D01*
X2263546Y858239D01*
X2263535Y858246D01*
X2263338Y858325D01*
X2263141Y858405D01*
X2263129Y858408D01*
X2263116Y858413D01*
X2262909Y858455D01*
X2262701Y858500D01*
X2262685Y858501D01*
X2262675Y858503D01*
X2262636Y858504D01*
X2262389Y858519D01*
X2183746Y858519D01*
X2183617Y858508D01*
X2183487Y858506D01*
X2183393Y858488D01*
X2183298Y858479D01*
X2183172Y858445D01*
X2183045Y858420D01*
X2182955Y858386D01*
X2182863Y858361D01*
X2182746Y858305D01*
X2182625Y858258D01*
X2182543Y858208D01*
X2182457Y858167D01*
X2182351Y858092D01*
X2182240Y858024D01*
X2182168Y857961D01*
X2182091Y857905D01*
X2182000Y857812D01*
X2181903Y857726D01*
X2181843Y857651D01*
X2181777Y857583D01*
X2181704Y857475D01*
X2181623Y857373D01*
X2181578Y857289D01*
X2181525Y857210D01*
X2181472Y857091D01*
X2181411Y856976D01*
X2181381Y856885D01*
X2181342Y856798D01*
X2181311Y856671D01*
X2181271Y856548D01*
X2181258Y856453D01*
X2181236Y856360D01*
X2181228Y856231D01*
X2181210Y856102D01*
X2181214Y856006D01*
X2181208Y855911D01*
X2181223Y855782D01*
X2181228Y855652D01*
X2181249Y855559D01*
X2181260Y855464D01*
X2181298Y855339D01*
X2181326Y855212D01*
X2181363Y855124D01*
X2181390Y855033D01*
X2181449Y854917D01*
X2181499Y854797D01*
X2181551Y854716D01*
X2181595Y854631D01*
X2181673Y854528D01*
X2181744Y854419D01*
X2181830Y854321D01*
X2181867Y854273D01*
X2181900Y854242D01*
X2181951Y854184D01*
X2264187Y771948D01*
X2264214Y771926D01*
X2264237Y771900D01*
X2264386Y771782D01*
X2264533Y771659D01*
X2264563Y771642D01*
X2264590Y771620D01*
X2264758Y771530D01*
X2264924Y771436D01*
X2264956Y771424D01*
X2264987Y771408D01*
X2265168Y771349D01*
X2265348Y771285D01*
X2265382Y771279D01*
X2265415Y771269D01*
X2265603Y771243D01*
X2265792Y771211D01*
X2265827Y771212D01*
X2265861Y771207D01*
X2266052Y771215D01*
X2266242Y771218D01*
X2266276Y771224D01*
X2266311Y771226D01*
X2266497Y771267D01*
X2266684Y771303D01*
X2266717Y771316D01*
X2266751Y771323D01*
X2266926Y771397D01*
X2267104Y771465D01*
X2267134Y771483D01*
X2267166Y771497D01*
X2267326Y771600D01*
X2267489Y771699D01*
X2267515Y771722D01*
X2267544Y771741D01*
X2267778Y771948D01*
X2268436Y772606D01*
X2273034Y774510D01*
X2298966Y774510D01*
X2303564Y772606D01*
X2307083Y769086D01*
X2308988Y764488D01*
X2308988Y759512D01*
X2307083Y754914D01*
X2303564Y751394D01*
X2298966Y749490D01*
X2273034Y749490D01*
X2268436Y751394D01*
X2264917Y754914D01*
X2263742Y757749D01*
X2263688Y757853D01*
X2263643Y757961D01*
X2263584Y758052D01*
X2263534Y758148D01*
X2263462Y758241D01*
X2263399Y758339D01*
X2263297Y758454D01*
X2263258Y758504D01*
X2263231Y758528D01*
X2263192Y758573D01*
X2173743Y848022D01*
X2172969Y849889D01*
X2172969Y851911D01*
X2173743Y853778D01*
X2174149Y854184D01*
X2174233Y854284D01*
X2174323Y854377D01*
X2174377Y854457D01*
X2174438Y854530D01*
X2174503Y854643D01*
X2174575Y854750D01*
X2174614Y854838D01*
X2174662Y854921D01*
X2174705Y855043D01*
X2174758Y855162D01*
X2174780Y855255D01*
X2174812Y855345D01*
X2174834Y855473D01*
X2174864Y855600D01*
X2174870Y855695D01*
X2174886Y855789D01*
X2174884Y855919D01*
X2174892Y856049D01*
X2174881Y856144D01*
X2174880Y856239D01*
X2174855Y856367D01*
X2174840Y856496D01*
X2174812Y856588D01*
X2174794Y856682D01*
X2174747Y856803D01*
X2174710Y856927D01*
X2174666Y857012D01*
X2174632Y857102D01*
X2174564Y857213D01*
X2174505Y857329D01*
X2174448Y857405D01*
X2174398Y857486D01*
X2174312Y857584D01*
X2174233Y857687D01*
X2174163Y857752D01*
X2174100Y857824D01*
X2173998Y857904D01*
X2173902Y857993D01*
X2173822Y858044D01*
X2173747Y858103D01*
X2173632Y858164D01*
X2173522Y858234D01*
X2173434Y858271D01*
X2173350Y858316D01*
X2173226Y858356D01*
X2173106Y858405D01*
X2173012Y858425D01*
X2172922Y858455D01*
X2172793Y858473D01*
X2172666Y858500D01*
X2172536Y858508D01*
X2172476Y858516D01*
X2172431Y858515D01*
X2172354Y858519D01*
X1955781Y858519D01*
X1955618Y858505D01*
X1955453Y858498D01*
X1955394Y858485D01*
X1955333Y858479D01*
X1955174Y858436D01*
X1955014Y858400D01*
X1954957Y858377D01*
X1954898Y858361D01*
X1954750Y858290D01*
X1954598Y858227D01*
X1954547Y858194D01*
X1954492Y858167D01*
X1954358Y858072D01*
X1954220Y857982D01*
X1954162Y857931D01*
X1954126Y857905D01*
X1954083Y857862D01*
X1953986Y857776D01*
X1766026Y669816D01*
X1765942Y669716D01*
X1765852Y669623D01*
X1765798Y669543D01*
X1765737Y669470D01*
X1765672Y669357D01*
X1765600Y669250D01*
X1765561Y669162D01*
X1765513Y669079D01*
X1765470Y668957D01*
X1765417Y668838D01*
X1765395Y668745D01*
X1765363Y668655D01*
X1765341Y668526D01*
X1765311Y668400D01*
X1765305Y668305D01*
X1765289Y668211D01*
X1765291Y668080D01*
X1765283Y667951D01*
X1765294Y667856D01*
X1765295Y667760D01*
X1765320Y667633D01*
X1765335Y667504D01*
X1765363Y667412D01*
X1765381Y667318D01*
X1765428Y667197D01*
X1765465Y667073D01*
X1765509Y666988D01*
X1765543Y666898D01*
X1765611Y666787D01*
X1765670Y666671D01*
X1765727Y666595D01*
X1765777Y666514D01*
X1765863Y666416D01*
X1765942Y666313D01*
X1766012Y666248D01*
X1766075Y666176D01*
X1766177Y666096D01*
X1766273Y666007D01*
X1766354Y665956D01*
X1766428Y665897D01*
X1766543Y665836D01*
X1766653Y665766D01*
X1766741Y665729D01*
X1766825Y665684D01*
X1766949Y665644D01*
X1767069Y665595D01*
X1767163Y665575D01*
X1767253Y665545D01*
X1767382Y665527D01*
X1767509Y665500D01*
X1767639Y665492D01*
X1767700Y665484D01*
X1767744Y665485D01*
X1767821Y665481D01*
X2262389Y665481D01*
X2262601Y665500D01*
X2262812Y665516D01*
X2262825Y665519D01*
X2262838Y665521D01*
X2263044Y665577D01*
X2263247Y665630D01*
X2263259Y665636D01*
X2263272Y665639D01*
X2263463Y665730D01*
X2263656Y665819D01*
X2263667Y665827D01*
X2263679Y665833D01*
X2263851Y665955D01*
X2264025Y666078D01*
X2264034Y666087D01*
X2264045Y666095D01*
X2264194Y666247D01*
X2264342Y666397D01*
X2264350Y666408D01*
X2264359Y666417D01*
X2264478Y666593D01*
X2264598Y666767D01*
X2264605Y666782D01*
X2264611Y666790D01*
X2264627Y666826D01*
X2264735Y667048D01*
X2264917Y667486D01*
X2268436Y671006D01*
X2273034Y672910D01*
X2298966Y672910D01*
X2303564Y671006D01*
X2307083Y667486D01*
X2308988Y662888D01*
X2308988Y657912D01*
X2307083Y653314D01*
X2303564Y649794D01*
X2298966Y647890D01*
X2273034Y647890D01*
X2268436Y649794D01*
X2264917Y653314D01*
X2264735Y653752D01*
X2264637Y653939D01*
X2264541Y654129D01*
X2264533Y654139D01*
X2264527Y654151D01*
X2264397Y654318D01*
X2264269Y654487D01*
X2264259Y654496D01*
X2264251Y654507D01*
X2264093Y654649D01*
X2263938Y654793D01*
X2263927Y654800D01*
X2263917Y654808D01*
X2263737Y654920D01*
X2263558Y655034D01*
X2263546Y655039D01*
X2263535Y655046D01*
X2263338Y655125D01*
X2263141Y655205D01*
X2263129Y655208D01*
X2263116Y655213D01*
X2262909Y655255D01*
X2262701Y655300D01*
X2262685Y655301D01*
X2262675Y655303D01*
X2262636Y655304D01*
X2262389Y655319D01*
X1768456Y655319D01*
X1768293Y655305D01*
X1768128Y655298D01*
X1768069Y655285D01*
X1768008Y655279D01*
X1767849Y655236D01*
X1767689Y655200D01*
X1767632Y655177D01*
X1767573Y655161D01*
X1767425Y655090D01*
X1767273Y655027D01*
X1767222Y654994D01*
X1767167Y654967D01*
X1767033Y654872D01*
X1766895Y654782D01*
X1766837Y654731D01*
X1766801Y654705D01*
X1766758Y654662D01*
X1766661Y654576D01*
X1731101Y619016D01*
X1731017Y618916D01*
X1730927Y618823D01*
X1730873Y618743D01*
X1730812Y618670D01*
X1730747Y618557D01*
X1730675Y618450D01*
X1730636Y618362D01*
X1730588Y618279D01*
X1730545Y618157D01*
X1730492Y618038D01*
X1730470Y617945D01*
X1730438Y617855D01*
X1730416Y617726D01*
X1730386Y617600D01*
X1730380Y617505D01*
X1730364Y617411D01*
X1730366Y617280D01*
X1730358Y617151D01*
X1730369Y617056D01*
X1730370Y616960D01*
X1730395Y616833D01*
X1730410Y616704D01*
X1730438Y616612D01*
X1730456Y616518D01*
X1730503Y616397D01*
X1730540Y616273D01*
X1730584Y616188D01*
X1730618Y616098D01*
X1730686Y615987D01*
X1730745Y615871D01*
X1730802Y615795D01*
X1730852Y615714D01*
X1730938Y615616D01*
X1731017Y615513D01*
X1731087Y615448D01*
X1731150Y615376D01*
X1731252Y615296D01*
X1731348Y615207D01*
X1731428Y615156D01*
X1731503Y615097D01*
X1731618Y615036D01*
X1731728Y614966D01*
X1731816Y614929D01*
X1731900Y614884D01*
X1732024Y614844D01*
X1732144Y614795D01*
X1732238Y614775D01*
X1732328Y614745D01*
X1732457Y614727D01*
X1732584Y614700D01*
X1732714Y614692D01*
X1732775Y614684D01*
X1732819Y614685D01*
X1732896Y614681D01*
X2262389Y614681D01*
X2262601Y614700D01*
X2262812Y614716D01*
X2262825Y614719D01*
X2262838Y614721D01*
X2263044Y614777D01*
X2263247Y614830D01*
X2263259Y614836D01*
X2263272Y614839D01*
X2263463Y614930D01*
X2263656Y615019D01*
X2263667Y615027D01*
X2263679Y615033D01*
X2263851Y615155D01*
X2264025Y615278D01*
X2264034Y615287D01*
X2264045Y615295D01*
X2264194Y615447D01*
X2264342Y615597D01*
X2264350Y615608D01*
X2264359Y615617D01*
X2264478Y615793D01*
X2264598Y615967D01*
X2264605Y615982D01*
X2264611Y615990D01*
X2264627Y616026D01*
X2264735Y616248D01*
X2264917Y616686D01*
X2268436Y620206D01*
X2273034Y622110D01*
X2298966Y622110D01*
X2303564Y620206D01*
X2307083Y616686D01*
X2308988Y612088D01*
X2308988Y607112D01*
X2307083Y602514D01*
X2303564Y598994D01*
X2298966Y597090D01*
X2273034Y597090D01*
X2268436Y598994D01*
X2264917Y602514D01*
X2264735Y602952D01*
X2264637Y603139D01*
X2264541Y603329D01*
X2264533Y603339D01*
X2264527Y603351D01*
X2264397Y603518D01*
X2264269Y603687D01*
X2264259Y603696D01*
X2264251Y603707D01*
X2264093Y603849D01*
X2263938Y603993D01*
X2263927Y604000D01*
X2263917Y604008D01*
X2263737Y604120D01*
X2263558Y604234D01*
X2263546Y604239D01*
X2263535Y604246D01*
X2263338Y604325D01*
X2263141Y604405D01*
X2263129Y604408D01*
X2263116Y604413D01*
X2262909Y604455D01*
X2262701Y604500D01*
X2262685Y604501D01*
X2262675Y604503D01*
X2262636Y604504D01*
X2262389Y604519D01*
X1733531Y604519D01*
X1733368Y604505D01*
X1733203Y604498D01*
X1733144Y604485D01*
X1733083Y604479D01*
X1732924Y604436D01*
X1732764Y604400D01*
X1732707Y604377D01*
X1732648Y604361D01*
X1732500Y604290D01*
X1732348Y604227D01*
X1732297Y604194D01*
X1732242Y604167D01*
X1732108Y604072D01*
X1731970Y603982D01*
X1731912Y603931D01*
X1731876Y603905D01*
X1731833Y603862D01*
X1731736Y603776D01*
X1696176Y568216D01*
X1696092Y568116D01*
X1696002Y568023D01*
X1695948Y567943D01*
X1695887Y567870D01*
X1695822Y567757D01*
X1695750Y567650D01*
X1695711Y567562D01*
X1695663Y567479D01*
X1695620Y567357D01*
X1695567Y567238D01*
X1695545Y567145D01*
X1695513Y567055D01*
X1695491Y566926D01*
X1695461Y566800D01*
X1695455Y566705D01*
X1695439Y566611D01*
X1695441Y566480D01*
X1695433Y566351D01*
X1695444Y566256D01*
X1695445Y566160D01*
X1695470Y566033D01*
X1695485Y565904D01*
X1695513Y565812D01*
X1695531Y565718D01*
X1695578Y565597D01*
X1695615Y565473D01*
X1695659Y565388D01*
X1695693Y565298D01*
X1695761Y565187D01*
X1695820Y565071D01*
X1695877Y564995D01*
X1695927Y564914D01*
X1696013Y564816D01*
X1696092Y564713D01*
X1696162Y564648D01*
X1696225Y564576D01*
X1696327Y564496D01*
X1696423Y564407D01*
X1696503Y564356D01*
X1696578Y564297D01*
X1696693Y564236D01*
X1696803Y564166D01*
X1696891Y564129D01*
X1696975Y564084D01*
X1697099Y564044D01*
X1697219Y563995D01*
X1697313Y563975D01*
X1697403Y563945D01*
X1697532Y563927D01*
X1697659Y563900D01*
X1697789Y563892D01*
X1697850Y563884D01*
X1697894Y563885D01*
X1697971Y563881D01*
X2262389Y563881D01*
X2262601Y563900D01*
X2262812Y563916D01*
X2262825Y563919D01*
X2262838Y563921D01*
X2263044Y563977D01*
X2263247Y564030D01*
X2263259Y564036D01*
X2263272Y564039D01*
X2263463Y564130D01*
X2263656Y564219D01*
X2263667Y564227D01*
X2263679Y564233D01*
X2263851Y564355D01*
X2264025Y564478D01*
X2264034Y564487D01*
X2264045Y564495D01*
X2264194Y564647D01*
X2264342Y564797D01*
X2264350Y564808D01*
X2264359Y564817D01*
X2264478Y564993D01*
X2264598Y565167D01*
X2264605Y565182D01*
X2264611Y565190D01*
X2264627Y565226D01*
X2264735Y565448D01*
X2264917Y565886D01*
X2268436Y569406D01*
X2273034Y571310D01*
X2298966Y571310D01*
X2303564Y569406D01*
X2307083Y565886D01*
X2308988Y561288D01*
X2308988Y556312D01*
X2307083Y551714D01*
X2303564Y548194D01*
X2298966Y546290D01*
X2273034Y546290D01*
X2268436Y548194D01*
X2264917Y551714D01*
X2264735Y552152D01*
X2264637Y552339D01*
X2264541Y552529D01*
X2264533Y552539D01*
X2264527Y552551D01*
X2264397Y552718D01*
X2264269Y552887D01*
X2264259Y552896D01*
X2264251Y552907D01*
X2264093Y553049D01*
X2263938Y553193D01*
X2263927Y553200D01*
X2263917Y553208D01*
X2263737Y553320D01*
X2263558Y553434D01*
X2263546Y553439D01*
X2263535Y553446D01*
X2263338Y553525D01*
X2263141Y553605D01*
X2263129Y553608D01*
X2263116Y553613D01*
X2262909Y553655D01*
X2262701Y553700D01*
X2262685Y553701D01*
X2262675Y553703D01*
X2262636Y553704D01*
X2262389Y553719D01*
X1698606Y553719D01*
X1698443Y553705D01*
X1698278Y553698D01*
X1698219Y553685D01*
X1698158Y553679D01*
X1697999Y553636D01*
X1697839Y553600D01*
X1697782Y553577D01*
X1697723Y553561D01*
X1697575Y553490D01*
X1697423Y553427D01*
X1697372Y553394D01*
X1697317Y553367D01*
X1697183Y553272D01*
X1697045Y553182D01*
X1696987Y553131D01*
X1696951Y553105D01*
X1696908Y553062D01*
X1696811Y552976D01*
X1661251Y517416D01*
X1661167Y517316D01*
X1661077Y517223D01*
X1661023Y517143D01*
X1660962Y517070D01*
X1660897Y516957D01*
X1660825Y516850D01*
X1660786Y516762D01*
X1660738Y516679D01*
X1660695Y516557D01*
X1660642Y516438D01*
X1660620Y516345D01*
X1660588Y516255D01*
X1660566Y516126D01*
X1660536Y516000D01*
X1660530Y515905D01*
X1660514Y515811D01*
X1660516Y515680D01*
X1660508Y515551D01*
X1660519Y515456D01*
X1660520Y515360D01*
X1660545Y515233D01*
X1660560Y515104D01*
X1660588Y515012D01*
X1660606Y514918D01*
X1660653Y514797D01*
X1660690Y514673D01*
X1660734Y514588D01*
X1660768Y514498D01*
X1660836Y514387D01*
X1660895Y514271D01*
X1660952Y514195D01*
X1661002Y514114D01*
X1661088Y514016D01*
X1661167Y513913D01*
X1661237Y513848D01*
X1661300Y513776D01*
X1661402Y513696D01*
X1661498Y513607D01*
X1661578Y513556D01*
X1661653Y513497D01*
X1661768Y513436D01*
X1661878Y513366D01*
X1661966Y513329D01*
X1662050Y513284D01*
X1662174Y513244D01*
X1662294Y513195D01*
X1662388Y513175D01*
X1662478Y513145D01*
X1662607Y513127D01*
X1662734Y513100D01*
X1662864Y513092D01*
X1662925Y513084D01*
X1662969Y513085D01*
X1663046Y513081D01*
X2262389Y513081D01*
X2262601Y513100D01*
X2262812Y513116D01*
X2262825Y513119D01*
X2262838Y513121D01*
X2263044Y513177D01*
X2263247Y513230D01*
X2263259Y513236D01*
X2263272Y513239D01*
X2263463Y513330D01*
X2263656Y513419D01*
X2263667Y513427D01*
X2263679Y513433D01*
X2263851Y513555D01*
X2264025Y513678D01*
X2264034Y513687D01*
X2264045Y513695D01*
X2264194Y513847D01*
X2264342Y513997D01*
X2264350Y514008D01*
X2264359Y514017D01*
X2264478Y514193D01*
X2264598Y514367D01*
X2264605Y514382D01*
X2264611Y514390D01*
X2264627Y514426D01*
X2264735Y514648D01*
X2264917Y515086D01*
X2268436Y518606D01*
X2273034Y520510D01*
X2298966Y520510D01*
X2303564Y518606D01*
X2307083Y515086D01*
X2308988Y510488D01*
X2308988Y505512D01*
X2307083Y500914D01*
X2303564Y497394D01*
X2298966Y495490D01*
X2273034Y495490D01*
X2268436Y497394D01*
X2264917Y500914D01*
X2264735Y501352D01*
X2264637Y501539D01*
X2264541Y501729D01*
X2264533Y501739D01*
X2264527Y501751D01*
X2264397Y501918D01*
X2264269Y502087D01*
X2264259Y502096D01*
X2264251Y502107D01*
X2264093Y502249D01*
X2263938Y502393D01*
X2263927Y502400D01*
X2263917Y502408D01*
X2263737Y502520D01*
X2263558Y502634D01*
X2263546Y502639D01*
X2263535Y502646D01*
X2263338Y502725D01*
X2263141Y502805D01*
X2263129Y502808D01*
X2263116Y502813D01*
X2262909Y502855D01*
X2262701Y502900D01*
X2262685Y502901D01*
X2262675Y502903D01*
X2262636Y502904D01*
X2262389Y502919D01*
X1663681Y502919D01*
X1663518Y502905D01*
X1663353Y502898D01*
X1663294Y502885D01*
X1663233Y502879D01*
X1663074Y502836D01*
X1662914Y502800D01*
X1662857Y502777D01*
X1662798Y502761D01*
X1662650Y502690D01*
X1662498Y502627D01*
X1662447Y502594D01*
X1662392Y502567D01*
X1662258Y502472D01*
X1662120Y502382D01*
X1662062Y502331D01*
X1662026Y502305D01*
X1661983Y502262D01*
X1661886Y502176D01*
X1578478Y418768D01*
X1578394Y418668D01*
X1578304Y418575D01*
X1578250Y418495D01*
X1578189Y418422D01*
X1578124Y418309D01*
X1578052Y418202D01*
X1578013Y418114D01*
X1577965Y418031D01*
X1577922Y417909D01*
X1577869Y417790D01*
X1577847Y417697D01*
X1577815Y417607D01*
X1577793Y417478D01*
X1577763Y417352D01*
X1577757Y417257D01*
X1577741Y417163D01*
X1577743Y417032D01*
X1577735Y416903D01*
X1577746Y416808D01*
X1577747Y416712D01*
X1577772Y416585D01*
X1577787Y416456D01*
X1577815Y416364D01*
X1577833Y416270D01*
X1577880Y416149D01*
X1577917Y416025D01*
X1577961Y415940D01*
X1577995Y415850D01*
X1578063Y415739D01*
X1578122Y415623D01*
X1578179Y415547D01*
X1578229Y415466D01*
X1578315Y415368D01*
X1578394Y415265D01*
X1578464Y415200D01*
X1578527Y415128D01*
X1578629Y415048D01*
X1578725Y414959D01*
X1578806Y414908D01*
X1578880Y414849D01*
X1578995Y414788D01*
X1579105Y414718D01*
X1579193Y414681D01*
X1579277Y414636D01*
X1579401Y414596D01*
X1579521Y414547D01*
X1579615Y414527D01*
X1579705Y414497D01*
X1579834Y414479D01*
X1579961Y414452D01*
X1580091Y414444D01*
X1580152Y414436D01*
X1580196Y414437D01*
X1580273Y414433D01*
X1595098Y414433D01*
X1598050Y413210D01*
X1600332Y410928D01*
X1600364Y410855D01*
X1600416Y410775D01*
X1600461Y410690D01*
X1600540Y410587D01*
X1600612Y410479D01*
X1600678Y410410D01*
X1600736Y410334D01*
X1600833Y410247D01*
X1600923Y410153D01*
X1601000Y410097D01*
X1601071Y410033D01*
X1601181Y409964D01*
X1601286Y409887D01*
X1601372Y409845D01*
X1601453Y409795D01*
X1601574Y409746D01*
X1601691Y409689D01*
X1601782Y409663D01*
X1601871Y409628D01*
X1601999Y409602D01*
X1602124Y409566D01*
X1602219Y409557D01*
X1602312Y409538D01*
X1602442Y409535D01*
X1602572Y409522D01*
X1602667Y409529D01*
X1602762Y409527D01*
X1602891Y409547D01*
X1603021Y409557D01*
X1603113Y409581D01*
X1603207Y409596D01*
X1603330Y409638D01*
X1603456Y409671D01*
X1603543Y409711D01*
X1603633Y409742D01*
X1603747Y409806D01*
X1603865Y409860D01*
X1603943Y409915D01*
X1604027Y409961D01*
X1604127Y410044D01*
X1604234Y410119D01*
X1604301Y410186D01*
X1604375Y410247D01*
X1604459Y410346D01*
X1604551Y410438D01*
X1604605Y410517D01*
X1604667Y410589D01*
X1604733Y410701D01*
X1604807Y410808D01*
X1604864Y410925D01*
X1604895Y410978D01*
X1604910Y411020D01*
X1604944Y411089D01*
X1605147Y411580D01*
X1607720Y414153D01*
X1611081Y415545D01*
X1614719Y415545D01*
X1618080Y414153D01*
X1620653Y411580D01*
X1622045Y408219D01*
X1622045Y404581D01*
X1620653Y401220D01*
X1618080Y398647D01*
X1614719Y397255D01*
X1611081Y397255D01*
X1607720Y398647D01*
X1605147Y401220D01*
X1604944Y401711D01*
X1604884Y401826D01*
X1604832Y401946D01*
X1604780Y402025D01*
X1604736Y402110D01*
X1604656Y402213D01*
X1604584Y402321D01*
X1604518Y402390D01*
X1604460Y402466D01*
X1604363Y402553D01*
X1604274Y402647D01*
X1604197Y402704D01*
X1604126Y402768D01*
X1604015Y402836D01*
X1603910Y402913D01*
X1603824Y402955D01*
X1603743Y403005D01*
X1603622Y403054D01*
X1603506Y403111D01*
X1603414Y403137D01*
X1603325Y403172D01*
X1603197Y403198D01*
X1603072Y403234D01*
X1602977Y403243D01*
X1602884Y403262D01*
X1602754Y403265D01*
X1602624Y403278D01*
X1602529Y403271D01*
X1602434Y403273D01*
X1602306Y403253D01*
X1602176Y403243D01*
X1602083Y403219D01*
X1601989Y403204D01*
X1601866Y403162D01*
X1601740Y403129D01*
X1601653Y403089D01*
X1601563Y403058D01*
X1601449Y402994D01*
X1601331Y402940D01*
X1601253Y402885D01*
X1601170Y402838D01*
X1601069Y402756D01*
X1600963Y402681D01*
X1600895Y402614D01*
X1600821Y402553D01*
X1600737Y402454D01*
X1600645Y402362D01*
X1600591Y402283D01*
X1600529Y402211D01*
X1600463Y402099D01*
X1600389Y401991D01*
X1600332Y401875D01*
X1600329Y401869D01*
X1598050Y399590D01*
X1595098Y398367D01*
X1579902Y398367D01*
X1576950Y399590D01*
X1574691Y401850D01*
X1574591Y401933D01*
X1574498Y402024D01*
X1574418Y402077D01*
X1574345Y402138D01*
X1574232Y402203D01*
X1574125Y402276D01*
X1574037Y402314D01*
X1573954Y402362D01*
X1573832Y402405D01*
X1573713Y402458D01*
X1573620Y402481D01*
X1573530Y402513D01*
X1573402Y402534D01*
X1573275Y402565D01*
X1573180Y402570D01*
X1573086Y402586D01*
X1572956Y402584D01*
X1572826Y402592D01*
X1572731Y402581D01*
X1572635Y402580D01*
X1572508Y402555D01*
X1572379Y402540D01*
X1572287Y402513D01*
X1572193Y402494D01*
X1572072Y402448D01*
X1571948Y402410D01*
X1571862Y402367D01*
X1571773Y402332D01*
X1571662Y402265D01*
X1571546Y402206D01*
X1571470Y402148D01*
X1571389Y402098D01*
X1571291Y402012D01*
X1571188Y401934D01*
X1571123Y401863D01*
X1571051Y401800D01*
X1570971Y401698D01*
X1570882Y401602D01*
X1570831Y401522D01*
X1570772Y401447D01*
X1570711Y401332D01*
X1570641Y401223D01*
X1570604Y401134D01*
X1570559Y401050D01*
X1570519Y400926D01*
X1570470Y400806D01*
X1570450Y400713D01*
X1570420Y400622D01*
X1570402Y400493D01*
X1570375Y400366D01*
X1570367Y400236D01*
X1570359Y400176D01*
X1570360Y400131D01*
X1570356Y400054D01*
X1570356Y387346D01*
X1570367Y387216D01*
X1570369Y387086D01*
X1570387Y386993D01*
X1570396Y386897D01*
X1570430Y386772D01*
X1570455Y386644D01*
X1570489Y386555D01*
X1570514Y386463D01*
X1570570Y386346D01*
X1570617Y386224D01*
X1570667Y386143D01*
X1570708Y386056D01*
X1570783Y385951D01*
X1570851Y385840D01*
X1570914Y385768D01*
X1570970Y385690D01*
X1571063Y385600D01*
X1571149Y385502D01*
X1571224Y385443D01*
X1571292Y385376D01*
X1571400Y385304D01*
X1571502Y385223D01*
X1571586Y385178D01*
X1571665Y385124D01*
X1571784Y385072D01*
X1571899Y385010D01*
X1571990Y384981D01*
X1572077Y384942D01*
X1572204Y384911D01*
X1572327Y384871D01*
X1572422Y384858D01*
X1572515Y384835D01*
X1572644Y384827D01*
X1572773Y384810D01*
X1572869Y384814D01*
X1572964Y384808D01*
X1573093Y384823D01*
X1573223Y384828D01*
X1573316Y384849D01*
X1573411Y384860D01*
X1573536Y384897D01*
X1573663Y384926D01*
X1573751Y384962D01*
X1573842Y384990D01*
X1573958Y385049D01*
X1574078Y385099D01*
X1574158Y385151D01*
X1574244Y385194D01*
X1574347Y385273D01*
X1574456Y385344D01*
X1574554Y385430D01*
X1574602Y385466D01*
X1574633Y385499D01*
X1574691Y385550D01*
X1576950Y387810D01*
X1579902Y389033D01*
X1595098Y389033D01*
X1598050Y387810D01*
X1600310Y385550D01*
X1601533Y382598D01*
X1601533Y379402D01*
X1600310Y376450D01*
X1598050Y374190D01*
X1595098Y372967D01*
X1579902Y372967D01*
X1576950Y374190D01*
X1574691Y376450D01*
X1574591Y376533D01*
X1574498Y376624D01*
X1574418Y376677D01*
X1574345Y376738D01*
X1574232Y376803D01*
X1574125Y376876D01*
X1574037Y376914D01*
X1573954Y376962D01*
X1573832Y377005D01*
X1573713Y377058D01*
X1573620Y377081D01*
X1573530Y377113D01*
X1573402Y377134D01*
X1573275Y377165D01*
X1573180Y377170D01*
X1573086Y377186D01*
X1572956Y377184D01*
X1572826Y377192D01*
X1572731Y377181D01*
X1572635Y377180D01*
X1572508Y377155D01*
X1572379Y377140D01*
X1572287Y377113D01*
X1572193Y377094D01*
X1572072Y377048D01*
X1571948Y377010D01*
X1571862Y376967D01*
X1571773Y376932D01*
X1571662Y376865D01*
X1571546Y376806D01*
X1571470Y376748D01*
X1571389Y376698D01*
X1571291Y376612D01*
X1571188Y376534D01*
X1571123Y376463D01*
X1571051Y376400D01*
X1570971Y376298D01*
X1570882Y376202D01*
X1570831Y376122D01*
X1570772Y376047D01*
X1570711Y375932D01*
X1570641Y375823D01*
X1570604Y375734D01*
X1570559Y375650D01*
X1570519Y375526D01*
X1570470Y375406D01*
X1570450Y375313D01*
X1570420Y375222D01*
X1570402Y375093D01*
X1570375Y374966D01*
X1570367Y374836D01*
X1570359Y374776D01*
X1570360Y374731D01*
X1570356Y374654D01*
X1570356Y361946D01*
X1570367Y361816D01*
X1570369Y361686D01*
X1570387Y361593D01*
X1570396Y361497D01*
X1570430Y361372D01*
X1570455Y361244D01*
X1570489Y361155D01*
X1570514Y361063D01*
X1570570Y360946D01*
X1570617Y360824D01*
X1570667Y360743D01*
X1570708Y360656D01*
X1570783Y360551D01*
X1570851Y360440D01*
X1570914Y360368D01*
X1570970Y360290D01*
X1571063Y360200D01*
X1571149Y360102D01*
X1571224Y360043D01*
X1571292Y359976D01*
X1571400Y359904D01*
X1571502Y359823D01*
X1571586Y359778D01*
X1571665Y359724D01*
X1571784Y359672D01*
X1571899Y359610D01*
X1571990Y359581D01*
X1572077Y359542D01*
X1572204Y359511D01*
X1572327Y359471D01*
X1572422Y359458D01*
X1572515Y359435D01*
X1572644Y359427D01*
X1572773Y359410D01*
X1572869Y359414D01*
X1572964Y359408D01*
X1573093Y359423D01*
X1573223Y359428D01*
X1573316Y359449D01*
X1573411Y359460D01*
X1573536Y359497D01*
X1573663Y359526D01*
X1573751Y359562D01*
X1573842Y359590D01*
X1573958Y359649D01*
X1574078Y359699D01*
X1574158Y359751D01*
X1574244Y359794D01*
X1574347Y359873D01*
X1574456Y359944D01*
X1574554Y360030D01*
X1574602Y360066D01*
X1574633Y360099D01*
X1574691Y360150D01*
X1576950Y362410D01*
X1579902Y363633D01*
X1595098Y363633D01*
X1598050Y362410D01*
X1600310Y360150D01*
X1601533Y357198D01*
X1601533Y354002D01*
X1600310Y351050D01*
X1598050Y348790D01*
X1595098Y347567D01*
X1579902Y347567D01*
X1576950Y348790D01*
X1574691Y351050D01*
X1574591Y351133D01*
X1574498Y351224D01*
X1574418Y351277D01*
X1574345Y351338D01*
X1574232Y351403D01*
X1574125Y351476D01*
X1574037Y351514D01*
X1573954Y351562D01*
X1573832Y351605D01*
X1573713Y351658D01*
X1573620Y351681D01*
X1573530Y351713D01*
X1573402Y351734D01*
X1573275Y351765D01*
X1573180Y351770D01*
X1573086Y351786D01*
X1572956Y351784D01*
X1572826Y351792D01*
X1572731Y351781D01*
X1572635Y351780D01*
X1572508Y351755D01*
X1572379Y351740D01*
X1572287Y351713D01*
X1572193Y351694D01*
X1572072Y351648D01*
X1571948Y351610D01*
X1571862Y351567D01*
X1571773Y351532D01*
X1571662Y351465D01*
X1571546Y351406D01*
X1571470Y351348D01*
X1571389Y351298D01*
X1571291Y351212D01*
X1571188Y351134D01*
X1571123Y351063D01*
X1571051Y351000D01*
X1570971Y350898D01*
X1570882Y350802D01*
X1570831Y350722D01*
X1570772Y350647D01*
X1570711Y350532D01*
X1570641Y350423D01*
X1570604Y350334D01*
X1570559Y350250D01*
X1570519Y350126D01*
X1570470Y350006D01*
X1570450Y349913D01*
X1570420Y349822D01*
X1570402Y349693D01*
X1570375Y349566D01*
X1570367Y349436D01*
X1570359Y349376D01*
X1570360Y349331D01*
X1570356Y349254D01*
X1570356Y336546D01*
X1570367Y336416D01*
X1570369Y336286D01*
X1570387Y336193D01*
X1570396Y336097D01*
X1570430Y335972D01*
X1570455Y335844D01*
X1570489Y335755D01*
X1570514Y335663D01*
X1570570Y335546D01*
X1570617Y335424D01*
X1570667Y335343D01*
X1570708Y335256D01*
X1570783Y335151D01*
X1570851Y335040D01*
X1570914Y334968D01*
X1570970Y334890D01*
X1571063Y334800D01*
X1571149Y334702D01*
X1571224Y334643D01*
X1571292Y334576D01*
X1571400Y334504D01*
X1571502Y334423D01*
X1571586Y334378D01*
X1571665Y334324D01*
X1571784Y334272D01*
X1571899Y334210D01*
X1571990Y334181D01*
X1572077Y334142D01*
X1572204Y334111D01*
X1572327Y334071D01*
X1572422Y334058D01*
X1572515Y334035D01*
X1572644Y334027D01*
X1572773Y334010D01*
X1572869Y334014D01*
X1572964Y334008D01*
X1573093Y334023D01*
X1573223Y334028D01*
X1573316Y334049D01*
X1573411Y334060D01*
X1573536Y334097D01*
X1573663Y334126D01*
X1573751Y334162D01*
X1573842Y334190D01*
X1573958Y334249D01*
X1574078Y334299D01*
X1574158Y334351D01*
X1574244Y334394D01*
X1574347Y334473D01*
X1574456Y334544D01*
X1574554Y334630D01*
X1574602Y334666D01*
X1574633Y334699D01*
X1574691Y334750D01*
X1576950Y337010D01*
X1579902Y338233D01*
X1595098Y338233D01*
X1598050Y337010D01*
X1600310Y334750D01*
X1601533Y331798D01*
X1601533Y328602D01*
X1600310Y325650D01*
X1598050Y323390D01*
X1595098Y322167D01*
X1579902Y322167D01*
X1576950Y323390D01*
X1574691Y325650D01*
X1574591Y325733D01*
X1574498Y325824D01*
X1574418Y325877D01*
X1574345Y325938D01*
X1574232Y326003D01*
X1574125Y326076D01*
X1574037Y326114D01*
X1573954Y326162D01*
X1573832Y326205D01*
X1573713Y326258D01*
X1573620Y326281D01*
X1573530Y326313D01*
X1573402Y326334D01*
X1573275Y326365D01*
X1573180Y326370D01*
X1573086Y326386D01*
X1572956Y326384D01*
X1572826Y326392D01*
X1572731Y326381D01*
X1572635Y326380D01*
X1572508Y326355D01*
X1572379Y326340D01*
X1572287Y326313D01*
X1572193Y326294D01*
X1572072Y326248D01*
X1571948Y326210D01*
X1571862Y326167D01*
X1571773Y326132D01*
X1571662Y326065D01*
X1571546Y326006D01*
X1571470Y325948D01*
X1571389Y325898D01*
X1571291Y325812D01*
X1571188Y325734D01*
X1571123Y325663D01*
X1571051Y325600D01*
X1570971Y325498D01*
X1570882Y325402D01*
X1570831Y325322D01*
X1570772Y325247D01*
X1570711Y325132D01*
X1570641Y325023D01*
X1570604Y324934D01*
X1570559Y324850D01*
X1570519Y324726D01*
X1570470Y324606D01*
X1570450Y324513D01*
X1570420Y324422D01*
X1570402Y324293D01*
X1570375Y324166D01*
X1570367Y324036D01*
X1570359Y323976D01*
X1570360Y323931D01*
X1570356Y323854D01*
X1570356Y311146D01*
X1570367Y311016D01*
X1570369Y310886D01*
X1570387Y310793D01*
X1570396Y310697D01*
X1570430Y310572D01*
X1570455Y310444D01*
X1570489Y310355D01*
X1570514Y310263D01*
X1570570Y310146D01*
X1570617Y310024D01*
X1570667Y309943D01*
X1570708Y309856D01*
X1570783Y309751D01*
X1570851Y309640D01*
X1570914Y309568D01*
X1570970Y309490D01*
X1571063Y309400D01*
X1571149Y309302D01*
X1571224Y309243D01*
X1571292Y309176D01*
X1571400Y309104D01*
X1571502Y309023D01*
X1571586Y308978D01*
X1571665Y308924D01*
X1571784Y308872D01*
X1571899Y308810D01*
X1571990Y308781D01*
X1572077Y308742D01*
X1572204Y308711D01*
X1572327Y308671D01*
X1572422Y308658D01*
X1572515Y308635D01*
X1572644Y308627D01*
X1572773Y308610D01*
X1572869Y308614D01*
X1572964Y308608D01*
X1573093Y308623D01*
X1573223Y308628D01*
X1573316Y308649D01*
X1573411Y308660D01*
X1573536Y308697D01*
X1573663Y308726D01*
X1573751Y308762D01*
X1573842Y308790D01*
X1573958Y308849D01*
X1574078Y308899D01*
X1574158Y308951D01*
X1574244Y308994D01*
X1574347Y309073D01*
X1574456Y309144D01*
X1574554Y309230D01*
X1574602Y309266D01*
X1574633Y309299D01*
X1574691Y309350D01*
X1576950Y311610D01*
X1579902Y312833D01*
X1595098Y312833D01*
X1598050Y311610D01*
X1600310Y309350D01*
X1601533Y306398D01*
X1601533Y303202D01*
X1600310Y300250D01*
X1598050Y297990D01*
X1595098Y296767D01*
X1579902Y296767D01*
X1576950Y297990D01*
X1574691Y300250D01*
X1574591Y300333D01*
X1574498Y300424D01*
X1574418Y300477D01*
X1574345Y300538D01*
X1574232Y300603D01*
X1574125Y300676D01*
X1574037Y300714D01*
X1573954Y300762D01*
X1573832Y300805D01*
X1573713Y300858D01*
X1573620Y300881D01*
X1573530Y300913D01*
X1573402Y300934D01*
X1573275Y300965D01*
X1573180Y300970D01*
X1573086Y300986D01*
X1572956Y300984D01*
X1572826Y300992D01*
X1572731Y300981D01*
X1572635Y300980D01*
X1572508Y300955D01*
X1572379Y300940D01*
X1572287Y300913D01*
X1572193Y300894D01*
X1572072Y300848D01*
X1571948Y300810D01*
X1571862Y300767D01*
X1571773Y300732D01*
X1571662Y300665D01*
X1571546Y300606D01*
X1571470Y300548D01*
X1571389Y300498D01*
X1571291Y300412D01*
X1571188Y300334D01*
X1571123Y300263D01*
X1571051Y300200D01*
X1570971Y300098D01*
X1570882Y300002D01*
X1570831Y299922D01*
X1570772Y299847D01*
X1570711Y299732D01*
X1570641Y299623D01*
X1570604Y299534D01*
X1570559Y299450D01*
X1570519Y299326D01*
X1570470Y299206D01*
X1570450Y299113D01*
X1570420Y299022D01*
X1570402Y298893D01*
X1570375Y298766D01*
X1570367Y298636D01*
X1570359Y298576D01*
X1570360Y298531D01*
X1570356Y298454D01*
X1570356Y285746D01*
X1570367Y285616D01*
X1570369Y285486D01*
X1570387Y285393D01*
X1570396Y285297D01*
X1570430Y285172D01*
X1570455Y285044D01*
X1570489Y284955D01*
X1570514Y284863D01*
X1570570Y284746D01*
X1570617Y284624D01*
X1570667Y284543D01*
X1570708Y284456D01*
X1570783Y284351D01*
X1570851Y284240D01*
X1570914Y284168D01*
X1570970Y284090D01*
X1571063Y284000D01*
X1571149Y283902D01*
X1571224Y283843D01*
X1571292Y283776D01*
X1571400Y283704D01*
X1571502Y283623D01*
X1571586Y283578D01*
X1571665Y283524D01*
X1571784Y283472D01*
X1571899Y283410D01*
X1571990Y283381D01*
X1572077Y283342D01*
X1572204Y283311D01*
X1572327Y283271D01*
X1572422Y283258D01*
X1572515Y283235D01*
X1572644Y283227D01*
X1572773Y283210D01*
X1572869Y283214D01*
X1572964Y283208D01*
X1573093Y283223D01*
X1573223Y283228D01*
X1573316Y283249D01*
X1573411Y283260D01*
X1573536Y283297D01*
X1573663Y283326D01*
X1573751Y283362D01*
X1573842Y283390D01*
X1573958Y283449D01*
X1574078Y283499D01*
X1574158Y283551D01*
X1574244Y283594D01*
X1574347Y283673D01*
X1574456Y283744D01*
X1574554Y283830D01*
X1574602Y283866D01*
X1574633Y283899D01*
X1574691Y283950D01*
X1576950Y286210D01*
X1579902Y287433D01*
X1595098Y287433D01*
X1598050Y286210D01*
X1600310Y283950D01*
X1601533Y280998D01*
X1601533Y277802D01*
X1600310Y274850D01*
X1598050Y272590D01*
X1595098Y271367D01*
X1583448Y271367D01*
X1583319Y271356D01*
X1583189Y271354D01*
X1583095Y271336D01*
X1583000Y271327D01*
X1582874Y271293D01*
X1582747Y271268D01*
X1582657Y271234D01*
X1582565Y271209D01*
X1582448Y271153D01*
X1582327Y271106D01*
X1582245Y271056D01*
X1582159Y271015D01*
X1582053Y270940D01*
X1581942Y270872D01*
X1581870Y270809D01*
X1581793Y270753D01*
X1581702Y270660D01*
X1581605Y270574D01*
X1581545Y270499D01*
X1581479Y270431D01*
X1581406Y270323D01*
X1581325Y270221D01*
X1581280Y270137D01*
X1581227Y270058D01*
X1581174Y269939D01*
X1581113Y269824D01*
X1581083Y269733D01*
X1581044Y269646D01*
X1581014Y269519D01*
X1580973Y269396D01*
X1580960Y269301D01*
X1580938Y269208D01*
X1580930Y269079D01*
X1580912Y268950D01*
X1580916Y268854D01*
X1580910Y268759D01*
X1580925Y268630D01*
X1580930Y268500D01*
X1580951Y268407D01*
X1580962Y268312D01*
X1581000Y268187D01*
X1581028Y268060D01*
X1581065Y267972D01*
X1581092Y267881D01*
X1581151Y267765D01*
X1581202Y267645D01*
X1581253Y267565D01*
X1581297Y267479D01*
X1581375Y267376D01*
X1581446Y267267D01*
X1581532Y267169D01*
X1581569Y267121D01*
X1581602Y267090D01*
X1581653Y267032D01*
X1582639Y266046D01*
X1582640Y266046D01*
X1585909Y262776D01*
X1586035Y262671D01*
X1586156Y262559D01*
X1586207Y262527D01*
X1586254Y262488D01*
X1586397Y262406D01*
X1586536Y262318D01*
X1586592Y262294D01*
X1586645Y262264D01*
X1586800Y262209D01*
X1586952Y262147D01*
X1587012Y262134D01*
X1587069Y262113D01*
X1587231Y262087D01*
X1587392Y262052D01*
X1587470Y262047D01*
X1587514Y262040D01*
X1587574Y262041D01*
X1587704Y262033D01*
X1595098Y262033D01*
X1598050Y260810D01*
X1600310Y258550D01*
X1601533Y255598D01*
X1601533Y252402D01*
X1600310Y249450D01*
X1598050Y247190D01*
X1595098Y245967D01*
X1583448Y245967D01*
X1583319Y245956D01*
X1583189Y245954D01*
X1583095Y245936D01*
X1583000Y245927D01*
X1582874Y245893D01*
X1582747Y245868D01*
X1582657Y245834D01*
X1582565Y245809D01*
X1582448Y245753D01*
X1582327Y245706D01*
X1582245Y245656D01*
X1582159Y245615D01*
X1582053Y245540D01*
X1581942Y245472D01*
X1581870Y245409D01*
X1581793Y245353D01*
X1581702Y245260D01*
X1581605Y245174D01*
X1581545Y245099D01*
X1581479Y245031D01*
X1581406Y244923D01*
X1581325Y244821D01*
X1581280Y244737D01*
X1581227Y244658D01*
X1581174Y244539D01*
X1581113Y244424D01*
X1581083Y244333D01*
X1581044Y244246D01*
X1581014Y244119D01*
X1580973Y243996D01*
X1580960Y243901D01*
X1580938Y243808D01*
X1580930Y243679D01*
X1580912Y243550D01*
X1580916Y243454D01*
X1580910Y243359D01*
X1580925Y243230D01*
X1580930Y243100D01*
X1580951Y243007D01*
X1580962Y242912D01*
X1581000Y242787D01*
X1581028Y242660D01*
X1581065Y242572D01*
X1581092Y242481D01*
X1581151Y242365D01*
X1581202Y242245D01*
X1581253Y242165D01*
X1581297Y242079D01*
X1581375Y241976D01*
X1581446Y241867D01*
X1581532Y241769D01*
X1581569Y241721D01*
X1581602Y241690D01*
X1581653Y241632D01*
X1582639Y240646D01*
X1582640Y240646D01*
X1585909Y237376D01*
X1586035Y237271D01*
X1586156Y237159D01*
X1586207Y237127D01*
X1586254Y237088D01*
X1586397Y237006D01*
X1586536Y236918D01*
X1586592Y236894D01*
X1586645Y236864D01*
X1586800Y236809D01*
X1586952Y236747D01*
X1587012Y236734D01*
X1587069Y236713D01*
X1587231Y236687D01*
X1587392Y236652D01*
X1587470Y236647D01*
X1587514Y236640D01*
X1587574Y236641D01*
X1587704Y236633D01*
X1595098Y236633D01*
X1598050Y235410D01*
X1600310Y233150D01*
X1601533Y230198D01*
X1601533Y227002D01*
X1600310Y224050D01*
X1598050Y221790D01*
X1595098Y220567D01*
X1583448Y220567D01*
X1583319Y220556D01*
X1583189Y220554D01*
X1583095Y220536D01*
X1583000Y220527D01*
X1582874Y220493D01*
X1582747Y220468D01*
X1582657Y220434D01*
X1582565Y220409D01*
X1582448Y220353D01*
X1582327Y220306D01*
X1582245Y220256D01*
X1582159Y220215D01*
X1582053Y220140D01*
X1581942Y220072D01*
X1581870Y220009D01*
X1581793Y219953D01*
X1581702Y219860D01*
X1581605Y219774D01*
X1581545Y219699D01*
X1581479Y219631D01*
X1581406Y219523D01*
X1581325Y219421D01*
X1581280Y219337D01*
X1581227Y219258D01*
X1581174Y219139D01*
X1581113Y219024D01*
X1581083Y218933D01*
X1581044Y218846D01*
X1581014Y218719D01*
X1580973Y218596D01*
X1580960Y218501D01*
X1580938Y218408D01*
X1580930Y218279D01*
X1580912Y218150D01*
X1580916Y218054D01*
X1580910Y217959D01*
X1580925Y217830D01*
X1580930Y217700D01*
X1580951Y217607D01*
X1580962Y217512D01*
X1581000Y217387D01*
X1581028Y217260D01*
X1581065Y217172D01*
X1581092Y217081D01*
X1581151Y216965D01*
X1581202Y216845D01*
X1581253Y216765D01*
X1581297Y216679D01*
X1581375Y216576D01*
X1581446Y216467D01*
X1581532Y216369D01*
X1581569Y216321D01*
X1581602Y216290D01*
X1581653Y216232D01*
X1582639Y215246D01*
X1585909Y211976D01*
X1586035Y211871D01*
X1586156Y211759D01*
X1586207Y211727D01*
X1586254Y211688D01*
X1586397Y211606D01*
X1586536Y211518D01*
X1586592Y211494D01*
X1586645Y211464D01*
X1586800Y211409D01*
X1586952Y211347D01*
X1587012Y211334D01*
X1587069Y211313D01*
X1587232Y211287D01*
X1587392Y211252D01*
X1587469Y211247D01*
X1587514Y211240D01*
X1587575Y211241D01*
X1587704Y211233D01*
X1595098Y211233D01*
X1598050Y210010D01*
X1600310Y207750D01*
X1601533Y204798D01*
X1601533Y201602D01*
X1600310Y198650D01*
X1598050Y196390D01*
X1595098Y195167D01*
X1583448Y195167D01*
X1583319Y195156D01*
X1583189Y195154D01*
X1583095Y195136D01*
X1583000Y195127D01*
X1582874Y195093D01*
X1582747Y195068D01*
X1582657Y195034D01*
X1582565Y195009D01*
X1582448Y194953D01*
X1582327Y194906D01*
X1582245Y194856D01*
X1582159Y194815D01*
X1582053Y194740D01*
X1581942Y194672D01*
X1581870Y194609D01*
X1581793Y194553D01*
X1581702Y194460D01*
X1581605Y194374D01*
X1581545Y194299D01*
X1581479Y194231D01*
X1581406Y194123D01*
X1581325Y194021D01*
X1581280Y193937D01*
X1581227Y193858D01*
X1581174Y193739D01*
X1581113Y193624D01*
X1581083Y193533D01*
X1581044Y193446D01*
X1581014Y193319D01*
X1580973Y193196D01*
X1580960Y193101D01*
X1580938Y193008D01*
X1580930Y192879D01*
X1580912Y192750D01*
X1580916Y192654D01*
X1580910Y192559D01*
X1580925Y192430D01*
X1580930Y192300D01*
X1580951Y192207D01*
X1580962Y192112D01*
X1581000Y191987D01*
X1581028Y191860D01*
X1581065Y191772D01*
X1581092Y191681D01*
X1581151Y191565D01*
X1581202Y191445D01*
X1581253Y191365D01*
X1581297Y191279D01*
X1581375Y191176D01*
X1581446Y191067D01*
X1581532Y190969D01*
X1581569Y190921D01*
X1581602Y190890D01*
X1581653Y190832D01*
X1582639Y189846D01*
X1585909Y186576D01*
X1586035Y186471D01*
X1586156Y186359D01*
X1586207Y186327D01*
X1586254Y186288D01*
X1586397Y186206D01*
X1586536Y186118D01*
X1586592Y186094D01*
X1586645Y186064D01*
X1586800Y186009D01*
X1586952Y185947D01*
X1587012Y185934D01*
X1587069Y185913D01*
X1587232Y185887D01*
X1587392Y185852D01*
X1587469Y185847D01*
X1587514Y185840D01*
X1587575Y185841D01*
X1587704Y185833D01*
X1595098Y185833D01*
X1598050Y184610D01*
X1600310Y182350D01*
X1601533Y179398D01*
X1601533Y176202D01*
X1600310Y173250D01*
X1598050Y170990D01*
X1595098Y169767D01*
X1583448Y169767D01*
X1583319Y169756D01*
X1583189Y169754D01*
X1583095Y169736D01*
X1583000Y169727D01*
X1582874Y169693D01*
X1582747Y169668D01*
X1582657Y169634D01*
X1582565Y169609D01*
X1582448Y169553D01*
X1582327Y169506D01*
X1582245Y169456D01*
X1582159Y169415D01*
X1582053Y169340D01*
X1581942Y169272D01*
X1581870Y169209D01*
X1581793Y169153D01*
X1581702Y169060D01*
X1581605Y168974D01*
X1581545Y168899D01*
X1581479Y168831D01*
X1581406Y168723D01*
X1581325Y168621D01*
X1581280Y168537D01*
X1581227Y168458D01*
X1581174Y168339D01*
X1581113Y168224D01*
X1581083Y168133D01*
X1581044Y168046D01*
X1581013Y167919D01*
X1580973Y167796D01*
X1580960Y167701D01*
X1580938Y167608D01*
X1580930Y167479D01*
X1580912Y167350D01*
X1580916Y167254D01*
X1580910Y167159D01*
X1580925Y167030D01*
X1580930Y166900D01*
X1580951Y166807D01*
X1580962Y166712D01*
X1581000Y166587D01*
X1581028Y166460D01*
X1581065Y166372D01*
X1581092Y166281D01*
X1581151Y166165D01*
X1581202Y166045D01*
X1581253Y165965D01*
X1581297Y165879D01*
X1581375Y165776D01*
X1581446Y165667D01*
X1581532Y165569D01*
X1581569Y165521D01*
X1581602Y165490D01*
X1581653Y165432D01*
X1585909Y161176D01*
X1586035Y161071D01*
X1586156Y160959D01*
X1586207Y160927D01*
X1586254Y160888D01*
X1586397Y160806D01*
X1586536Y160718D01*
X1586592Y160694D01*
X1586645Y160664D01*
X1586800Y160609D01*
X1586952Y160547D01*
X1587012Y160534D01*
X1587069Y160513D01*
X1587232Y160487D01*
X1587392Y160452D01*
X1587469Y160447D01*
X1587514Y160440D01*
X1587575Y160441D01*
X1587704Y160433D01*
X1595098Y160433D01*
X1598050Y159210D01*
X1600310Y156950D01*
X1601533Y153998D01*
X1601533Y150802D01*
X1600310Y147850D01*
X1598050Y145590D01*
X1595098Y144367D01*
X1579902Y144367D01*
G37*
%LPD*%
%LPC*%
G36*
X1608714Y553719D02*
X1608714Y553719D01*
X1606847Y554493D01*
X1605418Y555922D01*
X1604644Y557789D01*
X1604644Y963036D01*
X1605418Y964903D01*
X1824899Y1184384D01*
X1824983Y1184484D01*
X1825073Y1184577D01*
X1825127Y1184657D01*
X1825188Y1184730D01*
X1825253Y1184843D01*
X1825325Y1184950D01*
X1825364Y1185038D01*
X1825412Y1185121D01*
X1825455Y1185243D01*
X1825508Y1185362D01*
X1825530Y1185455D01*
X1825562Y1185545D01*
X1825584Y1185674D01*
X1825614Y1185800D01*
X1825620Y1185895D01*
X1825636Y1185989D01*
X1825634Y1186120D01*
X1825642Y1186249D01*
X1825631Y1186344D01*
X1825630Y1186440D01*
X1825605Y1186567D01*
X1825590Y1186696D01*
X1825562Y1186788D01*
X1825544Y1186882D01*
X1825497Y1187003D01*
X1825460Y1187127D01*
X1825416Y1187212D01*
X1825382Y1187302D01*
X1825314Y1187413D01*
X1825255Y1187529D01*
X1825198Y1187605D01*
X1825148Y1187686D01*
X1825062Y1187784D01*
X1824983Y1187887D01*
X1824913Y1187952D01*
X1824850Y1188024D01*
X1824748Y1188104D01*
X1824652Y1188193D01*
X1824571Y1188244D01*
X1824497Y1188303D01*
X1824382Y1188364D01*
X1824272Y1188434D01*
X1824184Y1188471D01*
X1824100Y1188516D01*
X1823976Y1188556D01*
X1823856Y1188605D01*
X1823762Y1188625D01*
X1823672Y1188655D01*
X1823543Y1188673D01*
X1823416Y1188700D01*
X1823286Y1188708D01*
X1823225Y1188716D01*
X1823181Y1188715D01*
X1823104Y1188719D01*
X1821439Y1188719D01*
X1819572Y1189493D01*
X1818143Y1190922D01*
X1817369Y1192789D01*
X1817369Y1342823D01*
X1817359Y1342939D01*
X1817359Y1343056D01*
X1817339Y1343163D01*
X1817329Y1343271D01*
X1817299Y1343384D01*
X1817278Y1343499D01*
X1817227Y1343645D01*
X1817211Y1343706D01*
X1817195Y1343738D01*
X1817176Y1343795D01*
X1816290Y1345934D01*
X1816290Y1371866D01*
X1818194Y1376464D01*
X1821714Y1379983D01*
X1826312Y1381888D01*
X1831288Y1381888D01*
X1835886Y1379983D01*
X1839406Y1376464D01*
X1841310Y1371866D01*
X1841310Y1345934D01*
X1839406Y1341336D01*
X1835886Y1337817D01*
X1831288Y1335912D01*
X1830070Y1335912D01*
X1830035Y1335909D01*
X1830001Y1335911D01*
X1829812Y1335889D01*
X1829621Y1335872D01*
X1829588Y1335863D01*
X1829554Y1335859D01*
X1829371Y1335804D01*
X1829187Y1335754D01*
X1829156Y1335739D01*
X1829123Y1335729D01*
X1828952Y1335642D01*
X1828780Y1335560D01*
X1828752Y1335540D01*
X1828721Y1335525D01*
X1828569Y1335409D01*
X1828414Y1335298D01*
X1828390Y1335273D01*
X1828363Y1335253D01*
X1828234Y1335113D01*
X1828100Y1334976D01*
X1828081Y1334947D01*
X1828057Y1334921D01*
X1827955Y1334760D01*
X1827848Y1334603D01*
X1827834Y1334571D01*
X1827816Y1334542D01*
X1827743Y1334365D01*
X1827666Y1334191D01*
X1827658Y1334157D01*
X1827645Y1334125D01*
X1827605Y1333938D01*
X1827559Y1333753D01*
X1827557Y1333719D01*
X1827550Y1333685D01*
X1827531Y1333373D01*
X1827531Y1193146D01*
X1827542Y1193017D01*
X1827544Y1192887D01*
X1827562Y1192793D01*
X1827571Y1192698D01*
X1827605Y1192572D01*
X1827630Y1192445D01*
X1827664Y1192355D01*
X1827689Y1192263D01*
X1827745Y1192146D01*
X1827792Y1192025D01*
X1827842Y1191943D01*
X1827883Y1191857D01*
X1827958Y1191751D01*
X1828026Y1191640D01*
X1828089Y1191568D01*
X1828145Y1191491D01*
X1828238Y1191400D01*
X1828324Y1191303D01*
X1828399Y1191243D01*
X1828467Y1191177D01*
X1828575Y1191104D01*
X1828677Y1191023D01*
X1828761Y1190978D01*
X1828840Y1190925D01*
X1828959Y1190872D01*
X1829074Y1190811D01*
X1829165Y1190781D01*
X1829252Y1190742D01*
X1829379Y1190711D01*
X1829502Y1190671D01*
X1829597Y1190658D01*
X1829690Y1190636D01*
X1829819Y1190628D01*
X1829948Y1190610D01*
X1830044Y1190614D01*
X1830139Y1190608D01*
X1830268Y1190623D01*
X1830398Y1190628D01*
X1830491Y1190649D01*
X1830586Y1190660D01*
X1830711Y1190698D01*
X1830838Y1190726D01*
X1830926Y1190763D01*
X1831017Y1190790D01*
X1831133Y1190849D01*
X1831253Y1190899D01*
X1831334Y1190951D01*
X1831419Y1190995D01*
X1831522Y1191073D01*
X1831631Y1191144D01*
X1831729Y1191230D01*
X1831777Y1191267D01*
X1831808Y1191300D01*
X1831866Y1191351D01*
X1974427Y1333912D01*
X1974449Y1333939D01*
X1974475Y1333962D01*
X1974593Y1334111D01*
X1974716Y1334258D01*
X1974733Y1334288D01*
X1974755Y1334315D01*
X1974845Y1334483D01*
X1974939Y1334649D01*
X1974951Y1334681D01*
X1974967Y1334712D01*
X1975026Y1334893D01*
X1975090Y1335073D01*
X1975096Y1335107D01*
X1975106Y1335140D01*
X1975132Y1335328D01*
X1975164Y1335517D01*
X1975163Y1335552D01*
X1975168Y1335586D01*
X1975160Y1335777D01*
X1975157Y1335967D01*
X1975151Y1336001D01*
X1975149Y1336036D01*
X1975108Y1336222D01*
X1975072Y1336409D01*
X1975059Y1336442D01*
X1975052Y1336476D01*
X1974979Y1336651D01*
X1974910Y1336829D01*
X1974892Y1336859D01*
X1974878Y1336891D01*
X1974775Y1337051D01*
X1974676Y1337214D01*
X1974653Y1337240D01*
X1974634Y1337269D01*
X1974427Y1337503D01*
X1970594Y1341336D01*
X1968690Y1345934D01*
X1968690Y1371866D01*
X1970594Y1376464D01*
X1974114Y1379983D01*
X1978712Y1381888D01*
X1983688Y1381888D01*
X1988286Y1379983D01*
X1991806Y1376464D01*
X1993710Y1371866D01*
X1993710Y1345934D01*
X1991806Y1341336D01*
X1988286Y1337817D01*
X1987848Y1337635D01*
X1987661Y1337537D01*
X1987471Y1337441D01*
X1987461Y1337433D01*
X1987449Y1337427D01*
X1987282Y1337297D01*
X1987113Y1337169D01*
X1987104Y1337159D01*
X1987093Y1337151D01*
X1986951Y1336993D01*
X1986807Y1336838D01*
X1986800Y1336827D01*
X1986792Y1336817D01*
X1986679Y1336637D01*
X1986566Y1336458D01*
X1986561Y1336446D01*
X1986554Y1336435D01*
X1986475Y1336238D01*
X1986395Y1336041D01*
X1986392Y1336029D01*
X1986387Y1336016D01*
X1986345Y1335809D01*
X1986300Y1335601D01*
X1986299Y1335585D01*
X1986297Y1335575D01*
X1986296Y1335536D01*
X1986281Y1335289D01*
X1986281Y1332489D01*
X1985507Y1330622D01*
X1615549Y960664D01*
X1615444Y960538D01*
X1615332Y960417D01*
X1615300Y960366D01*
X1615261Y960319D01*
X1615179Y960176D01*
X1615091Y960037D01*
X1615067Y959981D01*
X1615037Y959928D01*
X1614982Y959773D01*
X1614920Y959621D01*
X1614907Y959561D01*
X1614886Y959504D01*
X1614860Y959341D01*
X1614825Y959181D01*
X1614820Y959104D01*
X1614813Y959059D01*
X1614814Y958998D01*
X1614806Y958869D01*
X1614806Y557789D01*
X1614032Y555922D01*
X1612603Y554493D01*
X1610736Y553719D01*
X1608714Y553719D01*
G37*
%LPD*%
%LPC*%
G36*
X1661881Y397255D02*
X1661881Y397255D01*
X1658520Y398647D01*
X1655947Y401220D01*
X1654555Y404581D01*
X1654555Y408219D01*
X1655947Y411580D01*
X1658520Y414153D01*
X1661881Y415545D01*
X1664608Y415545D01*
X1664771Y415559D01*
X1664936Y415566D01*
X1664995Y415579D01*
X1665056Y415585D01*
X1665215Y415628D01*
X1665375Y415664D01*
X1665432Y415687D01*
X1665491Y415703D01*
X1665639Y415774D01*
X1665791Y415837D01*
X1665842Y415870D01*
X1665897Y415897D01*
X1666031Y415992D01*
X1666169Y416082D01*
X1666227Y416133D01*
X1666263Y416159D01*
X1666306Y416202D01*
X1666403Y416288D01*
X1711622Y461507D01*
X1713489Y462281D01*
X2262389Y462281D01*
X2262601Y462300D01*
X2262812Y462316D01*
X2262825Y462319D01*
X2262838Y462321D01*
X2263044Y462377D01*
X2263247Y462430D01*
X2263259Y462436D01*
X2263272Y462439D01*
X2263463Y462530D01*
X2263656Y462619D01*
X2263667Y462627D01*
X2263679Y462633D01*
X2263851Y462755D01*
X2264025Y462878D01*
X2264034Y462887D01*
X2264045Y462895D01*
X2264194Y463047D01*
X2264342Y463197D01*
X2264350Y463208D01*
X2264359Y463217D01*
X2264478Y463393D01*
X2264598Y463567D01*
X2264605Y463582D01*
X2264611Y463590D01*
X2264627Y463626D01*
X2264735Y463848D01*
X2264917Y464286D01*
X2268436Y467806D01*
X2273034Y469710D01*
X2298966Y469710D01*
X2303564Y467806D01*
X2307083Y464286D01*
X2308988Y459688D01*
X2308988Y454712D01*
X2307083Y450114D01*
X2303564Y446594D01*
X2298966Y444690D01*
X2273034Y444690D01*
X2268436Y446594D01*
X2264917Y450114D01*
X2264735Y450552D01*
X2264637Y450739D01*
X2264541Y450929D01*
X2264533Y450939D01*
X2264527Y450951D01*
X2264397Y451118D01*
X2264269Y451287D01*
X2264259Y451296D01*
X2264251Y451307D01*
X2264093Y451449D01*
X2263938Y451593D01*
X2263927Y451600D01*
X2263917Y451608D01*
X2263737Y451720D01*
X2263558Y451834D01*
X2263546Y451839D01*
X2263535Y451846D01*
X2263338Y451925D01*
X2263141Y452005D01*
X2263129Y452008D01*
X2263116Y452013D01*
X2262909Y452055D01*
X2262701Y452100D01*
X2262685Y452101D01*
X2262675Y452103D01*
X2262636Y452104D01*
X2262389Y452119D01*
X1717656Y452119D01*
X1717493Y452105D01*
X1717328Y452098D01*
X1717269Y452085D01*
X1717208Y452079D01*
X1717049Y452036D01*
X1716889Y452000D01*
X1716832Y451977D01*
X1716773Y451961D01*
X1716625Y451890D01*
X1716473Y451827D01*
X1716422Y451794D01*
X1716367Y451767D01*
X1716233Y451672D01*
X1716095Y451582D01*
X1716037Y451531D01*
X1716001Y451505D01*
X1715958Y451462D01*
X1715861Y451376D01*
X1684596Y420110D01*
X1684529Y420030D01*
X1684455Y419958D01*
X1684385Y419858D01*
X1684307Y419765D01*
X1684255Y419675D01*
X1684195Y419590D01*
X1684144Y419479D01*
X1684083Y419374D01*
X1684049Y419276D01*
X1684004Y419182D01*
X1683973Y419064D01*
X1683933Y418950D01*
X1683916Y418847D01*
X1683889Y418747D01*
X1683879Y418626D01*
X1683859Y418506D01*
X1683861Y418401D01*
X1683852Y418298D01*
X1683864Y418177D01*
X1683865Y418055D01*
X1683885Y417953D01*
X1683895Y417850D01*
X1683928Y417733D01*
X1683951Y417613D01*
X1683988Y417516D01*
X1684016Y417416D01*
X1684069Y417307D01*
X1684113Y417193D01*
X1684167Y417104D01*
X1684212Y417011D01*
X1684284Y416912D01*
X1684347Y416809D01*
X1684416Y416731D01*
X1684477Y416646D01*
X1684565Y416562D01*
X1684645Y416471D01*
X1684727Y416407D01*
X1684802Y416335D01*
X1684903Y416267D01*
X1684998Y416192D01*
X1685090Y416143D01*
X1685177Y416085D01*
X1685288Y416037D01*
X1685395Y415979D01*
X1685494Y415947D01*
X1685590Y415906D01*
X1685708Y415878D01*
X1685823Y415840D01*
X1685927Y415826D01*
X1686028Y415802D01*
X1686149Y415795D01*
X1686269Y415779D01*
X1686374Y415783D01*
X1686477Y415777D01*
X1686561Y415785D01*
X1686561Y408939D01*
X1679717Y408939D01*
X1679716Y409040D01*
X1679724Y409161D01*
X1679712Y409264D01*
X1679711Y409368D01*
X1679688Y409487D01*
X1679675Y409608D01*
X1679645Y409708D01*
X1679625Y409810D01*
X1679582Y409924D01*
X1679547Y410040D01*
X1679501Y410133D01*
X1679463Y410230D01*
X1679400Y410334D01*
X1679346Y410443D01*
X1679283Y410526D01*
X1679229Y410615D01*
X1679149Y410706D01*
X1679076Y410803D01*
X1679000Y410874D01*
X1678931Y410953D01*
X1678836Y411028D01*
X1678747Y411111D01*
X1678660Y411167D01*
X1678578Y411232D01*
X1678471Y411289D01*
X1678369Y411355D01*
X1678273Y411395D01*
X1678181Y411445D01*
X1678066Y411482D01*
X1677953Y411529D01*
X1677852Y411552D01*
X1677753Y411584D01*
X1677632Y411600D01*
X1677514Y411627D01*
X1677410Y411631D01*
X1677307Y411645D01*
X1677185Y411640D01*
X1677064Y411645D01*
X1676961Y411631D01*
X1676857Y411627D01*
X1676738Y411600D01*
X1676618Y411584D01*
X1676519Y411552D01*
X1676417Y411529D01*
X1676305Y411482D01*
X1676190Y411445D01*
X1676098Y411396D01*
X1676002Y411356D01*
X1675900Y411290D01*
X1675793Y411232D01*
X1675711Y411168D01*
X1675624Y411111D01*
X1675487Y410991D01*
X1675440Y410953D01*
X1675422Y410933D01*
X1675390Y410904D01*
X1673588Y409103D01*
X1673483Y408977D01*
X1673371Y408856D01*
X1673339Y408805D01*
X1673300Y408758D01*
X1673218Y408615D01*
X1673130Y408476D01*
X1673106Y408420D01*
X1673076Y408367D01*
X1673021Y408212D01*
X1672959Y408060D01*
X1672946Y408000D01*
X1672925Y407943D01*
X1672899Y407780D01*
X1672864Y407620D01*
X1672859Y407543D01*
X1672852Y407498D01*
X1672853Y407437D01*
X1672845Y407308D01*
X1672845Y404581D01*
X1671453Y401220D01*
X1668880Y398647D01*
X1665519Y397255D01*
X1661881Y397255D01*
G37*
%LPD*%
%LPC*%
G36*
X1497589Y1074419D02*
X1497589Y1074419D01*
X1495722Y1075193D01*
X1231488Y1339427D01*
X1231461Y1339449D01*
X1231438Y1339475D01*
X1231289Y1339594D01*
X1231142Y1339716D01*
X1231112Y1339733D01*
X1231085Y1339755D01*
X1230917Y1339845D01*
X1230751Y1339939D01*
X1230719Y1339951D01*
X1230688Y1339967D01*
X1230507Y1340026D01*
X1230327Y1340090D01*
X1230293Y1340096D01*
X1230260Y1340106D01*
X1230072Y1340132D01*
X1229883Y1340164D01*
X1229848Y1340163D01*
X1229814Y1340168D01*
X1229623Y1340160D01*
X1229433Y1340157D01*
X1229399Y1340151D01*
X1229364Y1340149D01*
X1229178Y1340108D01*
X1228991Y1340072D01*
X1228958Y1340059D01*
X1228924Y1340052D01*
X1228749Y1339979D01*
X1228571Y1339910D01*
X1228541Y1339892D01*
X1228509Y1339878D01*
X1228349Y1339775D01*
X1228186Y1339676D01*
X1228160Y1339653D01*
X1228131Y1339634D01*
X1227897Y1339427D01*
X1226287Y1337817D01*
X1221688Y1335912D01*
X1216712Y1335912D01*
X1212114Y1337817D01*
X1208594Y1341336D01*
X1206690Y1345934D01*
X1206690Y1371866D01*
X1208594Y1376464D01*
X1212114Y1379983D01*
X1216712Y1381888D01*
X1221688Y1381888D01*
X1226286Y1379983D01*
X1229806Y1376464D01*
X1231710Y1371866D01*
X1231710Y1354627D01*
X1231725Y1354463D01*
X1231732Y1354299D01*
X1231745Y1354239D01*
X1231750Y1354178D01*
X1231793Y1354019D01*
X1231829Y1353859D01*
X1231853Y1353803D01*
X1231869Y1353744D01*
X1231939Y1353596D01*
X1232003Y1353444D01*
X1232036Y1353392D01*
X1232062Y1353337D01*
X1232158Y1353204D01*
X1232247Y1353065D01*
X1232298Y1353008D01*
X1232324Y1352971D01*
X1232368Y1352929D01*
X1232454Y1352831D01*
X1499961Y1085324D01*
X1500087Y1085219D01*
X1500208Y1085107D01*
X1500259Y1085075D01*
X1500306Y1085036D01*
X1500449Y1084954D01*
X1500588Y1084866D01*
X1500644Y1084842D01*
X1500697Y1084812D01*
X1500852Y1084757D01*
X1501004Y1084695D01*
X1501064Y1084682D01*
X1501121Y1084661D01*
X1501284Y1084635D01*
X1501444Y1084600D01*
X1501521Y1084595D01*
X1501566Y1084588D01*
X1501627Y1084589D01*
X1501756Y1084581D01*
X1693286Y1084581D01*
X1695153Y1083807D01*
X1696582Y1082378D01*
X1697356Y1080511D01*
X1697356Y1078489D01*
X1696582Y1076622D01*
X1695153Y1075193D01*
X1693286Y1074419D01*
X1497589Y1074419D01*
G37*
%LPD*%
%LPC*%
G36*
X1678564Y1156969D02*
X1678564Y1156969D01*
X1676697Y1157743D01*
X1519693Y1314747D01*
X1518919Y1316614D01*
X1518919Y1335289D01*
X1518900Y1335500D01*
X1518884Y1335712D01*
X1518881Y1335725D01*
X1518879Y1335738D01*
X1518824Y1335942D01*
X1518770Y1336148D01*
X1518764Y1336160D01*
X1518761Y1336172D01*
X1518671Y1336362D01*
X1518581Y1336556D01*
X1518573Y1336567D01*
X1518567Y1336579D01*
X1518445Y1336750D01*
X1518322Y1336925D01*
X1518313Y1336934D01*
X1518305Y1336945D01*
X1518153Y1337094D01*
X1518003Y1337242D01*
X1517992Y1337250D01*
X1517983Y1337259D01*
X1517807Y1337378D01*
X1517632Y1337498D01*
X1517618Y1337505D01*
X1517610Y1337511D01*
X1517574Y1337527D01*
X1517352Y1337635D01*
X1516914Y1337817D01*
X1513394Y1341336D01*
X1511490Y1345934D01*
X1511490Y1371866D01*
X1513394Y1376464D01*
X1516914Y1379983D01*
X1521512Y1381888D01*
X1526488Y1381888D01*
X1531086Y1379983D01*
X1534606Y1376464D01*
X1536510Y1371866D01*
X1536510Y1345934D01*
X1534606Y1341336D01*
X1531086Y1337817D01*
X1530648Y1337635D01*
X1530460Y1337537D01*
X1530271Y1337441D01*
X1530261Y1337433D01*
X1530249Y1337427D01*
X1530081Y1337296D01*
X1529913Y1337169D01*
X1529904Y1337159D01*
X1529893Y1337151D01*
X1529751Y1336994D01*
X1529607Y1336838D01*
X1529600Y1336827D01*
X1529592Y1336817D01*
X1529480Y1336638D01*
X1529366Y1336458D01*
X1529361Y1336446D01*
X1529354Y1336435D01*
X1529275Y1336238D01*
X1529195Y1336041D01*
X1529192Y1336029D01*
X1529187Y1336016D01*
X1529145Y1335809D01*
X1529100Y1335601D01*
X1529099Y1335586D01*
X1529097Y1335575D01*
X1529096Y1335536D01*
X1529081Y1335289D01*
X1529081Y1320781D01*
X1529095Y1320618D01*
X1529102Y1320453D01*
X1529115Y1320394D01*
X1529121Y1320333D01*
X1529164Y1320174D01*
X1529200Y1320014D01*
X1529223Y1319957D01*
X1529239Y1319898D01*
X1529310Y1319750D01*
X1529373Y1319598D01*
X1529406Y1319547D01*
X1529433Y1319492D01*
X1529528Y1319358D01*
X1529618Y1319220D01*
X1529669Y1319162D01*
X1529695Y1319126D01*
X1529738Y1319083D01*
X1529824Y1318986D01*
X1663809Y1185001D01*
X1663909Y1184917D01*
X1664002Y1184827D01*
X1664082Y1184773D01*
X1664155Y1184712D01*
X1664268Y1184647D01*
X1664375Y1184575D01*
X1664463Y1184536D01*
X1664546Y1184488D01*
X1664668Y1184445D01*
X1664787Y1184392D01*
X1664880Y1184370D01*
X1664970Y1184338D01*
X1665099Y1184316D01*
X1665225Y1184286D01*
X1665320Y1184280D01*
X1665414Y1184264D01*
X1665545Y1184266D01*
X1665674Y1184258D01*
X1665769Y1184269D01*
X1665865Y1184270D01*
X1665992Y1184295D01*
X1666121Y1184310D01*
X1666213Y1184338D01*
X1666307Y1184356D01*
X1666428Y1184403D01*
X1666552Y1184440D01*
X1666637Y1184484D01*
X1666727Y1184518D01*
X1666838Y1184586D01*
X1666954Y1184645D01*
X1667030Y1184702D01*
X1667111Y1184752D01*
X1667209Y1184838D01*
X1667312Y1184917D01*
X1667377Y1184987D01*
X1667449Y1185050D01*
X1667529Y1185152D01*
X1667618Y1185248D01*
X1667669Y1185329D01*
X1667728Y1185403D01*
X1667789Y1185518D01*
X1667859Y1185628D01*
X1667896Y1185716D01*
X1667941Y1185800D01*
X1667981Y1185924D01*
X1668030Y1186044D01*
X1668050Y1186138D01*
X1668080Y1186228D01*
X1668098Y1186357D01*
X1668125Y1186484D01*
X1668133Y1186614D01*
X1668141Y1186675D01*
X1668140Y1186719D01*
X1668144Y1186796D01*
X1668144Y1337934D01*
X1668130Y1338098D01*
X1668123Y1338262D01*
X1668110Y1338322D01*
X1668104Y1338383D01*
X1668061Y1338542D01*
X1668025Y1338702D01*
X1668002Y1338758D01*
X1667986Y1338817D01*
X1667915Y1338966D01*
X1667852Y1339117D01*
X1667819Y1339169D01*
X1667792Y1339224D01*
X1667697Y1339357D01*
X1667607Y1339496D01*
X1667556Y1339554D01*
X1667530Y1339590D01*
X1667487Y1339632D01*
X1667401Y1339730D01*
X1665794Y1341336D01*
X1663890Y1345934D01*
X1663890Y1371866D01*
X1665794Y1376464D01*
X1669314Y1379983D01*
X1673912Y1381888D01*
X1678888Y1381888D01*
X1683486Y1379983D01*
X1687006Y1376464D01*
X1688910Y1371866D01*
X1688910Y1345934D01*
X1687006Y1341336D01*
X1683486Y1337817D01*
X1679873Y1336320D01*
X1679686Y1336222D01*
X1679496Y1336126D01*
X1679486Y1336118D01*
X1679474Y1336112D01*
X1679307Y1335982D01*
X1679138Y1335854D01*
X1679129Y1335844D01*
X1679118Y1335836D01*
X1678976Y1335678D01*
X1678832Y1335523D01*
X1678825Y1335512D01*
X1678817Y1335502D01*
X1678705Y1335322D01*
X1678591Y1335143D01*
X1678586Y1335131D01*
X1678579Y1335119D01*
X1678500Y1334921D01*
X1678420Y1334726D01*
X1678417Y1334713D01*
X1678412Y1334701D01*
X1678370Y1334493D01*
X1678325Y1334286D01*
X1678324Y1334270D01*
X1678322Y1334260D01*
X1678321Y1334221D01*
X1678306Y1333974D01*
X1678306Y1183264D01*
X1677532Y1181397D01*
X1676103Y1179968D01*
X1674480Y1179296D01*
X1674407Y1179257D01*
X1674330Y1179228D01*
X1674246Y1179176D01*
X1674168Y1179139D01*
X1674132Y1179113D01*
X1674081Y1179087D01*
X1674016Y1179037D01*
X1673945Y1178994D01*
X1673865Y1178922D01*
X1673801Y1178877D01*
X1673775Y1178850D01*
X1673725Y1178811D01*
X1673670Y1178750D01*
X1673608Y1178696D01*
X1673535Y1178604D01*
X1673487Y1178554D01*
X1673470Y1178529D01*
X1673423Y1178477D01*
X1673380Y1178407D01*
X1673329Y1178342D01*
X1673269Y1178231D01*
X1673235Y1178181D01*
X1673226Y1178159D01*
X1673185Y1178095D01*
X1673155Y1178018D01*
X1673116Y1177946D01*
X1673075Y1177818D01*
X1673053Y1177770D01*
X1673049Y1177751D01*
X1673019Y1177676D01*
X1673002Y1177596D01*
X1672977Y1177517D01*
X1672958Y1177378D01*
X1672946Y1177332D01*
X1672946Y1177318D01*
X1672929Y1177235D01*
X1672927Y1177153D01*
X1672915Y1177071D01*
X1672921Y1176928D01*
X1672921Y1176922D01*
X1672919Y1176883D01*
X1672920Y1176872D01*
X1672918Y1176785D01*
X1672930Y1176704D01*
X1672934Y1176621D01*
X1672965Y1176482D01*
X1672967Y1176466D01*
X1672971Y1176435D01*
X1672973Y1176428D01*
X1672987Y1176340D01*
X1673014Y1176262D01*
X1673031Y1176182D01*
X1673087Y1176050D01*
X1673093Y1176030D01*
X1673101Y1176004D01*
X1673104Y1175998D01*
X1673133Y1175914D01*
X1673173Y1175843D01*
X1673205Y1175766D01*
X1673283Y1175646D01*
X1673293Y1175627D01*
X1673305Y1175603D01*
X1673310Y1175597D01*
X1673352Y1175521D01*
X1673405Y1175457D01*
X1673449Y1175388D01*
X1673612Y1175204D01*
X1673638Y1175173D01*
X1673646Y1175166D01*
X1673656Y1175154D01*
X1683882Y1164928D01*
X1684656Y1163061D01*
X1684656Y1161039D01*
X1683882Y1159172D01*
X1682453Y1157743D01*
X1680586Y1156969D01*
X1678564Y1156969D01*
G37*
%LPD*%
%LPC*%
G36*
X681614Y1172844D02*
X681614Y1172844D01*
X679747Y1173618D01*
X665389Y1187976D01*
X665263Y1188081D01*
X665142Y1188193D01*
X665091Y1188225D01*
X665044Y1188264D01*
X664901Y1188346D01*
X664762Y1188434D01*
X664706Y1188458D01*
X664653Y1188488D01*
X664498Y1188543D01*
X664346Y1188605D01*
X664286Y1188618D01*
X664229Y1188639D01*
X664066Y1188665D01*
X663906Y1188700D01*
X663829Y1188705D01*
X663784Y1188712D01*
X663723Y1188711D01*
X663594Y1188719D01*
X646175Y1188719D01*
X646011Y1188705D01*
X645847Y1188698D01*
X645787Y1188685D01*
X645726Y1188679D01*
X645567Y1188636D01*
X645407Y1188600D01*
X645351Y1188577D01*
X645292Y1188561D01*
X645144Y1188490D01*
X644992Y1188427D01*
X644940Y1188394D01*
X644885Y1188367D01*
X644752Y1188272D01*
X644614Y1188182D01*
X644556Y1188131D01*
X644519Y1188105D01*
X644477Y1188062D01*
X644379Y1187976D01*
X642334Y1185930D01*
X638923Y1184517D01*
X635230Y1184517D01*
X631818Y1185930D01*
X629207Y1188542D01*
X627793Y1191954D01*
X627793Y1195646D01*
X629207Y1199058D01*
X631818Y1201670D01*
X635230Y1203083D01*
X638923Y1203083D01*
X642334Y1201670D01*
X644379Y1199624D01*
X644506Y1199519D01*
X644627Y1199407D01*
X644678Y1199375D01*
X644725Y1199336D01*
X644867Y1199254D01*
X645006Y1199166D01*
X645063Y1199142D01*
X645116Y1199112D01*
X645271Y1199057D01*
X645423Y1198995D01*
X645482Y1198982D01*
X645540Y1198961D01*
X645702Y1198935D01*
X645863Y1198900D01*
X645940Y1198895D01*
X645984Y1198888D01*
X646045Y1198889D01*
X646175Y1198881D01*
X667761Y1198881D01*
X669628Y1198107D01*
X673889Y1193847D01*
X674008Y1193747D01*
X674122Y1193640D01*
X674181Y1193602D01*
X674234Y1193558D01*
X674369Y1193480D01*
X674500Y1193396D01*
X674565Y1193369D01*
X674625Y1193334D01*
X674772Y1193282D01*
X674916Y1193222D01*
X674984Y1193207D01*
X675049Y1193183D01*
X675203Y1193158D01*
X675355Y1193124D01*
X675425Y1193121D01*
X675493Y1193110D01*
X675649Y1193112D01*
X675805Y1193106D01*
X675874Y1193115D01*
X675944Y1193116D01*
X676097Y1193146D01*
X676251Y1193167D01*
X676317Y1193188D01*
X676386Y1193202D01*
X676531Y1193258D01*
X676680Y1193306D01*
X676741Y1193339D01*
X676806Y1193364D01*
X676939Y1193445D01*
X677077Y1193519D01*
X677131Y1193562D01*
X677191Y1193598D01*
X677307Y1193701D01*
X677430Y1193798D01*
X677476Y1193850D01*
X677528Y1193896D01*
X677625Y1194019D01*
X677728Y1194135D01*
X677764Y1194195D01*
X677807Y1194249D01*
X677881Y1194387D01*
X677962Y1194520D01*
X677987Y1194585D01*
X678020Y1194646D01*
X678068Y1194794D01*
X678124Y1194940D01*
X678144Y1195027D01*
X678159Y1195074D01*
X678167Y1195132D01*
X678192Y1195245D01*
X678326Y1196093D01*
X678803Y1197558D01*
X679502Y1198931D01*
X680408Y1200178D01*
X681498Y1201268D01*
X682745Y1202174D01*
X684118Y1202873D01*
X685337Y1203269D01*
X685337Y1193800D01*
X685340Y1193766D01*
X685338Y1193731D01*
X685360Y1193542D01*
X685377Y1193352D01*
X685386Y1193318D01*
X685390Y1193284D01*
X685445Y1193101D01*
X685495Y1192917D01*
X685510Y1192886D01*
X685520Y1192853D01*
X685607Y1192682D01*
X685689Y1192511D01*
X685709Y1192483D01*
X685724Y1192452D01*
X685840Y1192300D01*
X685951Y1192145D01*
X685976Y1192121D01*
X685996Y1192093D01*
X685997Y1192093D01*
X685997Y1192092D01*
X686137Y1191963D01*
X686274Y1191830D01*
X686303Y1191811D01*
X686328Y1191787D01*
X686489Y1191685D01*
X686647Y1191578D01*
X686679Y1191564D01*
X686708Y1191545D01*
X686884Y1191473D01*
X687059Y1191396D01*
X687092Y1191388D01*
X687124Y1191375D01*
X687311Y1191334D01*
X687496Y1191289D01*
X687531Y1191287D01*
X687565Y1191280D01*
X687876Y1191261D01*
X697346Y1191261D01*
X696950Y1190042D01*
X696250Y1188669D01*
X695344Y1187422D01*
X695263Y1187341D01*
X695179Y1187241D01*
X695089Y1187148D01*
X695035Y1187068D01*
X694974Y1186995D01*
X694909Y1186882D01*
X694837Y1186775D01*
X694798Y1186687D01*
X694751Y1186604D01*
X694707Y1186482D01*
X694654Y1186363D01*
X694632Y1186270D01*
X694600Y1186180D01*
X694579Y1186052D01*
X694548Y1185925D01*
X694542Y1185830D01*
X694526Y1185736D01*
X694528Y1185606D01*
X694520Y1185476D01*
X694531Y1185381D01*
X694532Y1185286D01*
X694557Y1185158D01*
X694572Y1185029D01*
X694600Y1184937D01*
X694618Y1184844D01*
X694665Y1184722D01*
X694702Y1184598D01*
X694746Y1184513D01*
X694780Y1184424D01*
X694848Y1184312D01*
X694907Y1184196D01*
X694964Y1184120D01*
X695014Y1184039D01*
X695100Y1183941D01*
X695179Y1183838D01*
X695249Y1183773D01*
X695312Y1183701D01*
X695414Y1183621D01*
X695510Y1183532D01*
X695591Y1183481D01*
X695665Y1183422D01*
X695780Y1183361D01*
X695890Y1183291D01*
X695978Y1183254D01*
X696062Y1183209D01*
X696186Y1183169D01*
X696306Y1183120D01*
X696400Y1183100D01*
X696490Y1183070D01*
X696619Y1183052D01*
X696746Y1183025D01*
X696876Y1183017D01*
X696936Y1183009D01*
X696981Y1183010D01*
X697058Y1183006D01*
X832850Y1183006D01*
X832980Y1183017D01*
X833110Y1183019D01*
X833204Y1183037D01*
X833299Y1183046D01*
X833424Y1183080D01*
X833552Y1183105D01*
X833641Y1183139D01*
X833733Y1183164D01*
X833850Y1183220D01*
X833972Y1183267D01*
X834054Y1183317D01*
X834140Y1183358D01*
X834246Y1183433D01*
X834357Y1183501D01*
X834428Y1183564D01*
X834506Y1183620D01*
X834597Y1183713D01*
X834694Y1183799D01*
X834753Y1183874D01*
X834820Y1183942D01*
X834893Y1184050D01*
X834974Y1184152D01*
X835019Y1184236D01*
X835072Y1184315D01*
X835125Y1184434D01*
X835186Y1184549D01*
X835216Y1184640D01*
X835254Y1184727D01*
X835285Y1184854D01*
X835325Y1184977D01*
X835338Y1185072D01*
X835361Y1185165D01*
X835369Y1185294D01*
X835387Y1185423D01*
X835383Y1185519D01*
X835389Y1185614D01*
X835374Y1185743D01*
X835368Y1185873D01*
X835348Y1185966D01*
X835337Y1186061D01*
X835299Y1186186D01*
X835271Y1186313D01*
X835234Y1186401D01*
X835206Y1186492D01*
X835147Y1186608D01*
X835097Y1186728D01*
X835045Y1186808D01*
X835002Y1186894D01*
X834924Y1186997D01*
X834853Y1187106D01*
X834767Y1187204D01*
X834730Y1187252D01*
X834697Y1187283D01*
X834646Y1187341D01*
X833445Y1188542D01*
X832031Y1191954D01*
X832031Y1195646D01*
X833445Y1199058D01*
X836056Y1201670D01*
X839468Y1203083D01*
X843161Y1203083D01*
X846572Y1201670D01*
X849184Y1199058D01*
X850597Y1195646D01*
X850597Y1191954D01*
X849184Y1188542D01*
X847982Y1187341D01*
X847899Y1187241D01*
X847808Y1187148D01*
X847755Y1187068D01*
X847694Y1186995D01*
X847629Y1186882D01*
X847556Y1186775D01*
X847518Y1186687D01*
X847470Y1186604D01*
X847427Y1186482D01*
X847374Y1186363D01*
X847351Y1186270D01*
X847319Y1186180D01*
X847298Y1186052D01*
X847267Y1185925D01*
X847261Y1185830D01*
X847246Y1185736D01*
X847248Y1185606D01*
X847240Y1185476D01*
X847251Y1185381D01*
X847252Y1185285D01*
X847277Y1185158D01*
X847292Y1185029D01*
X847319Y1184937D01*
X847338Y1184843D01*
X847384Y1184722D01*
X847422Y1184598D01*
X847465Y1184512D01*
X847500Y1184423D01*
X847567Y1184312D01*
X847626Y1184196D01*
X847684Y1184120D01*
X847734Y1184039D01*
X847820Y1183941D01*
X847898Y1183838D01*
X847969Y1183773D01*
X848032Y1183701D01*
X848134Y1183621D01*
X848230Y1183532D01*
X848310Y1183481D01*
X848385Y1183422D01*
X848500Y1183360D01*
X848609Y1183291D01*
X848698Y1183254D01*
X848782Y1183209D01*
X848906Y1183169D01*
X849026Y1183120D01*
X849119Y1183100D01*
X849210Y1183070D01*
X849339Y1183052D01*
X849466Y1183025D01*
X849596Y1183017D01*
X849656Y1183009D01*
X849701Y1183010D01*
X849778Y1183006D01*
X882932Y1183006D01*
X883062Y1183017D01*
X883192Y1183019D01*
X883285Y1183037D01*
X883380Y1183046D01*
X883506Y1183080D01*
X883634Y1183105D01*
X883723Y1183139D01*
X883815Y1183164D01*
X883932Y1183220D01*
X884054Y1183267D01*
X884135Y1183317D01*
X884221Y1183358D01*
X884327Y1183433D01*
X884438Y1183501D01*
X884510Y1183564D01*
X884588Y1183620D01*
X884678Y1183713D01*
X884776Y1183799D01*
X884835Y1183874D01*
X884902Y1183942D01*
X884975Y1184050D01*
X885055Y1184152D01*
X885100Y1184236D01*
X885154Y1184315D01*
X885206Y1184434D01*
X885268Y1184549D01*
X885297Y1184640D01*
X885336Y1184727D01*
X885367Y1184854D01*
X885407Y1184977D01*
X885420Y1185072D01*
X885443Y1185165D01*
X885451Y1185294D01*
X885468Y1185423D01*
X885464Y1185519D01*
X885470Y1185614D01*
X885455Y1185743D01*
X885450Y1185873D01*
X885429Y1185966D01*
X885418Y1186061D01*
X885381Y1186186D01*
X885352Y1186313D01*
X885316Y1186401D01*
X885288Y1186492D01*
X885229Y1186608D01*
X885179Y1186728D01*
X885127Y1186809D01*
X885084Y1186894D01*
X885005Y1186997D01*
X884934Y1187107D01*
X884848Y1187204D01*
X884812Y1187252D01*
X884779Y1187283D01*
X884727Y1187341D01*
X884646Y1187422D01*
X883740Y1188669D01*
X883041Y1190042D01*
X882645Y1191261D01*
X892114Y1191261D01*
X892115Y1191261D01*
X901584Y1191261D01*
X901188Y1190042D01*
X900488Y1188669D01*
X899582Y1187422D01*
X899501Y1187341D01*
X899417Y1187241D01*
X899327Y1187148D01*
X899273Y1187068D01*
X899212Y1186995D01*
X899148Y1186882D01*
X899075Y1186775D01*
X899036Y1186687D01*
X898989Y1186604D01*
X898945Y1186482D01*
X898892Y1186363D01*
X898870Y1186270D01*
X898838Y1186180D01*
X898817Y1186052D01*
X898786Y1185925D01*
X898780Y1185830D01*
X898764Y1185736D01*
X898766Y1185606D01*
X898758Y1185476D01*
X898769Y1185381D01*
X898770Y1185286D01*
X898795Y1185158D01*
X898810Y1185029D01*
X898838Y1184937D01*
X898856Y1184844D01*
X898903Y1184722D01*
X898940Y1184598D01*
X898984Y1184513D01*
X899018Y1184424D01*
X899086Y1184312D01*
X899145Y1184196D01*
X899202Y1184120D01*
X899252Y1184039D01*
X899338Y1183941D01*
X899417Y1183838D01*
X899487Y1183773D01*
X899550Y1183701D01*
X899652Y1183621D01*
X899748Y1183532D01*
X899829Y1183481D01*
X899903Y1183422D01*
X900018Y1183361D01*
X900128Y1183291D01*
X900216Y1183254D01*
X900300Y1183209D01*
X900424Y1183169D01*
X900544Y1183120D01*
X900638Y1183100D01*
X900728Y1183070D01*
X900857Y1183052D01*
X900984Y1183025D01*
X901114Y1183017D01*
X901174Y1183009D01*
X901219Y1183010D01*
X901296Y1183006D01*
X1144011Y1183006D01*
X1145878Y1182232D01*
X1147307Y1180803D01*
X1148081Y1178936D01*
X1148081Y1176914D01*
X1147307Y1175047D01*
X1145878Y1173618D01*
X1144011Y1172844D01*
X681614Y1172844D01*
G37*
%LPD*%
%LPC*%
G36*
X1634114Y1090294D02*
X1634114Y1090294D01*
X1632247Y1091068D01*
X1383888Y1339427D01*
X1383861Y1339449D01*
X1383838Y1339475D01*
X1383689Y1339594D01*
X1383542Y1339716D01*
X1383512Y1339733D01*
X1383485Y1339755D01*
X1383317Y1339845D01*
X1383151Y1339939D01*
X1383119Y1339951D01*
X1383088Y1339967D01*
X1382907Y1340026D01*
X1382727Y1340090D01*
X1382693Y1340096D01*
X1382660Y1340106D01*
X1382472Y1340132D01*
X1382283Y1340164D01*
X1382248Y1340163D01*
X1382214Y1340168D01*
X1382023Y1340160D01*
X1381833Y1340157D01*
X1381799Y1340151D01*
X1381764Y1340149D01*
X1381578Y1340108D01*
X1381391Y1340072D01*
X1381358Y1340059D01*
X1381324Y1340052D01*
X1381149Y1339979D01*
X1380971Y1339910D01*
X1380941Y1339892D01*
X1380909Y1339878D01*
X1380749Y1339775D01*
X1380586Y1339676D01*
X1380560Y1339653D01*
X1380531Y1339634D01*
X1380297Y1339427D01*
X1378687Y1337817D01*
X1374088Y1335912D01*
X1369112Y1335912D01*
X1364514Y1337817D01*
X1360994Y1341336D01*
X1359090Y1345934D01*
X1359090Y1371866D01*
X1360994Y1376464D01*
X1364514Y1379983D01*
X1369112Y1381888D01*
X1374088Y1381888D01*
X1378686Y1379983D01*
X1382206Y1376464D01*
X1384110Y1371866D01*
X1384110Y1354627D01*
X1384125Y1354463D01*
X1384132Y1354299D01*
X1384145Y1354239D01*
X1384150Y1354178D01*
X1384193Y1354019D01*
X1384229Y1353859D01*
X1384253Y1353803D01*
X1384269Y1353744D01*
X1384339Y1353596D01*
X1384403Y1353444D01*
X1384436Y1353392D01*
X1384462Y1353337D01*
X1384558Y1353204D01*
X1384647Y1353065D01*
X1384698Y1353008D01*
X1384724Y1352971D01*
X1384768Y1352929D01*
X1384854Y1352831D01*
X1636486Y1101199D01*
X1636612Y1101094D01*
X1636733Y1100982D01*
X1636784Y1100950D01*
X1636831Y1100911D01*
X1636974Y1100829D01*
X1637113Y1100741D01*
X1637169Y1100717D01*
X1637222Y1100687D01*
X1637377Y1100632D01*
X1637529Y1100570D01*
X1637589Y1100557D01*
X1637646Y1100536D01*
X1637809Y1100510D01*
X1637969Y1100475D01*
X1638046Y1100470D01*
X1638091Y1100463D01*
X1638152Y1100464D01*
X1638281Y1100456D01*
X1693286Y1100456D01*
X1695153Y1099682D01*
X1696582Y1098253D01*
X1697356Y1096386D01*
X1697356Y1094364D01*
X1696582Y1092497D01*
X1695153Y1091068D01*
X1693286Y1090294D01*
X1634114Y1090294D01*
G37*
%LPD*%
%LPC*%
G36*
X2280884Y151637D02*
X2280884Y151637D01*
X2271000Y154286D01*
X2262138Y159402D01*
X2254902Y166638D01*
X2249786Y175500D01*
X2247137Y185384D01*
X2247137Y195616D01*
X2249786Y205500D01*
X2254902Y214362D01*
X2262138Y221598D01*
X2271000Y226714D01*
X2280884Y229363D01*
X2291116Y229363D01*
X2301000Y226714D01*
X2309862Y221598D01*
X2317098Y214362D01*
X2322214Y205500D01*
X2324863Y195616D01*
X2324863Y185384D01*
X2322214Y175500D01*
X2317098Y166638D01*
X2309862Y159402D01*
X2301000Y154286D01*
X2291116Y151637D01*
X2280884Y151637D01*
G37*
%LPD*%
%LPC*%
G36*
X1732302Y245967D02*
X1732302Y245967D01*
X1729350Y247190D01*
X1727090Y249450D01*
X1725867Y252402D01*
X1725867Y255598D01*
X1727090Y258550D01*
X1729350Y260810D01*
X1732302Y262033D01*
X1746046Y262033D01*
X1746209Y262047D01*
X1746374Y262054D01*
X1746433Y262067D01*
X1746494Y262073D01*
X1746653Y262116D01*
X1746813Y262152D01*
X1746870Y262175D01*
X1746929Y262191D01*
X1747077Y262262D01*
X1747229Y262325D01*
X1747280Y262358D01*
X1747335Y262385D01*
X1747469Y262480D01*
X1747607Y262570D01*
X1747665Y262621D01*
X1747701Y262647D01*
X1747744Y262690D01*
X1747841Y262776D01*
X1810047Y324982D01*
X1811914Y325756D01*
X1813936Y325756D01*
X1815803Y324982D01*
X1817232Y323553D01*
X1818006Y321686D01*
X1818006Y319664D01*
X1817232Y317797D01*
X1754676Y255241D01*
X1754571Y255115D01*
X1754459Y254994D01*
X1754427Y254943D01*
X1754388Y254896D01*
X1754306Y254753D01*
X1754218Y254614D01*
X1754194Y254558D01*
X1754164Y254505D01*
X1754109Y254350D01*
X1754047Y254198D01*
X1754034Y254138D01*
X1754013Y254081D01*
X1753987Y253918D01*
X1753952Y253758D01*
X1753947Y253681D01*
X1753940Y253636D01*
X1753941Y253575D01*
X1753933Y253446D01*
X1753933Y252402D01*
X1752710Y249450D01*
X1750450Y247190D01*
X1747498Y245967D01*
X1732302Y245967D01*
G37*
%LPD*%
%LPC*%
G36*
X1732302Y271367D02*
X1732302Y271367D01*
X1729350Y272590D01*
X1727090Y274850D01*
X1725867Y277802D01*
X1725867Y280998D01*
X1727090Y283950D01*
X1729350Y286210D01*
X1732302Y287433D01*
X1746046Y287433D01*
X1746209Y287447D01*
X1746374Y287454D01*
X1746433Y287467D01*
X1746494Y287473D01*
X1746653Y287516D01*
X1746813Y287552D01*
X1746870Y287575D01*
X1746929Y287591D01*
X1747077Y287662D01*
X1747229Y287725D01*
X1747280Y287758D01*
X1747335Y287785D01*
X1747469Y287880D01*
X1747607Y287970D01*
X1747665Y288021D01*
X1747701Y288047D01*
X1747744Y288090D01*
X1747841Y288176D01*
X1797347Y337682D01*
X1799214Y338456D01*
X1801236Y338456D01*
X1803103Y337682D01*
X1804532Y336253D01*
X1805306Y334386D01*
X1805306Y332364D01*
X1804532Y330497D01*
X1754676Y280641D01*
X1754571Y280515D01*
X1754459Y280394D01*
X1754427Y280343D01*
X1754388Y280296D01*
X1754306Y280153D01*
X1754218Y280014D01*
X1754194Y279958D01*
X1754164Y279905D01*
X1754109Y279750D01*
X1754047Y279598D01*
X1754034Y279538D01*
X1754013Y279481D01*
X1753987Y279318D01*
X1753952Y279158D01*
X1753947Y279081D01*
X1753940Y279036D01*
X1753941Y278975D01*
X1753933Y278846D01*
X1753933Y277802D01*
X1752710Y274850D01*
X1750450Y272590D01*
X1747498Y271367D01*
X1732302Y271367D01*
G37*
%LPD*%
%LPC*%
G36*
X2273034Y901890D02*
X2273034Y901890D01*
X2268436Y903794D01*
X2264917Y907314D01*
X2263012Y911912D01*
X2263012Y916888D01*
X2264917Y921486D01*
X2268436Y925006D01*
X2273034Y926910D01*
X2298966Y926910D01*
X2303564Y925006D01*
X2307083Y921486D01*
X2308988Y916888D01*
X2308988Y911912D01*
X2307083Y907314D01*
X2303564Y903794D01*
X2298966Y901890D01*
X2273034Y901890D01*
G37*
%LPD*%
%LPC*%
G36*
X458945Y1335912D02*
X458945Y1335912D01*
X454347Y1337817D01*
X450828Y1341336D01*
X448923Y1345934D01*
X448923Y1371866D01*
X450828Y1376464D01*
X454347Y1379983D01*
X458945Y1381888D01*
X463922Y1381888D01*
X468520Y1379983D01*
X472039Y1376464D01*
X473944Y1371866D01*
X473944Y1345934D01*
X472039Y1341336D01*
X468520Y1337817D01*
X463922Y1335912D01*
X458945Y1335912D01*
G37*
%LPD*%
%LPC*%
G36*
X2143812Y1335912D02*
X2143812Y1335912D01*
X2139214Y1337817D01*
X2135694Y1341336D01*
X2133790Y1345934D01*
X2133790Y1371866D01*
X2135694Y1376464D01*
X2139214Y1379983D01*
X2143812Y1381888D01*
X2148788Y1381888D01*
X2153386Y1379983D01*
X2156906Y1376464D01*
X2158810Y1371866D01*
X2158810Y1345934D01*
X2156906Y1341336D01*
X2153386Y1337817D01*
X2148788Y1335912D01*
X2143812Y1335912D01*
G37*
%LPD*%
%LPC*%
G36*
X615578Y1335912D02*
X615578Y1335912D01*
X610980Y1337817D01*
X607461Y1341336D01*
X605556Y1345934D01*
X605556Y1371866D01*
X607461Y1376464D01*
X610980Y1379983D01*
X615578Y1381888D01*
X620555Y1381888D01*
X625153Y1379983D01*
X628672Y1376464D01*
X630577Y1371866D01*
X630577Y1345934D01*
X628672Y1341336D01*
X625153Y1337817D01*
X620555Y1335912D01*
X615578Y1335912D01*
G37*
%LPD*%
%LPC*%
G36*
X873811Y1335912D02*
X873811Y1335912D01*
X869213Y1337817D01*
X865694Y1341336D01*
X863790Y1345934D01*
X863790Y1371866D01*
X865694Y1376464D01*
X869213Y1379983D01*
X873811Y1381888D01*
X878788Y1381888D01*
X883386Y1379983D01*
X886906Y1376464D01*
X888810Y1371866D01*
X888810Y1345934D01*
X886906Y1341336D01*
X883386Y1337817D01*
X878788Y1335912D01*
X873811Y1335912D01*
G37*
%LPD*%
%LPC*%
G36*
X823011Y1335912D02*
X823011Y1335912D01*
X818413Y1337817D01*
X814894Y1341336D01*
X812990Y1345934D01*
X812990Y1371866D01*
X814894Y1376464D01*
X818413Y1379983D01*
X823011Y1381888D01*
X827988Y1381888D01*
X832586Y1379983D01*
X836106Y1376464D01*
X838010Y1371866D01*
X838010Y1345934D01*
X836106Y1341336D01*
X832586Y1337817D01*
X827988Y1335912D01*
X823011Y1335912D01*
G37*
%LPD*%
%LPC*%
G36*
X408145Y1335912D02*
X408145Y1335912D01*
X403547Y1337817D01*
X400028Y1341336D01*
X398123Y1345934D01*
X398123Y1371866D01*
X400028Y1376464D01*
X403547Y1379983D01*
X408145Y1381888D01*
X413122Y1381888D01*
X417720Y1379983D01*
X421239Y1376464D01*
X423144Y1371866D01*
X423144Y1345934D01*
X421239Y1341336D01*
X417720Y1337817D01*
X413122Y1335912D01*
X408145Y1335912D01*
G37*
%LPD*%
%LPC*%
G36*
X251512Y1335912D02*
X251512Y1335912D01*
X246914Y1337817D01*
X243394Y1341336D01*
X241490Y1345934D01*
X241490Y1371866D01*
X243394Y1376464D01*
X246914Y1379983D01*
X251512Y1381888D01*
X256488Y1381888D01*
X261086Y1379983D01*
X264606Y1376464D01*
X266510Y1371866D01*
X266510Y1345934D01*
X264606Y1341336D01*
X261086Y1337817D01*
X256488Y1335912D01*
X251512Y1335912D01*
G37*
%LPD*%
%LPC*%
G36*
X200712Y1335912D02*
X200712Y1335912D01*
X196114Y1337817D01*
X192594Y1341336D01*
X190690Y1345934D01*
X190690Y1371866D01*
X192594Y1376464D01*
X196114Y1379983D01*
X200712Y1381888D01*
X205688Y1381888D01*
X210286Y1379983D01*
X213806Y1376464D01*
X215710Y1371866D01*
X215710Y1345934D01*
X213806Y1341336D01*
X210286Y1337817D01*
X205688Y1335912D01*
X200712Y1335912D01*
G37*
%LPD*%
%LPC*%
G36*
X666378Y1335912D02*
X666378Y1335912D01*
X661780Y1337817D01*
X658261Y1341336D01*
X656356Y1345934D01*
X656356Y1371866D01*
X658261Y1376464D01*
X661780Y1379983D01*
X666378Y1381888D01*
X671355Y1381888D01*
X675953Y1379983D01*
X679472Y1376464D01*
X681377Y1371866D01*
X681377Y1345934D01*
X679472Y1341336D01*
X675953Y1337817D01*
X671355Y1335912D01*
X666378Y1335912D01*
G37*
%LPD*%
%LPC*%
G36*
X-266Y431990D02*
X-266Y431990D01*
X-4864Y433894D01*
X-8383Y437414D01*
X-10288Y442012D01*
X-10288Y446988D01*
X-8383Y451586D01*
X-4864Y455106D01*
X-266Y457010D01*
X25666Y457010D01*
X30264Y455106D01*
X33783Y451586D01*
X35688Y446988D01*
X35688Y442012D01*
X33783Y437414D01*
X30264Y433894D01*
X25666Y431990D01*
X-266Y431990D01*
G37*
%LPD*%
%LPC*%
G36*
X-266Y381190D02*
X-266Y381190D01*
X-4864Y383094D01*
X-8383Y386614D01*
X-10288Y391212D01*
X-10288Y396188D01*
X-8383Y400786D01*
X-4864Y404306D01*
X-266Y406210D01*
X25666Y406210D01*
X30264Y404306D01*
X33783Y400786D01*
X35688Y396188D01*
X35688Y391212D01*
X33783Y386614D01*
X30264Y383094D01*
X25666Y381190D01*
X-266Y381190D01*
G37*
%LPD*%
%LPC*%
G36*
X2291079Y1376679D02*
X2291079Y1376679D01*
X2291079Y1411952D01*
X2291310Y1411931D01*
X2294805Y1411315D01*
X2298232Y1410397D01*
X2301567Y1409183D01*
X2304784Y1407683D01*
X2307857Y1405909D01*
X2310764Y1403873D01*
X2313483Y1401592D01*
X2315992Y1399083D01*
X2318273Y1396364D01*
X2320309Y1393457D01*
X2322083Y1390384D01*
X2323583Y1387167D01*
X2324797Y1383832D01*
X2325715Y1380405D01*
X2326331Y1376910D01*
X2326352Y1376679D01*
X2291079Y1376679D01*
G37*
%LPD*%
%LPC*%
G36*
X-40352Y1376679D02*
X-40352Y1376679D01*
X-40331Y1376910D01*
X-39715Y1380405D01*
X-38797Y1383832D01*
X-37583Y1387167D01*
X-36083Y1390384D01*
X-34309Y1393457D01*
X-32273Y1396364D01*
X-29992Y1399083D01*
X-27483Y1401592D01*
X-24764Y1403873D01*
X-21857Y1405909D01*
X-18784Y1407683D01*
X-15567Y1409183D01*
X-12232Y1410397D01*
X-8805Y1411315D01*
X-5310Y1411931D01*
X-5079Y1411952D01*
X-5079Y1376679D01*
X-40352Y1376679D01*
G37*
%LPD*%
%LPC*%
G36*
X5079Y1376679D02*
X5079Y1376679D01*
X5079Y1411952D01*
X5310Y1411931D01*
X8805Y1411315D01*
X12232Y1410397D01*
X15567Y1409183D01*
X18784Y1407683D01*
X21857Y1405909D01*
X24764Y1403873D01*
X27483Y1401592D01*
X29992Y1399083D01*
X32273Y1396364D01*
X34309Y1393457D01*
X36083Y1390384D01*
X37583Y1387167D01*
X38797Y1383832D01*
X39715Y1380405D01*
X40331Y1376910D01*
X40352Y1376679D01*
X5079Y1376679D01*
G37*
%LPD*%
%LPC*%
G36*
X2291079Y106679D02*
X2291079Y106679D01*
X2291079Y141952D01*
X2291310Y141931D01*
X2294805Y141315D01*
X2298232Y140397D01*
X2301567Y139183D01*
X2304784Y137683D01*
X2307857Y135909D01*
X2310764Y133873D01*
X2313483Y131592D01*
X2315992Y129083D01*
X2318273Y126364D01*
X2320309Y123457D01*
X2322083Y120384D01*
X2323583Y117167D01*
X2324797Y113832D01*
X2325715Y110405D01*
X2326331Y106910D01*
X2326352Y106679D01*
X2291079Y106679D01*
G37*
%LPD*%
%LPC*%
G36*
X5079Y106679D02*
X5079Y106679D01*
X5079Y141952D01*
X5310Y141931D01*
X8805Y141315D01*
X12232Y140397D01*
X15567Y139183D01*
X18784Y137683D01*
X21857Y135909D01*
X24764Y133873D01*
X27483Y131592D01*
X29992Y129083D01*
X32273Y126364D01*
X34309Y123457D01*
X36083Y120384D01*
X37583Y117167D01*
X38797Y113832D01*
X39715Y110405D01*
X40331Y106910D01*
X40352Y106679D01*
X5079Y106679D01*
G37*
%LPD*%
%LPC*%
G36*
X-40352Y106679D02*
X-40352Y106679D01*
X-40331Y106910D01*
X-39715Y110405D01*
X-38797Y113832D01*
X-37583Y117167D01*
X-36083Y120384D01*
X-34309Y123457D01*
X-32273Y126364D01*
X-29992Y129083D01*
X-27483Y131592D01*
X-24764Y133873D01*
X-21857Y135909D01*
X-18784Y137683D01*
X-15567Y139183D01*
X-12232Y140397D01*
X-8805Y141315D01*
X-5310Y141931D01*
X-5079Y141952D01*
X-5079Y106679D01*
X-40352Y106679D01*
G37*
%LPD*%
%LPC*%
G36*
X2245648Y1376679D02*
X2245648Y1376679D01*
X2245669Y1376910D01*
X2246285Y1380405D01*
X2247203Y1383832D01*
X2248417Y1387167D01*
X2249917Y1390384D01*
X2251691Y1393457D01*
X2253727Y1396364D01*
X2256008Y1399083D01*
X2258517Y1401592D01*
X2261236Y1403873D01*
X2264143Y1405909D01*
X2267216Y1407683D01*
X2270433Y1409183D01*
X2273768Y1410397D01*
X2277195Y1411315D01*
X2280690Y1411931D01*
X2280921Y1411952D01*
X2280921Y1376679D01*
X2245648Y1376679D01*
G37*
%LPD*%
%LPC*%
G36*
X-5310Y1331269D02*
X-5310Y1331269D01*
X-8805Y1331885D01*
X-12232Y1332803D01*
X-15567Y1334017D01*
X-18784Y1335517D01*
X-21857Y1337291D01*
X-24764Y1339327D01*
X-27483Y1341608D01*
X-29992Y1344117D01*
X-32273Y1346836D01*
X-34309Y1349743D01*
X-36083Y1352816D01*
X-37583Y1356033D01*
X-38797Y1359368D01*
X-39715Y1362795D01*
X-40331Y1366290D01*
X-40352Y1366521D01*
X-5079Y1366521D01*
X-5079Y1331248D01*
X-5310Y1331269D01*
G37*
%LPD*%
%LPC*%
G36*
X2291079Y1366521D02*
X2291079Y1366521D01*
X2326352Y1366521D01*
X2326331Y1366290D01*
X2325715Y1362795D01*
X2324797Y1359368D01*
X2323583Y1356033D01*
X2322083Y1352816D01*
X2320309Y1349743D01*
X2318273Y1346836D01*
X2315992Y1344117D01*
X2313483Y1341608D01*
X2310764Y1339327D01*
X2307857Y1337291D01*
X2304784Y1335517D01*
X2301567Y1334017D01*
X2298232Y1332803D01*
X2294805Y1331885D01*
X2291310Y1331269D01*
X2291079Y1331248D01*
X2291079Y1366521D01*
G37*
%LPD*%
%LPC*%
G36*
X2291079Y96521D02*
X2291079Y96521D01*
X2326352Y96521D01*
X2326331Y96290D01*
X2325715Y92795D01*
X2324797Y89368D01*
X2323583Y86033D01*
X2322083Y82816D01*
X2320309Y79743D01*
X2318273Y76836D01*
X2315992Y74117D01*
X2313483Y71608D01*
X2310764Y69327D01*
X2307857Y67291D01*
X2304784Y65517D01*
X2301567Y64017D01*
X2298232Y62803D01*
X2294805Y61885D01*
X2291310Y61269D01*
X2291079Y61248D01*
X2291079Y96521D01*
G37*
%LPD*%
%LPC*%
G36*
X-5310Y61269D02*
X-5310Y61269D01*
X-8805Y61885D01*
X-12232Y62803D01*
X-15567Y64017D01*
X-18784Y65517D01*
X-21857Y67291D01*
X-24764Y69327D01*
X-27483Y71608D01*
X-29992Y74117D01*
X-32273Y76836D01*
X-34309Y79743D01*
X-36083Y82816D01*
X-37583Y86033D01*
X-38797Y89368D01*
X-39715Y92795D01*
X-40331Y96290D01*
X-40352Y96521D01*
X-5079Y96521D01*
X-5079Y61248D01*
X-5310Y61269D01*
G37*
%LPD*%
%LPC*%
G36*
X2245648Y106679D02*
X2245648Y106679D01*
X2245669Y106910D01*
X2246285Y110405D01*
X2247203Y113832D01*
X2248417Y117167D01*
X2249917Y120384D01*
X2251691Y123457D01*
X2253727Y126364D01*
X2256008Y129083D01*
X2258517Y131592D01*
X2261236Y133873D01*
X2264143Y135909D01*
X2267216Y137683D01*
X2270433Y139183D01*
X2273768Y140397D01*
X2277195Y141315D01*
X2280690Y141931D01*
X2280921Y141952D01*
X2280921Y106679D01*
X2245648Y106679D01*
G37*
%LPD*%
%LPC*%
G36*
X5079Y1366521D02*
X5079Y1366521D01*
X40352Y1366521D01*
X40331Y1366290D01*
X39715Y1362795D01*
X38797Y1359368D01*
X37583Y1356033D01*
X36083Y1352816D01*
X34309Y1349743D01*
X32273Y1346836D01*
X29992Y1344117D01*
X27483Y1341608D01*
X24764Y1339327D01*
X21857Y1337291D01*
X18784Y1335517D01*
X15567Y1334017D01*
X12232Y1332803D01*
X8805Y1331885D01*
X5310Y1331269D01*
X5079Y1331248D01*
X5079Y1366521D01*
G37*
%LPD*%
%LPC*%
G36*
X5079Y96521D02*
X5079Y96521D01*
X40352Y96521D01*
X40331Y96290D01*
X39715Y92795D01*
X38797Y89368D01*
X37583Y86033D01*
X36083Y82816D01*
X34309Y79743D01*
X32273Y76836D01*
X29992Y74117D01*
X27483Y71608D01*
X24764Y69327D01*
X21857Y67291D01*
X18784Y65517D01*
X15567Y64017D01*
X12232Y62803D01*
X8805Y61885D01*
X5310Y61269D01*
X5079Y61248D01*
X5079Y96521D01*
G37*
%LPD*%
%LPC*%
G36*
X2280690Y1331269D02*
X2280690Y1331269D01*
X2277195Y1331885D01*
X2273768Y1332803D01*
X2270433Y1334017D01*
X2267216Y1335517D01*
X2264143Y1337291D01*
X2261236Y1339327D01*
X2258517Y1341608D01*
X2256008Y1344117D01*
X2253727Y1346836D01*
X2251691Y1349743D01*
X2249917Y1352816D01*
X2248417Y1356033D01*
X2247203Y1359368D01*
X2246285Y1362795D01*
X2245669Y1366290D01*
X2245648Y1366521D01*
X2280921Y1366521D01*
X2280921Y1331248D01*
X2280690Y1331269D01*
G37*
%LPD*%
%LPC*%
G36*
X2280690Y61269D02*
X2280690Y61269D01*
X2277195Y61885D01*
X2273768Y62803D01*
X2270433Y64017D01*
X2267216Y65517D01*
X2264143Y67291D01*
X2261236Y69327D01*
X2258517Y71608D01*
X2256008Y74117D01*
X2253727Y76836D01*
X2251691Y79743D01*
X2249917Y82816D01*
X2248417Y86033D01*
X2247203Y89368D01*
X2246285Y92795D01*
X2245669Y96290D01*
X2245648Y96521D01*
X2280921Y96521D01*
X2280921Y61248D01*
X2280690Y61269D01*
G37*
%LPD*%
%LPC*%
G36*
X1712681Y397255D02*
X1712681Y397255D01*
X1709320Y398647D01*
X1706747Y401220D01*
X1705355Y404581D01*
X1705355Y408219D01*
X1706747Y411580D01*
X1709320Y414153D01*
X1712681Y415545D01*
X1716319Y415545D01*
X1719680Y414153D01*
X1722253Y411580D01*
X1722456Y411089D01*
X1722516Y410974D01*
X1722568Y410854D01*
X1722620Y410775D01*
X1722664Y410690D01*
X1722744Y410587D01*
X1722816Y410479D01*
X1722882Y410410D01*
X1722940Y410334D01*
X1723037Y410247D01*
X1723126Y410153D01*
X1723204Y410096D01*
X1723274Y410032D01*
X1723385Y409964D01*
X1723490Y409887D01*
X1723576Y409845D01*
X1723657Y409795D01*
X1723778Y409746D01*
X1723894Y409689D01*
X1723986Y409663D01*
X1724075Y409628D01*
X1724202Y409602D01*
X1724328Y409566D01*
X1724422Y409557D01*
X1724516Y409538D01*
X1724646Y409535D01*
X1724776Y409522D01*
X1724871Y409529D01*
X1724966Y409527D01*
X1725095Y409547D01*
X1725225Y409557D01*
X1725317Y409581D01*
X1725411Y409596D01*
X1725534Y409638D01*
X1725660Y409671D01*
X1725747Y409711D01*
X1725837Y409742D01*
X1725951Y409806D01*
X1726069Y409860D01*
X1726147Y409915D01*
X1726230Y409962D01*
X1726331Y410044D01*
X1726438Y410119D01*
X1726505Y410186D01*
X1726579Y410247D01*
X1726663Y410346D01*
X1726755Y410438D01*
X1726809Y410517D01*
X1726871Y410589D01*
X1726937Y410702D01*
X1727011Y410809D01*
X1727068Y410925D01*
X1727071Y410931D01*
X1729350Y413210D01*
X1732302Y414433D01*
X1747498Y414433D01*
X1750450Y413210D01*
X1752710Y410950D01*
X1753933Y407998D01*
X1753933Y404802D01*
X1752710Y401850D01*
X1750450Y399590D01*
X1747498Y398367D01*
X1732302Y398367D01*
X1729350Y399590D01*
X1727068Y401872D01*
X1727036Y401946D01*
X1726984Y402025D01*
X1726939Y402110D01*
X1726860Y402213D01*
X1726788Y402321D01*
X1726722Y402390D01*
X1726664Y402466D01*
X1726567Y402553D01*
X1726477Y402647D01*
X1726400Y402703D01*
X1726329Y402767D01*
X1726219Y402836D01*
X1726114Y402913D01*
X1726028Y402955D01*
X1725947Y403005D01*
X1725826Y403054D01*
X1725709Y403111D01*
X1725618Y403137D01*
X1725529Y403172D01*
X1725401Y403198D01*
X1725276Y403234D01*
X1725181Y403243D01*
X1725088Y403262D01*
X1724958Y403265D01*
X1724828Y403278D01*
X1724733Y403271D01*
X1724638Y403273D01*
X1724509Y403253D01*
X1724379Y403243D01*
X1724287Y403219D01*
X1724193Y403204D01*
X1724069Y403162D01*
X1723944Y403129D01*
X1723857Y403089D01*
X1723767Y403058D01*
X1723653Y402994D01*
X1723535Y402940D01*
X1723457Y402885D01*
X1723374Y402839D01*
X1723273Y402756D01*
X1723166Y402681D01*
X1723099Y402614D01*
X1723025Y402553D01*
X1722941Y402455D01*
X1722849Y402362D01*
X1722795Y402283D01*
X1722733Y402211D01*
X1722667Y402099D01*
X1722593Y401992D01*
X1722536Y401875D01*
X1722505Y401822D01*
X1722490Y401780D01*
X1722456Y401711D01*
X1722253Y401220D01*
X1719680Y398647D01*
X1716319Y397255D01*
X1712681Y397255D01*
G37*
%LPD*%
%LPC*%
G36*
X1732302Y296767D02*
X1732302Y296767D01*
X1729350Y297990D01*
X1727090Y300250D01*
X1725867Y303202D01*
X1725867Y306398D01*
X1727090Y309350D01*
X1729350Y311610D01*
X1732302Y312833D01*
X1747498Y312833D01*
X1750450Y311610D01*
X1752710Y309350D01*
X1753933Y306398D01*
X1753933Y303202D01*
X1752710Y300250D01*
X1750450Y297990D01*
X1747498Y296767D01*
X1732302Y296767D01*
G37*
%LPD*%
%LPC*%
G36*
X309902Y169767D02*
X309902Y169767D01*
X306950Y170990D01*
X304690Y173250D01*
X303467Y176202D01*
X303467Y179398D01*
X304690Y182350D01*
X306950Y184610D01*
X309902Y185833D01*
X325098Y185833D01*
X328050Y184610D01*
X330310Y182350D01*
X331533Y179398D01*
X331533Y176202D01*
X330310Y173250D01*
X328050Y170990D01*
X325098Y169767D01*
X309902Y169767D01*
G37*
%LPD*%
%LPC*%
G36*
X1090952Y245967D02*
X1090952Y245967D01*
X1088000Y247190D01*
X1085740Y249450D01*
X1084517Y252402D01*
X1084517Y255598D01*
X1085740Y258550D01*
X1088000Y260810D01*
X1090952Y262033D01*
X1106148Y262033D01*
X1109100Y260810D01*
X1111360Y258550D01*
X1112583Y255598D01*
X1112583Y252402D01*
X1111360Y249450D01*
X1109100Y247190D01*
X1106148Y245967D01*
X1090952Y245967D01*
G37*
%LPD*%
%LPC*%
G36*
X700427Y245967D02*
X700427Y245967D01*
X697475Y247190D01*
X695215Y249450D01*
X693992Y252402D01*
X693992Y255598D01*
X695215Y258550D01*
X697475Y260810D01*
X700427Y262033D01*
X715623Y262033D01*
X718575Y260810D01*
X720835Y258550D01*
X722058Y255598D01*
X722058Y252402D01*
X720835Y249450D01*
X718575Y247190D01*
X715623Y245967D01*
X700427Y245967D01*
G37*
%LPD*%
%LPC*%
G36*
X309902Y245967D02*
X309902Y245967D01*
X306950Y247190D01*
X304690Y249450D01*
X303467Y252402D01*
X303467Y255598D01*
X304690Y258550D01*
X306950Y260810D01*
X309902Y262033D01*
X325098Y262033D01*
X328050Y260810D01*
X330310Y258550D01*
X331533Y255598D01*
X331533Y252402D01*
X330310Y249450D01*
X328050Y247190D01*
X325098Y245967D01*
X309902Y245967D01*
G37*
%LPD*%
%LPC*%
G36*
X1732302Y220567D02*
X1732302Y220567D01*
X1729350Y221790D01*
X1727090Y224050D01*
X1725867Y227002D01*
X1725867Y230198D01*
X1727090Y233150D01*
X1729350Y235410D01*
X1732302Y236633D01*
X1747498Y236633D01*
X1750450Y235410D01*
X1752710Y233150D01*
X1753933Y230198D01*
X1753933Y227002D01*
X1752710Y224050D01*
X1750450Y221790D01*
X1747498Y220567D01*
X1732302Y220567D01*
G37*
%LPD*%
%LPC*%
G36*
X1090952Y220567D02*
X1090952Y220567D01*
X1088000Y221790D01*
X1085740Y224050D01*
X1084517Y227002D01*
X1084517Y230198D01*
X1085740Y233150D01*
X1088000Y235410D01*
X1090952Y236633D01*
X1106148Y236633D01*
X1109100Y235410D01*
X1111360Y233150D01*
X1112583Y230198D01*
X1112583Y227002D01*
X1111360Y224050D01*
X1109100Y221790D01*
X1106148Y220567D01*
X1090952Y220567D01*
G37*
%LPD*%
%LPC*%
G36*
X700427Y220567D02*
X700427Y220567D01*
X697475Y221790D01*
X695215Y224050D01*
X693992Y227002D01*
X693992Y230198D01*
X695215Y233150D01*
X697475Y235410D01*
X700427Y236633D01*
X715623Y236633D01*
X718575Y235410D01*
X720835Y233150D01*
X722058Y230198D01*
X722058Y227002D01*
X720835Y224050D01*
X718575Y221790D01*
X715623Y220567D01*
X700427Y220567D01*
G37*
%LPD*%
%LPC*%
G36*
X309902Y220567D02*
X309902Y220567D01*
X306950Y221790D01*
X304690Y224050D01*
X303467Y227002D01*
X303467Y230198D01*
X304690Y233150D01*
X306950Y235410D01*
X309902Y236633D01*
X325098Y236633D01*
X328050Y235410D01*
X330310Y233150D01*
X331533Y230198D01*
X331533Y227002D01*
X330310Y224050D01*
X328050Y221790D01*
X325098Y220567D01*
X309902Y220567D01*
G37*
%LPD*%
%LPC*%
G36*
X1090952Y195167D02*
X1090952Y195167D01*
X1088000Y196390D01*
X1085740Y198650D01*
X1084517Y201602D01*
X1084517Y204798D01*
X1085740Y207750D01*
X1088000Y210010D01*
X1090952Y211233D01*
X1106148Y211233D01*
X1109100Y210010D01*
X1111360Y207750D01*
X1112583Y204798D01*
X1112583Y201602D01*
X1111360Y198650D01*
X1109100Y196390D01*
X1106148Y195167D01*
X1090952Y195167D01*
G37*
%LPD*%
%LPC*%
G36*
X700427Y195167D02*
X700427Y195167D01*
X697475Y196390D01*
X695215Y198650D01*
X693992Y201602D01*
X693992Y204798D01*
X695215Y207750D01*
X697475Y210010D01*
X700427Y211233D01*
X715623Y211233D01*
X718575Y210010D01*
X720835Y207750D01*
X722058Y204798D01*
X722058Y201602D01*
X720835Y198650D01*
X718575Y196390D01*
X715623Y195167D01*
X700427Y195167D01*
G37*
%LPD*%
%LPC*%
G36*
X309902Y195167D02*
X309902Y195167D01*
X306950Y196390D01*
X304690Y198650D01*
X303467Y201602D01*
X303467Y204798D01*
X304690Y207750D01*
X306950Y210010D01*
X309902Y211233D01*
X325098Y211233D01*
X328050Y210010D01*
X330310Y207750D01*
X331533Y204798D01*
X331533Y201602D01*
X330310Y198650D01*
X328050Y196390D01*
X325098Y195167D01*
X309902Y195167D01*
G37*
%LPD*%
%LPC*%
G36*
X1732302Y195167D02*
X1732302Y195167D01*
X1729350Y196390D01*
X1727090Y198650D01*
X1725867Y201602D01*
X1725867Y204798D01*
X1727090Y207750D01*
X1729350Y210010D01*
X1732302Y211233D01*
X1747498Y211233D01*
X1750450Y210010D01*
X1752710Y207750D01*
X1753933Y204798D01*
X1753933Y201602D01*
X1752710Y198650D01*
X1750450Y196390D01*
X1747498Y195167D01*
X1732302Y195167D01*
G37*
%LPD*%
%LPC*%
G36*
X1090952Y169767D02*
X1090952Y169767D01*
X1088000Y170990D01*
X1085740Y173250D01*
X1084517Y176202D01*
X1084517Y179398D01*
X1085740Y182350D01*
X1088000Y184610D01*
X1090952Y185833D01*
X1106148Y185833D01*
X1109100Y184610D01*
X1111360Y182350D01*
X1112583Y179398D01*
X1112583Y176202D01*
X1111360Y173250D01*
X1109100Y170990D01*
X1106148Y169767D01*
X1090952Y169767D01*
G37*
%LPD*%
%LPC*%
G36*
X700427Y169767D02*
X700427Y169767D01*
X697475Y170990D01*
X695215Y173250D01*
X693992Y176202D01*
X693992Y179398D01*
X695215Y182350D01*
X697475Y184610D01*
X700427Y185833D01*
X715623Y185833D01*
X718575Y184610D01*
X720835Y182350D01*
X722058Y179398D01*
X722058Y176202D01*
X720835Y173250D01*
X718575Y170990D01*
X715623Y169767D01*
X700427Y169767D01*
G37*
%LPD*%
%LPC*%
G36*
X1732302Y169767D02*
X1732302Y169767D01*
X1729350Y170990D01*
X1727090Y173250D01*
X1725867Y176202D01*
X1725867Y179398D01*
X1727090Y182350D01*
X1729350Y184610D01*
X1732302Y185833D01*
X1747498Y185833D01*
X1750450Y184610D01*
X1752710Y182350D01*
X1753933Y179398D01*
X1753933Y176202D01*
X1752710Y173250D01*
X1750450Y170990D01*
X1747498Y169767D01*
X1732302Y169767D01*
G37*
%LPD*%
%LPC*%
G36*
X309902Y144367D02*
X309902Y144367D01*
X306950Y145590D01*
X304690Y147850D01*
X303467Y150802D01*
X303467Y153998D01*
X304690Y156950D01*
X306950Y159210D01*
X309902Y160433D01*
X325098Y160433D01*
X328050Y159210D01*
X330310Y156950D01*
X331533Y153998D01*
X331533Y150802D01*
X330310Y147850D01*
X328050Y145590D01*
X325098Y144367D01*
X309902Y144367D01*
G37*
%LPD*%
%LPC*%
G36*
X1090952Y144367D02*
X1090952Y144367D01*
X1088000Y145590D01*
X1085740Y147850D01*
X1084517Y150802D01*
X1084517Y153998D01*
X1085740Y156950D01*
X1088000Y159210D01*
X1090952Y160433D01*
X1106148Y160433D01*
X1109100Y159210D01*
X1111360Y156950D01*
X1112583Y153998D01*
X1112583Y150802D01*
X1111360Y147850D01*
X1109100Y145590D01*
X1106148Y144367D01*
X1090952Y144367D01*
G37*
%LPD*%
%LPC*%
G36*
X700427Y144367D02*
X700427Y144367D01*
X697475Y145590D01*
X695215Y147850D01*
X693992Y150802D01*
X693992Y153998D01*
X695215Y156950D01*
X697475Y159210D01*
X700427Y160433D01*
X715623Y160433D01*
X718575Y159210D01*
X720835Y156950D01*
X722058Y153998D01*
X722058Y150802D01*
X720835Y147850D01*
X718575Y145590D01*
X715623Y144367D01*
X700427Y144367D01*
G37*
%LPD*%
%LPC*%
G36*
X1732302Y118967D02*
X1732302Y118967D01*
X1729350Y120190D01*
X1727090Y122450D01*
X1725867Y125402D01*
X1725867Y128598D01*
X1727090Y131550D01*
X1729350Y133810D01*
X1732302Y135033D01*
X1747498Y135033D01*
X1750450Y133810D01*
X1752710Y131550D01*
X1753933Y128598D01*
X1753933Y125402D01*
X1752710Y122450D01*
X1750450Y120190D01*
X1747498Y118967D01*
X1732302Y118967D01*
G37*
%LPD*%
%LPC*%
G36*
X1579902Y118967D02*
X1579902Y118967D01*
X1576950Y120190D01*
X1574690Y122450D01*
X1573467Y125402D01*
X1573467Y128598D01*
X1574690Y131550D01*
X1576950Y133810D01*
X1579902Y135033D01*
X1595098Y135033D01*
X1598050Y133810D01*
X1600310Y131550D01*
X1601533Y128598D01*
X1601533Y125402D01*
X1600310Y122450D01*
X1598050Y120190D01*
X1595098Y118967D01*
X1579902Y118967D01*
G37*
%LPD*%
%LPC*%
G36*
X1732302Y93567D02*
X1732302Y93567D01*
X1729350Y94790D01*
X1727090Y97050D01*
X1725867Y100002D01*
X1725867Y103198D01*
X1727090Y106150D01*
X1729350Y108410D01*
X1732302Y109633D01*
X1747498Y109633D01*
X1750450Y108410D01*
X1752710Y106150D01*
X1753933Y103198D01*
X1753933Y100002D01*
X1752710Y97050D01*
X1750450Y94790D01*
X1747498Y93567D01*
X1732302Y93567D01*
G37*
%LPD*%
%LPC*%
G36*
X1732302Y68167D02*
X1732302Y68167D01*
X1729350Y69390D01*
X1727090Y71650D01*
X1725867Y74602D01*
X1725867Y77798D01*
X1727090Y80750D01*
X1729350Y83010D01*
X1732302Y84233D01*
X1747498Y84233D01*
X1750450Y83010D01*
X1752710Y80750D01*
X1753933Y77798D01*
X1753933Y74602D01*
X1752710Y71650D01*
X1750450Y69390D01*
X1747498Y68167D01*
X1732302Y68167D01*
G37*
%LPD*%
%LPC*%
G36*
X700427Y626967D02*
X700427Y626967D01*
X697475Y628190D01*
X695215Y630450D01*
X693992Y633402D01*
X693992Y636598D01*
X695215Y639550D01*
X697475Y641810D01*
X700427Y643033D01*
X715623Y643033D01*
X718575Y641810D01*
X720835Y639550D01*
X722058Y636598D01*
X722058Y633402D01*
X720835Y630450D01*
X718575Y628190D01*
X715623Y626967D01*
X700427Y626967D01*
G37*
%LPD*%
%LPC*%
G36*
X309902Y626967D02*
X309902Y626967D01*
X306950Y628190D01*
X304690Y630450D01*
X303467Y633402D01*
X303467Y636598D01*
X304690Y639550D01*
X306950Y641810D01*
X309902Y643033D01*
X325098Y643033D01*
X328050Y641810D01*
X330310Y639550D01*
X331533Y636598D01*
X331533Y633402D01*
X330310Y630450D01*
X328050Y628190D01*
X325098Y626967D01*
X309902Y626967D01*
G37*
%LPD*%
%LPC*%
G36*
X700427Y601567D02*
X700427Y601567D01*
X697475Y602790D01*
X695215Y605050D01*
X693992Y608002D01*
X693992Y611198D01*
X695215Y614150D01*
X697475Y616410D01*
X700427Y617633D01*
X715623Y617633D01*
X718575Y616410D01*
X720835Y614150D01*
X722058Y611198D01*
X722058Y608002D01*
X720835Y605050D01*
X718575Y602790D01*
X715623Y601567D01*
X700427Y601567D01*
G37*
%LPD*%
%LPC*%
G36*
X309902Y601567D02*
X309902Y601567D01*
X306950Y602790D01*
X304690Y605050D01*
X303467Y608002D01*
X303467Y611198D01*
X304690Y614150D01*
X306950Y616410D01*
X309902Y617633D01*
X325098Y617633D01*
X328050Y616410D01*
X330310Y614150D01*
X331533Y611198D01*
X331533Y608002D01*
X330310Y605050D01*
X328050Y602790D01*
X325098Y601567D01*
X309902Y601567D01*
G37*
%LPD*%
%LPC*%
G36*
X1090952Y576167D02*
X1090952Y576167D01*
X1088000Y577390D01*
X1085740Y579650D01*
X1084517Y582602D01*
X1084517Y585798D01*
X1085740Y588750D01*
X1088000Y591010D01*
X1090952Y592233D01*
X1106148Y592233D01*
X1109100Y591010D01*
X1111360Y588750D01*
X1112583Y585798D01*
X1112583Y582602D01*
X1111360Y579650D01*
X1109100Y577390D01*
X1106148Y576167D01*
X1090952Y576167D01*
G37*
%LPD*%
%LPC*%
G36*
X700427Y576167D02*
X700427Y576167D01*
X697475Y577390D01*
X695215Y579650D01*
X693992Y582602D01*
X693992Y585798D01*
X695215Y588750D01*
X697475Y591010D01*
X700427Y592233D01*
X715623Y592233D01*
X718575Y591010D01*
X720835Y588750D01*
X722058Y585798D01*
X722058Y582602D01*
X720835Y579650D01*
X718575Y577390D01*
X715623Y576167D01*
X700427Y576167D01*
G37*
%LPD*%
%LPC*%
G36*
X309902Y576167D02*
X309902Y576167D01*
X306950Y577390D01*
X304690Y579650D01*
X303467Y582602D01*
X303467Y585798D01*
X304690Y588750D01*
X306950Y591010D01*
X309902Y592233D01*
X325098Y592233D01*
X328050Y591010D01*
X330310Y588750D01*
X331533Y585798D01*
X331533Y582602D01*
X330310Y579650D01*
X328050Y577390D01*
X325098Y576167D01*
X309902Y576167D01*
G37*
%LPD*%
%LPC*%
G36*
X700427Y550767D02*
X700427Y550767D01*
X697475Y551990D01*
X695215Y554250D01*
X693992Y557202D01*
X693992Y560398D01*
X695215Y563350D01*
X697475Y565610D01*
X700427Y566833D01*
X715623Y566833D01*
X718575Y565610D01*
X720835Y563350D01*
X722058Y560398D01*
X722058Y557202D01*
X720835Y554250D01*
X718575Y551990D01*
X715623Y550767D01*
X700427Y550767D01*
G37*
%LPD*%
%LPC*%
G36*
X309902Y550767D02*
X309902Y550767D01*
X306950Y551990D01*
X304690Y554250D01*
X303467Y557202D01*
X303467Y560398D01*
X304690Y563350D01*
X306950Y565610D01*
X309902Y566833D01*
X325098Y566833D01*
X328050Y565610D01*
X330310Y563350D01*
X331533Y560398D01*
X331533Y557202D01*
X330310Y554250D01*
X328050Y551990D01*
X325098Y550767D01*
X309902Y550767D01*
G37*
%LPD*%
%LPC*%
G36*
X1090952Y550767D02*
X1090952Y550767D01*
X1088000Y551990D01*
X1085740Y554250D01*
X1084517Y557202D01*
X1084517Y560398D01*
X1085740Y563350D01*
X1088000Y565610D01*
X1090952Y566833D01*
X1106148Y566833D01*
X1109100Y565610D01*
X1111360Y563350D01*
X1112583Y560398D01*
X1112583Y557202D01*
X1111360Y554250D01*
X1109100Y551990D01*
X1106148Y550767D01*
X1090952Y550767D01*
G37*
%LPD*%
%LPC*%
G36*
X1579902Y68167D02*
X1579902Y68167D01*
X1576950Y69390D01*
X1574690Y71650D01*
X1573467Y74602D01*
X1573467Y77798D01*
X1574690Y80750D01*
X1576950Y83010D01*
X1579902Y84233D01*
X1595098Y84233D01*
X1598050Y83010D01*
X1600310Y80750D01*
X1601533Y77798D01*
X1601533Y74602D01*
X1600310Y71650D01*
X1598050Y69390D01*
X1595098Y68167D01*
X1579902Y68167D01*
G37*
%LPD*%
%LPC*%
G36*
X1732302Y372967D02*
X1732302Y372967D01*
X1729350Y374190D01*
X1727090Y376450D01*
X1725867Y379402D01*
X1725867Y382598D01*
X1727090Y385550D01*
X1729350Y387810D01*
X1732302Y389033D01*
X1747498Y389033D01*
X1750450Y387810D01*
X1752710Y385550D01*
X1753933Y382598D01*
X1753933Y379402D01*
X1752710Y376450D01*
X1750450Y374190D01*
X1747498Y372967D01*
X1732302Y372967D01*
G37*
%LPD*%
%LPC*%
G36*
X1732302Y347567D02*
X1732302Y347567D01*
X1729350Y348790D01*
X1727090Y351050D01*
X1725867Y354002D01*
X1725867Y357198D01*
X1727090Y360150D01*
X1729350Y362410D01*
X1732302Y363633D01*
X1747498Y363633D01*
X1750450Y362410D01*
X1752710Y360150D01*
X1753933Y357198D01*
X1753933Y354002D01*
X1752710Y351050D01*
X1750450Y348790D01*
X1747498Y347567D01*
X1732302Y347567D01*
G37*
%LPD*%
%LPC*%
G36*
X1732302Y322167D02*
X1732302Y322167D01*
X1729350Y323390D01*
X1727090Y325650D01*
X1725867Y328602D01*
X1725867Y331798D01*
X1727090Y334750D01*
X1729350Y337010D01*
X1732302Y338233D01*
X1747498Y338233D01*
X1750450Y337010D01*
X1752710Y334750D01*
X1753933Y331798D01*
X1753933Y328602D01*
X1752710Y325650D01*
X1750450Y323390D01*
X1747498Y322167D01*
X1732302Y322167D01*
G37*
%LPD*%
%LPC*%
G36*
X226754Y1184517D02*
X226754Y1184517D01*
X223342Y1185930D01*
X220730Y1188542D01*
X219317Y1191954D01*
X219317Y1195646D01*
X220730Y1199058D01*
X223342Y1201670D01*
X226754Y1203083D01*
X230446Y1203083D01*
X233858Y1201670D01*
X236470Y1199058D01*
X237883Y1195646D01*
X237883Y1191954D01*
X236470Y1188542D01*
X233858Y1185930D01*
X230446Y1184517D01*
X226754Y1184517D01*
G37*
%LPD*%
%LPC*%
G36*
X430992Y1184517D02*
X430992Y1184517D01*
X427580Y1185930D01*
X424969Y1188542D01*
X423555Y1191954D01*
X423555Y1195646D01*
X424969Y1199058D01*
X427580Y1201670D01*
X430992Y1203083D01*
X434685Y1203083D01*
X438096Y1201670D01*
X440708Y1199058D01*
X442121Y1195646D01*
X442121Y1191954D01*
X440708Y1188542D01*
X438096Y1185930D01*
X434685Y1184517D01*
X430992Y1184517D01*
G37*
%LPD*%
%LPC*%
G36*
X856940Y1103717D02*
X856940Y1103717D01*
X853565Y1105115D01*
X850982Y1107698D01*
X849584Y1111073D01*
X849584Y1114727D01*
X850982Y1118102D01*
X853565Y1120685D01*
X856940Y1122083D01*
X860593Y1122083D01*
X863968Y1120685D01*
X866551Y1118102D01*
X867949Y1114727D01*
X867949Y1111073D01*
X866551Y1107698D01*
X863968Y1105115D01*
X860593Y1103717D01*
X856940Y1103717D01*
G37*
%LPD*%
%LPC*%
G36*
X448464Y986117D02*
X448464Y986117D01*
X445089Y987515D01*
X442506Y990098D01*
X441108Y993473D01*
X441108Y997127D01*
X442506Y1000502D01*
X445089Y1003085D01*
X448464Y1004483D01*
X452117Y1004483D01*
X455492Y1003085D01*
X458075Y1000502D01*
X459473Y997127D01*
X459473Y993473D01*
X458075Y990098D01*
X455492Y987515D01*
X452117Y986117D01*
X448464Y986117D01*
G37*
%LPD*%
%LPC*%
G36*
X244226Y1103717D02*
X244226Y1103717D01*
X240851Y1105115D01*
X238268Y1107698D01*
X236870Y1111073D01*
X236870Y1114727D01*
X238268Y1118102D01*
X240851Y1120685D01*
X244226Y1122083D01*
X247879Y1122083D01*
X251254Y1120685D01*
X253837Y1118102D01*
X255235Y1114727D01*
X255235Y1111073D01*
X253837Y1107698D01*
X251254Y1105115D01*
X247879Y1103717D01*
X244226Y1103717D01*
G37*
%LPD*%
%LPC*%
G36*
X1103073Y1218017D02*
X1103073Y1218017D01*
X1099698Y1219415D01*
X1097115Y1221998D01*
X1095717Y1225373D01*
X1095717Y1229027D01*
X1097115Y1232402D01*
X1099698Y1234985D01*
X1103073Y1236383D01*
X1106727Y1236383D01*
X1110102Y1234985D01*
X1112685Y1232402D01*
X1114083Y1229027D01*
X1114083Y1225373D01*
X1112685Y1221998D01*
X1110102Y1219415D01*
X1106727Y1218017D01*
X1103073Y1218017D01*
G37*
%LPD*%
%LPC*%
G36*
X448464Y1103717D02*
X448464Y1103717D01*
X445089Y1105115D01*
X442506Y1107698D01*
X441108Y1111073D01*
X441108Y1114727D01*
X442506Y1118102D01*
X445089Y1120685D01*
X448464Y1122083D01*
X452117Y1122083D01*
X455492Y1120685D01*
X458075Y1118102D01*
X459473Y1114727D01*
X459473Y1111073D01*
X458075Y1107698D01*
X455492Y1105115D01*
X452117Y1103717D01*
X448464Y1103717D01*
G37*
%LPD*%
%LPC*%
G36*
X652702Y1103717D02*
X652702Y1103717D01*
X649327Y1105115D01*
X646744Y1107698D01*
X645346Y1111073D01*
X645346Y1114727D01*
X646744Y1118102D01*
X649327Y1120685D01*
X652702Y1122083D01*
X656355Y1122083D01*
X659730Y1120685D01*
X662313Y1118102D01*
X663711Y1114727D01*
X663711Y1111073D01*
X662313Y1107698D01*
X659730Y1105115D01*
X656355Y1103717D01*
X652702Y1103717D01*
G37*
%LPD*%
%LPC*%
G36*
X1103073Y1100417D02*
X1103073Y1100417D01*
X1099698Y1101815D01*
X1097115Y1104398D01*
X1095717Y1107773D01*
X1095717Y1111427D01*
X1097115Y1114802D01*
X1099698Y1117385D01*
X1103073Y1118783D01*
X1106727Y1118783D01*
X1110102Y1117385D01*
X1112685Y1114802D01*
X1114083Y1111427D01*
X1114083Y1107773D01*
X1112685Y1104398D01*
X1110102Y1101815D01*
X1106727Y1100417D01*
X1103073Y1100417D01*
G37*
%LPD*%
%LPC*%
G36*
X1636481Y397255D02*
X1636481Y397255D01*
X1633120Y398647D01*
X1630547Y401220D01*
X1629155Y404581D01*
X1629155Y408219D01*
X1630547Y411580D01*
X1633120Y414153D01*
X1636481Y415545D01*
X1640119Y415545D01*
X1643480Y414153D01*
X1646053Y411580D01*
X1647445Y408219D01*
X1647445Y404581D01*
X1646053Y401220D01*
X1643480Y398647D01*
X1640119Y397255D01*
X1636481Y397255D01*
G37*
%LPD*%
%LPC*%
G36*
X930592Y1362392D02*
X930592Y1362392D01*
X930592Y1381931D01*
X932097Y1381442D01*
X933923Y1380512D01*
X935581Y1379307D01*
X937030Y1377858D01*
X938234Y1376201D01*
X939164Y1374375D01*
X939798Y1372426D01*
X940118Y1370402D01*
X940118Y1362392D01*
X930592Y1362392D01*
G37*
%LPD*%
%LPC*%
G36*
X1324292Y1362392D02*
X1324292Y1362392D01*
X1324292Y1381931D01*
X1325797Y1381442D01*
X1327623Y1380512D01*
X1329281Y1379307D01*
X1330730Y1377858D01*
X1331934Y1376201D01*
X1332864Y1374375D01*
X1333498Y1372426D01*
X1333818Y1370402D01*
X1333818Y1362392D01*
X1324292Y1362392D01*
G37*
%LPD*%
%LPC*%
G36*
X308292Y1362392D02*
X308292Y1362392D01*
X308292Y1381931D01*
X309797Y1381442D01*
X311623Y1380512D01*
X313281Y1379307D01*
X314730Y1377858D01*
X315934Y1376201D01*
X316864Y1374375D01*
X317498Y1372426D01*
X317818Y1370402D01*
X317818Y1362392D01*
X308292Y1362392D01*
G37*
%LPD*%
%LPC*%
G36*
X1933892Y1362392D02*
X1933892Y1362392D01*
X1933892Y1381931D01*
X1935397Y1381442D01*
X1937223Y1380512D01*
X1938881Y1379307D01*
X1940330Y1377858D01*
X1941534Y1376201D01*
X1942464Y1374375D01*
X1943098Y1372426D01*
X1943418Y1370402D01*
X1943418Y1362392D01*
X1933892Y1362392D01*
G37*
%LPD*%
%LPC*%
G36*
X515725Y1362392D02*
X515725Y1362392D01*
X515725Y1381931D01*
X517231Y1381442D01*
X519056Y1380512D01*
X520714Y1379307D01*
X522163Y1377858D01*
X523368Y1376201D01*
X524298Y1374375D01*
X524931Y1372426D01*
X525252Y1370402D01*
X525252Y1362392D01*
X515725Y1362392D01*
G37*
%LPD*%
%LPC*%
G36*
X1171892Y1362392D02*
X1171892Y1362392D01*
X1171892Y1381931D01*
X1173397Y1381442D01*
X1175223Y1380512D01*
X1176881Y1379307D01*
X1178330Y1377858D01*
X1179534Y1376201D01*
X1180464Y1374375D01*
X1181098Y1372426D01*
X1181418Y1370402D01*
X1181418Y1362392D01*
X1171892Y1362392D01*
G37*
%LPD*%
%LPC*%
G36*
X723158Y1362392D02*
X723158Y1362392D01*
X723158Y1381931D01*
X724664Y1381442D01*
X726490Y1380512D01*
X728147Y1379307D01*
X729596Y1377858D01*
X730801Y1376201D01*
X731731Y1374375D01*
X732364Y1372426D01*
X732685Y1370402D01*
X732685Y1362392D01*
X723158Y1362392D01*
G37*
%LPD*%
%LPC*%
G36*
X2098992Y1362392D02*
X2098992Y1362392D01*
X2098992Y1381931D01*
X2100497Y1381442D01*
X2102323Y1380512D01*
X2103981Y1379307D01*
X2105430Y1377858D01*
X2106634Y1376201D01*
X2107564Y1374375D01*
X2108198Y1372426D01*
X2108518Y1370402D01*
X2108518Y1362392D01*
X2098992Y1362392D01*
G37*
%LPD*%
%LPC*%
G36*
X2289492Y968692D02*
X2289492Y968692D01*
X2289492Y978218D01*
X2297502Y978218D01*
X2299526Y977898D01*
X2301475Y977264D01*
X2303301Y976334D01*
X2304958Y975130D01*
X2306407Y973681D01*
X2307612Y972023D01*
X2308542Y970197D01*
X2309031Y968692D01*
X2289492Y968692D01*
G37*
%LPD*%
%LPC*%
G36*
X1476692Y1362392D02*
X1476692Y1362392D01*
X1476692Y1381931D01*
X1478197Y1381442D01*
X1480023Y1380512D01*
X1481681Y1379307D01*
X1483130Y1377858D01*
X1484334Y1376201D01*
X1485264Y1374375D01*
X1485898Y1372426D01*
X1486218Y1370402D01*
X1486218Y1362392D01*
X1476692Y1362392D01*
G37*
%LPD*%
%LPC*%
G36*
X2289492Y409892D02*
X2289492Y409892D01*
X2289492Y419418D01*
X2297502Y419418D01*
X2299526Y419098D01*
X2301475Y418464D01*
X2303301Y417534D01*
X2304958Y416330D01*
X2306407Y414881D01*
X2307612Y413223D01*
X2308542Y411397D01*
X2309031Y409892D01*
X2289492Y409892D01*
G37*
%LPD*%
%LPC*%
G36*
X16192Y295592D02*
X16192Y295592D01*
X16192Y305118D01*
X24202Y305118D01*
X26226Y304798D01*
X28175Y304164D01*
X30001Y303234D01*
X31658Y302030D01*
X33107Y300581D01*
X34312Y298923D01*
X35242Y297097D01*
X35731Y295592D01*
X16192Y295592D01*
G37*
%LPD*%
%LPC*%
G36*
X1629092Y1362392D02*
X1629092Y1362392D01*
X1629092Y1381931D01*
X1630597Y1381442D01*
X1632423Y1380512D01*
X1634081Y1379307D01*
X1635530Y1377858D01*
X1636734Y1376201D01*
X1637664Y1374375D01*
X1638298Y1372426D01*
X1638618Y1370402D01*
X1638618Y1362392D01*
X1629092Y1362392D01*
G37*
%LPD*%
%LPC*%
G36*
X16192Y346392D02*
X16192Y346392D01*
X16192Y355918D01*
X24202Y355918D01*
X26226Y355598D01*
X28175Y354964D01*
X30001Y354034D01*
X31658Y352830D01*
X33107Y351381D01*
X34312Y349723D01*
X35242Y347897D01*
X35731Y346392D01*
X16192Y346392D01*
G37*
%LPD*%
%LPC*%
G36*
X1781492Y1362392D02*
X1781492Y1362392D01*
X1781492Y1381931D01*
X1782997Y1381442D01*
X1784823Y1380512D01*
X1786481Y1379307D01*
X1787930Y1377858D01*
X1789134Y1376201D01*
X1790064Y1374375D01*
X1790698Y1372426D01*
X1791018Y1370402D01*
X1791018Y1362392D01*
X1781492Y1362392D01*
G37*
%LPD*%
%LPC*%
G36*
X2262969Y409892D02*
X2262969Y409892D01*
X2263458Y411397D01*
X2264388Y413223D01*
X2265593Y414881D01*
X2267042Y416330D01*
X2268699Y417534D01*
X2270525Y418464D01*
X2272474Y419098D01*
X2274498Y419418D01*
X2282508Y419418D01*
X2282508Y409892D01*
X2262969Y409892D01*
G37*
%LPD*%
%LPC*%
G36*
X1476692Y1355408D02*
X1476692Y1355408D01*
X1486218Y1355408D01*
X1486218Y1347398D01*
X1485898Y1345374D01*
X1485264Y1343425D01*
X1484334Y1341599D01*
X1483130Y1339942D01*
X1481681Y1338493D01*
X1480023Y1337288D01*
X1478197Y1336358D01*
X1476692Y1335869D01*
X1476692Y1355408D01*
G37*
%LPD*%
%LPC*%
G36*
X1324292Y1355408D02*
X1324292Y1355408D01*
X1333818Y1355408D01*
X1333818Y1347398D01*
X1333498Y1345374D01*
X1332864Y1343425D01*
X1331934Y1341599D01*
X1330730Y1339942D01*
X1329281Y1338493D01*
X1327623Y1337288D01*
X1325797Y1336358D01*
X1324292Y1335869D01*
X1324292Y1355408D01*
G37*
%LPD*%
%LPC*%
G36*
X1781492Y1355408D02*
X1781492Y1355408D01*
X1791018Y1355408D01*
X1791018Y1347398D01*
X1790698Y1345374D01*
X1790064Y1343425D01*
X1789134Y1341599D01*
X1787930Y1339942D01*
X1786481Y1338493D01*
X1784823Y1337288D01*
X1782997Y1336358D01*
X1781492Y1335869D01*
X1781492Y1355408D01*
G37*
%LPD*%
%LPC*%
G36*
X1171892Y1355408D02*
X1171892Y1355408D01*
X1181418Y1355408D01*
X1181418Y1347398D01*
X1181098Y1345374D01*
X1180464Y1343425D01*
X1179534Y1341599D01*
X1178330Y1339942D01*
X1176881Y1338493D01*
X1175223Y1337288D01*
X1173397Y1336358D01*
X1171892Y1335869D01*
X1171892Y1355408D01*
G37*
%LPD*%
%LPC*%
G36*
X930592Y1355408D02*
X930592Y1355408D01*
X940118Y1355408D01*
X940118Y1347398D01*
X939798Y1345374D01*
X939164Y1343425D01*
X938234Y1341599D01*
X937030Y1339942D01*
X935581Y1338493D01*
X933923Y1337288D01*
X932097Y1336358D01*
X930592Y1335869D01*
X930592Y1355408D01*
G37*
%LPD*%
%LPC*%
G36*
X723158Y1355408D02*
X723158Y1355408D01*
X732685Y1355408D01*
X732685Y1347398D01*
X732364Y1345374D01*
X731731Y1343425D01*
X730801Y1341599D01*
X729596Y1339942D01*
X728147Y1338493D01*
X726490Y1337288D01*
X724664Y1336358D01*
X723158Y1335869D01*
X723158Y1355408D01*
G37*
%LPD*%
%LPC*%
G36*
X308292Y1355408D02*
X308292Y1355408D01*
X317818Y1355408D01*
X317818Y1347398D01*
X317498Y1345374D01*
X316864Y1343425D01*
X315934Y1341599D01*
X314730Y1339942D01*
X313281Y1338493D01*
X311623Y1337288D01*
X309797Y1336358D01*
X308292Y1335869D01*
X308292Y1355408D01*
G37*
%LPD*%
%LPC*%
G36*
X1933892Y1355408D02*
X1933892Y1355408D01*
X1943418Y1355408D01*
X1943418Y1347398D01*
X1943098Y1345374D01*
X1942464Y1343425D01*
X1941534Y1341599D01*
X1940330Y1339942D01*
X1938881Y1338493D01*
X1937223Y1337288D01*
X1935397Y1336358D01*
X1933892Y1335869D01*
X1933892Y1355408D01*
G37*
%LPD*%
%LPC*%
G36*
X515725Y1355408D02*
X515725Y1355408D01*
X525252Y1355408D01*
X525252Y1347398D01*
X524931Y1345374D01*
X524298Y1343425D01*
X523368Y1341599D01*
X522163Y1339942D01*
X520714Y1338493D01*
X519056Y1337288D01*
X517231Y1336358D01*
X515725Y1335869D01*
X515725Y1355408D01*
G37*
%LPD*%
%LPC*%
G36*
X1629092Y1355408D02*
X1629092Y1355408D01*
X1638618Y1355408D01*
X1638618Y1347398D01*
X1638298Y1345374D01*
X1637664Y1343425D01*
X1636734Y1341599D01*
X1635530Y1339942D01*
X1634081Y1338493D01*
X1632423Y1337288D01*
X1630597Y1336358D01*
X1629092Y1335869D01*
X1629092Y1355408D01*
G37*
%LPD*%
%LPC*%
G36*
X2098992Y1355408D02*
X2098992Y1355408D01*
X2108518Y1355408D01*
X2108518Y1347398D01*
X2108198Y1345374D01*
X2107564Y1343425D01*
X2106634Y1341599D01*
X2105430Y1339942D01*
X2103981Y1338493D01*
X2102323Y1337288D01*
X2100497Y1336358D01*
X2098992Y1335869D01*
X2098992Y1355408D01*
G37*
%LPD*%
%LPC*%
G36*
X2262969Y968692D02*
X2262969Y968692D01*
X2263458Y970197D01*
X2264388Y972023D01*
X2265593Y973681D01*
X2267042Y975130D01*
X2268699Y976334D01*
X2270525Y977264D01*
X2272474Y977898D01*
X2274498Y978218D01*
X2282508Y978218D01*
X2282508Y968692D01*
X2262969Y968692D01*
G37*
%LPD*%
%LPC*%
G36*
X499215Y1362392D02*
X499215Y1362392D01*
X499215Y1370402D01*
X499536Y1372426D01*
X500169Y1374375D01*
X501099Y1376201D01*
X502304Y1377858D01*
X503753Y1379307D01*
X505410Y1380512D01*
X507236Y1381442D01*
X508742Y1381931D01*
X508742Y1362392D01*
X499215Y1362392D01*
G37*
%LPD*%
%LPC*%
G36*
X706648Y1362392D02*
X706648Y1362392D01*
X706648Y1370402D01*
X706969Y1372426D01*
X707602Y1374375D01*
X708532Y1376201D01*
X709737Y1377858D01*
X711186Y1379307D01*
X712844Y1380512D01*
X714669Y1381442D01*
X716175Y1381931D01*
X716175Y1362392D01*
X706648Y1362392D01*
G37*
%LPD*%
%LPC*%
G36*
X291782Y1362392D02*
X291782Y1362392D01*
X291782Y1370402D01*
X292102Y1372426D01*
X292736Y1374375D01*
X293666Y1376201D01*
X294870Y1377858D01*
X296319Y1379307D01*
X297977Y1380512D01*
X299803Y1381442D01*
X301308Y1381931D01*
X301308Y1362392D01*
X291782Y1362392D01*
G37*
%LPD*%
%LPC*%
G36*
X914082Y1362392D02*
X914082Y1362392D01*
X914082Y1370402D01*
X914402Y1372426D01*
X915035Y1374375D01*
X915966Y1376201D01*
X917170Y1377858D01*
X918619Y1379307D01*
X920277Y1380512D01*
X922103Y1381442D01*
X923608Y1381931D01*
X923608Y1362392D01*
X914082Y1362392D01*
G37*
%LPD*%
%LPC*%
G36*
X-10331Y346392D02*
X-10331Y346392D01*
X-9842Y347897D01*
X-8912Y349723D01*
X-7707Y351381D01*
X-6258Y352830D01*
X-4601Y354034D01*
X-2775Y354964D01*
X-826Y355598D01*
X1198Y355918D01*
X9208Y355918D01*
X9208Y346392D01*
X-10331Y346392D01*
G37*
%LPD*%
%LPC*%
G36*
X-10331Y295592D02*
X-10331Y295592D01*
X-9842Y297097D01*
X-8912Y298923D01*
X-7707Y300581D01*
X-6258Y302030D01*
X-4601Y303234D01*
X-2775Y304164D01*
X-826Y304798D01*
X1198Y305118D01*
X9208Y305118D01*
X9208Y295592D01*
X-10331Y295592D01*
G37*
%LPD*%
%LPC*%
G36*
X1460182Y1362392D02*
X1460182Y1362392D01*
X1460182Y1370402D01*
X1460502Y1372426D01*
X1461136Y1374375D01*
X1462066Y1376201D01*
X1463270Y1377858D01*
X1464719Y1379307D01*
X1466377Y1380512D01*
X1468203Y1381442D01*
X1469708Y1381931D01*
X1469708Y1362392D01*
X1460182Y1362392D01*
G37*
%LPD*%
%LPC*%
G36*
X1612582Y1362392D02*
X1612582Y1362392D01*
X1612582Y1370402D01*
X1612902Y1372426D01*
X1613536Y1374375D01*
X1614466Y1376201D01*
X1615670Y1377858D01*
X1617119Y1379307D01*
X1618777Y1380512D01*
X1620603Y1381442D01*
X1622108Y1381931D01*
X1622108Y1362392D01*
X1612582Y1362392D01*
G37*
%LPD*%
%LPC*%
G36*
X1307782Y1362392D02*
X1307782Y1362392D01*
X1307782Y1370402D01*
X1308102Y1372426D01*
X1308736Y1374375D01*
X1309666Y1376201D01*
X1310870Y1377858D01*
X1312319Y1379307D01*
X1313977Y1380512D01*
X1315803Y1381442D01*
X1317308Y1381931D01*
X1317308Y1362392D01*
X1307782Y1362392D01*
G37*
%LPD*%
%LPC*%
G36*
X2289492Y393382D02*
X2289492Y393382D01*
X2289492Y402908D01*
X2309031Y402908D01*
X2308542Y401403D01*
X2307612Y399577D01*
X2306407Y397919D01*
X2304958Y396470D01*
X2303301Y395266D01*
X2301475Y394336D01*
X2299526Y393702D01*
X2297502Y393382D01*
X2289492Y393382D01*
G37*
%LPD*%
%LPC*%
G36*
X2289492Y952182D02*
X2289492Y952182D01*
X2289492Y961708D01*
X2309031Y961708D01*
X2308542Y960203D01*
X2307612Y958377D01*
X2306407Y956719D01*
X2304958Y955270D01*
X2303301Y954066D01*
X2301475Y953136D01*
X2299526Y952502D01*
X2297502Y952182D01*
X2289492Y952182D01*
G37*
%LPD*%
%LPC*%
G36*
X16192Y329882D02*
X16192Y329882D01*
X16192Y339408D01*
X35731Y339408D01*
X35242Y337903D01*
X34312Y336077D01*
X33107Y334419D01*
X31658Y332970D01*
X30001Y331766D01*
X28175Y330836D01*
X26226Y330202D01*
X24202Y329882D01*
X16192Y329882D01*
G37*
%LPD*%
%LPC*%
G36*
X2082482Y1362392D02*
X2082482Y1362392D01*
X2082482Y1370402D01*
X2082802Y1372426D01*
X2083436Y1374375D01*
X2084366Y1376201D01*
X2085570Y1377858D01*
X2087019Y1379307D01*
X2088677Y1380512D01*
X2090503Y1381442D01*
X2092008Y1381931D01*
X2092008Y1362392D01*
X2082482Y1362392D01*
G37*
%LPD*%
%LPC*%
G36*
X1917382Y1362392D02*
X1917382Y1362392D01*
X1917382Y1370402D01*
X1917702Y1372426D01*
X1918336Y1374375D01*
X1919266Y1376201D01*
X1920470Y1377858D01*
X1921919Y1379307D01*
X1923577Y1380512D01*
X1925403Y1381442D01*
X1926908Y1381931D01*
X1926908Y1362392D01*
X1917382Y1362392D01*
G37*
%LPD*%
%LPC*%
G36*
X1155382Y1362392D02*
X1155382Y1362392D01*
X1155382Y1370402D01*
X1155702Y1372426D01*
X1156336Y1374375D01*
X1157266Y1376201D01*
X1158470Y1377858D01*
X1159919Y1379307D01*
X1161577Y1380512D01*
X1163403Y1381442D01*
X1164908Y1381931D01*
X1164908Y1362392D01*
X1155382Y1362392D01*
G37*
%LPD*%
%LPC*%
G36*
X1764982Y1362392D02*
X1764982Y1362392D01*
X1764982Y1370402D01*
X1765302Y1372426D01*
X1765936Y1374375D01*
X1766866Y1376201D01*
X1768070Y1377858D01*
X1769519Y1379307D01*
X1771177Y1380512D01*
X1773003Y1381442D01*
X1774508Y1381931D01*
X1774508Y1362392D01*
X1764982Y1362392D01*
G37*
%LPD*%
%LPC*%
G36*
X16192Y279082D02*
X16192Y279082D01*
X16192Y288608D01*
X35731Y288608D01*
X35242Y287103D01*
X34312Y285277D01*
X33107Y283619D01*
X31658Y282170D01*
X30001Y280966D01*
X28175Y280036D01*
X26226Y279402D01*
X24202Y279082D01*
X16192Y279082D01*
G37*
%LPD*%
%LPC*%
G36*
X2274498Y393382D02*
X2274498Y393382D01*
X2272474Y393702D01*
X2270525Y394336D01*
X2268699Y395266D01*
X2267042Y396470D01*
X2265593Y397919D01*
X2264388Y399577D01*
X2263458Y401403D01*
X2262969Y402908D01*
X2282508Y402908D01*
X2282508Y393382D01*
X2274498Y393382D01*
G37*
%LPD*%
%LPC*%
G36*
X2274498Y952182D02*
X2274498Y952182D01*
X2272474Y952502D01*
X2270525Y953136D01*
X2268699Y954066D01*
X2267042Y955270D01*
X2265593Y956719D01*
X2264388Y958377D01*
X2263458Y960203D01*
X2262969Y961708D01*
X2282508Y961708D01*
X2282508Y952182D01*
X2274498Y952182D01*
G37*
%LPD*%
%LPC*%
G36*
X714669Y1336358D02*
X714669Y1336358D01*
X712844Y1337288D01*
X711186Y1338493D01*
X709737Y1339942D01*
X708532Y1341599D01*
X707602Y1343425D01*
X706969Y1345374D01*
X706648Y1347398D01*
X706648Y1355408D01*
X716175Y1355408D01*
X716175Y1335869D01*
X714669Y1336358D01*
G37*
%LPD*%
%LPC*%
G36*
X2090503Y1336358D02*
X2090503Y1336358D01*
X2088677Y1337288D01*
X2087019Y1338493D01*
X2085570Y1339942D01*
X2084366Y1341599D01*
X2083436Y1343425D01*
X2082802Y1345374D01*
X2082482Y1347398D01*
X2082482Y1355408D01*
X2092008Y1355408D01*
X2092008Y1335869D01*
X2090503Y1336358D01*
G37*
%LPD*%
%LPC*%
G36*
X1925403Y1336358D02*
X1925403Y1336358D01*
X1923577Y1337288D01*
X1921919Y1338493D01*
X1920470Y1339942D01*
X1919266Y1341599D01*
X1918336Y1343425D01*
X1917702Y1345374D01*
X1917382Y1347398D01*
X1917382Y1355408D01*
X1926908Y1355408D01*
X1926908Y1335869D01*
X1925403Y1336358D01*
G37*
%LPD*%
%LPC*%
G36*
X1773003Y1336358D02*
X1773003Y1336358D01*
X1771177Y1337288D01*
X1769519Y1338493D01*
X1768070Y1339942D01*
X1766866Y1341599D01*
X1765936Y1343425D01*
X1765302Y1345374D01*
X1764982Y1347398D01*
X1764982Y1355408D01*
X1774508Y1355408D01*
X1774508Y1335869D01*
X1773003Y1336358D01*
G37*
%LPD*%
%LPC*%
G36*
X1468203Y1336358D02*
X1468203Y1336358D01*
X1466377Y1337288D01*
X1464719Y1338493D01*
X1463270Y1339942D01*
X1462066Y1341599D01*
X1461136Y1343425D01*
X1460502Y1345374D01*
X1460182Y1347398D01*
X1460182Y1355408D01*
X1469708Y1355408D01*
X1469708Y1335869D01*
X1468203Y1336358D01*
G37*
%LPD*%
%LPC*%
G36*
X1620603Y1336358D02*
X1620603Y1336358D01*
X1618777Y1337288D01*
X1617119Y1338493D01*
X1615670Y1339942D01*
X1614466Y1341599D01*
X1613536Y1343425D01*
X1612902Y1345374D01*
X1612582Y1347398D01*
X1612582Y1355408D01*
X1622108Y1355408D01*
X1622108Y1335869D01*
X1620603Y1336358D01*
G37*
%LPD*%
%LPC*%
G36*
X1315803Y1336358D02*
X1315803Y1336358D01*
X1313977Y1337288D01*
X1312319Y1338493D01*
X1310870Y1339942D01*
X1309666Y1341599D01*
X1308736Y1343425D01*
X1308102Y1345374D01*
X1307782Y1347398D01*
X1307782Y1355408D01*
X1317308Y1355408D01*
X1317308Y1335869D01*
X1315803Y1336358D01*
G37*
%LPD*%
%LPC*%
G36*
X1163403Y1336358D02*
X1163403Y1336358D01*
X1161577Y1337288D01*
X1159919Y1338493D01*
X1158470Y1339942D01*
X1157266Y1341599D01*
X1156336Y1343425D01*
X1155702Y1345374D01*
X1155382Y1347398D01*
X1155382Y1355408D01*
X1164908Y1355408D01*
X1164908Y1335869D01*
X1163403Y1336358D01*
G37*
%LPD*%
%LPC*%
G36*
X922103Y1336358D02*
X922103Y1336358D01*
X920277Y1337288D01*
X918619Y1338493D01*
X917170Y1339942D01*
X915966Y1341599D01*
X915035Y1343425D01*
X914402Y1345374D01*
X914082Y1347398D01*
X914082Y1355408D01*
X923608Y1355408D01*
X923608Y1335869D01*
X922103Y1336358D01*
G37*
%LPD*%
%LPC*%
G36*
X507236Y1336358D02*
X507236Y1336358D01*
X505410Y1337288D01*
X503753Y1338493D01*
X502304Y1339942D01*
X501099Y1341599D01*
X500169Y1343425D01*
X499536Y1345374D01*
X499215Y1347398D01*
X499215Y1355408D01*
X508742Y1355408D01*
X508742Y1335869D01*
X507236Y1336358D01*
G37*
%LPD*%
%LPC*%
G36*
X299803Y1336358D02*
X299803Y1336358D01*
X297977Y1337288D01*
X296319Y1338493D01*
X294870Y1339942D01*
X293666Y1341599D01*
X292736Y1343425D01*
X292102Y1345374D01*
X291782Y1347398D01*
X291782Y1355408D01*
X301308Y1355408D01*
X301308Y1335869D01*
X299803Y1336358D01*
G37*
%LPD*%
%LPC*%
G36*
X1198Y279082D02*
X1198Y279082D01*
X-826Y279402D01*
X-2775Y280036D01*
X-4601Y280966D01*
X-6258Y282170D01*
X-7707Y283619D01*
X-8912Y285277D01*
X-9842Y287103D01*
X-10331Y288608D01*
X9208Y288608D01*
X9208Y279082D01*
X1198Y279082D01*
G37*
%LPD*%
%LPC*%
G36*
X1198Y329882D02*
X1198Y329882D01*
X-826Y330202D01*
X-2775Y330836D01*
X-4601Y331766D01*
X-6258Y332970D01*
X-7707Y334419D01*
X-8912Y336077D01*
X-9842Y337903D01*
X-10331Y339408D01*
X9208Y339408D01*
X9208Y329882D01*
X1198Y329882D01*
G37*
%LPD*%
%LPC*%
G36*
X1101089Y535939D02*
X1101089Y535939D01*
X1101089Y541941D01*
X1105222Y541941D01*
X1106550Y541730D01*
X1107829Y541315D01*
X1109026Y540705D01*
X1110114Y539914D01*
X1111064Y538964D01*
X1111855Y537876D01*
X1112465Y536679D01*
X1112705Y535939D01*
X1101089Y535939D01*
G37*
%LPD*%
%LPC*%
G36*
X320039Y307339D02*
X320039Y307339D01*
X320039Y313341D01*
X324172Y313341D01*
X325500Y313130D01*
X326779Y312715D01*
X327976Y312105D01*
X329064Y311314D01*
X330014Y310364D01*
X330805Y309276D01*
X331415Y308079D01*
X331655Y307339D01*
X320039Y307339D01*
G37*
%LPD*%
%LPC*%
G36*
X320039Y510539D02*
X320039Y510539D01*
X320039Y516541D01*
X324172Y516541D01*
X325500Y516330D01*
X326779Y515915D01*
X327976Y515305D01*
X329064Y514514D01*
X330014Y513564D01*
X330805Y512476D01*
X331415Y511279D01*
X331655Y510539D01*
X320039Y510539D01*
G37*
%LPD*%
%LPC*%
G36*
X320039Y535939D02*
X320039Y535939D01*
X320039Y541941D01*
X324172Y541941D01*
X325500Y541730D01*
X326779Y541315D01*
X327976Y540705D01*
X329064Y539914D01*
X330014Y538964D01*
X330805Y537876D01*
X331415Y536679D01*
X331655Y535939D01*
X320039Y535939D01*
G37*
%LPD*%
%LPC*%
G36*
X710564Y307339D02*
X710564Y307339D01*
X710564Y313341D01*
X714697Y313341D01*
X716025Y313130D01*
X717304Y312715D01*
X718501Y312105D01*
X719589Y311314D01*
X720539Y310364D01*
X721330Y309276D01*
X721940Y308079D01*
X722180Y307339D01*
X710564Y307339D01*
G37*
%LPD*%
%LPC*%
G36*
X710564Y535939D02*
X710564Y535939D01*
X710564Y541941D01*
X714697Y541941D01*
X716025Y541730D01*
X717304Y541315D01*
X718501Y540705D01*
X719589Y539914D01*
X720539Y538964D01*
X721330Y537876D01*
X721940Y536679D01*
X722180Y535939D01*
X710564Y535939D01*
G37*
%LPD*%
%LPC*%
G36*
X1101089Y307339D02*
X1101089Y307339D01*
X1101089Y313341D01*
X1105222Y313341D01*
X1106550Y313130D01*
X1107829Y312715D01*
X1109026Y312105D01*
X1110114Y311314D01*
X1111064Y310364D01*
X1111855Y309276D01*
X1112465Y308079D01*
X1112705Y307339D01*
X1101089Y307339D01*
G37*
%LPD*%
%LPC*%
G36*
X1742439Y154939D02*
X1742439Y154939D01*
X1742439Y160941D01*
X1746572Y160941D01*
X1747900Y160730D01*
X1749179Y160315D01*
X1750376Y159705D01*
X1751464Y158914D01*
X1752414Y157964D01*
X1753205Y156876D01*
X1753815Y155679D01*
X1754055Y154939D01*
X1742439Y154939D01*
G37*
%LPD*%
%LPC*%
G36*
X320039Y281939D02*
X320039Y281939D01*
X320039Y287941D01*
X324172Y287941D01*
X325500Y287730D01*
X326779Y287315D01*
X327976Y286705D01*
X329064Y285914D01*
X330014Y284964D01*
X330805Y283876D01*
X331415Y282679D01*
X331655Y281939D01*
X320039Y281939D01*
G37*
%LPD*%
%LPC*%
G36*
X1101089Y510539D02*
X1101089Y510539D01*
X1101089Y516541D01*
X1105222Y516541D01*
X1106550Y516330D01*
X1107829Y515915D01*
X1109026Y515305D01*
X1110114Y514514D01*
X1111064Y513564D01*
X1111855Y512476D01*
X1112465Y511279D01*
X1112705Y510539D01*
X1101089Y510539D01*
G37*
%LPD*%
%LPC*%
G36*
X710564Y510539D02*
X710564Y510539D01*
X710564Y516541D01*
X714697Y516541D01*
X716025Y516330D01*
X717304Y515915D01*
X718501Y515305D01*
X719589Y514514D01*
X720539Y513564D01*
X721330Y512476D01*
X721940Y511279D01*
X722180Y510539D01*
X710564Y510539D01*
G37*
%LPD*%
%LPC*%
G36*
X1101089Y281939D02*
X1101089Y281939D01*
X1101089Y287941D01*
X1105222Y287941D01*
X1106550Y287730D01*
X1107829Y287315D01*
X1109026Y286705D01*
X1110114Y285914D01*
X1111064Y284964D01*
X1111855Y283876D01*
X1112465Y282679D01*
X1112705Y281939D01*
X1101089Y281939D01*
G37*
%LPD*%
%LPC*%
G36*
X710564Y281939D02*
X710564Y281939D01*
X710564Y287941D01*
X714697Y287941D01*
X716025Y287730D01*
X717304Y287315D01*
X718501Y286705D01*
X719589Y285914D01*
X720539Y284964D01*
X721330Y283876D01*
X721940Y282679D01*
X722180Y281939D01*
X710564Y281939D01*
G37*
%LPD*%
%LPC*%
G36*
X1590039Y104139D02*
X1590039Y104139D01*
X1590039Y110141D01*
X1594172Y110141D01*
X1595500Y109930D01*
X1596779Y109515D01*
X1597976Y108905D01*
X1599064Y108114D01*
X1600014Y107164D01*
X1600805Y106076D01*
X1601415Y104879D01*
X1601655Y104139D01*
X1590039Y104139D01*
G37*
%LPD*%
%LPC*%
G36*
X1084395Y307339D02*
X1084395Y307339D01*
X1084635Y308079D01*
X1085245Y309276D01*
X1086036Y310364D01*
X1086986Y311314D01*
X1088074Y312105D01*
X1089271Y312715D01*
X1090550Y313130D01*
X1091878Y313341D01*
X1096011Y313341D01*
X1096011Y307339D01*
X1084395Y307339D01*
G37*
%LPD*%
%LPC*%
G36*
X693870Y535939D02*
X693870Y535939D01*
X694110Y536679D01*
X694720Y537876D01*
X695511Y538964D01*
X696461Y539914D01*
X697549Y540705D01*
X698746Y541315D01*
X700025Y541730D01*
X701353Y541941D01*
X705486Y541941D01*
X705486Y535939D01*
X693870Y535939D01*
G37*
%LPD*%
%LPC*%
G36*
X303345Y510539D02*
X303345Y510539D01*
X303585Y511279D01*
X304195Y512476D01*
X304986Y513564D01*
X305936Y514514D01*
X307024Y515305D01*
X308221Y515915D01*
X309500Y516330D01*
X310828Y516541D01*
X314961Y516541D01*
X314961Y510539D01*
X303345Y510539D01*
G37*
%LPD*%
%LPC*%
G36*
X693870Y510539D02*
X693870Y510539D01*
X694110Y511279D01*
X694720Y512476D01*
X695511Y513564D01*
X696461Y514514D01*
X697549Y515305D01*
X698746Y515915D01*
X700025Y516330D01*
X701353Y516541D01*
X705486Y516541D01*
X705486Y510539D01*
X693870Y510539D01*
G37*
%LPD*%
%LPC*%
G36*
X303345Y307339D02*
X303345Y307339D01*
X303585Y308079D01*
X304195Y309276D01*
X304986Y310364D01*
X305936Y311314D01*
X307024Y312105D01*
X308221Y312715D01*
X309500Y313130D01*
X310828Y313341D01*
X314961Y313341D01*
X314961Y307339D01*
X303345Y307339D01*
G37*
%LPD*%
%LPC*%
G36*
X1725745Y154939D02*
X1725745Y154939D01*
X1725985Y155679D01*
X1726595Y156876D01*
X1727386Y157964D01*
X1728336Y158914D01*
X1729424Y159705D01*
X1730621Y160315D01*
X1731900Y160730D01*
X1733228Y160941D01*
X1737361Y160941D01*
X1737361Y154939D01*
X1725745Y154939D01*
G37*
%LPD*%
%LPC*%
G36*
X303345Y281939D02*
X303345Y281939D01*
X303585Y282679D01*
X304195Y283876D01*
X304986Y284964D01*
X305936Y285914D01*
X307024Y286705D01*
X308221Y287315D01*
X309500Y287730D01*
X310828Y287941D01*
X314961Y287941D01*
X314961Y281939D01*
X303345Y281939D01*
G37*
%LPD*%
%LPC*%
G36*
X1084395Y535939D02*
X1084395Y535939D01*
X1084635Y536679D01*
X1085245Y537876D01*
X1086036Y538964D01*
X1086986Y539914D01*
X1088074Y540705D01*
X1089271Y541315D01*
X1090550Y541730D01*
X1091878Y541941D01*
X1096011Y541941D01*
X1096011Y535939D01*
X1084395Y535939D01*
G37*
%LPD*%
%LPC*%
G36*
X1084395Y281939D02*
X1084395Y281939D01*
X1084635Y282679D01*
X1085245Y283876D01*
X1086036Y284964D01*
X1086986Y285914D01*
X1088074Y286705D01*
X1089271Y287315D01*
X1090550Y287730D01*
X1091878Y287941D01*
X1096011Y287941D01*
X1096011Y281939D01*
X1084395Y281939D01*
G37*
%LPD*%
%LPC*%
G36*
X1084395Y510539D02*
X1084395Y510539D01*
X1084635Y511279D01*
X1085245Y512476D01*
X1086036Y513564D01*
X1086986Y514514D01*
X1088074Y515305D01*
X1089271Y515915D01*
X1090550Y516330D01*
X1091878Y516541D01*
X1096011Y516541D01*
X1096011Y510539D01*
X1084395Y510539D01*
G37*
%LPD*%
%LPC*%
G36*
X693870Y281939D02*
X693870Y281939D01*
X694110Y282679D01*
X694720Y283876D01*
X695511Y284964D01*
X696461Y285914D01*
X697549Y286705D01*
X698746Y287315D01*
X700025Y287730D01*
X701353Y287941D01*
X705486Y287941D01*
X705486Y281939D01*
X693870Y281939D01*
G37*
%LPD*%
%LPC*%
G36*
X303345Y535939D02*
X303345Y535939D01*
X303585Y536679D01*
X304195Y537876D01*
X304986Y538964D01*
X305936Y539914D01*
X307024Y540705D01*
X308221Y541315D01*
X309500Y541730D01*
X310828Y541941D01*
X314961Y541941D01*
X314961Y535939D01*
X303345Y535939D01*
G37*
%LPD*%
%LPC*%
G36*
X1573345Y104139D02*
X1573345Y104139D01*
X1573585Y104879D01*
X1574195Y106076D01*
X1574986Y107164D01*
X1575936Y108114D01*
X1577024Y108905D01*
X1578221Y109515D01*
X1579500Y109930D01*
X1580828Y110141D01*
X1584961Y110141D01*
X1584961Y104139D01*
X1573345Y104139D01*
G37*
%LPD*%
%LPC*%
G36*
X693870Y307339D02*
X693870Y307339D01*
X694110Y308079D01*
X694720Y309276D01*
X695511Y310364D01*
X696461Y311314D01*
X697549Y312105D01*
X698746Y312715D01*
X700025Y313130D01*
X701353Y313341D01*
X705486Y313341D01*
X705486Y307339D01*
X693870Y307339D01*
G37*
%LPD*%
%LPC*%
G36*
X320039Y296259D02*
X320039Y296259D01*
X320039Y302261D01*
X331655Y302261D01*
X331415Y301521D01*
X330805Y300324D01*
X330014Y299236D01*
X329064Y298286D01*
X327976Y297495D01*
X326779Y296885D01*
X325500Y296470D01*
X324172Y296259D01*
X320039Y296259D01*
G37*
%LPD*%
%LPC*%
G36*
X320039Y270859D02*
X320039Y270859D01*
X320039Y276861D01*
X331655Y276861D01*
X331415Y276121D01*
X330805Y274924D01*
X330014Y273836D01*
X329064Y272886D01*
X327976Y272095D01*
X326779Y271485D01*
X325500Y271070D01*
X324172Y270859D01*
X320039Y270859D01*
G37*
%LPD*%
%LPC*%
G36*
X1101089Y270859D02*
X1101089Y270859D01*
X1101089Y276861D01*
X1112705Y276861D01*
X1112465Y276121D01*
X1111855Y274924D01*
X1111064Y273836D01*
X1110114Y272886D01*
X1109026Y272095D01*
X1107829Y271485D01*
X1106550Y271070D01*
X1105222Y270859D01*
X1101089Y270859D01*
G37*
%LPD*%
%LPC*%
G36*
X710564Y270859D02*
X710564Y270859D01*
X710564Y276861D01*
X722180Y276861D01*
X721940Y276121D01*
X721330Y274924D01*
X720539Y273836D01*
X719589Y272886D01*
X718501Y272095D01*
X717304Y271485D01*
X716025Y271070D01*
X714697Y270859D01*
X710564Y270859D01*
G37*
%LPD*%
%LPC*%
G36*
X320039Y524859D02*
X320039Y524859D01*
X320039Y530861D01*
X331655Y530861D01*
X331415Y530121D01*
X330805Y528924D01*
X330014Y527836D01*
X329064Y526886D01*
X327976Y526095D01*
X326779Y525485D01*
X325500Y525070D01*
X324172Y524859D01*
X320039Y524859D01*
G37*
%LPD*%
%LPC*%
G36*
X1101089Y524859D02*
X1101089Y524859D01*
X1101089Y530861D01*
X1112705Y530861D01*
X1112465Y530121D01*
X1111855Y528924D01*
X1111064Y527836D01*
X1110114Y526886D01*
X1109026Y526095D01*
X1107829Y525485D01*
X1106550Y525070D01*
X1105222Y524859D01*
X1101089Y524859D01*
G37*
%LPD*%
%LPC*%
G36*
X1101089Y499459D02*
X1101089Y499459D01*
X1101089Y505461D01*
X1112705Y505461D01*
X1112465Y504721D01*
X1111855Y503524D01*
X1111064Y502436D01*
X1110114Y501486D01*
X1109026Y500695D01*
X1107829Y500085D01*
X1106550Y499670D01*
X1105222Y499459D01*
X1101089Y499459D01*
G37*
%LPD*%
%LPC*%
G36*
X710564Y499459D02*
X710564Y499459D01*
X710564Y505461D01*
X722180Y505461D01*
X721940Y504721D01*
X721330Y503524D01*
X720539Y502436D01*
X719589Y501486D01*
X718501Y500695D01*
X717304Y500085D01*
X716025Y499670D01*
X714697Y499459D01*
X710564Y499459D01*
G37*
%LPD*%
%LPC*%
G36*
X320039Y499459D02*
X320039Y499459D01*
X320039Y505461D01*
X331655Y505461D01*
X331415Y504721D01*
X330805Y503524D01*
X330014Y502436D01*
X329064Y501486D01*
X327976Y500695D01*
X326779Y500085D01*
X325500Y499670D01*
X324172Y499459D01*
X320039Y499459D01*
G37*
%LPD*%
%LPC*%
G36*
X710564Y524859D02*
X710564Y524859D01*
X710564Y530861D01*
X722180Y530861D01*
X721940Y530121D01*
X721330Y528924D01*
X720539Y527836D01*
X719589Y526886D01*
X718501Y526095D01*
X717304Y525485D01*
X716025Y525070D01*
X714697Y524859D01*
X710564Y524859D01*
G37*
%LPD*%
%LPC*%
G36*
X1101089Y296259D02*
X1101089Y296259D01*
X1101089Y302261D01*
X1112705Y302261D01*
X1112465Y301521D01*
X1111855Y300324D01*
X1111064Y299236D01*
X1110114Y298286D01*
X1109026Y297495D01*
X1107829Y296885D01*
X1106550Y296470D01*
X1105222Y296259D01*
X1101089Y296259D01*
G37*
%LPD*%
%LPC*%
G36*
X1742439Y143859D02*
X1742439Y143859D01*
X1742439Y149861D01*
X1754055Y149861D01*
X1753815Y149121D01*
X1753205Y147924D01*
X1752414Y146836D01*
X1751464Y145886D01*
X1750376Y145095D01*
X1749179Y144485D01*
X1747900Y144070D01*
X1746572Y143859D01*
X1742439Y143859D01*
G37*
%LPD*%
%LPC*%
G36*
X1590039Y93059D02*
X1590039Y93059D01*
X1590039Y99061D01*
X1601655Y99061D01*
X1601415Y98321D01*
X1600805Y97124D01*
X1600014Y96036D01*
X1599064Y95086D01*
X1597976Y94295D01*
X1596779Y93685D01*
X1595500Y93270D01*
X1594172Y93059D01*
X1590039Y93059D01*
G37*
%LPD*%
%LPC*%
G36*
X710564Y296259D02*
X710564Y296259D01*
X710564Y302261D01*
X722180Y302261D01*
X721940Y301521D01*
X721330Y300324D01*
X720539Y299236D01*
X719589Y298286D01*
X718501Y297495D01*
X717304Y296885D01*
X716025Y296470D01*
X714697Y296259D01*
X710564Y296259D01*
G37*
%LPD*%
%LPC*%
G36*
X701353Y499459D02*
X701353Y499459D01*
X700025Y499670D01*
X698746Y500085D01*
X697549Y500695D01*
X696461Y501486D01*
X695511Y502436D01*
X694720Y503524D01*
X694110Y504721D01*
X693870Y505461D01*
X705486Y505461D01*
X705486Y499459D01*
X701353Y499459D01*
G37*
%LPD*%
%LPC*%
G36*
X1091878Y270859D02*
X1091878Y270859D01*
X1090550Y271070D01*
X1089271Y271485D01*
X1088074Y272095D01*
X1086986Y272886D01*
X1086036Y273836D01*
X1085245Y274924D01*
X1084635Y276121D01*
X1084395Y276861D01*
X1096011Y276861D01*
X1096011Y270859D01*
X1091878Y270859D01*
G37*
%LPD*%
%LPC*%
G36*
X1091878Y524859D02*
X1091878Y524859D01*
X1090550Y525070D01*
X1089271Y525485D01*
X1088074Y526095D01*
X1086986Y526886D01*
X1086036Y527836D01*
X1085245Y528924D01*
X1084635Y530121D01*
X1084395Y530861D01*
X1096011Y530861D01*
X1096011Y524859D01*
X1091878Y524859D01*
G37*
%LPD*%
%LPC*%
G36*
X1091878Y499459D02*
X1091878Y499459D01*
X1090550Y499670D01*
X1089271Y500085D01*
X1088074Y500695D01*
X1086986Y501486D01*
X1086036Y502436D01*
X1085245Y503524D01*
X1084635Y504721D01*
X1084395Y505461D01*
X1096011Y505461D01*
X1096011Y499459D01*
X1091878Y499459D01*
G37*
%LPD*%
%LPC*%
G36*
X701353Y296259D02*
X701353Y296259D01*
X700025Y296470D01*
X698746Y296885D01*
X697549Y297495D01*
X696461Y298286D01*
X695511Y299236D01*
X694720Y300324D01*
X694110Y301521D01*
X693870Y302261D01*
X705486Y302261D01*
X705486Y296259D01*
X701353Y296259D01*
G37*
%LPD*%
%LPC*%
G36*
X1091878Y296259D02*
X1091878Y296259D01*
X1090550Y296470D01*
X1089271Y296885D01*
X1088074Y297495D01*
X1086986Y298286D01*
X1086036Y299236D01*
X1085245Y300324D01*
X1084635Y301521D01*
X1084395Y302261D01*
X1096011Y302261D01*
X1096011Y296259D01*
X1091878Y296259D01*
G37*
%LPD*%
%LPC*%
G36*
X701353Y524859D02*
X701353Y524859D01*
X700025Y525070D01*
X698746Y525485D01*
X697549Y526095D01*
X696461Y526886D01*
X695511Y527836D01*
X694720Y528924D01*
X694110Y530121D01*
X693870Y530861D01*
X705486Y530861D01*
X705486Y524859D01*
X701353Y524859D01*
G37*
%LPD*%
%LPC*%
G36*
X1733228Y143859D02*
X1733228Y143859D01*
X1731900Y144070D01*
X1730621Y144485D01*
X1729424Y145095D01*
X1728336Y145886D01*
X1727386Y146836D01*
X1726595Y147924D01*
X1725985Y149121D01*
X1725745Y149861D01*
X1737361Y149861D01*
X1737361Y143859D01*
X1733228Y143859D01*
G37*
%LPD*%
%LPC*%
G36*
X310828Y524859D02*
X310828Y524859D01*
X309500Y525070D01*
X308221Y525485D01*
X307024Y526095D01*
X305936Y526886D01*
X304986Y527836D01*
X304195Y528924D01*
X303585Y530121D01*
X303345Y530861D01*
X314961Y530861D01*
X314961Y524859D01*
X310828Y524859D01*
G37*
%LPD*%
%LPC*%
G36*
X310828Y296259D02*
X310828Y296259D01*
X309500Y296470D01*
X308221Y296885D01*
X307024Y297495D01*
X305936Y298286D01*
X304986Y299236D01*
X304195Y300324D01*
X303585Y301521D01*
X303345Y302261D01*
X314961Y302261D01*
X314961Y296259D01*
X310828Y296259D01*
G37*
%LPD*%
%LPC*%
G36*
X310828Y270859D02*
X310828Y270859D01*
X309500Y271070D01*
X308221Y271485D01*
X307024Y272095D01*
X305936Y272886D01*
X304986Y273836D01*
X304195Y274924D01*
X303585Y276121D01*
X303345Y276861D01*
X314961Y276861D01*
X314961Y270859D01*
X310828Y270859D01*
G37*
%LPD*%
%LPC*%
G36*
X701353Y270859D02*
X701353Y270859D01*
X700025Y271070D01*
X698746Y271485D01*
X697549Y272095D01*
X696461Y272886D01*
X695511Y273836D01*
X694720Y274924D01*
X694110Y276121D01*
X693870Y276861D01*
X705486Y276861D01*
X705486Y270859D01*
X701353Y270859D01*
G37*
%LPD*%
%LPC*%
G36*
X1580828Y93059D02*
X1580828Y93059D01*
X1579500Y93270D01*
X1578221Y93685D01*
X1577024Y94295D01*
X1575936Y95086D01*
X1574986Y96036D01*
X1574195Y97124D01*
X1573585Y98321D01*
X1573345Y99061D01*
X1584961Y99061D01*
X1584961Y93059D01*
X1580828Y93059D01*
G37*
%LPD*%
%LPC*%
G36*
X310828Y499459D02*
X310828Y499459D01*
X309500Y499670D01*
X308221Y500085D01*
X307024Y500695D01*
X305936Y501486D01*
X304986Y502436D01*
X304195Y503524D01*
X303585Y504721D01*
X303345Y505461D01*
X314961Y505461D01*
X314961Y499459D01*
X310828Y499459D01*
G37*
%LPD*%
%LPC*%
G36*
X894654Y1196339D02*
X894654Y1196339D01*
X894654Y1203269D01*
X895873Y1202873D01*
X897246Y1202174D01*
X898492Y1201268D01*
X899582Y1200178D01*
X900488Y1198931D01*
X901188Y1197558D01*
X901584Y1196339D01*
X894654Y1196339D01*
G37*
%LPD*%
%LPC*%
G36*
X690416Y1196339D02*
X690416Y1196339D01*
X690416Y1203269D01*
X691634Y1202873D01*
X693008Y1202174D01*
X694254Y1201268D01*
X695344Y1200178D01*
X696250Y1198931D01*
X696950Y1197558D01*
X697346Y1196339D01*
X690416Y1196339D01*
G37*
%LPD*%
%LPC*%
G36*
X281939Y1196339D02*
X281939Y1196339D01*
X281939Y1203269D01*
X283158Y1202873D01*
X284531Y1202174D01*
X285778Y1201268D01*
X286868Y1200178D01*
X287774Y1198931D01*
X288473Y1197558D01*
X288869Y1196339D01*
X281939Y1196339D01*
G37*
%LPD*%
%LPC*%
G36*
X486177Y1196339D02*
X486177Y1196339D01*
X486177Y1203269D01*
X487396Y1202873D01*
X488769Y1202174D01*
X490016Y1201268D01*
X491106Y1200178D01*
X492012Y1198931D01*
X492711Y1197558D01*
X493108Y1196339D01*
X486177Y1196339D01*
G37*
%LPD*%
%LPC*%
G36*
X269931Y1196339D02*
X269931Y1196339D01*
X270327Y1197558D01*
X271026Y1198931D01*
X271932Y1200178D01*
X273022Y1201268D01*
X274269Y1202174D01*
X275642Y1202873D01*
X276861Y1203269D01*
X276861Y1196339D01*
X269931Y1196339D01*
G37*
%LPD*%
%LPC*%
G36*
X486177Y1191261D02*
X486177Y1191261D01*
X493108Y1191261D01*
X492711Y1190042D01*
X492012Y1188669D01*
X491106Y1187422D01*
X490016Y1186332D01*
X488769Y1185426D01*
X487396Y1184727D01*
X486177Y1184331D01*
X486177Y1191261D01*
G37*
%LPD*%
%LPC*%
G36*
X281939Y1191261D02*
X281939Y1191261D01*
X288869Y1191261D01*
X288473Y1190042D01*
X287774Y1188669D01*
X286868Y1187422D01*
X285778Y1186332D01*
X284531Y1185426D01*
X283158Y1184727D01*
X281939Y1184331D01*
X281939Y1191261D01*
G37*
%LPD*%
%LPC*%
G36*
X882645Y1196339D02*
X882645Y1196339D01*
X883041Y1197558D01*
X883740Y1198931D01*
X884646Y1200178D01*
X885736Y1201268D01*
X886983Y1202174D01*
X888356Y1202873D01*
X889575Y1203269D01*
X889575Y1196339D01*
X882645Y1196339D01*
G37*
%LPD*%
%LPC*%
G36*
X474169Y1196339D02*
X474169Y1196339D01*
X474565Y1197558D01*
X475264Y1198931D01*
X476170Y1200178D01*
X477260Y1201268D01*
X478507Y1202174D01*
X479880Y1202873D01*
X481099Y1203269D01*
X481099Y1196339D01*
X474169Y1196339D01*
G37*
%LPD*%
%LPC*%
G36*
X479880Y1184727D02*
X479880Y1184727D01*
X478507Y1185426D01*
X477260Y1186332D01*
X476170Y1187422D01*
X475264Y1188669D01*
X474565Y1190042D01*
X474169Y1191261D01*
X481099Y1191261D01*
X481099Y1184331D01*
X479880Y1184727D01*
G37*
%LPD*%
%LPC*%
G36*
X275642Y1184727D02*
X275642Y1184727D01*
X274269Y1185426D01*
X273022Y1186332D01*
X271932Y1187422D01*
X271026Y1188669D01*
X270327Y1190042D01*
X269931Y1191261D01*
X276861Y1191261D01*
X276861Y1184331D01*
X275642Y1184727D01*
G37*
%LPD*%
%LPC*%
G36*
X1691639Y408939D02*
X1691639Y408939D01*
X1691639Y415724D01*
X1692805Y415346D01*
X1694159Y414656D01*
X1695388Y413763D01*
X1696463Y412688D01*
X1697356Y411459D01*
X1698046Y410105D01*
X1698424Y408939D01*
X1691639Y408939D01*
G37*
%LPD*%
%LPC*%
G36*
X1691639Y403861D02*
X1691639Y403861D01*
X1698424Y403861D01*
X1698046Y402695D01*
X1697356Y401341D01*
X1696463Y400112D01*
X1695388Y399037D01*
X1694159Y398144D01*
X1692805Y397454D01*
X1691639Y397076D01*
X1691639Y403861D01*
G37*
%LPD*%
%LPC*%
G36*
X1685395Y397454D02*
X1685395Y397454D01*
X1684041Y398144D01*
X1682812Y399037D01*
X1681737Y400112D01*
X1680844Y401341D01*
X1680154Y402695D01*
X1679776Y403861D01*
X1686561Y403861D01*
X1686561Y397076D01*
X1685395Y397454D01*
G37*
%LPD*%
%LPC*%
G36*
X2285999Y1371599D02*
X2285999Y1371599D01*
X2285999Y1371601D01*
X2286001Y1371601D01*
X2286001Y1371599D01*
X2285999Y1371599D01*
G37*
%LPD*%
%LPC*%
G36*
X2285999Y101599D02*
X2285999Y101599D01*
X2285999Y101601D01*
X2286001Y101601D01*
X2286001Y101599D01*
X2285999Y101599D01*
G37*
%LPD*%
%LPC*%
G36*
X-1Y1371599D02*
X-1Y1371599D01*
X-1Y1371601D01*
X1Y1371601D01*
X1Y1371599D01*
X-1Y1371599D01*
G37*
%LPD*%
%LPC*%
G36*
X-1Y101599D02*
X-1Y101599D01*
X-1Y101601D01*
X1Y101601D01*
X1Y101599D01*
X-1Y101599D01*
G37*
%LPD*%
D10*
X2296478Y406400D02*
X2275523Y406400D01*
X2275523Y457200D02*
X2296478Y457200D01*
X2296478Y660400D02*
X2275523Y660400D01*
X2275523Y508000D02*
X2296478Y508000D01*
X2296478Y558800D02*
X2275523Y558800D01*
X2275523Y609600D02*
X2296478Y609600D01*
X304800Y1348423D02*
X304800Y1369378D01*
X254000Y1369378D02*
X254000Y1348423D01*
X203200Y1348423D02*
X203200Y1369378D01*
D11*
X2286000Y190500D03*
D12*
X323500Y609600D02*
X311500Y609600D01*
X311500Y584200D02*
X323500Y584200D01*
X323500Y558800D02*
X311500Y558800D01*
X311500Y533400D02*
X323500Y533400D01*
X323500Y508000D02*
X311500Y508000D01*
X311500Y635000D02*
X323500Y635000D01*
X323500Y279400D02*
X311500Y279400D01*
X311500Y304800D02*
X323500Y304800D01*
X323500Y254000D02*
X311500Y254000D01*
X311500Y228600D02*
X323500Y228600D01*
X323500Y203200D02*
X311500Y203200D01*
X311500Y177800D02*
X323500Y177800D01*
X323500Y152400D02*
X311500Y152400D01*
X1092550Y609600D02*
X1104550Y609600D01*
X1104550Y584200D02*
X1092550Y584200D01*
X1092550Y558800D02*
X1104550Y558800D01*
X1104550Y533400D02*
X1092550Y533400D01*
X1092550Y508000D02*
X1104550Y508000D01*
X1104550Y635000D02*
X1092550Y635000D01*
X1092550Y279400D02*
X1104550Y279400D01*
X1104550Y304800D02*
X1092550Y304800D01*
X1092550Y254000D02*
X1104550Y254000D01*
X1104550Y228600D02*
X1092550Y228600D01*
X1092550Y203200D02*
X1104550Y203200D01*
X1104550Y177800D02*
X1092550Y177800D01*
X1092550Y152400D02*
X1104550Y152400D01*
X714025Y609600D02*
X702025Y609600D01*
X702025Y584200D02*
X714025Y584200D01*
X714025Y558800D02*
X702025Y558800D01*
X702025Y533400D02*
X714025Y533400D01*
X714025Y508000D02*
X702025Y508000D01*
X702025Y635000D02*
X714025Y635000D01*
X714025Y279400D02*
X702025Y279400D01*
X702025Y304800D02*
X714025Y304800D01*
X714025Y254000D02*
X702025Y254000D01*
X702025Y228600D02*
X714025Y228600D01*
X714025Y203200D02*
X702025Y203200D01*
X702025Y177800D02*
X714025Y177800D01*
X714025Y152400D02*
X702025Y152400D01*
D10*
X512233Y1348423D02*
X512233Y1369378D01*
X461433Y1369378D02*
X461433Y1348423D01*
X410633Y1348423D02*
X410633Y1369378D01*
X927100Y1369378D02*
X927100Y1348423D01*
X876300Y1348423D02*
X876300Y1369378D01*
X825500Y1369378D02*
X825500Y1348423D01*
D13*
X858767Y995300D03*
X858767Y1112900D03*
X450290Y995300D03*
X450290Y1112900D03*
X246052Y995300D03*
X246052Y1112900D03*
X654529Y995300D03*
X654529Y1112900D03*
X1104900Y1227200D03*
X1104900Y1109600D03*
D10*
X2146300Y1348423D02*
X2146300Y1369378D01*
X2095500Y1369378D02*
X2095500Y1348423D01*
X1828800Y1348423D02*
X1828800Y1369378D01*
X1778000Y1369378D02*
X1778000Y1348423D01*
X1524000Y1348423D02*
X1524000Y1369378D01*
X1473200Y1369378D02*
X1473200Y1348423D01*
X1371600Y1348423D02*
X1371600Y1369378D01*
X1320800Y1369378D02*
X1320800Y1348423D01*
X1219200Y1348423D02*
X1219200Y1369378D01*
X1168400Y1369378D02*
X1168400Y1348423D01*
X1676400Y1348423D02*
X1676400Y1369378D01*
X1625600Y1369378D02*
X1625600Y1348423D01*
X1981200Y1348423D02*
X1981200Y1369378D01*
X1930400Y1369378D02*
X1930400Y1348423D01*
D12*
X1745900Y127000D02*
X1733900Y127000D01*
X1733900Y152400D02*
X1745900Y152400D01*
X1745900Y177800D02*
X1733900Y177800D01*
X1733900Y203200D02*
X1745900Y203200D01*
X1745900Y228600D02*
X1733900Y228600D01*
X1733900Y254000D02*
X1745900Y254000D01*
X1745900Y279400D02*
X1733900Y279400D01*
X1733900Y304800D02*
X1745900Y304800D01*
X1745900Y101600D02*
X1733900Y101600D01*
X1733900Y330200D02*
X1745900Y330200D01*
X1745900Y355600D02*
X1733900Y355600D01*
X1733900Y381000D02*
X1745900Y381000D01*
X1745900Y406400D02*
X1733900Y406400D01*
X1733900Y76200D02*
X1745900Y76200D01*
D14*
X1714500Y406400D03*
X1689100Y406400D03*
X1663700Y406400D03*
X1638300Y406400D03*
X1612900Y406400D03*
D12*
X1593500Y406400D02*
X1581500Y406400D01*
X1581500Y381000D02*
X1593500Y381000D01*
X1593500Y355600D02*
X1581500Y355600D01*
X1581500Y330200D02*
X1593500Y330200D01*
X1593500Y304800D02*
X1581500Y304800D01*
X1581500Y279400D02*
X1593500Y279400D01*
X1593500Y254000D02*
X1581500Y254000D01*
X1581500Y228600D02*
X1593500Y228600D01*
X1593500Y203200D02*
X1581500Y203200D01*
X1581500Y177800D02*
X1593500Y177800D01*
X1593500Y152400D02*
X1581500Y152400D01*
X1581500Y127000D02*
X1593500Y127000D01*
X1593500Y101600D02*
X1581500Y101600D01*
X1581500Y76200D02*
X1593500Y76200D01*
D15*
X841314Y1193800D03*
X892114Y1193800D03*
X637076Y1193800D03*
X687876Y1193800D03*
X228600Y1193800D03*
X279400Y1193800D03*
X432838Y1193800D03*
X483638Y1193800D03*
D10*
X719667Y1348423D02*
X719667Y1369378D01*
X668867Y1369378D02*
X668867Y1348423D01*
X618067Y1348423D02*
X618067Y1369378D01*
X23178Y444500D02*
X2223Y444500D01*
X2223Y393700D02*
X23178Y393700D01*
X23178Y292100D02*
X2223Y292100D01*
X2223Y342900D02*
X23178Y342900D01*
X2275523Y762000D02*
X2296478Y762000D01*
X2296478Y812800D02*
X2275523Y812800D01*
X2275523Y965200D02*
X2296478Y965200D01*
X2296478Y863600D02*
X2275523Y863600D01*
X2275523Y914400D02*
X2296478Y914400D01*
D16*
X0Y101600D03*
X2286000Y101600D03*
X0Y1371600D03*
X2286000Y1371600D03*
D17*
X2286000Y762000D02*
X2266950Y762000D01*
X2178050Y850900D01*
X666750Y1193800D02*
X637076Y1193800D01*
X666750Y1193800D02*
X682625Y1177925D01*
X1143000Y1177925D01*
D18*
X2178050Y850900D03*
X1143000Y1177925D03*
D17*
X1822450Y1193800D02*
X1822450Y1352550D01*
X1828800Y1358900D01*
D18*
X1822450Y1193800D03*
D17*
X1679575Y1162050D02*
X1524000Y1317625D01*
X1524000Y1358900D01*
D18*
X1679575Y1162050D03*
D17*
X1739900Y254000D02*
X1746250Y254000D01*
X1812925Y320675D01*
X1692275Y1095375D02*
X1635125Y1095375D01*
X1371600Y1358900D01*
D18*
X1812925Y320675D03*
X1692275Y1095375D03*
D17*
X1739900Y279400D02*
X1746250Y279400D01*
X1800225Y333375D01*
X1692275Y1079500D02*
X1498600Y1079500D01*
X1219200Y1358900D01*
D18*
X1800225Y333375D03*
X1692275Y1079500D03*
D17*
X1673225Y1184275D02*
X1673225Y1355725D01*
X1676400Y1358900D01*
D18*
X1673225Y1184275D03*
D17*
X1609725Y962025D02*
X1609725Y558800D01*
X1609725Y962025D02*
X1981200Y1333500D01*
X1981200Y1358900D01*
D18*
X1609725Y558800D03*
D17*
X1577975Y161925D02*
X1587500Y152400D01*
X1577975Y161925D02*
X1574800Y161925D01*
X1120775Y615950D01*
X1120775Y641350D01*
X796925Y965200D01*
X276225Y965200D01*
X247650Y993775D01*
X246052Y995300D01*
X673100Y977900D02*
X1209675Y977900D01*
X673100Y977900D02*
X657225Y993775D01*
X654529Y995300D01*
D18*
X1209675Y977900D03*
D17*
X1577975Y238125D02*
X1587500Y228600D01*
X1577975Y238125D02*
X1574800Y238125D01*
X1552575Y260350D01*
X1552575Y415925D01*
X1695450Y558800D01*
X2286000Y558800D01*
X1587500Y254000D02*
X1577975Y263525D01*
X1574800Y263525D01*
X1565275Y273050D01*
X1565275Y412750D01*
X1660525Y508000D01*
X2286000Y508000D01*
X1714500Y457200D02*
X1663700Y406400D01*
X1714500Y457200D02*
X2286000Y457200D01*
X1587500Y177800D02*
X1577975Y187325D01*
X1574800Y187325D01*
X1527175Y234950D01*
X1527175Y422275D01*
X1765300Y660400D01*
X2286000Y660400D01*
X1587500Y203200D02*
X1577975Y212725D01*
X1574800Y212725D01*
X1539875Y247650D01*
X1539875Y419100D01*
X1730375Y609600D01*
X2286000Y609600D01*
X1955800Y882650D02*
X1501775Y428625D01*
X1955800Y882650D02*
X2305050Y882650D01*
X2314575Y873125D01*
X2314575Y841375D01*
X2286000Y812800D01*
D18*
X1501775Y428625D03*
D17*
X1514475Y425450D02*
X1514475Y396875D01*
X1514475Y425450D02*
X1952625Y863600D01*
X2286000Y863600D01*
D18*
X1514475Y396875D03*
M02*
