G04 EAGLE Gerber RS-274X export*
G75*
%MOMM*%
%FSLAX34Y34*%
%LPD*%
%INTop Solder Paste*%
%IPPOS*%
%AMOC8*
5,1,8,0,0,1.08239X$1,22.5*%
G01*
%ADD10R,1.000000X0.850000*%
%ADD11R,1.500000X1.500000*%
%ADD12R,1.400000X1.100000*%


D10*
X1211300Y1210450D03*
X1176300Y1210450D03*
X1211300Y1227950D03*
X1176300Y1227950D03*
X1363700Y1210450D03*
X1328700Y1210450D03*
X1363700Y1227950D03*
X1328700Y1227950D03*
X1516100Y1210450D03*
X1481100Y1210450D03*
X1516100Y1227950D03*
X1481100Y1227950D03*
X1668500Y1210450D03*
X1633500Y1210450D03*
X1668500Y1227950D03*
X1633500Y1227950D03*
X1846300Y1210450D03*
X1811300Y1210450D03*
X1846300Y1227950D03*
X1811300Y1227950D03*
X1998700Y1210450D03*
X1963700Y1210450D03*
X1998700Y1227950D03*
X1963700Y1227950D03*
X2151100Y1210450D03*
X2116100Y1210450D03*
X2151100Y1227950D03*
X2116100Y1227950D03*
X2151100Y1108850D03*
X2116100Y1108850D03*
X2151100Y1126350D03*
X2116100Y1126350D03*
D11*
X36524Y601700D03*
X36524Y566700D03*
X312746Y804900D03*
X312746Y769900D03*
X714365Y804900D03*
X714365Y769900D03*
X1103324Y804900D03*
X1103324Y769900D03*
D12*
X38100Y683100D03*
X38100Y663100D03*
X1104900Y886300D03*
X1104900Y866300D03*
X709611Y886300D03*
X709611Y866300D03*
X314322Y886300D03*
X314322Y866300D03*
M02*
