G04 EAGLE Gerber RS-274X export*
G75*
%MOMM*%
%FSLAX34Y34*%
%LPD*%
%INBottom Solder Mask*%
%IPPOS*%
%AMOC8*
5,1,8,0,0,1.08239X$1,22.5*%
G01*
%ADD10C,2.222500*%
%ADD11C,7.493000*%
%ADD12C,1.327000*%
%ADD13C,1.557000*%
%ADD14C,1.549400*%
%ADD15C,1.577000*%
%ADD16C,7.747000*%
%ADD17C,0.731000*%


D10*
X2296478Y406400D02*
X2275523Y406400D01*
X2275523Y457200D02*
X2296478Y457200D01*
X2296478Y660400D02*
X2275523Y660400D01*
X2275523Y508000D02*
X2296478Y508000D01*
X2296478Y558800D02*
X2275523Y558800D01*
X2275523Y609600D02*
X2296478Y609600D01*
X304800Y1348423D02*
X304800Y1369378D01*
X254000Y1369378D02*
X254000Y1348423D01*
X203200Y1348423D02*
X203200Y1369378D01*
D11*
X2286000Y190500D03*
D12*
X323500Y609600D02*
X311500Y609600D01*
X311500Y584200D02*
X323500Y584200D01*
X323500Y558800D02*
X311500Y558800D01*
X311500Y533400D02*
X323500Y533400D01*
X323500Y508000D02*
X311500Y508000D01*
X311500Y635000D02*
X323500Y635000D01*
X323500Y279400D02*
X311500Y279400D01*
X311500Y304800D02*
X323500Y304800D01*
X323500Y254000D02*
X311500Y254000D01*
X311500Y228600D02*
X323500Y228600D01*
X323500Y203200D02*
X311500Y203200D01*
X311500Y177800D02*
X323500Y177800D01*
X323500Y152400D02*
X311500Y152400D01*
X1092550Y609600D02*
X1104550Y609600D01*
X1104550Y584200D02*
X1092550Y584200D01*
X1092550Y558800D02*
X1104550Y558800D01*
X1104550Y533400D02*
X1092550Y533400D01*
X1092550Y508000D02*
X1104550Y508000D01*
X1104550Y635000D02*
X1092550Y635000D01*
X1092550Y279400D02*
X1104550Y279400D01*
X1104550Y304800D02*
X1092550Y304800D01*
X1092550Y254000D02*
X1104550Y254000D01*
X1104550Y228600D02*
X1092550Y228600D01*
X1092550Y203200D02*
X1104550Y203200D01*
X1104550Y177800D02*
X1092550Y177800D01*
X1092550Y152400D02*
X1104550Y152400D01*
X714025Y609600D02*
X702025Y609600D01*
X702025Y584200D02*
X714025Y584200D01*
X714025Y558800D02*
X702025Y558800D01*
X702025Y533400D02*
X714025Y533400D01*
X714025Y508000D02*
X702025Y508000D01*
X702025Y635000D02*
X714025Y635000D01*
X714025Y279400D02*
X702025Y279400D01*
X702025Y304800D02*
X714025Y304800D01*
X714025Y254000D02*
X702025Y254000D01*
X702025Y228600D02*
X714025Y228600D01*
X714025Y203200D02*
X702025Y203200D01*
X702025Y177800D02*
X714025Y177800D01*
X714025Y152400D02*
X702025Y152400D01*
D10*
X512233Y1348423D02*
X512233Y1369378D01*
X461433Y1369378D02*
X461433Y1348423D01*
X410633Y1348423D02*
X410633Y1369378D01*
X927100Y1369378D02*
X927100Y1348423D01*
X876300Y1348423D02*
X876300Y1369378D01*
X825500Y1369378D02*
X825500Y1348423D01*
D13*
X858767Y995300D03*
X858767Y1112900D03*
X450290Y995300D03*
X450290Y1112900D03*
X246052Y995300D03*
X246052Y1112900D03*
X654529Y995300D03*
X654529Y1112900D03*
X1104900Y1227200D03*
X1104900Y1109600D03*
D10*
X2146300Y1348423D02*
X2146300Y1369378D01*
X2095500Y1369378D02*
X2095500Y1348423D01*
X1828800Y1348423D02*
X1828800Y1369378D01*
X1778000Y1369378D02*
X1778000Y1348423D01*
X1524000Y1348423D02*
X1524000Y1369378D01*
X1473200Y1369378D02*
X1473200Y1348423D01*
X1371600Y1348423D02*
X1371600Y1369378D01*
X1320800Y1369378D02*
X1320800Y1348423D01*
X1219200Y1348423D02*
X1219200Y1369378D01*
X1168400Y1369378D02*
X1168400Y1348423D01*
X1676400Y1348423D02*
X1676400Y1369378D01*
X1625600Y1369378D02*
X1625600Y1348423D01*
X1981200Y1348423D02*
X1981200Y1369378D01*
X1930400Y1369378D02*
X1930400Y1348423D01*
D12*
X1745900Y127000D02*
X1733900Y127000D01*
X1733900Y152400D02*
X1745900Y152400D01*
X1745900Y177800D02*
X1733900Y177800D01*
X1733900Y203200D02*
X1745900Y203200D01*
X1745900Y228600D02*
X1733900Y228600D01*
X1733900Y254000D02*
X1745900Y254000D01*
X1745900Y279400D02*
X1733900Y279400D01*
X1733900Y304800D02*
X1745900Y304800D01*
X1745900Y101600D02*
X1733900Y101600D01*
X1733900Y330200D02*
X1745900Y330200D01*
X1745900Y355600D02*
X1733900Y355600D01*
X1733900Y381000D02*
X1745900Y381000D01*
X1745900Y406400D02*
X1733900Y406400D01*
X1733900Y76200D02*
X1745900Y76200D01*
D14*
X1714500Y406400D03*
X1689100Y406400D03*
X1663700Y406400D03*
X1638300Y406400D03*
X1612900Y406400D03*
D12*
X1593500Y406400D02*
X1581500Y406400D01*
X1581500Y381000D02*
X1593500Y381000D01*
X1593500Y355600D02*
X1581500Y355600D01*
X1581500Y330200D02*
X1593500Y330200D01*
X1593500Y304800D02*
X1581500Y304800D01*
X1581500Y279400D02*
X1593500Y279400D01*
X1593500Y254000D02*
X1581500Y254000D01*
X1581500Y228600D02*
X1593500Y228600D01*
X1593500Y203200D02*
X1581500Y203200D01*
X1581500Y177800D02*
X1593500Y177800D01*
X1593500Y152400D02*
X1581500Y152400D01*
X1581500Y127000D02*
X1593500Y127000D01*
X1593500Y101600D02*
X1581500Y101600D01*
X1581500Y76200D02*
X1593500Y76200D01*
D15*
X841314Y1193800D03*
X892114Y1193800D03*
X637076Y1193800D03*
X687876Y1193800D03*
X228600Y1193800D03*
X279400Y1193800D03*
X432838Y1193800D03*
X483638Y1193800D03*
D10*
X719667Y1348423D02*
X719667Y1369378D01*
X668867Y1369378D02*
X668867Y1348423D01*
X618067Y1348423D02*
X618067Y1369378D01*
X23178Y444500D02*
X2223Y444500D01*
X2223Y393700D02*
X23178Y393700D01*
X23178Y292100D02*
X2223Y292100D01*
X2223Y342900D02*
X23178Y342900D01*
X2275523Y762000D02*
X2296478Y762000D01*
X2296478Y812800D02*
X2275523Y812800D01*
X2275523Y965200D02*
X2296478Y965200D01*
X2296478Y863600D02*
X2275523Y863600D01*
X2275523Y914400D02*
X2296478Y914400D01*
D16*
X0Y101600D03*
X2286000Y101600D03*
X0Y1371600D03*
X2286000Y1371600D03*
D17*
X2178050Y850900D03*
X1143000Y1177925D03*
X1822450Y1193800D03*
X1679575Y1162050D03*
X1812925Y320675D03*
X1692275Y1095375D03*
X1800225Y333375D03*
X1692275Y1079500D03*
X1673225Y1184275D03*
X1609725Y558800D03*
X1209675Y977900D03*
X1501775Y428625D03*
X1514475Y396875D03*
M02*
