M48
;GenerationSoftware,Autodesk,EAGLE,9.6.1*%
;CreationDate,2020-04-23T20:44:08Z*%
FMAT,2
ICI,OFF
METRIC,TZ,000.000
T7C0.350
T6C0.800
T5C0.830
T4C0.850
T3C1.397
T2C3.969
T1C6.350
%
G90
M71
T1
X228600Y19050
T2
X0Y10160
X0Y137160
X228600Y137160
X228600Y10160
T3
X228600Y60960
X116840Y135890
X121920Y135890
X132080Y135890
X137160Y135890
X147320Y135890
X152400Y135890
X177800Y135890
X182880Y135890
X209550Y135890
X214630Y135890
X228600Y96520
X228600Y86360
X228600Y40640
X228600Y45720
X228600Y66040
X228600Y50800
X228600Y55880
X228600Y91440
X30480Y135890
X25400Y135890
X20320Y135890
X46143Y135890
X41063Y135890
X92710Y135890
X87630Y135890
X82550Y135890
X193040Y135890
X51223Y135890
X167640Y135890
X162560Y135890
X198120Y135890
X71967Y135890
X66887Y135890
X61807Y135890
X1270Y44450
X1270Y39370
X1270Y29210
X1270Y34290
X228600Y76200
X228600Y81280
T4
X27940Y119380
X84131Y119380
X89211Y119380
X63708Y119380
X68788Y119380
X22860Y119380
X48364Y119380
X43284Y119380
T5
X110490Y110960
X110490Y122720
X24605Y111290
X24605Y99530
X65453Y111290
X45029Y111290
X45029Y99530
X85877Y111290
X65453Y99530
X85877Y99530
T6
X70803Y55880
X70803Y53340
X70803Y50800
X70803Y63500
X70803Y27940
X70803Y25400
X70803Y22860
X70803Y20320
X70803Y17780
X70803Y15240
X109855Y60960
X31750Y60960
X31750Y58420
X31750Y55880
X31750Y53340
X173990Y12700
X173990Y15240
X173990Y17780
X173990Y20320
X173990Y22860
X173990Y25400
X173990Y27940
X173990Y30480
X173990Y10160
X173990Y33020
X173990Y35560
X173990Y38100
X173990Y40640
X173990Y7620
X171450Y40640
X168910Y40640
X166370Y40640
X163830Y40640
X161290Y40640
X158750Y40640
X31750Y50800
X158750Y35560
X158750Y33020
X158750Y30480
X158750Y27940
X158750Y25400
X158750Y22860
X158750Y20320
X158750Y17780
X158750Y15240
X158750Y12700
X158750Y10160
X158750Y7620
X31750Y63500
X31750Y27940
X31750Y30480
X31750Y25400
X31750Y22860
X70803Y30480
X31750Y20320
X31750Y17780
X31750Y15240
X109855Y58420
X109855Y55880
X109855Y53340
X109855Y50800
X109855Y63500
X109855Y27940
X109855Y30480
X109855Y25400
X109855Y22860
X109855Y20320
X109855Y17780
X109855Y15240
X70803Y60960
X70803Y58420
X158750Y38100
T7
X181292Y32067
X167958Y116205
X182245Y119380
X114300Y117792
X217805Y85090
X151448Y39688
X150178Y42863
X120967Y97790
X160973Y55880
X167323Y118427
X169228Y107950
X180022Y33338
X169228Y109537
M30