M48
;GenerationSoftware,Autodesk,EAGLE,9.5.2*%
;CreationDate,2020-03-13T00:00:15Z*%
FMAT,2
ICI,OFF
METRIC,TZ,000.000
T4C0.394
T3C1.000
T2C1.200
T1C4.318
%
G90
M71
T1
X-35750Y0
X0Y-36000
X35750Y0
X0Y36000
T2
X20410Y20836
X17725Y23081
X15040Y25326
X-20348Y22172
X-22391Y19329
X-24433Y16487
T3
X-4140Y-31318
X12090Y-29185
X4140Y31318
X-12065Y29210
X-19228Y-25070
X25095Y-19253
T4
X-17250Y26000
X-10000Y28750
X-21250Y16500
X12500Y27500
M30