M48
;GenerationSoftware,Autodesk,EAGLE,9.6.1*%
;CreationDate,2020-04-23T21:29:33Z*%
FMAT,2
ICI,OFF
METRIC,TZ,000.000
T6C0.700
T5C0.830
T4C1.000
T3C1.016
T2C1.397
T1C3.969
%
G90
M71
T1
X73660Y72390
X73660Y6350
X7620Y6350
X7620Y72390
T2
X68580Y36830
X68580Y26670
X12700Y34290
X12700Y39370
X12700Y44450
X68580Y31750
X68580Y46990
X68580Y52070
T3
X38100Y73660
X22860Y73660
X25400Y73660
X27940Y73660
X12700Y73660
X15240Y73660
X17780Y73660
X62230Y73660
X64770Y73660
X67310Y73660
X48260Y73660
X53340Y73660
X55880Y73660
X58420Y73660
X43180Y73660
X45720Y73660
X33020Y73660
X35560Y73660
T4
X36500Y70688
X52705Y68580
X59868Y14300
X28550Y10185
X44780Y8052
X15545Y20117
T5
X46520Y48260
X34760Y48260
X34760Y30480
X46520Y30480
T6
X40640Y42165
X40640Y40895
X40640Y37845
X40640Y36575
M30